<svg width="930" height="197" viewBox="0 0 930 197" fill="none" xmlns="http://www.w3.org/2000/svg">
<path d="M3.08594 196.041C4.70268 165.314 7.75439 159.594 9.27084 138.547C9.74621 131.95 13.2149 125.589 17.9156 122.28C25.1066 117.219 34.8736 116.932 42.1629 112.084C45.4568 109.892 47.8602 105.807 48.5077 101.298C49.1687 96.6928 47.9847 91.7442 45.3857 88.3066C39.2354 75.8938 36.3462 61.1066 37.2712 46.6426" stroke="white" style="stroke:white;stroke-opacity:1;" stroke-miterlimit="10"/>
<path d="M24.3159 196.041C24.3159 182.289 25.5964 170.11 26.8623 158.17C27.1951 170.753 27.5283 183.337 27.8611 195.92" stroke="white" style="stroke:white;stroke-opacity:1;" stroke-miterlimit="10"/>
<path d="M104.358 196.041C104.358 181.658 102.974 167.42 101.673 155.521C101.317 168.988 100.96 182.455 100.604 195.921" stroke="white" style="stroke:white;stroke-opacity:1;" stroke-miterlimit="10"/>
<path d="M36.5948 54.4587C35.4777 53.7694 34.0996 53.7473 32.9682 54.4011C31.8368 55.0548 30.9775 56.3703 30.707 57.8616C30.3131 60.0334 31.1189 62.2329 31.9041 64.2406C32.6435 66.131 33.3828 68.0219 34.1222 69.9123C34.6003 71.1349 35.1483 72.4462 36.149 73.0338C37.1493 73.6214 38.6742 72.926 38.6623 71.5711" stroke="white" style="stroke:white;stroke-opacity:1;" stroke-miterlimit="10"/>
<path d="M122.679 196.041C121.062 165.314 117.801 159.594 116.285 138.547C115.81 131.95 112.341 125.589 107.64 122.28C100.449 117.219 90.6822 116.932 83.3928 112.084C80.099 109.892 77.6956 105.807 77.0481 101.298C76.3871 96.6928 77.5711 91.7442 80.1701 88.3066C86.3204 75.8938 89.2096 61.1066 88.2846 46.6426" stroke="white" style="stroke:white;stroke-opacity:1;" stroke-miterlimit="10"/>
<path d="M88.9616 54.4587C90.0788 53.7694 91.4569 53.7473 92.5883 54.4011C93.7196 55.0548 94.5789 56.3703 94.8495 57.8616C95.2434 60.0334 94.4375 62.2329 93.6524 64.2406C92.913 66.131 92.1736 68.0219 91.4342 69.9123C90.9561 71.1349 90.4081 72.4462 89.4074 73.0338C88.4071 73.6214 86.8822 72.926 86.8941 71.5711" stroke="white" style="stroke:white;stroke-opacity:1;" stroke-miterlimit="10"/>
<path d="M28.9651 60.0472C25.3257 52.8358 27.8075 41.9219 33.5836 37.7656C39.3597 33.6094 47.2006 36.1675 51.386 42.8481C55.5713 49.5283 56.1448 59.4487 53.4458 67.3411C51.6792 72.5067 48.2404 77.1498 43.9489 77.6826C39.6738 78.2132 35.4968 74.3007 33.8514 69.0897C32.2059 63.8782 32.8442 57.7404 34.8736 52.768C36.9025 47.7956 40.1918 43.8805 43.7848 40.7907C48.077 37.0993 53.4157 34.4072 58.292 36.5009C63.7168 38.83 66.9396 46.6746 67.042 54.1719C67.1443 61.6693 64.7231 68.8261 61.8779 75.3263C59.5018 80.7555 56.5772 86.1842 52.2398 88.78C47.902 91.3763 41.8653 89.9698 39.7778 84.3393C38.6144 81.2006 38.883 77.4017 39.9073 74.1803C40.9316 70.9585 42.6377 68.2042 44.36 65.5452C49.1084 58.2135 54.4618 50.9613 61.4104 47.9062C68.3591 44.8516 77.2532 47.4137 80.6565 55.9388C82.7168 61.0999 82.4223 67.4206 80.9915 72.937C77.7996 85.2416 68.9055 94.6415 59.074 96.101C54.5771 96.7688 49.3812 95.4138 46.9675 90.3838C45.1796 86.6578 45.3947 81.7277 46.7424 77.6943C48.0904 73.6609 50.4239 70.3534 52.7979 67.2437C57.7398 60.771 63.2201 54.6501 69.8011 51.6021C76.3822 48.5541 84.2908 49.096 89.64 54.984C94.9043 60.7782 96.7282 71.035 94.67 79.6432C92.6118 88.2513 87.0784 95.0416 80.6377 98.1717C75.256 100.787 68.5036 100.644 64.5539 95.1747C60.3715 89.3826 61.0065 79.6111 64.4691 73.0502C67.9318 66.4893 73.5211 62.488 79.049 59.1714C83.7524 56.3497 88.7122 53.8084 93.883 53.7758M84.6952 95.3297C80.357 96.2814 75.2719 96.6245 72.2328 92.4468C70.0743 89.4799 69.6211 84.873 70.4311 80.909C71.2411 76.9449 73.1376 73.5202 75.2038 70.4416M93.2614 89.7843C87.3011 85.6341 85.4526 74.92 87.5705 66.5056C89.688 58.0911 94.7974 51.6118 100.062 46.071M96.7637 78.9183C91.9856 78.3519 87.2167 75.1586 84.8389 69.6836C81.8095 62.7072 83.3071 53.4934 87.0659 47.1589C90.8247 40.8243 96.4249 36.8704 102.057 33.746M81.0425 73.3056C76.2335 72.9946 71.0059 71.3883 68.1243 66.3205C64.6897 60.2801 65.9855 51.2692 69.6036 45.4164C73.2216 39.5636 78.6108 36.1771 83.8764 33.1791C87.0905 31.349 90.399 29.5709 93.8922 29.2273M99.9895 57.8775C90.9216 70.4498 76.7406 76.2439 63.8454 72.6444C60.1225 71.6049 56.2743 69.5974 54.1606 65.4386C51.1244 59.465 52.8485 50.968 56.6081 45.7524C60.3678 40.5368 65.6614 37.8253 70.7716 35.2707C73.6999 33.8067 76.6947 32.3247 79.826 32.1825C82.9574 32.0403 86.3069 33.4789 88.1228 36.8337C89.754 39.8471 89.8831 43.9544 88.9854 47.4591C88.0873 50.9639 86.2801 53.9456 84.2825 56.5506C73.3653 70.7878 55.4497 74.7411 41.5916 65.9708C40.4144 59.126 42.5788 51.8529 46.1003 46.5772C49.6218 41.301 54.3561 37.708 59.115 34.5219C63.6783 31.4668 68.6494 28.6257 73.7383 29.3853C81.8584 30.5976 87.9239 41.5701 87.6323 52.3005C87.3408 63.0314 81.6766 72.701 74.4435 77.6978C68.3349 81.9178 60.0185 82.7533 55.1535 76.3219C50.2518 69.8411 51.0864 58.4842 55.2893 51.205C59.4922 43.9258 66.1489 39.9036 72.694 36.8169C76.5501 34.9985 80.5688 33.3861 84.6614 33.6384C88.754 33.8913 92.9773 36.3306 95.0347 40.9854C97.6071 46.8046 96.277 54.438 98.4668 60.5218M91.8156 44.0726C87.3036 47.428 83.2741 51.7841 78.9413 55.5259C73.6469 60.0981 67.8921 63.7497 61.875 66.3562C56.5851 68.6477 50.8826 70.1317 45.4561 68.4815C40.0297 66.8313 34.9792 61.4103 34.0473 54.1954C32.8312 44.7823 39.2398 35.7917 46.3965 34.1365C53.5532 32.4817 60.8373 36.5396 66.699 42.1824C72.5607 47.8257 77.4374 55.0452 83.0844 61.054M96.4274 34.529C78.303 41.3555 65.4613 62.0929 49.3365 74.9323C43.7864 79.3516 37.4823 82.9277 31.0149 82.2247C24.4372 81.5095 18.2718 76.0543 15.2937 68.3153C12.3156 60.5763 12.6273 50.8186 16.0882 43.4344C21.7624 31.3286 34.6141 27.5797 44.8985 32.0005C55.1828 36.4218 63.1503 47.2894 69.2088 59.0694C73.0445 66.5275 76.3901 74.6417 81.5918 80.4991M100.653 37.4766C92.2789 39.8119 84.2737 44.4086 77.2803 50.8971C69.9064 57.7389 63.6708 66.6274 55.9389 72.7494C48.2074 78.8714 38.0471 81.8261 30.2621 75.8229C22.3101 69.6907 19.4389 54.7709 23.702 44.0283C27.965 33.2857 38.3638 27.7912 47.2804 30.8775C53.8427 33.1485 59.3623 39.455 62.7518 47.1798C66.1413 54.9045 67.5324 63.9419 67.5921 72.858C61.5642 83.8509 49.0825 87.661 39.9833 81.2867C35.5879 78.2071 32.0513 73.0563 30.1857 66.9878C27.5502 58.4164 28.4187 48.1371 32.4206 40.5342C36.4225 32.9308 43.436 28.2353 50.4698 28.4504C53.8047 30.1857 55.55 35.3753 55.1966 40.0652C54.8427 44.7552 52.7958 48.9472 50.3959 52.4499C44.1595 61.5531 35.0816 67.1907 25.7694 67.7444C22.3405 67.9483 18.7685 67.4395 15.8117 65.1496C12.8554 62.8591 10.6597 58.4775 11.0436 53.9966C15.2611 38.3172 27.8175 27.2376 40.4596 28.041C42.151 37.8502 41.0427 48.4476 37.4013 57.2938C33.7599 66.1406 27.6162 73.1593 20.4428 76.6691C17.6017 74.3756 16.9229 69.0744 18.0257 64.9395C19.1281 60.8047 21.5761 57.5737 23.9643 54.516C28.2724 49.0002 32.784 43.4242 38.3834 40.5368C43.9828 37.6499 50.9858 38.0506 55.2943 43.5659C55.0169 49.0965 54.679 54.7255 53.1075 59.8687C51.5359 65.0119 48.5173 69.6831 44.4657 71.2262C40.414 72.7693 35.4091 70.3223 33.9424 65.1256C32.924 61.5174 33.7394 57.3336 35.4713 54.2295C37.2029 51.126 39.7369 48.9569 42.3544 47.2302C46.5327 44.4749 51.2811 42.656 55.8779 43.7754C60.4743 44.8949 64.7795 49.5543 65.3873 55.6442C65.4529 64.3941 62.5421 73.1098 57.5969 78.9713C52.6517 84.8327 45.7544 87.7421 39.1366 86.7582" stroke="white" style="stroke:white;stroke-opacity:1;" stroke-miterlimit="10"/>
<path d="M74.2651 65.469C70.058 66.983 65.3459 63.6557 63.4135 58.5171C61.481 53.3785 62.1043 46.9736 64.4048 42.1036C66.7053 37.2337 70.4879 33.7973 74.5617 31.7474M86.3352 63.9952C80.6394 64.7262 74.098 63.6633 70.6449 57.6668C68.047 53.1547 67.9192 46.7656 69.4799 41.4924C71.0406 36.2192 74.065 31.9131 77.3572 28.2656M77.7202 49.9798C73.1957 49.4256 68.2638 47.3615 66.0862 42.121C64.4089 38.085 64.8129 32.9689 66.3991 28.8702M63.3287 43.2354C58.0547 42.2958 52.2039 39.4044 50.3976 32.8266M55.1397 38.5275C50.2016 39.101 44.5367 38.2135 41.5423 33.0229M43.4677 39.8056C38.9507 39.8443 33.6784 38.0876 31.9648 32.5962M38.5517 41.2579C34.7917 42.9703 29.9521 43.2665 27.5017 39.1464C25.7677 36.2305 25.9034 31.9661 27.0969 28.6143M54.9931 29.903C52.8392 36.2366 48.5261 40.7797 44.286 44.9131C41.7675 47.3682 39.1428 49.8182 36.1109 50.8693C33.0789 51.9205 29.5148 51.2965 27.3722 48.2878C25.309 45.3907 25.0019 40.8934 25.8738 37.0945M46.9633 62.5744C51.0538 54.6035 55.4702 46.471 61.8357 41.731C68.2012 36.9905 77.0719 36.6627 82.1908 43.5315C85.9213 48.5371 86.8704 56.0661 86.8503 63.0715M56.1047 62.5806C59.6334 57.99 63.9553 53.6864 68.9209 53.6099C74.1172 53.5299 78.9011 58.435 80.9664 64.7007M63.0743 68.1321C65.8092 65.182 69.6537 63.5797 72.9617 65.2309M47.4329 74.1067C48.91 71.8509 51.3671 70.4567 53.4959 71.4722M37.0671 73.7448C38.474 71.9335 40.564 70.8064 42.4451 71.5736M36.4568 68.0607C38.4945 65.967 41.6242 65.2895 43.6197 67.452M64.8726 59.1467C68.0792 51.3113 75.6173 46.9527 82.1361 49.3578C83.9679 53.7756 83.9554 59.2185 82.8154 64.0217M58.1437 64.1558C63.5263 53.8419 73.4944 48.01 82.9298 49.6545C83.315 58.5339 80.4146 67.5606 75.3032 73.3915M50.0972 68.9742C49.71 64.1492 50.9415 59.3343 52.6057 55.0032M82.137 51.7849C80.3561 61.4381 74.2471 68.6745 67.8152 73.8947M72.1943 44.727C69.3466 54.8523 62.1874 62.6652 54.0895 64.4856C45.9917 66.306 37.2626 62.0647 32.0149 53.7588" stroke="white" style="stroke:white;stroke-opacity:1;" stroke-miterlimit="10"/>
<path d="M123 195.599C123 195.599 149.337 182.88 167.357 182.88C185.378 182.88 193.694 195.599 211.714 195.599C229.735 195.599 238.749 177.913 256.071 182.88C273.394 187.847 283.106 190.632 300.429 195.599C317.751 200.566 326.765 182.88 344.786 182.88" stroke="white" style="stroke:white;stroke-opacity:1;" stroke-linecap="round"/>
<path d="M822.48 29.045C822.068 31.5435 824.014 39.0429 819.418 35.7055C809.856 34.8727 816.201 46.8617 822.87 46.5463C820.066 65.5152 842.073 79.1273 851.756 58.129C857.875 47.8501 852.027 26.4778 862.49 15.8857C866.154 9.5991 855.989 10.3612 854.782 6.39719C855.704 3.58744 853.973 0.915144 850.668 1.00206C842.421 4.98827 823.266 -2.44645 819.917 8.11336C809.666 10.6159 813.275 26.9185 820.358 31.7699C820.467 29.514 826.587 29.3563 828.649 28.4426C850.721 18.6772 846.911 25.9381 850.078 27.4845C852.878 28.8509 856.187 25.926 856.51 29.0207C856.83 32.1155 856.106 35.2123 855.386 38.2424C863.99 29.6959 864.311 41.8162 855.386 46.5463" stroke="white" style="stroke:white;stroke-opacity:1;" stroke-width="1.2" stroke-linecap="round" stroke-linejoin="round"/>
<path d="M880.051 194.978L855.804 193.829C855.717 193.173 856.658 193.475 857.113 193.456C861.23 193.286 865.4 193.674 869.51 193.452C883.277 192.71 915.413 188.133 917.312 170.592C917.876 165.366 915.71 161.309 911.784 158.095C915.586 159.666 918.474 159.561 922.185 157.787C924.314 156.769 929.443 152.866 929.443 150.38V143.045C925.487 142.412 926.664 147.276 924.817 149.325C923.832 150.418 919.609 152.139 918.722 150.18C917.665 147.852 924.122 146.763 925.288 145.467C928.691 141.681 920.839 143.557 919.218 143.904C913.672 145.087 909.998 148.459 905.151 144.036C900.071 139.402 895.382 131.705 890.73 126.307C887.951 123.082 885.067 121.443 883.16 117.333C878.238 106.72 879.671 85.1481 870.627 77.9638C865.382 73.7933 850.942 76.1554 848.471 68.9221L847.185 65.0078C845.384 77.9073 863.75 74.0532 869.875 78.7172C878.802 85.5173 877.2 108.084 882.653 118.595C884.616 122.381 887.714 124.355 890.35 127.44C894.167 131.901 897.359 136.976 901.266 141.342C903.117 143.407 906.79 147.573 909.667 147.524L924.55 143.795C924.592 144.394 924.682 144.68 924.167 145.102C922.813 146.206 916.755 147.242 917.564 150.203C918.478 153.548 923.524 151.661 925.321 150.022C927.017 148.477 927.036 146.251 927.563 144.175C929.281 142.921 928.277 150.041 928.149 150.595C927.051 155.36 918.974 158.909 914.405 157.907C911.167 157.199 900.285 152.011 896.871 150.256C891.226 147.359 886.387 143.327 881.716 139.097C873.173 131.359 868.202 126.329 864.998 114.831C864.562 113.271 863.185 104.938 862.343 104.678C860.549 104.128 858.165 110.273 857.665 111.618C852.044 126.781 854.698 145.166 871.955 150.376C882.104 153.439 905.215 153.394 912.341 159.972C918.865 165.992 916.511 175.003 910.656 180.481C897.615 192.676 861.809 193.381 844.922 191.738C844.414 191.689 844.027 191.196 844.151 192.134C844.602 193.045 847.87 193.509 848.953 193.723C860.644 196.021 871.932 196.379 883.108 195.671L882.942 194.884C881.976 194.925 881.01 194.959 880.043 194.978H880.051ZM873.079 149.634C856.473 145.072 853.352 128.371 858.049 113.509C858.575 111.847 859.779 108.528 860.745 107.18C861.114 106.664 861.422 106.049 862.185 106.178C863.607 115.502 866.333 125.116 872.891 132.138C879.178 138.874 886.992 145.622 894.87 150.387L905.771 155.455C895.209 152.203 883.676 152.542 873.083 149.63L873.079 149.634Z" fill="white" style="fill:white;fill-opacity:1;"/>
<path d="M869.515 162.614C863.514 162.09 862.923 165.002 858.779 167.281C853.966 169.926 849.055 163.416 844.046 164.573C840.444 165.405 841.959 173.479 836.913 175.483C832.066 177.408 823.113 173.298 818.472 171.211C810.049 167.417 802.152 162.361 793.436 159.219C799.554 153.685 817.07 149.955 819.912 141.531C821.262 137.527 819.882 132.143 819.179 127.992C818.239 122.42 816.953 115.718 815.415 110.315C815.08 109.136 814.155 105.022 812.779 105.03C811.862 105.109 811.719 106.069 811.455 106.729C809.101 112.617 809.474 118.362 805.619 124.209C799.862 132.942 794.587 135.289 786.554 140.861C781.256 144.534 777.887 149.88 773.111 153.357C771.186 154.759 767.933 154.487 765.376 155.772C763.646 156.639 762.285 158.745 760.965 159.253C759.717 159.735 755.092 160.255 753.873 159.897C753.133 159.679 749.414 154.212 749.18 153.312C749.105 153.033 748.722 150.939 749.658 151.327C752.719 155.113 758.262 157.622 761.65 152.792C762.533 151.534 763.583 150.076 761.326 149.801C758.329 149.435 755.453 150.543 752.482 150.569C752.433 150.227 752.441 150.091 752.659 149.812C753.317 148.98 761.183 145.826 762.612 145.483C765.97 144.673 770.05 144.907 773.247 144.093C773.807 143.95 774.273 143.683 774.645 143.234C778.338 138.194 781.26 132.603 784.862 127.506C787.179 124.228 791.165 120.333 792.752 116.968C797.824 106.212 795.685 81.5401 808.368 76.5483C812.196 75.0414 815.065 75.5386 819.066 74.3331C822.297 73.3611 823.962 72.8111 825.339 71.3456C827.873 68.6444 828.102 64.6397 828.001 64.6095C827.922 64.5869 827.501 66.8813 826.677 68.5427C823.293 75.3767 813.234 72.1028 805.935 76.748C794.162 84.2412 797.339 106.066 791.511 117.232C790.164 119.813 787.656 121.824 785.983 124.111C781.655 130.03 778.218 136.566 773.927 142.511C769.956 144.067 765.594 143.555 761.496 144.734C759.773 145.231 753.554 147.729 752.287 148.678C751.158 149.526 751.016 150.645 751.978 151.711L761.496 150.569C760.446 154.258 757.276 155.211 753.843 153.531C752.538 152.89 750.354 150.181 749.662 150.178C748.413 150.17 747.834 152.231 748.041 153.293C748.229 154.25 752.275 160.251 753.091 160.677C755.084 161.717 757.874 160.591 759.991 160.349C758.931 162.99 756.491 166.159 756.637 169.135C756.942 175.457 768.245 182.98 773.45 185.436C776.27 186.766 784.757 190.609 786.483 186.683C788.499 177.815 788.799 168.453 792.165 159.939C794.007 159.551 814.885 170.725 818.472 172.33C824.489 175.023 837.68 181.145 841.339 172.382C842.144 170.453 842.012 166.264 844.422 165.692C849.521 164.486 853.252 171.384 859.445 167.937C863.442 165.714 864.367 163.201 869.891 163.733C871.173 163.857 878.04 165.725 876.844 167.485C872.866 168.886 869.82 167.899 866.319 170.683C861.63 174.409 860.144 176.941 854.18 179.974C829.133 192.711 792.902 191.686 761.954 188.669V189.501C791.217 192.097 838.282 195.088 861.938 176.459C865.1 173.968 866.857 170.269 871.109 169.463C873.227 169.063 875.558 169.485 877.604 168.065C880.484 165.292 871.192 162.753 869.515 162.606V162.614ZM767.512 156.032C768.249 155.746 770.231 154.638 770.513 155.832L763 158.842C763.891 157.588 766.064 156.597 767.512 156.028V156.032ZM789.04 166.302C787.637 172.394 787.344 179.921 785.746 185.579C785.095 187.881 783.84 187.636 781.689 187.343C775.258 186.469 760.537 177.525 758.307 171.256C757.235 168.246 758.875 163.137 761.116 160.918C762.022 160.022 764.978 159.464 766.512 158.797C768.136 158.089 771.788 155.365 772.656 155.166C777.451 154.077 786.69 157.347 791.165 159.438C790.251 161.653 789.578 163.97 789.04 166.306V166.302ZM774.269 153.952C778.53 149.635 782.508 144.937 787.521 141.456C790.717 139.237 794.365 137.677 797.365 135.135C803.311 130.098 807.932 123.388 810.151 115.959C810.959 113.246 811.437 109.015 812.505 106.653C812.738 106.141 812.542 106.062 813.343 106.175C814.159 110.319 815.351 114.38 816.242 118.513C817.386 123.806 820.085 135.236 819.269 140.134C818.578 144.274 812.046 148.226 808.575 150.117C803.262 153.014 797.204 154.597 792.402 158.405C786.498 156.409 780.591 154.178 774.273 153.952H774.269Z" fill="white" style="fill:white;fill-opacity:1;"/>
</svg>
