<svg width="930" height="197" viewBox="0 0 930 197" fill="none" xmlns="http://www.w3.org/2000/svg">
<g opacity="0.8">
<path d="M123 195.599C123 195.599 149.337 182.88 167.357 182.88C185.378 182.88 193.694 195.599 211.714 195.599C229.735 195.599 238.749 177.913 256.071 182.88C273.394 187.847 283.106 190.632 300.429 195.599C317.751 200.566 326.765 182.88 344.786 182.88C362.806 182.88 371.122 195.599 389.143 195.599C407.163 195.599 415.479 182.88 433.5 182.88C451.521 182.88 459.837 195.599 477.857 195.599C495.878 195.599 504.194 182.88 522.214 182.88C540.235 182.88 548.551 195.599 566.571 195.599C584.592 195.599 592.908 182.88 610.929 182.88C628.949 182.88 637.265 195.599 655.286 195.599" stroke="white" style="stroke:white;stroke-opacity:1;" stroke-width="0.95" stroke-linecap="round"/>
<path d="M70.458 65.1838C70.9302 61.1661 70.1994 56.5569 65.9253 54.1207C61.2074 51.4315 54.0465 52.7414 49.7744 55.8231M71.5104 55.6872C71.5423 52.0121 70.0957 47.7224 65.5739 46.3282C62.7022 45.4428 59.3235 46.0468 56.7179 47.3149C54.1124 48.5833 52.1256 50.4377 50.1858 52.2598C48.343 53.9908 46.4641 55.7705 45.5343 57.875C44.6045 59.9795 44.8051 62.5106 46.7978 64.1451C50.1195 66.8699 56.2045 65.7619 60.3015 63.7196C66.0268 60.8649 70.4567 56.5685 72.7063 51.6875C74.1163 48.6282 74.3602 44.6907 70.9676 42.6969C68.5665 41.2861 65.0551 41.3966 62.295 42.3676C59.535 43.3386 57.3556 45.0258 55.2424 46.6766C52.4509 48.8573 49.609 51.093 47.9161 53.8393C46.2231 56.5855 45.8617 59.986 48.0093 62.546C51.0568 66.179 58.141 66.8166 63.3562 65.0645C68.5715 63.3121 72.3125 59.8028 75.7161 56.353C77.7377 54.3039 79.7551 52.1684 80.6207 49.7015C81.4863 47.2347 80.9725 44.3348 78.495 42.5916C76.1094 40.9129 72.4062 40.6631 69.278 41.3724C66.1503 42.0818 63.4755 43.6037 60.9438 45.157C56.4841 47.893 52.1558 50.8887 49.3219 54.656M78.754 54.19C71.209 55.8343 64.5312 59.6315 60.3716 64.6427M83 46.369C67.7643 45.0754 51.8993 51.6579 45.2287 62.0399" stroke="white" style="stroke:white;stroke-opacity:1;" stroke-miterlimit="10"/>
<path d="M3.08594 196.041C4.70268 165.314 7.75439 159.594 9.27084 138.547C9.74621 131.95 13.2149 125.589 17.9156 122.28C25.1066 117.219 34.8736 116.932 42.1629 112.084C45.4568 109.892 47.8602 105.807 48.5077 101.298C49.1687 96.6928 47.9847 91.7442 45.3857 88.3066C39.2354 75.8938 36.3462 61.1066 37.2712 46.6426" stroke="white" style="stroke:white;stroke-opacity:1;" stroke-miterlimit="10"/>
<path d="M24.3159 196.041C24.3159 182.289 25.5964 170.11 26.8623 158.17C27.1951 170.753 27.5283 183.337 27.8611 195.92" stroke="white" style="stroke:white;stroke-opacity:1;" stroke-miterlimit="10"/>
<path d="M104.358 196.041C104.358 181.658 102.974 167.42 101.673 155.521C101.317 168.988 100.96 182.455 100.604 195.921" stroke="white" style="stroke:white;stroke-opacity:1;" stroke-miterlimit="10"/>
<path d="M36.5948 54.4587C35.4777 53.7694 34.0996 53.7473 32.9682 54.4011C31.8368 55.0548 30.9775 56.3703 30.707 57.8616C30.3131 60.0334 31.1189 62.2329 31.9041 64.2406C32.6435 66.131 33.3828 68.0219 34.1222 69.9123C34.6003 71.1349 35.1483 72.4462 36.149 73.0338C37.1493 73.6214 38.6742 72.926 38.6623 71.5711" stroke="white" style="stroke:white;stroke-opacity:1;" stroke-miterlimit="10"/>
<path d="M122.679 196.041C121.062 165.314 117.801 159.594 116.285 138.547C115.81 131.95 112.341 125.589 107.64 122.28C100.449 117.219 90.6822 116.932 83.3928 112.084C80.099 109.892 77.6956 105.807 77.0481 101.298C76.3871 96.6928 77.5711 91.7442 80.1701 88.3066C86.3204 75.8938 89.2096 61.1066 88.2846 46.6426" stroke="white" style="stroke:white;stroke-opacity:1;" stroke-miterlimit="10"/>
<path d="M88.9616 54.4587C90.0788 53.7694 91.4569 53.7473 92.5883 54.4011C93.7196 55.0548 94.5789 56.3703 94.8495 57.8616C95.2434 60.0334 94.4375 62.2329 93.6524 64.2406C92.913 66.131 92.1736 68.0219 91.4342 69.9123C90.9561 71.1349 90.4081 72.4462 89.4074 73.0338C88.4071 73.6214 86.8822 72.926 86.8941 71.5711" stroke="white" style="stroke:white;stroke-opacity:1;" stroke-miterlimit="10"/>
<path d="M822.48 29.045C822.068 31.5435 824.014 39.0429 819.418 35.7055C809.856 34.8727 816.201 46.8617 822.87 46.5463C820.066 65.5152 842.073 79.1273 851.756 58.129C857.875 47.8501 852.027 26.4778 862.49 15.8857C866.154 9.5991 855.989 10.3612 854.782 6.39719C855.704 3.58744 853.973 0.915144 850.668 1.00206C842.421 4.98827 823.266 -2.44645 819.917 8.11336C809.666 10.6159 813.275 26.9185 820.358 31.7699C820.467 29.514 826.587 29.3563 828.649 28.4426C850.721 18.6772 846.911 25.9381 850.078 27.4845C852.878 28.8509 856.187 25.926 856.51 29.0207C856.83 32.1155 856.106 35.2123 855.386 38.2424C863.99 29.6959 864.311 41.8162 855.386 46.5463" stroke="white" style="stroke:white;stroke-opacity:1;" stroke-width="1.2" stroke-linecap="round" stroke-linejoin="round"/>
<path d="M880.051 194.978L855.804 193.829C855.717 193.173 856.658 193.475 857.113 193.456C861.23 193.286 865.4 193.674 869.51 193.452C883.277 192.71 915.413 188.133 917.312 170.592C917.876 165.366 915.71 161.309 911.784 158.095C915.586 159.666 918.474 159.561 922.185 157.787C924.314 156.769 929.443 152.866 929.443 150.38V143.045C925.487 142.412 926.664 147.276 924.817 149.325C923.832 150.418 919.609 152.139 918.722 150.18C917.665 147.852 924.122 146.763 925.288 145.467C928.691 141.681 920.839 143.557 919.218 143.904C913.672 145.087 909.998 148.459 905.151 144.036C900.071 139.402 895.382 131.705 890.73 126.307C887.951 123.082 885.067 121.443 883.16 117.333C878.238 106.72 879.671 85.1481 870.627 77.9638C865.382 73.7933 850.942 76.1554 848.471 68.9221L847.185 65.0078C845.384 77.9073 863.75 74.0532 869.875 78.7172C878.802 85.5173 877.2 108.084 882.653 118.595C884.616 122.381 887.714 124.355 890.35 127.44C894.167 131.901 897.359 136.976 901.266 141.342C903.117 143.407 906.79 147.573 909.667 147.524L924.55 143.795C924.592 144.394 924.682 144.68 924.167 145.102C922.813 146.206 916.755 147.242 917.564 150.203C918.478 153.548 923.524 151.661 925.321 150.022C927.017 148.477 927.036 146.251 927.563 144.175C929.281 142.921 928.277 150.041 928.149 150.595C927.051 155.36 918.974 158.909 914.405 157.907C911.167 157.199 900.285 152.011 896.871 150.256C891.226 147.359 886.387 143.327 881.716 139.097C873.173 131.359 868.202 126.329 864.998 114.831C864.562 113.271 863.185 104.938 862.343 104.678C860.549 104.128 858.165 110.273 857.665 111.618C852.044 126.781 854.698 145.166 871.955 150.376C882.104 153.439 905.215 153.394 912.341 159.972C918.865 165.992 916.511 175.003 910.656 180.481C897.615 192.676 861.809 193.381 844.922 191.738C844.414 191.689 844.027 191.196 844.151 192.134C844.602 193.045 847.87 193.509 848.953 193.723C860.644 196.021 871.932 196.379 883.108 195.671L882.942 194.884C881.976 194.925 881.01 194.959 880.043 194.978H880.051ZM873.079 149.634C856.473 145.072 853.352 128.371 858.049 113.509C858.575 111.847 859.779 108.528 860.745 107.18C861.114 106.664 861.422 106.049 862.185 106.178C863.607 115.502 866.333 125.116 872.891 132.138C879.178 138.874 886.992 145.622 894.87 150.387L905.771 155.455C895.209 152.203 883.676 152.542 873.083 149.63L873.079 149.634Z" fill="white" style="fill:white;fill-opacity:1;"/>
<path d="M869.515 162.614C863.514 162.09 862.923 165.002 858.779 167.281C853.966 169.926 849.055 163.416 844.046 164.573C840.444 165.405 841.959 173.479 836.913 175.483C832.066 177.408 823.113 173.298 818.472 171.211C810.049 167.417 802.152 162.361 793.436 159.219C799.554 153.685 817.07 149.955 819.912 141.531C821.262 137.527 819.882 132.143 819.179 127.992C818.239 122.42 816.953 115.718 815.415 110.315C815.08 109.136 814.155 105.022 812.779 105.03C811.862 105.109 811.719 106.069 811.455 106.729C809.101 112.617 809.474 118.362 805.619 124.209C799.862 132.942 794.587 135.289 786.554 140.861C781.256 144.534 777.887 149.88 773.111 153.357C771.186 154.759 767.933 154.487 765.376 155.772C763.646 156.639 762.285 158.745 760.965 159.253C759.717 159.735 755.092 160.255 753.873 159.897C753.133 159.679 749.414 154.212 749.18 153.312C749.105 153.033 748.722 150.939 749.658 151.327C752.719 155.113 758.262 157.622 761.65 152.792C762.533 151.534 763.583 150.076 761.326 149.801C758.329 149.435 755.453 150.543 752.482 150.569C752.433 150.227 752.441 150.091 752.659 149.812C753.317 148.98 761.183 145.826 762.612 145.483C765.97 144.673 770.05 144.907 773.247 144.093C773.807 143.95 774.273 143.683 774.645 143.234C778.338 138.194 781.26 132.603 784.862 127.506C787.179 124.228 791.165 120.333 792.752 116.968C797.824 106.212 795.685 81.5401 808.368 76.5483C812.196 75.0414 815.065 75.5386 819.066 74.3331C822.297 73.3611 823.962 72.8111 825.339 71.3456C827.873 68.6444 828.102 64.6397 828.001 64.6095C827.922 64.5869 827.501 66.8813 826.677 68.5427C823.293 75.3767 813.234 72.1028 805.935 76.748C794.162 84.2412 797.339 106.066 791.511 117.232C790.164 119.813 787.656 121.824 785.983 124.111C781.655 130.03 778.218 136.566 773.927 142.511C769.956 144.067 765.594 143.555 761.496 144.734C759.773 145.231 753.554 147.729 752.287 148.678C751.158 149.526 751.016 150.645 751.978 151.711L761.496 150.569C760.446 154.258 757.276 155.211 753.843 153.531C752.538 152.89 750.354 150.181 749.662 150.178C748.413 150.17 747.834 152.231 748.041 153.293C748.229 154.25 752.275 160.251 753.091 160.677C755.084 161.717 757.874 160.591 759.991 160.349C758.931 162.99 756.491 166.159 756.637 169.135C756.942 175.457 768.245 182.98 773.45 185.436C776.27 186.766 784.757 190.609 786.483 186.683C788.499 177.815 788.799 168.453 792.165 159.939C794.007 159.551 814.885 170.725 818.472 172.33C824.489 175.023 837.68 181.145 841.339 172.382C842.144 170.453 842.012 166.264 844.422 165.692C849.521 164.486 853.252 171.384 859.445 167.937C863.442 165.714 864.367 163.201 869.891 163.733C871.173 163.857 878.04 165.725 876.844 167.485C872.866 168.886 869.82 167.899 866.319 170.683C861.63 174.409 860.144 176.941 854.18 179.974C829.133 192.711 792.902 191.686 761.954 188.669V189.501C791.217 192.097 838.282 195.088 861.938 176.459C865.1 173.968 866.857 170.269 871.109 169.463C873.227 169.063 875.558 169.485 877.604 168.065C880.484 165.292 871.192 162.753 869.515 162.606V162.614ZM767.512 156.032C768.249 155.746 770.231 154.638 770.513 155.832L763 158.842C763.891 157.588 766.064 156.597 767.512 156.028V156.032ZM789.04 166.302C787.637 172.394 787.344 179.921 785.746 185.579C785.095 187.881 783.84 187.636 781.689 187.343C775.258 186.469 760.537 177.525 758.307 171.256C757.235 168.246 758.875 163.137 761.116 160.918C762.022 160.022 764.978 159.464 766.512 158.797C768.136 158.089 771.788 155.365 772.656 155.166C777.451 154.077 786.69 157.347 791.165 159.438C790.251 161.653 789.578 163.97 789.04 166.306V166.302ZM774.269 153.952C778.53 149.635 782.508 144.937 787.521 141.456C790.717 139.237 794.365 137.677 797.365 135.135C803.311 130.098 807.932 123.388 810.151 115.959C810.959 113.246 811.437 109.015 812.505 106.653C812.738 106.141 812.542 106.062 813.343 106.175C814.159 110.319 815.351 114.38 816.242 118.513C817.386 123.806 820.085 135.236 819.269 140.134C818.578 144.274 812.046 148.226 808.575 150.117C803.262 153.014 797.204 154.597 792.402 158.405C786.498 156.409 780.591 154.178 774.273 153.952H774.269Z" fill="white" style="fill:white;fill-opacity:1;"/>
</g>
</svg>
