<svg width="931" height="197" viewBox="0 0 931 197" fill="none" xmlns="http://www.w3.org/2000/svg">
<path d="M4.08594 196.041C5.70268 165.314 8.75439 159.594 10.2708 138.547C10.7462 131.95 14.2149 125.589 18.9156 122.28C26.1066 117.219 35.8736 116.932 43.1629 112.084C46.4568 109.892 48.8602 105.807 49.5077 101.298C50.1687 96.6928 48.9847 91.7442 46.3857 88.3066C40.2354 75.8938 37.3462 61.1066 38.2712 46.6426" stroke="white" style="stroke:white;stroke-opacity:1;" stroke-miterlimit="10"/>
<path d="M25.3159 196.041C25.3159 182.289 26.5964 170.11 27.8623 158.17C28.1951 170.753 28.5283 183.337 28.8611 195.92" stroke="white" style="stroke:white;stroke-opacity:1;" stroke-miterlimit="10"/>
<path d="M105.358 196.041C105.358 181.658 103.974 167.42 102.673 155.521C102.317 168.988 101.96 182.455 101.604 195.921" stroke="white" style="stroke:white;stroke-opacity:1;" stroke-miterlimit="10"/>
<path d="M37.5948 54.4587C36.4777 53.7694 35.0996 53.7473 33.9682 54.4011C32.8368 55.0548 31.9775 56.3703 31.707 57.8616C31.3131 60.0334 32.1189 62.2329 32.9041 64.2406C33.6435 66.131 34.3828 68.0219 35.1222 69.9123C35.6003 71.1349 36.1483 72.4462 37.149 73.0338C38.1493 73.6214 39.6742 72.926 39.6623 71.5711" stroke="white" style="stroke:white;stroke-opacity:1;" stroke-miterlimit="10"/>
<path d="M123.679 196.041C122.062 165.314 118.801 159.594 117.285 138.547C116.81 131.95 113.341 125.589 108.64 122.28C101.449 117.219 91.6822 116.932 84.3928 112.084C81.099 109.892 78.6956 105.807 78.0481 101.298C77.3871 96.6928 78.5711 91.7442 81.1701 88.3066C87.3204 75.8938 90.2096 61.1066 89.2846 46.6426" stroke="white" style="stroke:white;stroke-opacity:1;" stroke-miterlimit="10"/>
<path d="M89.9616 54.4587C91.0788 53.7694 92.4569 53.7473 93.5883 54.4011C94.7196 55.0548 95.5789 56.3703 95.8495 57.8616C96.2434 60.0334 95.4375 62.2329 94.6524 64.2406C93.913 66.131 93.1736 68.0219 92.4342 69.9123C91.9561 71.1349 91.4081 72.4462 90.4074 73.0338C89.4071 73.6214 87.8822 72.926 87.8941 71.5711" stroke="white" style="stroke:white;stroke-opacity:1;" stroke-miterlimit="10"/>
<path d="M18.9651 61.719C15.3257 54.5077 17.8075 43.5937 23.5836 39.4375C29.3597 35.2812 37.2006 37.8393 41.386 44.52C45.5713 51.2002 46.1448 61.1206 43.4458 69.013C41.6792 74.1786 38.2404 78.8217 33.9489 79.3544C29.6738 79.8851 25.4968 75.9725 23.8514 70.7615C22.2059 65.55 22.8442 59.4123 24.8736 54.4399C26.9025 49.4675 30.1918 45.5523 33.7848 42.4625C38.077 38.7712 43.4157 36.0791 48.292 38.1727C53.7168 40.5019 56.9396 48.3464 57.042 55.8438C57.1443 63.3412 54.7231 70.498 51.8779 76.9982C49.5018 82.4274 46.5772 87.8561 42.2398 90.4519C37.902 93.0482 31.8653 91.6417 29.7778 86.0112C28.6144 82.8724 28.883 79.0735 29.9073 75.8522C30.9316 72.6304 32.6377 69.876 34.36 67.217C39.1084 59.8853 44.4618 52.6332 51.4104 49.5781C58.3591 46.5235 67.2532 49.0856 70.6565 57.6107C72.7168 62.7717 72.4223 69.0925 70.9915 74.6089C67.7996 86.9135 58.9055 96.3133 49.074 97.7728C44.5771 98.4407 39.3812 97.0857 36.9675 92.0556C35.1796 88.3296 35.3947 83.3995 36.7424 79.3661C38.0904 75.3328 40.4239 72.0253 42.7979 68.9156C47.7398 62.4429 53.2201 56.322 59.8011 53.274C66.3822 50.226 74.2908 50.7679 79.64 56.6559C84.9043 62.4501 86.7282 72.7069 84.67 81.315C82.6118 89.9232 77.0784 96.7135 70.6377 99.8436C65.256 102.459 58.5036 102.316 54.5539 96.8466C50.3715 91.0544 51.0065 81.2829 54.4691 74.722C57.9318 68.1611 63.5211 64.1599 69.049 60.8432C73.7524 58.0216 78.7122 55.4803 83.883 55.4477C89.0533 55.4151 94.5157 58.3698 97.0484 64.2919C100.268 71.8209 97.7047 81.8569 92.78 87.5767C87.8552 93.2965 81.1785 95.5787 74.6952 97.0015C70.357 97.9533 65.2719 98.2964 62.2328 94.1187C60.0743 91.1518 59.6211 86.5449 60.4311 82.5808C61.2411 78.6168 63.1376 75.1921 65.2038 72.1135C72.4119 61.3749 82.2195 53.6956 92.8376 50.4763C95.7668 49.5883 98.8121 49.0306 101.777 49.6841C104.742 50.3371 107.639 52.338 109.259 55.6664C112.391 62.1049 109.846 70.6397 106.666 77.0385C104.074 82.2556 100.977 87.2397 96.8638 90.3407C92.7507 93.4417 87.4517 94.3741 83.2614 91.4561C77.3011 87.306 75.4526 76.5919 77.5705 68.1775C79.688 59.763 84.7974 53.2837 90.0622 47.7429C92.9604 44.6923 96.0283 41.7677 99.5515 40.2266C103.075 38.6856 107.158 38.6968 110.301 41.2951C115.288 45.4183 116.344 55.0195 113.824 62.0178C111.304 69.0155 106.101 73.7116 100.713 76.8458C96.3258 79.3978 91.5418 81.1565 86.7637 80.5901C81.9856 80.0238 77.2167 76.8305 74.8389 71.3554C71.8095 64.3791 73.3071 55.1653 77.0659 48.8307C80.8247 42.4962 86.4249 38.5423 92.0569 35.4179C97.0463 32.6498 103.264 30.5872 107.498 35.0248C110.873 38.5622 111.568 45.2714 110.048 50.5803C108.527 55.8887 105.228 59.9822 101.703 63.2565C92.8502 71.4814 81.872 75.6779 71.0425 74.9774C66.2335 74.6665 61.0059 73.0602 58.1243 67.9924C54.6897 61.952 55.9855 52.9411 59.6036 47.0883C63.2216 41.2355 68.6108 37.849 73.8764 34.851C77.0905 33.0209 80.399 31.2428 83.8922 30.8992C87.3853 30.5556 91.1475 31.8672 93.44 35.347C95.6866 38.7564 96.1653 43.7579 95.2914 48.1191C94.4175 52.4798 92.3501 56.2761 89.9895 59.5494C80.9216 72.1216 66.7406 77.9158 53.8454 74.3162C50.1225 73.2768 46.2743 71.2693 44.1606 67.1105C41.1244 61.1369 42.8485 52.6398 46.6081 47.4242C50.3678 42.2087 55.6614 39.4971 60.7716 36.9426C63.6999 35.4785 66.6947 33.9966 69.826 33.8544C72.9574 33.7121 76.3069 35.1507 78.1228 38.5056C79.754 41.5189 79.8831 45.6262 78.9854 49.131C78.0873 52.6357 76.2801 55.6175 74.2825 58.2224C63.3653 72.4596 45.4497 76.413 31.5916 67.6427C30.4145 60.7979 32.5788 53.5248 36.1003 48.2491C39.6218 42.9728 44.3561 39.3799 49.115 36.1938C53.6783 33.1386 58.6494 30.2976 63.7383 31.0572C71.8583 32.2695 77.9239 43.242 77.6323 53.9724C77.3408 64.7033 71.6766 74.3728 64.4435 79.3697C58.3349 83.5897 50.0185 84.4252 45.1535 77.9938C40.2518 71.513 41.0864 60.156 45.2893 52.8769C49.4922 45.5977 56.1489 41.5755 62.694 38.4888C66.5501 36.6704 70.5688 35.058 74.6614 35.3103C78.754 35.5632 82.9773 38.0025 85.0347 42.6573C87.6071 48.4764 86.277 56.1099 88.4668 62.1936C90.693 68.3788 96.751 71.6363 101.639 69.276C106.526 66.9157 109.537 59.2787 108.184 52.6714C106.837 46.0932 101.796 41.6046 96.6449 40.8241C91.4946 40.0436 86.3276 42.3891 81.8156 45.7445C77.3036 49.0999 73.2741 53.456 68.9413 57.1978C63.6469 61.77 57.8921 65.4216 51.875 68.0281C46.5851 70.3196 40.8826 71.8035 35.4561 70.1534C30.0297 68.5032 24.9792 63.0822 24.0473 55.8673C22.8312 46.4541 29.2398 37.4636 36.3965 35.8084C43.5532 34.1536 50.8373 38.2115 56.699 43.8542C62.5607 49.4975 67.4374 56.7171 73.0844 62.7259C78.7314 68.7352 85.5589 73.6505 92.8226 73.3732C98.9391 73.1397 105.043 68.7887 107.922 61.6951C110.802 54.601 109.935 44.9538 105.412 39.5389C100.478 33.6321 92.8439 33.784 86.4274 36.2009C68.303 43.0274 55.4613 63.7648 39.3365 76.6041C33.7864 81.0234 27.4823 84.5996 21.0149 83.8966C14.4372 83.1814 8.27177 77.7262 5.29371 69.9872C2.31565 62.2482 2.62728 52.4905 6.08825 45.1063C11.7624 33.0005 24.6141 29.2515 34.8985 33.6724C45.1828 38.0937 53.1503 48.9612 59.2088 60.7413C63.0445 68.1994 66.3901 76.3136 71.5918 82.171C78.0367 89.4287 87.1058 92.4701 95.4101 90.1582C103.714 87.8464 111.065 80.2338 114.716 70.1656C117.241 63.2025 117.929 54.5668 114.892 47.9661C112.575 42.9295 108.368 39.7311 103.984 38.527C99.6 37.3229 95.0345 37.9265 90.6533 39.1484C82.2789 41.4838 74.2737 46.0805 67.2803 52.569C59.9064 59.4107 53.6708 68.2993 45.9389 74.4213C38.2074 80.5432 28.0471 83.4979 20.2621 77.4947C12.3101 71.3626 9.43893 56.4428 13.702 45.7002C17.965 34.9575 28.3638 29.4631 37.2804 32.5493C43.8427 34.8204 49.3623 41.1269 52.7518 48.8516C56.1413 56.5764 57.5324 65.6138 57.5921 74.5299C51.5642 85.5228 39.0825 89.3329 29.9833 82.9586C25.5879 79.879 22.0513 74.7282 20.1857 68.6597C17.5502 60.0882 18.4187 49.809 22.4206 42.2061C26.4225 34.6027 33.436 29.9071 40.4698 30.1223C43.8047 31.8576 45.55 37.0471 45.1966 41.7371C44.8427 46.4271 42.7958 50.6191 40.3959 54.1218C34.1595 63.2249 25.0816 68.8626 15.7694 69.4162C12.3405 69.6201 8.76846 69.1114 5.81171 66.8214C2.85537 64.531 0.659729 60.1494 1.04363 55.6684C5.26113 39.9891 17.8175 28.9095 30.4596 29.7129C32.151 39.5221 31.0427 50.1195 27.4013 58.9657C23.7599 67.8125 17.6162 74.8311 10.4428 78.341C7.60172 76.0475 6.92289 70.7463 8.02572 66.6114C9.12813 62.4766 11.5761 59.2456 13.9643 56.1879C18.2724 50.6721 22.784 45.0961 28.3834 42.2087C33.9828 39.3218 40.9858 39.7225 45.2943 45.2378C45.0169 50.7684 44.679 56.3974 43.1075 61.5406C41.5359 66.6838 38.5173 71.3549 34.4657 72.898C30.414 74.4411 25.4091 71.9942 23.9424 66.7975C22.924 63.1892 23.7394 59.0055 25.4713 55.9014C27.2029 52.7979 29.7369 50.6287 32.3544 48.9021C36.5327 46.1467 41.2811 44.3278 45.8779 45.4473C50.4743 46.5668 54.7795 51.2262 55.3873 57.316C55.4529 66.0659 52.5421 74.7817 47.5969 80.6432C42.6517 86.5046 35.7544 89.414 29.1366 88.4301" stroke="white" style="stroke:white;stroke-opacity:1;" stroke-miterlimit="10"/>
<path d="M64.2649 67.1402C60.0579 68.6542 55.3458 65.3269 53.4134 60.1883M96.8841 54.4252C98.1595 63.2709 95.6535 73.0169 90.2914 78.6225C85.9017 83.211 78.9623 84.513 74.8789 79.4601C70.889 74.5228 71.321 65.6093 74.3396 59.599M107.87 60.2571C105.818 65.4548 102.173 69.2119 98.515 72.5566C96.237 74.639 93.8334 76.671 91.1105 77.3781C88.3877 78.0852 85.253 77.1874 83.5695 74.2888C82.1007 71.7593 82.0159 68.1791 82.8435 65.1892C83.671 62.1994 85.2889 59.705 87.0159 57.4752M116.848 67.863C112.125 72.1814 106.066 72.9017 100.315 73.1015C97.7626 73.1902 95.1547 73.1928 92.7322 72.135C90.3097 71.0767 88.0673 68.7694 87.3196 65.5624C86.1336 60.4758 88.9533 55.3198 91.9728 51.7753M122.682 55.2877C121.291 58.3332 119.12 60.6353 116.826 62.5149C109.206 68.7572 99.6855 70.8605 90.9305 68.2367C85.5697 66.6299 80.0304 62.5929 78.4359 55.6782M76.3351 65.6664C70.6392 66.3974 64.0979 65.3345 60.6448 59.3379M26.1108 52.5405C23.0788 53.5917 19.5147 52.9677 17.3721 49.959M50.8317 83.6234C49.1094 86.6668 47.1184 89.5609 44.574 91.3512C42.0295 93.1411 38.8388 93.6794 36.2547 91.9905C32.6609 89.6419 31.1963 83.6158 31.8258 78.4073C32.455 73.1989 34.7195 68.618 36.9632 64.2456M76.8502 64.7427C76.823 74.2679 75.2586 84.0292 71.1443 91.8717C67.03 99.7142 60.0876 105.339 52.8436 104.976C45.5995 104.613 38.5485 97.3396 37.6692 87.8847C36.8362 78.9319 41.2266 70.5975 46.1046 64.2517C49.6332 59.6611 53.9552 55.3576 58.9208 55.2811C64.1171 55.2011 68.901 60.1062 70.9663 66.3719C73.0316 72.6376 72.6749 79.9433 70.9308 86.3752C69.1868 92.8072 66.159 98.4963 62.9294 103.845C59.6694 109.246 55.2121 114.89 50.0242 113.869C45.0891 112.897 41.9172 105.856 41.931 99.2992C41.9447 92.7429 44.3355 86.6429 46.7721 80.9211C48.4999 76.8637 50.3396 72.7539 53.0741 69.8033C55.8091 66.8532 59.6535 65.2509 62.9616 66.9021C66.4468 68.6415 68.5355 73.6373 68.7594 78.5272C68.9833 83.417 67.657 88.2033 66.0165 92.6022C63.2862 99.9237 59.3937 106.902 53.816 110.474C48.2384 114.046 40.7391 113.292 36.723 107.077C32.7348 100.906 33.2261 91.7244 34.717 83.8691C35.2651 80.9817 35.9556 78.0337 37.4327 75.7779C38.9099 73.5221 41.367 72.1279 43.4958 73.1433C45.4466 74.0737 46.646 76.7878 46.9163 79.4911C47.1865 82.195 46.694 84.9203 46.1802 87.562C45.1655 92.7786 43.9624 98.1787 41.1707 102.12C38.3785 106.061 33.5181 108.003 30.0847 105.063C26.6254 102.101 26.036 95.4203 27.6576 90.4311C29.2793 85.4418 32.5406 81.7536 35.6945 78.2519C36.3834 82.9699 35.89 87.9724 34.3085 92.3035C33.4266 94.7188 32.1676 96.9833 30.4131 98.3475C28.6585 99.7122 26.351 100.035 24.5839 98.6987C22.5504 97.1607 21.6568 93.7931 21.8101 90.717C21.9634 87.641 22.9723 84.7659 23.9648 81.9723C24.7978 79.6273 25.66 77.2272 27.067 75.416C28.4739 73.6047 30.5639 72.4776 32.4449 73.2448C34.6301 74.1364 35.8838 77.3292 35.928 80.3348C35.9723 83.3405 35.0713 86.2142 34.1857 88.9863C33.2942 91.7764 32.3777 94.6205 30.8584 96.8941C29.3386 99.1677 27.0824 100.812 24.7957 100.451C21.4225 99.9186 19.1871 95.1725 19.117 90.7094C19.0468 86.2468 20.5782 82.0426 22.0746 78.0357C23.2142 74.9847 24.4189 71.8256 26.4566 69.7319C28.4944 67.6382 31.6241 66.9607 33.6196 69.1232C35.7409 71.4213 35.7108 75.6586 35.2718 79.2245C34.6305 84.4284 33.5077 89.5298 31.9357 94.3803C31.2786 96.4078 30.5041 98.4591 29.2075 99.8564C27.9108 101.254 25.9612 101.828 24.5346 100.668C22.9652 99.392 22.5784 96.4745 23.1607 94.1739C23.7434 91.8732 25.0626 90.0457 26.3434 88.3002C29.3821 84.1592 32.4997 79.9398 36.4097 77.3526C40.3197 74.7655 45.2411 74.0742 48.9849 77.0559C54.2192 81.2254 55.2481 91.2967 52.5612 98.5228C49.8743 105.749 44.4616 110.539 38.9416 114.016C40.1773 101.511 45.8995 89.9004 54.078 83.3033C58.4129 79.8067 63.6747 77.6651 68.6157 79.2515C71.9087 85.1492 72.8432 93.1961 71.039 100.116C69.2348 107.036 64.7408 112.639 59.387 114.645C58.8878 107.512 59.4856 99.991 62.3409 93.8904C65.1961 87.7894 70.6664 83.4741 76.0481 84.6109C78.6778 85.166 81.213 87.0854 82.5402 90.1191C83.8674 93.1528 83.765 97.3141 81.9813 99.912C80.1971 102.51 76.7357 102.928 74.8513 100.455C72.413 97.2555 73.54 91.8722 74.8647 87.6915C75.8004 84.7378 76.8001 81.7112 78.547 79.4825C80.2944 77.2537 82.9918 76.0007 85.2246 77.2767C87.5159 78.5858 88.6463 82.1731 88.5306 85.4525C88.4149 88.732 87.3104 91.7927 86.2268 94.7505C81.6713 95.9902 77.1163 97.2295 72.5608 98.4693C68.7243 92.0144 68.6466 82.1665 72.3804 75.6087C76.1141 69.0508 83.326 66.3673 89.1225 69.3796C86.538 77.5473 82.7086 85.659 76.6259 89.4492C70.5081 93.2614 62.6241 91.6499 57.8013 85.4056C52.9789 79.1613 51.6659 68.6532 54.8725 60.8178C58.0791 52.9825 65.6172 48.6239 72.136 51.029C73.9678 55.4468 73.9553 60.8897 72.8152 65.6929C71.6757 70.4961 69.5063 74.7594 67.1645 78.7402C64.9396 82.5223 62.4478 86.2075 59.2061 88.3782C55.9649 90.5488 51.8126 90.9306 48.809 88.2329C46.1957 85.8858 44.8706 81.5512 44.9491 77.3934C45.0277 73.2356 46.3536 69.2573 48.1436 65.827C53.5261 55.5131 63.4942 49.6812 72.9297 51.3257C73.3149 60.2051 70.4145 69.2318 65.303 75.0627C60.1916 80.8936 52.9822 83.3991 46.3452 81.6516C42.8082 80.2574 40.4843 75.4705 40.0971 70.6454C39.7098 65.8203 40.9413 61.0054 42.6056 56.6743M72.1368 53.4561C70.356 63.1093 64.247 70.3457 57.8151 75.5658C54.0993 78.5817 50.0894 81.1806 45.7708 82.0375C41.4522 82.8944 36.7631 81.8239 33.399 78.1637C30.2497 69.5677 29.6064 59.4363 31.6274 50.2735M44.0894 66.1568C35.9915 67.9772 27.2625 63.7358 22.0148 55.43" stroke="white" style="stroke:white;stroke-opacity:1;" stroke-miterlimit="10"/>
<path d="M124 195.6C124 195.6 150.337 182.881 168.357 182.881C186.378 182.881 194.694 195.6 212.714 195.6" stroke="white" style="stroke:white;stroke-opacity:1;" stroke-width="0.95" stroke-linecap="round"/>
<path d="M823.48 29.045C823.068 31.5435 825.014 39.0429 820.418 35.7055C810.856 34.8727 817.201 46.8617 823.87 46.5463C821.066 65.5152 843.073 79.1273 852.756 58.129C858.875 47.8501 853.027 26.4778 863.49 15.8857C867.154 9.5991 856.989 10.3612 855.782 6.39719C856.704 3.58744 854.973 0.915144 851.668 1.00206C843.421 4.98827 824.266 -2.44645 820.917 8.11336C810.666 10.6159 814.275 26.9185 821.358 31.7699C821.467 29.514 827.587 29.3563 829.649 28.4426C851.721 18.6772 847.911 25.9381 851.078 27.4845C853.878 28.8509 857.187 25.926 857.51 29.0207C857.83 32.1155 857.106 35.2123 856.386 38.2424C864.99 29.6959 865.311 41.8162 856.386 46.5463" stroke="white" style="stroke:white;stroke-opacity:1;" stroke-width="1.2" stroke-linecap="round" stroke-linejoin="round"/>
<path d="M881.051 194.978L856.804 193.829C856.717 193.173 857.658 193.475 858.113 193.456C862.23 193.286 866.4 193.674 870.51 193.452C884.277 192.71 916.413 188.133 918.312 170.592C918.876 165.366 916.71 161.309 912.784 158.095C916.586 159.666 919.474 159.561 923.185 157.787C925.314 156.769 930.443 152.866 930.443 150.38V143.045C926.487 142.412 927.664 147.276 925.817 149.325C924.832 150.418 920.609 152.139 919.722 150.18C918.665 147.852 925.122 146.763 926.288 145.467C929.691 141.681 921.839 143.557 920.218 143.904C914.672 145.087 910.998 148.459 906.151 144.036C901.071 139.402 896.382 131.705 891.73 126.307C888.951 123.082 886.067 121.443 884.16 117.333C879.238 106.72 880.671 85.1481 871.627 77.9638C866.382 73.7933 851.942 76.1554 849.471 68.9221L848.185 65.0078C846.384 77.9073 864.75 74.0532 870.875 78.7172C879.802 85.5173 878.2 108.084 883.653 118.595C885.616 122.381 888.714 124.355 891.35 127.44C895.167 131.901 898.359 136.976 902.266 141.342C904.117 143.407 907.79 147.573 910.667 147.524L925.55 143.795C925.592 144.394 925.682 144.68 925.167 145.102C923.813 146.206 917.755 147.242 918.564 150.203C919.478 153.548 924.524 151.661 926.321 150.022C928.017 148.477 928.036 146.251 928.563 144.175C930.281 142.921 929.277 150.041 929.149 150.595C928.051 155.36 919.974 158.909 915.405 157.907C912.167 157.199 901.285 152.011 897.871 150.256C892.226 147.359 887.387 143.327 882.716 139.097C874.173 131.359 869.202 126.329 865.998 114.831C865.562 113.271 864.185 104.938 863.343 104.678C861.549 104.128 859.165 110.273 858.665 111.618C853.044 126.781 855.698 145.166 872.955 150.376C883.104 153.439 906.215 153.394 913.341 159.972C919.865 165.992 917.511 175.003 911.656 180.481C898.615 192.676 862.809 193.381 845.922 191.738C845.414 191.689 845.027 191.196 845.151 192.134C845.602 193.045 848.87 193.509 849.953 193.723C861.644 196.021 872.932 196.379 884.108 195.671L883.942 194.884C882.976 194.925 882.01 194.959 881.043 194.978H881.051ZM874.079 149.634C857.473 145.072 854.352 128.371 859.049 113.509C859.575 111.847 860.779 108.528 861.745 107.18C862.114 106.664 862.422 106.049 863.185 106.178C864.607 115.502 867.333 125.116 873.891 132.138C880.178 138.874 887.992 145.622 895.87 150.387L906.771 155.455C896.209 152.203 884.676 152.542 874.083 149.63L874.079 149.634Z" fill="white" style="fill:white;fill-opacity:1;"/>
<path d="M870.515 162.614C864.514 162.09 863.923 165.002 859.779 167.281C854.966 169.926 850.055 163.416 845.046 164.573C841.444 165.405 842.959 173.479 837.913 175.483C833.066 177.408 824.113 173.298 819.472 171.211C811.049 167.417 803.152 162.361 794.436 159.219C800.554 153.685 818.07 149.955 820.912 141.531C822.262 137.527 820.882 132.143 820.179 127.992C819.239 122.42 817.953 115.718 816.415 110.315C816.08 109.136 815.155 105.022 813.779 105.03C812.862 105.109 812.719 106.069 812.455 106.729C810.101 112.617 810.474 118.362 806.619 124.209C800.862 132.942 795.587 135.289 787.554 140.861C782.256 144.534 778.887 149.88 774.111 153.357C772.186 154.759 768.933 154.487 766.376 155.772C764.646 156.639 763.285 158.745 761.965 159.253C760.717 159.735 756.092 160.255 754.873 159.897C754.133 159.679 750.414 154.212 750.18 153.312C750.105 153.033 749.722 150.939 750.658 151.327C753.719 155.113 759.262 157.622 762.65 152.792C763.533 151.534 764.583 150.076 762.326 149.801C759.329 149.435 756.453 150.543 753.482 150.569C753.433 150.227 753.441 150.091 753.659 149.812C754.317 148.98 762.183 145.826 763.612 145.483C766.97 144.673 771.05 144.907 774.247 144.093C774.807 143.95 775.273 143.683 775.645 143.234C779.338 138.194 782.26 132.603 785.862 127.506C788.179 124.228 792.165 120.333 793.752 116.968C798.824 106.212 796.685 81.5401 809.368 76.5483C813.196 75.0414 816.065 75.5386 820.066 74.3331C823.297 73.3611 824.962 72.8111 826.339 71.3456C828.873 68.6444 829.102 64.6397 829.001 64.6095C828.922 64.5869 828.501 66.8813 827.677 68.5427C824.293 75.3767 814.234 72.1028 806.935 76.748C795.162 84.2412 798.339 106.066 792.511 117.232C791.164 119.813 788.656 121.824 786.983 124.111C782.655 130.03 779.218 136.566 774.927 142.511C770.956 144.067 766.594 143.555 762.496 144.734C760.773 145.231 754.554 147.729 753.287 148.678C752.158 149.526 752.016 150.645 752.978 151.711L762.496 150.569C761.446 154.258 758.276 155.211 754.843 153.531C753.538 152.89 751.354 150.181 750.662 150.178C749.413 150.17 748.834 152.231 749.041 153.293C749.229 154.25 753.275 160.251 754.091 160.677C756.084 161.717 758.874 160.591 760.991 160.349C759.931 162.99 757.491 166.159 757.637 169.135C757.942 175.457 769.245 182.98 774.45 185.436C777.27 186.766 785.757 190.609 787.483 186.683C789.499 177.815 789.799 168.453 793.165 159.939C795.007 159.551 815.885 170.725 819.472 172.33C825.489 175.023 838.68 181.145 842.339 172.382C843.144 170.453 843.012 166.264 845.422 165.692C850.521 164.486 854.252 171.384 860.445 167.937C864.442 165.714 865.367 163.201 870.891 163.733C872.173 163.857 879.04 165.725 877.844 167.485C873.866 168.886 870.82 167.899 867.319 170.683C862.63 174.409 861.144 176.941 855.18 179.974C830.133 192.711 793.902 191.686 762.954 188.669V189.501C792.217 192.097 839.282 195.088 862.938 176.459C866.1 173.968 867.857 170.269 872.109 169.463C874.227 169.063 876.558 169.485 878.604 168.065C881.484 165.292 872.192 162.753 870.515 162.606V162.614ZM768.512 156.032C769.249 155.746 771.231 154.638 771.513 155.832L764 158.842C764.891 157.588 767.064 156.597 768.512 156.028V156.032ZM790.04 166.302C788.637 172.394 788.344 179.921 786.746 185.579C786.095 187.881 784.84 187.636 782.689 187.343C776.258 186.469 761.537 177.525 759.307 171.256C758.235 168.246 759.875 163.137 762.116 160.918C763.022 160.022 765.978 159.464 767.512 158.797C769.136 158.089 772.788 155.365 773.656 155.166C778.451 154.077 787.69 157.347 792.165 159.438C791.251 161.653 790.578 163.97 790.04 166.306V166.302ZM775.269 153.952C779.53 149.635 783.508 144.937 788.521 141.456C791.717 139.237 795.365 137.677 798.365 135.135C804.311 130.098 808.932 123.388 811.151 115.959C811.959 113.246 812.437 109.015 813.505 106.653C813.738 106.141 813.542 106.062 814.343 106.175C815.159 110.319 816.351 114.38 817.242 118.513C818.386 123.806 821.085 135.236 820.269 140.134C819.578 144.274 813.046 148.226 809.575 150.117C804.262 153.014 798.204 154.597 793.402 158.405C787.498 156.409 781.591 154.178 775.273 153.952H775.269Z" fill="white" style="fill:white;fill-opacity:1;"/>
</svg>
