<svg width="930" height="196" viewBox="0 0 930 196" fill="none" xmlns="http://www.w3.org/2000/svg">
<g opacity="0.8">
<path d="M3.08594 195.041C4.70268 164.314 7.75439 158.594 9.27084 137.547C9.74621 130.95 13.2149 124.589 17.9156 121.28C25.1066 116.219 34.8736 115.932 42.1629 111.084C45.4568 108.892 47.8602 104.807 48.5077 100.298C49.1687 95.6928 47.9847 90.7442 45.3857 87.3066C39.2354 74.8938 36.3462 60.1066 37.2712 45.6426" stroke="white" style="stroke:white;stroke-opacity:1;" stroke-miterlimit="10"/>
<path d="M24.3164 195.041C24.3164 181.289 25.5969 169.11 26.8628 157.17C27.1956 169.753 27.5288 182.337 27.8616 194.92" stroke="white" style="stroke:white;stroke-opacity:1;" stroke-miterlimit="10"/>
<path d="M104.357 195.041C104.357 180.658 102.973 166.42 101.672 154.521C101.316 167.988 100.96 181.455 100.604 194.921" stroke="white" style="stroke:white;stroke-opacity:1;" stroke-miterlimit="10"/>
<path d="M36.5946 53.4597C35.4774 52.7703 34.0993 52.7483 32.9679 53.402C31.8366 54.0558 30.9773 55.3712 30.7067 56.8626C30.3128 59.0344 31.1187 61.2339 31.9038 63.2416C32.6432 65.132 33.3826 67.0229 34.122 68.9133C34.6001 70.1359 35.1481 71.4472 36.1488 72.0348C37.1491 72.6224 38.674 71.9269 38.6621 70.5721" stroke="white" style="stroke:white;stroke-opacity:1;" stroke-miterlimit="10"/>
<path d="M122.678 195.041C121.061 164.314 117.801 158.594 116.284 137.547C115.809 130.95 112.34 124.589 107.639 121.28C100.448 116.219 90.6815 115.932 83.3921 111.084C80.0983 108.892 77.6949 104.807 77.0473 100.298C76.3864 95.6928 77.5704 90.7442 80.1694 87.3066C86.3197 74.8938 89.2088 60.1066 88.2838 45.6426" stroke="white" style="stroke:white;stroke-opacity:1;" stroke-miterlimit="10"/>
<path d="M88.9621 53.4597C90.0793 52.7703 91.4574 52.7483 92.5887 53.402C93.7201 54.0558 94.5794 55.3712 94.85 56.8626C95.2439 59.0344 94.438 61.2339 93.6529 63.2416C92.9135 65.132 92.1741 67.0229 91.4347 68.9133C90.9566 70.1359 90.4086 71.4472 89.4079 72.0348C88.4076 72.6224 86.8827 71.9269 86.8946 70.5721" stroke="white" style="stroke:white;stroke-opacity:1;" stroke-miterlimit="10"/>
<path d="M123 194.599C123 194.599 149.337 181.88 167.357 181.88C185.378 181.88 193.694 194.599 211.714 194.599C229.735 194.599 238.749 176.913 256.071 181.88C273.394 186.847 283.106 189.632 300.429 194.599C317.751 199.566 326.765 181.88 344.786 181.88C362.806 181.88 371.122 194.599 389.143 194.599C407.163 194.599 415.479 181.88 433.5 181.88C451.521 181.88 459.837 194.599 477.857 194.599C495.878 194.599 504.194 181.88 522.214 181.88C540.235 181.88 548.551 194.599 566.571 194.599C584.592 194.599 592.908 181.88 610.929 181.88" stroke="white" style="stroke:white;stroke-opacity:1;" stroke-width="0.95" stroke-linecap="round"/>
<path d="M64.9166 51.7237C65.4901 46.7856 64.6026 41.1207 59.412 38.1263C53.6826 34.8212 44.9862 36.4311 39.7982 40.2188M66.1947 40.0517C66.2334 35.5347 64.4767 30.2624 58.9853 28.5488C55.4979 27.4606 51.3947 28.2029 48.2305 29.7615C45.0662 31.3205 42.6535 33.5997 40.2978 35.8392C38.0598 37.9667 35.778 40.154 34.6489 42.7407C33.5197 45.3273 33.7634 48.4382 36.1833 50.4471C40.2172 53.7961 47.607 52.4343 52.5825 49.9241C59.5354 46.4155 64.9151 41.1349 67.647 35.1357C69.3594 31.3756 69.6556 26.5361 65.5355 24.0857C62.6196 22.3516 58.3552 22.4874 55.0034 23.6809C51.6516 24.8744 49.0048 26.948 46.4386 28.977C43.0485 31.6572 39.5973 34.4051 37.5414 37.7804C35.4854 41.1557 35.0465 45.3352 37.6545 48.4816C41.3555 52.9469 49.9586 53.7305 56.2922 51.5771C62.6257 49.4232 67.1689 45.1101 71.3022 40.87C73.7573 38.3515 76.2073 35.7268 77.2585 32.6949C78.3096 29.6629 77.6857 26.0988 74.6769 23.9562C71.7798 21.893 67.2825 21.5859 63.4836 22.4577C59.6853 23.3296 56.4369 25.2002 53.3624 27.1093C47.9465 30.4721 42.6902 34.154 39.2486 38.7842M100.496 44.0168C98.2401 45.494 96.8458 47.9511 97.8613 50.0799M100.134 33.6511C98.3226 35.058 97.1955 37.148 97.9627 39.029M94.4498 33.0408C92.3562 35.0785 91.6787 38.2082 93.8411 40.2037M95.3633 46.6812C90.5383 46.2939 85.7234 47.5254 81.3923 49.1897M74.9915 38.2115C65.8286 40.2325 57.719 44.8995 52.6676 51.0587M90.8747 50.6735C92.6952 42.5756 88.4538 33.8466 80.1479 28.5989C61.6454 27.009 42.3787 35.0994 34.2777 47.8596" stroke="white" style="stroke:white;stroke-opacity:1;" stroke-miterlimit="10"/>
<path d="M74.0659 59.343C67.9781 56.423 59.5483 58.0267 54.2073 61.6974M69.6578 51.7949C63.5629 51.0784 57.7631 53.9425 53.1878 57.0897M69.9198 48.3013C63.7836 47.4617 57.421 49.1192 52.2758 51.7995C47.1311 54.4801 42.9993 58.1178 38.9297 61.7128M75.5743 43.4785C67.0921 48.5064 60.3828 55.2512 56.326 62.8294" stroke="white" style="stroke:white;stroke-opacity:1;" stroke-miterlimit="10"/>
</g>
</svg>
