<svg width="930" height="196" viewBox="0 0 930 196" fill="none" xmlns="http://www.w3.org/2000/svg">
<g opacity="0.8">
<path d="M3.08594 195.041C4.70268 164.314 7.75439 158.594 9.27084 137.547C9.74621 130.95 13.2149 124.589 17.9156 121.28C25.1066 116.219 34.8736 115.932 42.1629 111.084C45.4568 108.892 47.8602 104.807 48.5077 100.298C49.1687 95.6928 47.9847 90.7442 45.3857 87.3066C39.2354 74.8938 36.3462 60.1066 37.2712 45.6426" stroke="white" style="stroke:white;stroke-opacity:1;" stroke-miterlimit="10"/>
<path d="M24.3164 195.041C24.3164 181.289 25.5969 169.11 26.8628 157.17C27.1956 169.753 27.5288 182.337 27.8616 194.92" stroke="white" style="stroke:white;stroke-opacity:1;" stroke-miterlimit="10"/>
<path d="M104.357 195.041C104.357 180.658 102.973 166.42 101.672 154.521C101.316 167.988 100.96 181.455 100.604 194.921" stroke="white" style="stroke:white;stroke-opacity:1;" stroke-miterlimit="10"/>
<path d="M36.5946 53.4597C35.4774 52.7703 34.0993 52.7483 32.9679 53.402C31.8366 54.0558 30.9773 55.3712 30.7067 56.8626C30.3128 59.0344 31.1187 61.2339 31.9038 63.2416C32.6432 65.132 33.3826 67.0229 34.122 68.9133C34.6001 70.1359 35.1481 71.4472 36.1488 72.0348C37.1491 72.6224 38.674 71.9269 38.6621 70.5721" stroke="white" style="stroke:white;stroke-opacity:1;" stroke-miterlimit="10"/>
<path d="M122.678 195.041C121.061 164.314 117.801 158.594 116.284 137.547C115.809 130.95 112.34 124.589 107.639 121.28C100.448 116.219 90.6815 115.932 83.3921 111.084C80.0983 108.892 77.6949 104.807 77.0473 100.298C76.3864 95.6928 77.5704 90.7442 80.1694 87.3066C86.3197 74.8938 89.2088 60.1066 88.2838 45.6426" stroke="white" style="stroke:white;stroke-opacity:1;" stroke-miterlimit="10"/>
<path d="M88.9621 53.4597C90.0793 52.7703 91.4574 52.7483 92.5887 53.402C93.7201 54.0558 94.5794 55.3712 94.85 56.8626C95.2439 59.0344 94.438 61.2339 93.6529 63.2416C92.9135 65.132 92.1741 67.0229 91.4347 68.9133C90.9566 70.1359 90.4086 71.4472 89.4079 72.0348C88.4076 72.6224 86.8827 71.9269 86.8946 70.5721" stroke="white" style="stroke:white;stroke-opacity:1;" stroke-miterlimit="10"/>
<path d="M123 194.599C123 194.599 149.337 181.88 167.357 181.88C185.378 181.88 193.694 194.599 211.714 194.599C229.735 194.599 238.749 176.913 256.071 181.88C273.394 186.847 283.106 189.632 300.429 194.599C317.751 199.566 326.765 181.88 344.786 181.88C362.806 181.88 371.122 194.599 389.143 194.599C407.163 194.599 415.479 181.88 433.5 181.88C451.521 181.88 459.837 194.599 477.857 194.599C495.878 194.599 504.194 181.88 522.214 181.88C540.235 181.88 548.551 194.599 566.571 194.599C584.592 194.599 592.908 181.88 610.929 181.88C628.949 181.88 637.265 194.599 655.286 194.599C673.306 194.599 681.622 181.88 699.643 181.88" stroke="white" style="stroke:white;stroke-opacity:1;" stroke-width="0.95" stroke-linecap="round"/>
<path d="M60.7625 48.6875C62.1725 45.6282 62.4164 41.6907 59.0238 39.6969C56.6227 38.2861 53.1113 38.3966 50.3513 39.3676M63.7723 53.353C65.7939 51.3039 67.8114 49.1684 68.6769 46.7015C69.5425 44.2347 69.0287 41.3348 66.5512 39.5916C64.1656 37.9129 60.4624 37.6631 57.3342 38.3724C54.2065 39.0818 51.5317 40.6037 49 42.157" stroke="white" style="stroke:white;stroke-opacity:1;" stroke-miterlimit="10"/>
</g>
</svg>
