<svg width="930" height="197" viewBox="0 0 930 197" fill="none" xmlns="http://www.w3.org/2000/svg">
<path d="M822.48 29.045C822.068 31.5435 824.015 39.0429 819.418 35.7055C809.857 34.8727 816.202 46.8617 822.87 46.5463C820.067 65.5152 842.074 79.1273 851.756 58.129C857.875 47.8501 852.027 26.4778 862.49 15.8857C866.155 9.5991 855.989 10.3612 854.782 6.39719C855.704 3.58744 853.974 0.915144 850.669 1.00206C842.422 4.98827 823.267 -2.44645 819.917 8.11336C809.667 10.6159 813.275 26.9185 820.358 31.7699C820.467 29.514 826.588 29.3563 828.65 28.4426C850.721 18.6772 846.911 25.9381 850.079 27.4845C852.878 28.8509 856.187 25.926 856.511 29.0207C856.83 32.1155 856.106 35.2123 855.387 38.2424C863.99 29.6959 864.311 41.8162 855.387 46.5463" stroke="white" style="stroke:white;stroke-opacity:1;" stroke-width="1.2" stroke-linecap="round" stroke-linejoin="round"/>
<path d="M880.05 194.98L855.804 193.831C855.717 193.175 856.657 193.477 857.112 193.458C861.23 193.288 865.4 193.676 869.51 193.454C883.277 192.712 915.412 188.135 917.311 170.594C917.876 165.368 915.71 161.311 911.784 158.097C915.585 159.668 918.473 159.563 922.185 157.789C924.313 156.771 929.442 152.868 929.442 150.382V143.047C925.486 142.414 926.663 147.278 924.817 149.327C923.832 150.42 919.609 152.141 918.722 150.182C917.665 147.854 924.121 146.765 925.287 145.469C928.69 141.683 920.839 143.559 919.218 143.906C913.671 145.089 909.998 148.461 905.151 144.038C900.07 139.404 895.381 131.707 890.73 126.308C887.951 123.084 885.067 121.445 883.16 117.335C878.238 106.722 879.67 85.1501 870.627 77.9657C865.381 73.7952 850.941 76.1574 848.471 68.9241L847.185 65.0098C845.384 77.9092 863.749 74.0552 869.875 78.7192C878.802 85.5193 877.2 108.086 882.652 118.597C884.615 122.383 887.714 124.357 890.35 127.442C894.167 131.903 897.359 136.978 901.266 141.344C903.116 143.409 906.79 147.575 909.667 147.526L924.55 143.797C924.591 144.396 924.682 144.682 924.167 145.104C922.813 146.208 916.755 147.244 917.563 150.205C918.477 153.55 923.524 151.663 925.321 150.024C927.017 148.479 927.036 146.253 927.562 144.177C929.281 142.923 928.277 150.043 928.149 150.597C927.051 155.362 918.974 158.911 914.405 157.909C911.167 157.201 900.285 152.013 896.87 150.258C891.226 147.36 886.386 143.329 881.716 139.099C873.173 131.36 868.201 126.331 864.998 114.833C864.561 113.273 863.185 104.94 862.343 104.68C860.549 104.13 858.165 110.275 857.665 111.62C852.043 126.783 854.698 145.168 871.954 150.378C882.103 153.441 905.214 153.396 912.34 159.974C918.864 165.994 916.511 175.005 910.656 180.483C897.615 192.678 861.809 193.383 844.921 191.74C844.414 191.691 844.026 191.197 844.15 192.136C844.602 193.047 847.869 193.511 848.952 193.725C860.643 196.023 871.932 196.381 883.107 195.673L882.942 194.886C881.976 194.927 881.009 194.961 880.043 194.98H880.05ZM873.079 149.636C856.473 145.074 853.352 128.373 858.049 113.511C858.575 111.849 859.778 108.53 860.745 107.182C861.113 106.665 861.422 106.051 862.185 106.179C863.606 115.504 866.333 125.118 872.891 132.14C879.178 138.876 886.992 145.624 894.87 150.389L905.771 155.457C895.208 152.205 883.675 152.544 873.082 149.632L873.079 149.636Z" fill="white" style="fill:white;fill-opacity:1;"/>
<path d="M869.515 162.615C863.514 162.091 862.923 165.003 858.779 167.282C853.966 169.927 849.055 163.417 844.046 164.574C840.444 165.406 841.959 173.48 836.913 175.484C832.066 177.409 823.113 173.299 818.472 171.212C810.049 167.418 802.152 162.362 793.436 159.22C799.554 153.686 817.07 149.956 819.912 141.532C821.262 137.528 819.882 132.144 819.179 127.993C818.239 122.421 816.953 115.719 815.415 110.316C815.08 109.137 814.155 105.023 812.779 105.031C811.862 105.11 811.719 106.07 811.455 106.73C809.101 112.618 809.474 118.363 805.619 124.21C799.862 132.943 794.587 135.29 786.554 140.862C781.256 144.535 777.887 149.881 773.111 153.358C771.186 154.76 767.933 154.488 765.376 155.773C763.646 156.64 762.285 158.746 760.965 159.254C759.717 159.736 755.092 160.256 753.873 159.898C753.133 159.68 749.414 154.213 749.18 153.313C749.105 153.034 748.722 150.94 749.658 151.328C752.719 155.114 758.262 157.623 761.65 152.793C762.533 151.535 763.583 150.077 761.326 149.802C758.329 149.436 755.453 150.544 752.482 150.57C752.433 150.228 752.441 150.092 752.659 149.813C753.317 148.981 761.183 145.827 762.612 145.484C765.97 144.674 770.05 144.908 773.247 144.094C773.807 143.951 774.273 143.684 774.645 143.235C778.338 138.195 781.26 132.604 784.862 127.507C787.179 124.229 791.165 120.334 792.752 116.969C797.824 106.213 795.685 81.541 808.368 76.5493C812.196 75.0423 815.065 75.5396 819.066 74.3341C822.297 73.3621 823.962 72.8121 825.339 71.3466C827.873 68.6454 828.102 64.6407 828.001 64.6105C827.922 64.5879 827.501 66.8822 826.677 68.5436C823.293 75.3776 813.234 72.1038 805.935 76.7489C794.162 84.2422 797.339 106.067 791.511 117.233C790.164 119.814 787.656 121.825 785.983 124.112C781.655 130.031 778.218 136.567 773.927 142.512C769.956 144.068 765.594 143.556 761.496 144.735C759.773 145.232 753.554 147.73 752.287 148.679C751.158 149.527 751.016 150.646 751.978 151.712L761.496 150.57C760.446 154.259 757.276 155.212 753.843 153.531C752.538 152.891 750.354 150.182 749.662 150.179C748.413 150.171 747.834 152.232 748.041 153.294C748.229 154.251 752.275 160.252 753.091 160.678C755.084 161.718 757.874 160.592 759.991 160.35C758.931 162.991 756.491 166.16 756.637 169.136C756.942 175.458 768.245 182.981 773.45 185.437C776.27 186.767 784.757 190.61 786.483 186.684C788.499 177.816 788.799 168.454 792.165 159.94C794.007 159.552 814.885 170.726 818.472 172.331C824.489 175.024 837.68 181.146 841.339 172.383C842.144 170.454 842.012 166.265 844.422 165.693C849.521 164.487 853.252 171.385 859.445 167.938C863.442 165.715 864.367 163.202 869.891 163.733C871.173 163.858 878.04 165.726 876.844 167.486C872.866 168.887 869.82 167.9 866.319 170.684C861.63 174.41 860.144 176.942 854.18 179.975C829.133 192.712 792.902 191.687 761.954 188.67V189.502C791.217 192.098 838.282 195.089 861.938 176.46C865.1 173.969 866.857 170.27 871.109 169.464C873.227 169.064 875.558 169.486 877.604 168.066C880.484 165.293 871.192 162.754 869.515 162.607V162.615ZM767.512 156.033C768.249 155.747 770.231 154.639 770.513 155.833L763 158.843C763.891 157.589 766.064 156.598 767.512 156.029V156.033ZM789.04 166.303C787.637 172.395 787.344 179.922 785.746 185.58C785.095 187.882 783.84 187.637 781.689 187.344C775.258 186.47 760.537 177.526 758.307 171.257C757.235 168.247 758.875 163.138 761.116 160.919C762.022 160.023 764.978 159.465 766.512 158.798C768.136 158.09 771.788 155.366 772.656 155.167C777.451 154.078 786.69 157.348 791.165 159.439C790.251 161.654 789.578 163.971 789.04 166.307V166.303ZM774.269 153.953C778.53 149.636 782.508 144.938 787.521 141.457C790.717 139.238 794.365 137.678 797.365 135.135C803.311 130.099 807.932 123.389 810.151 115.96C810.959 113.247 811.437 109.016 812.505 106.654C812.738 106.142 812.542 106.063 813.343 106.176C814.159 110.32 815.351 114.381 816.242 118.514C817.386 123.807 820.085 135.237 819.269 140.135C818.578 144.275 812.046 148.227 808.575 150.118C803.262 153.015 797.204 154.598 792.402 158.406C786.498 156.41 780.591 154.179 774.273 153.953H774.269Z" fill="white" style="fill:white;fill-opacity:1;"/>
<path d="M123 195.599C123 195.599 149.337 182.88 167.357 182.88C185.378 182.88 193.694 195.599 211.714 195.599C229.735 195.599 238.749 177.913 256.071 182.88C273.394 187.847 283.106 190.632 300.429 195.599C317.751 200.566 326.765 182.88 344.786 182.88C362.806 182.88 371.122 195.599 389.143 195.599C407.163 195.599 415.479 182.88 433.5 182.88C451.521 182.88 459.837 195.599 477.857 195.599C495.878 195.599 504.194 182.88 522.214 182.88C540.235 182.88 548.551 195.599 566.571 195.599C584.592 195.599 592.908 182.88 610.929 182.88C628.949 182.88 637.265 195.599 655.286 195.599C673.306 195.599 681.622 182.88 699.643 182.88C715.5 182.88 709.5 193 724.5 193C739.5 193 735.5 186 746.5 187C755.3 187.8 760.5 188.667 762 189" stroke="white" style="stroke:white;stroke-opacity:1;" stroke-width="0.95" stroke-linecap="round"/>
<path d="M3.08594 196C4.70268 160.142 7.7544 153.466 9.27084 128.904C9.74621 121.206 13.2149 113.783 17.9156 109.922C25.1066 104.015 34.8736 103.68 42.1629 98.0219C45.4568 95.465 47.8602 90.6976 48.5077 85.4348C49.1687 80.061 48.599 74.5116 46 70.5" stroke="white" style="stroke:white;stroke-opacity:1;" stroke-miterlimit="10"/>
<path d="M24.3164 196C24.3164 179.952 25.5969 165.739 26.8628 151.805C27.1956 166.49 27.5288 181.174 27.8616 195.859" stroke="white" style="stroke:white;stroke-opacity:1;" stroke-miterlimit="10"/>
<path d="M104.357 196C104.357 179.215 102.973 162.6 101.672 148.714C101.316 164.429 100.96 180.145 100.604 195.86" stroke="white" style="stroke:white;stroke-opacity:1;" stroke-miterlimit="10"/>
<path d="M122.68 196C121.063 160.142 117.802 153.466 116.286 128.904C115.81 121.206 112.342 113.783 107.641 109.922C100.45 104.015 90.6831 103.68 83.3937 98.0219C80.0999 95.465 77.6965 90.6976 77.0489 85.4348C76.388 80.061 76.401 74.5116 79 70.5" stroke="white" style="stroke:white;stroke-opacity:1;" stroke-miterlimit="10"/>
<path d="M43.7563 34.7822C43.2596 37.7917 45.6044 46.8253 40.0674 42.8052C28.5502 41.8021 36.1934 56.2436 44.2262 55.8637C40.849 78.7131 67.358 95.1098 79.0213 69.8158C86.3918 57.4343 79.3476 31.6898 91.9507 18.9308C96.3652 11.3582 84.12 12.2762 82.6664 7.5013C83.7767 4.11675 81.6924 0.897785 77.7113 1.00249C67.7768 5.80415 44.7035 -3.15149 40.6688 9.56855C28.3213 12.583 32.6677 32.2206 41.1996 38.0645C41.3311 35.3471 48.7041 35.1572 51.1877 34.0566C77.7746 22.2935 73.1848 31.0397 77.0003 32.9024C80.3727 34.5484 84.3586 31.0251 84.7482 34.753C85.1329 38.4808 84.2612 42.2111 83.3944 45.8611C93.7574 35.5662 95.8466 50.8575 85.0964 56.5553" stroke="white" style="stroke:white;stroke-opacity:1;" stroke-linecap="round" stroke-linejoin="round"/>
</svg>
