<svg width="931" height="196" viewBox="0 0 931 196" fill="none" xmlns="http://www.w3.org/2000/svg">
<path d="M4.08594 195.041C5.70268 164.314 8.75439 158.594 10.2708 137.547C10.7462 130.95 14.2149 124.589 18.9156 121.28C26.1066 116.219 35.8736 115.932 43.1629 111.084C46.4568 108.892 48.8602 104.807 49.5077 100.298C50.1687 95.6928 48.9847 90.7442 46.3857 87.3066C40.2354 74.8938 37.3462 60.1066 38.2712 45.6426" stroke="white" style="stroke:white;stroke-opacity:1;" stroke-miterlimit="10"/>
<path d="M25.3164 195.041C25.3164 181.289 26.5969 169.11 27.8628 157.17C28.1956 169.753 28.5288 182.337 28.8616 194.92" stroke="white" style="stroke:white;stroke-opacity:1;" stroke-miterlimit="10"/>
<path d="M105.357 195.041C105.357 180.658 103.973 166.42 102.672 154.521C102.316 167.988 101.96 181.455 101.604 194.921" stroke="white" style="stroke:white;stroke-opacity:1;" stroke-miterlimit="10"/>
<path d="M37.5946 53.4597C36.4774 52.7703 35.0993 52.7483 33.9679 53.402C32.8366 54.0558 31.9773 55.3712 31.7067 56.8626C31.3128 59.0344 32.1187 61.2339 32.9038 63.2416C33.6432 65.132 34.3826 67.0229 35.122 68.9133C35.6001 70.1359 36.1481 71.4472 37.1488 72.0348C38.1491 72.6224 39.674 71.9269 39.6621 70.5721" stroke="white" style="stroke:white;stroke-opacity:1;" stroke-miterlimit="10"/>
<path d="M123.678 195.041C122.061 164.314 118.801 158.594 117.284 137.547C116.809 130.95 113.34 124.589 108.639 121.28C101.448 116.219 91.6815 115.932 84.3921 111.084C81.0983 108.892 78.6949 104.807 78.0473 100.298C77.3864 95.6928 78.5704 90.7442 81.1694 87.3066C87.3197 74.8938 90.2088 60.1066 89.2838 45.6426" stroke="white" style="stroke:white;stroke-opacity:1;" stroke-miterlimit="10"/>
<path d="M89.9621 53.4597C91.0793 52.7703 92.4574 52.7483 93.5887 53.402C94.7201 54.0558 95.5794 55.3712 95.85 56.8626C96.2439 59.0344 95.438 61.2339 94.6529 63.2416C93.9135 65.132 93.1741 67.0229 92.4347 68.9133C91.9566 70.1359 91.4086 71.4472 90.4079 72.0348C89.4076 72.6224 87.8827 71.9269 87.8946 70.5721" stroke="white" style="stroke:white;stroke-opacity:1;" stroke-miterlimit="10"/>
<path d="M18.9651 60.7185C15.3257 53.5072 17.8075 42.5933 23.5836 38.437C29.3597 34.2808 37.2006 36.8388 41.386 43.5195C45.5713 50.1997 46.1448 60.1201 43.4458 68.0125C41.6792 73.1781 38.2404 77.8212 33.9489 78.3539C29.6738 78.8846 25.4968 74.972 23.8514 69.7611C22.2059 64.5496 22.8442 58.4118 24.8736 53.4394C26.9025 48.467 30.1918 44.5518 33.7848 41.4621C38.077 37.7707 43.4157 35.0786 48.292 37.1722C53.7168 39.5014 56.9396 47.346 57.042 54.8433C57.1443 62.3407 54.7231 69.4975 51.8779 75.9977C49.5018 81.4269 46.5772 86.8556 42.2398 89.4514C37.902 92.0477 31.8653 90.6412 29.7778 85.0107C28.6144 81.8719 28.883 78.073 29.9073 74.8517C30.9316 71.6299 32.6377 68.8756 34.36 66.2165C39.1084 58.8849 44.4618 51.6327 51.4104 48.5776C58.3591 45.523 67.2532 48.0851 70.6565 56.6102C72.7168 61.7712 72.4223 68.092 70.9915 73.6084C67.7996 85.913 58.9055 95.3129 49.074 96.7724C44.5771 97.4402 39.3812 96.0852 36.9675 91.0551C35.1796 87.3292 35.3947 82.3991 36.7424 78.3657C38.0904 74.3323 40.4239 71.0248 42.7979 67.9151C47.7398 61.4424 53.2201 55.3215 59.8011 52.2735C66.3822 49.2255 74.2908 49.7674 79.64 55.6554C84.9043 61.4496 86.7282 71.7064 84.67 80.3146C82.6118 88.9227 77.0784 95.713 70.6377 98.8431C65.256 101.459 58.5036 101.316 54.5539 95.8461C50.3715 90.0539 51.0065 80.2824 54.4691 73.7216C57.9318 67.1607 63.5211 63.1594 69.049 59.8427C73.7524 57.0211 78.7122 54.4798 83.883 54.4472C89.0533 54.4146 94.5157 57.3693 97.0484 63.2914C100.268 70.8204 97.7047 80.8565 92.78 86.5762C87.8552 92.296 81.1785 94.5783 74.6952 96.0011C70.357 96.9528 65.2719 97.2959 62.2328 93.1182C60.0743 90.1513 59.6211 85.5444 60.4311 81.5803C61.2411 77.6163 63.1376 74.1916 65.2038 71.113C72.4119 60.3744 82.2195 52.6951 92.8376 49.4758C95.7668 48.5878 98.8121 48.0301 101.777 48.6836C104.742 49.3367 107.639 51.3375 109.259 54.6659C112.391 61.1045 109.846 69.6392 106.666 76.038C104.074 81.2551 100.977 86.2392 96.8638 89.3402C92.7507 92.4412 87.4517 93.3736 83.2614 90.4556C77.3011 86.3055 75.4526 75.5914 77.5705 67.177C79.688 58.7625 84.7974 52.2832 90.0622 46.7424C92.9604 43.6918 96.0283 40.7672 99.5515 39.2261C103.075 37.6851 107.158 37.6963 110.301 40.2947C115.288 44.4178 116.344 54.019 113.824 61.0173C111.304 68.0151 106.101 72.7112 100.713 75.8453C96.3258 78.3973 91.5418 80.156 86.7637 79.5896C81.9856 79.0233 77.2167 75.83 74.8389 70.355C71.8095 63.3786 73.3071 54.1648 77.0659 47.8302C80.8247 41.4957 86.4249 37.5418 92.0569 34.4174C97.0463 31.6493 103.264 29.5867 107.498 34.0243C110.873 37.5617 111.568 44.2709 110.048 49.5798C108.527 54.8882 105.228 58.9817 101.703 62.256C92.8502 70.4809 81.872 74.6774 71.0425 73.977C66.2335 73.666 61.0059 72.0597 58.1243 66.9919C54.6897 60.9515 55.9855 51.9406 59.6036 46.0878C63.2216 40.235 68.6108 36.8485 73.8764 33.8505C77.0905 32.0204 80.399 30.2423 83.8922 29.8987C87.3853 29.5551 91.1475 30.8668 93.44 34.3465C95.6866 37.7559 96.1653 42.7574 95.2914 47.1186C94.4175 51.4793 92.3501 55.2756 89.9895 58.5489C80.9216 71.1212 66.7406 76.9153 53.8454 73.3158C50.1225 72.2763 46.2743 70.2688 44.1606 66.11C41.1244 60.1364 42.8485 51.6393 46.6081 46.4238C50.3678 41.2082 55.6614 38.4967 60.7716 35.9421C63.6999 34.478 66.6947 32.9961 69.826 32.8539C72.9574 32.7116 76.3069 34.1503 78.1228 37.5051C79.754 40.5184 79.8831 44.6258 78.9854 48.1305C78.0873 51.6353 76.2801 54.617 74.2825 57.222C63.3653 71.4591 45.4497 75.4125 31.5916 66.6422C30.4145 59.7974 32.5788 52.5243 36.1003 47.2486C39.6218 41.9723 44.3561 38.3794 49.115 35.1933C53.6783 32.1381 58.6494 29.2971 63.7383 30.0567C71.8583 31.269 77.9239 42.2415 77.6323 52.9719C77.3408 63.7028 71.6766 73.3723 64.4435 78.3692C58.3349 82.5892 50.0185 83.4247 45.1535 76.9933C40.2518 70.5125 41.0864 59.1556 45.2893 51.8764C49.4922 44.5972 56.1489 40.575 62.694 37.4883C66.5501 35.6699 70.5688 34.0575 74.6614 34.3098C78.754 34.5627 82.9773 37.002 85.0347 41.6568C87.6071 47.476 86.277 55.1094 88.4668 61.1932C90.693 67.3783 96.751 70.6358 101.639 68.2755C106.526 65.9153 109.537 58.2782 108.184 51.6709C106.837 45.0927 101.796 40.6041 96.6449 39.8236C91.4946 39.0431 86.3276 41.3886 81.8156 44.744C77.3036 48.0994 73.2741 52.4555 68.9413 56.1973C63.6469 60.7695 57.8921 64.4211 51.875 67.0276C46.5851 69.3191 40.8826 70.8031 35.4561 69.1529C30.0297 67.5027 24.9792 62.0817 24.0473 54.8668C22.8312 45.4536 29.2398 36.4631 36.3965 34.8079C43.5532 33.1531 50.8373 37.211 56.699 42.8538C62.5607 48.497 67.4374 55.7166 73.0844 61.7254C78.7314 67.7347 85.5589 72.65 92.8226 72.3727C98.9391 72.1392 105.043 67.7882 107.922 60.6946C110.802 53.6005 109.935 43.9534 105.412 38.5385C100.478 32.6316 92.8439 32.7835 86.4274 35.2004C68.303 42.0269 55.4613 62.7643 39.3365 75.6037C33.7864 80.023 27.4823 83.5991 21.0149 82.8961C14.4372 82.1809 8.27177 76.7257 5.29371 68.9867C2.31565 61.2477 2.62728 51.49 6.08825 44.1058C11.7624 32 24.6141 28.2511 34.8985 32.6719C45.1828 37.0932 53.1503 47.9608 59.2088 59.7408C63.0445 67.1989 66.3901 75.3131 71.5918 81.1705C78.0367 88.4282 87.1058 91.4696 95.4101 89.1577C103.714 86.8459 111.065 79.2333 114.716 69.1651C117.241 62.202 117.929 53.5663 114.892 46.9657C112.575 41.929 108.368 38.7306 103.984 37.5265C99.6 36.3224 95.0345 36.926 90.6533 38.148C82.2789 40.4833 74.2737 45.08 67.2803 51.5685C59.9064 58.4103 53.6708 67.2988 45.9389 73.4208C38.2074 79.5427 28.0471 82.4974 20.2621 76.4943C12.3101 70.3621 9.43893 55.4423 13.702 44.6997C17.965 33.957 28.3638 28.4626 37.2804 31.5488C43.8427 33.8199 49.3623 40.1264 52.7518 47.8511C56.1413 55.5759 57.5324 64.6133 57.5921 73.5294C51.5642 84.5223 39.0825 88.3324 29.9833 81.9581C25.5879 78.8785 22.0513 73.7277 20.1857 67.6592C17.5502 59.0878 18.4187 48.8085 22.4206 41.2056C26.4225 33.6022 33.436 28.9066 40.4698 29.1218C43.8047 30.8571 45.55 36.0466 45.1966 40.7366C44.8427 45.4266 42.7958 49.6186 40.3959 53.1213C34.1595 62.2244 25.0816 67.8621 15.7694 68.4157C12.3405 68.6197 8.76846 68.1109 5.81171 65.821C2.85537 63.5305 0.659729 59.1489 1.04363 54.6679C5.26113 38.9886 17.8175 27.909 30.4596 28.7124C32.151 38.5216 31.0427 49.119 27.4013 57.9652C23.7599 66.812 17.6162 73.8306 10.4428 77.3405C7.60172 75.047 6.92289 69.7458 8.02572 65.6109C9.12813 61.4761 11.5761 58.2451 13.9643 55.1874C18.2724 49.6716 22.784 44.0956 28.3834 41.2082C33.9828 38.3213 40.9858 38.722 45.2943 44.2373C45.0169 49.7679 44.679 55.3969 43.1075 60.5401C41.5359 65.6833 38.5173 70.3544 34.4657 71.8976C30.414 73.4407 25.4091 70.9937 23.9424 65.797C22.924 62.1888 23.7394 58.005 25.4713 54.9009C27.2029 51.7974 29.7369 49.6282 32.3544 47.9016C36.5327 45.1462 41.2811 43.3273 45.8779 44.4468C50.4743 45.5663 54.7795 50.2257 55.3873 56.3156C55.4529 65.0655 52.5421 73.7812 47.5969 79.6427C42.6517 85.5041 35.7544 88.4135 29.1366 87.4296" stroke="white" style="stroke:white;stroke-opacity:1;" stroke-miterlimit="10"/>
<path d="M64.2651 66.1398C60.058 67.6539 55.3459 64.3265 53.4135 59.1879C51.481 54.0493 52.1043 47.6444 54.4048 42.7745M90.2915 77.6222C85.9019 82.2107 78.9624 83.5127 74.879 78.4597C70.8892 73.5225 71.3211 64.609 74.3397 58.5986C77.3583 52.5883 82.2851 48.7909 87.0377 45.2046M98.5151 71.5563C96.2372 73.6387 93.8335 75.6707 91.1107 76.3778C88.3878 77.0848 85.2531 76.1871 83.5696 73.2885C82.1009 70.759 82.0161 67.1788 82.8436 64.1889C83.6712 61.199 85.2891 58.7047 87.016 56.4749M116.848 66.8627C112.125 71.1811 106.066 71.9014 100.315 72.1012C97.7627 72.1899 95.1548 72.1925 92.7323 71.1347M90.9306 67.2364C85.5698 65.6295 80.0306 61.5926 78.436 54.6779C76.8658 47.8677 79.7661 40.3749 84.0375 35.9995M76.3352 64.666C70.6394 65.3971 64.098 64.3342 60.6449 58.3376C58.047 53.8255 57.9192 47.4364 59.4799 42.1633M67.7202 50.6506C63.1957 50.0965 58.2638 48.0324 56.0862 42.7918M28.5517 41.9288C24.7917 43.6411 19.9521 43.9373 17.5017 39.8172C15.7677 36.9013 15.9034 32.637 17.0969 29.2852M34.286 45.5839C31.7675 48.039 29.1428 50.489 26.1109 51.5402C23.0789 52.5914 19.5148 51.9674 17.3722 48.9587C15.309 46.0616 15.0019 41.5643 15.8738 37.7654M50.8318 82.6231C49.1095 85.6665 47.1186 88.5605 44.5741 90.3509C42.0297 92.1407 38.839 92.6791 36.2548 90.9902C32.661 88.6416 31.1964 82.6155 31.826 77.407C32.4551 72.1986 34.7196 67.6177 36.9633 63.2453C41.0538 55.2743 45.4702 47.1418 51.8357 42.4018C58.2012 37.6614 67.0719 37.3336 72.1908 44.2024C75.9213 49.2079 76.8704 56.7369 76.8503 63.7423C76.8231 73.2676 75.2587 83.0289 71.1444 90.8714C67.0301 98.7139 60.0877 104.338 52.8437 103.975C45.5997 103.612 38.5486 96.3393 37.6693 86.8844C36.8363 77.9316 41.2268 69.5972 46.1047 63.2514C49.6334 58.6608 53.9553 54.3572 58.9209 54.2808C64.1172 54.2007 68.9011 59.1059 70.9664 65.3716C73.0318 71.6373 72.675 78.943 70.9309 85.3749C69.1869 91.8068 66.1591 97.496 62.9296 102.845C59.6695 108.246 55.2123 113.89 50.0244 112.868C45.0892 111.897 41.9173 104.855 41.9311 98.2989C41.9449 91.7426 44.3356 85.6426 46.7723 79.9208C48.5 75.8634 50.3397 71.7535 53.0743 68.8029C55.8092 65.8528 59.6537 64.2506 62.9617 65.9018C66.4469 67.6411 68.5356 72.637 68.7595 77.5268C68.9834 82.4167 67.6571 87.203 66.0167 91.6019C63.2863 98.9234 59.3938 105.901 53.8162 109.473C48.2385 113.045 40.7393 112.292 36.7231 106.077C32.735 99.9057 33.2262 90.724 34.7171 82.8688C35.2652 79.9814 35.9557 77.0334 37.4329 74.7776C38.91 72.5218 41.3671 71.1275 43.4959 72.143C45.4468 73.0734 46.6461 75.7874 46.9164 78.4908C47.1866 81.1947 46.6941 83.92 46.1803 86.5617C45.1656 91.7783 43.9625 97.1784 41.1708 101.12C38.3786 105.061 33.5182 107.002 30.0848 104.063C26.6255 101.101 26.0361 94.42 27.6578 89.4307C29.2794 84.4415 32.5407 80.7532 35.6946 77.2515C36.3835 81.9696 35.8902 86.9721 34.3086 91.3032C33.4267 93.7185 32.1677 95.983 30.4132 97.3471C28.6587 98.7118 26.3511 99.0345 24.584 97.6984C22.5505 96.1604 21.6569 92.7927 21.8103 89.7167C21.9636 86.6407 22.9724 83.7655 23.965 80.9719C24.7979 78.6269 25.6601 76.2269 27.0671 74.4156C28.474 72.6044 30.564 71.4772 32.4451 72.2445C34.6303 73.1361 35.8839 76.3288 35.9282 79.3345C35.9724 82.3402 35.0714 85.2138 34.1858 87.986C33.2943 90.7761 32.3778 93.6201 30.8585 95.8938C29.3387 98.1674 27.0825 99.8119 24.7958 99.451C21.4226 98.9183 19.1873 94.1722 19.1171 89.7091C19.0469 85.2464 20.5783 81.0423 22.0747 77.0354C23.2143 73.9843 24.419 70.8252 26.4568 68.7316C28.4945 66.6379 31.6242 65.9604 33.6197 68.1229C35.741 70.421 35.7109 74.6583 35.2719 78.2242C34.6307 83.4281 33.5078 88.5294 31.9358 93.38C31.2787 95.4074 30.5042 97.4588 29.2076 98.8561C27.9109 100.254 25.9613 100.827 24.5347 99.6677C22.9653 98.3917 22.5785 95.4742 23.1608 93.1736C23.7436 90.8729 25.0628 89.0453 26.3436 87.2999C29.3822 83.1589 32.4998 78.9394 36.4098 76.3523C40.3199 73.7651 45.2412 73.0739 48.985 76.0556C54.2193 80.2251 55.2482 90.2964 52.5613 97.5225C49.8744 104.749 44.4617 109.539 38.9417 113.015C40.1774 100.511 45.8996 88.9001 54.0781 82.303C58.413 78.8064 63.6748 76.6648 68.6158 78.2512C71.9089 84.1489 72.8434 92.1958 71.0391 99.1156C69.2349 106.035 64.7409 111.638 59.3871 113.644C58.8879 106.512 59.4857 98.9907 62.341 92.8901C65.1962 86.789 70.6665 82.4737 76.0482 83.6106C78.6779 84.1657 81.2132 86.085 82.5403 89.1187C83.8675 92.1525 83.7651 96.3138 81.9814 98.9117C80.1972 101.51 76.7358 101.928 74.8514 99.4551C72.4131 96.2552 73.5401 90.8719 74.8648 86.6912C75.8005 83.7375 76.8002 80.7109 78.5472 78.4822C80.2946 76.2534 82.9919 75.0003 85.2247 76.2763C87.516 77.5854 88.6464 81.1728 88.5307 84.4522C88.415 87.7316 87.3105 90.7924 86.2269 93.7501C81.6714 94.9899 77.1164 96.2292 72.561 97.469C68.7244 91.0141 68.6467 81.1662 72.3805 74.6083C76.1142 68.0505 83.3261 65.367 89.1226 68.3793C86.5381 76.547 82.7087 84.6587 76.626 88.4489C70.5082 92.261 62.6242 90.6496 57.8014 84.4053C52.979 78.161 51.6661 67.6529 54.8726 59.8175C58.0792 51.9822 65.6173 47.6235 72.1361 50.0287C73.9679 54.4465 73.9554 59.8894 72.8154 64.6926C71.6758 69.4957 69.5065 73.759 67.1646 77.7399C64.9397 81.522 62.4479 85.2072 59.2063 87.3778C55.965 89.5485 51.8127 89.9303 48.8092 87.2326C46.1958 84.8855 44.8707 80.5508 44.9492 76.3931C45.0278 72.2353 46.3537 68.257 48.1437 64.8266C53.5263 54.5127 63.4944 48.6808 72.9298 50.3254C73.315 59.2048 70.4146 68.2315 65.3032 74.0623C60.1917 79.8932 52.9824 82.3988 46.3453 80.6513C42.8083 79.257 40.4844 74.4702 40.0972 69.6451C39.71 64.82 40.9415 60.0051 42.6057 55.674M72.137 52.4558C70.3561 62.109 64.2471 69.3453 57.8152 74.5655C54.0994 77.5814 50.0895 80.1802 45.7709 81.0372C41.4523 81.8941 36.7632 80.8236 33.3992 77.1634C30.2498 68.5674 29.6065 58.436 31.6275 49.2732M62.1943 45.3978C59.3466 55.5231 52.1874 63.336 44.0895 65.1565C35.9917 66.9769 27.2626 62.7355 22.0149 54.4296" stroke="white" style="stroke:white;stroke-opacity:1;" stroke-miterlimit="10"/>
<path d="M21.5156 77.5737C18.6637 78.5051 15.681 79.1179 12.7907 78.419M15.3815 83.2369C12.53 83.5769 9.57576 83.4938 6.91602 82.1001" stroke="white" style="stroke:white;stroke-opacity:1;" stroke-miterlimit="10"/>
<path d="M124 194.599C124 194.599 150.337 181.88 168.357 181.88" stroke="white" style="stroke:white;stroke-opacity:1;" stroke-width="0.95" stroke-linecap="round"/>
</svg>
