<svg width="931" height="196" viewBox="0 0 931 196" fill="none" xmlns="http://www.w3.org/2000/svg">
<path d="M4.08594 195.041C5.70268 164.314 8.75439 158.594 10.2708 137.547C10.7462 130.95 14.2149 124.589 18.9156 121.28C26.1066 116.219 35.8736 115.932 43.1629 111.084C46.4568 108.892 48.8602 104.807 49.5077 100.298C50.1687 95.6928 48.9847 90.7442 46.3857 87.3066C40.2354 74.8938 37.3462 60.1066 38.2712 45.6426" stroke="white" style="stroke:white;stroke-opacity:1;" stroke-miterlimit="10"/>
<path d="M25.3164 195.041C25.3164 181.289 26.5969 169.11 27.8628 157.17C28.1956 169.753 28.5288 182.337 28.8616 194.92" stroke="white" style="stroke:white;stroke-opacity:1;" stroke-miterlimit="10"/>
<path d="M105.357 195.041C105.357 180.658 103.973 166.42 102.672 154.521C102.316 167.988 101.96 181.455 101.604 194.921" stroke="white" style="stroke:white;stroke-opacity:1;" stroke-miterlimit="10"/>
<path d="M37.5946 53.4597C36.4774 52.7703 35.0993 52.7483 33.9679 53.402C32.8366 54.0558 31.9773 55.3712 31.7067 56.8626C31.3128 59.0344 32.1187 61.2339 32.9038 63.2416C33.6432 65.132 34.3826 67.0229 35.122 68.9133C35.6001 70.1359 36.1481 71.4472 37.1488 72.0348C38.1491 72.6224 39.674 71.9269 39.6621 70.5721" stroke="white" style="stroke:white;stroke-opacity:1;" stroke-miterlimit="10"/>
<path d="M123.678 195.041C122.061 164.314 118.801 158.594 117.284 137.547C116.809 130.95 113.34 124.589 108.639 121.28C101.448 116.219 91.6815 115.932 84.3921 111.084C81.0983 108.892 78.6949 104.807 78.0473 100.298C77.3864 95.6928 78.5704 90.7442 81.1694 87.3066C87.3197 74.8938 90.2088 60.1066 89.2838 45.6426" stroke="white" style="stroke:white;stroke-opacity:1;" stroke-miterlimit="10"/>
<path d="M89.9621 53.4597C91.0793 52.7703 92.4574 52.7483 93.5887 53.402C94.7201 54.0558 95.5794 55.3712 95.85 56.8626C96.2439 59.0344 95.438 61.2339 94.6529 63.2416C93.9135 65.132 93.1741 67.0229 92.4347 68.9133C91.9566 70.1359 91.4086 71.4472 90.4079 72.0348C89.4076 72.6224 87.8827 71.9269 87.8946 70.5721" stroke="white" style="stroke:white;stroke-opacity:1;" stroke-miterlimit="10"/>
<path d="M18.9651 60.7185C15.3257 53.5072 17.8075 42.5933 23.5836 38.437C29.3597 34.2808 37.2006 36.8388 41.386 43.5195C45.5713 50.1997 46.1448 60.1201 43.4458 68.0125C41.6792 73.1781 38.2404 77.8212 33.9489 78.3539C29.6738 78.8846 25.4968 74.972 23.8514 69.7611C22.2059 64.5496 22.8442 58.4118 24.8736 53.4394C26.9025 48.467 30.1918 44.5518 33.7848 41.4621C38.077 37.7707 43.4157 35.0786 48.292 37.1722C53.7168 39.5014 56.9396 47.346 57.042 54.8433C57.1443 62.3407 54.7231 69.4975 51.8779 75.9977C49.5018 81.4269 46.5772 86.8556 42.2398 89.4514C37.902 92.0477 31.8653 90.6412 29.7778 85.0107C28.6144 81.8719 28.883 78.073 29.9073 74.8517C30.9316 71.6299 32.6377 68.8756 34.36 66.2165C39.1084 58.8849 44.4618 51.6327 51.4104 48.5776C58.3591 45.523 67.2532 48.0851 70.6565 56.6102C72.7168 61.7712 72.4223 68.092 70.9915 73.6084C67.7996 85.913 58.9055 95.3129 49.074 96.7724C44.5771 97.4402 39.3812 96.0852 36.9675 91.0551C35.1796 87.3292 35.3947 82.3991 36.7424 78.3657C38.0904 74.3323 40.4239 71.0248 42.7979 67.9151C47.7398 61.4424 53.2201 55.3215 59.8011 52.2735C66.3822 49.2255 74.2908 49.7674 79.64 55.6554C84.9043 61.4496 86.7282 71.7064 84.67 80.3146C82.6118 88.9227 77.0784 95.713 70.6377 98.8431C65.256 101.459 58.5036 101.316 54.5539 95.8461C50.3715 90.0539 51.0065 80.2824 54.4691 73.7216C57.9318 67.1607 63.5211 63.1594 69.049 59.8427C73.7524 57.0211 78.7122 54.4798 83.883 54.4472C89.0533 54.4146 94.5157 57.3693 97.0484 63.2914C100.268 70.8204 97.7047 80.8565 92.78 86.5762C87.8552 92.296 81.1785 94.5783 74.6952 96.0011C70.357 96.9528 65.2719 97.2959 62.2328 93.1182C60.0743 90.1513 59.6211 85.5444 60.4311 81.5803C61.2411 77.6163 63.1376 74.1916 65.2038 71.113C72.4119 60.3744 82.2195 52.6951 92.8376 49.4758C95.7668 48.5878 98.8121 48.0301 101.777 48.6836C104.742 49.3367 107.639 51.3375 109.259 54.6659C112.391 61.1045 109.846 69.6392 106.666 76.038C104.074 81.2551 100.977 86.2392 96.8638 89.3402C92.7507 92.4412 87.4517 93.3736 83.2614 90.4556C77.3011 86.3055 75.4526 75.5914 77.5705 67.177C79.688 58.7625 84.7974 52.2832 90.0622 46.7424C92.9604 43.6918 96.0283 40.7672 99.5515 39.2261C103.075 37.6851 107.158 37.6963 110.301 40.2947C115.288 44.4178 116.344 54.019 113.824 61.0173C111.304 68.0151 106.101 72.7112 100.713 75.8453C96.3258 78.3973 91.5418 80.156 86.7637 79.5896C81.9856 79.0233 77.2167 75.83 74.8389 70.355C71.8095 63.3786 73.3071 54.1648 77.0659 47.8302C80.8247 41.4957 86.4249 37.5418 92.0569 34.4174C97.0463 31.6493 103.264 29.5867 107.498 34.0243C110.873 37.5617 111.568 44.2709 110.048 49.5798C108.527 54.8882 105.228 58.9817 101.703 62.256C92.8502 70.4809 81.872 74.6774 71.0425 73.977C66.2335 73.666 61.0059 72.0597 58.1243 66.9919C54.6897 60.9515 55.9855 51.9406 59.6036 46.0878C63.2216 40.235 68.6108 36.8485 73.8764 33.8505C77.0905 32.0204 80.399 30.2423 83.8922 29.8987C87.3853 29.5551 91.1475 30.8668 93.44 34.3465C95.6866 37.7559 96.1653 42.7574 95.2914 47.1186C94.4175 51.4793 92.3501 55.2756 89.9895 58.5489C80.9216 71.1212 66.7406 76.9153 53.8454 73.3158C50.1225 72.2763 46.2743 70.2688 44.1606 66.11C41.1244 60.1364 42.8485 51.6393 46.6081 46.4238C50.3678 41.2082 55.6614 38.4967 60.7716 35.9421C63.6999 34.478 66.6947 32.9961 69.826 32.8539C72.9574 32.7116 76.3069 34.1503 78.1228 37.5051C79.754 40.5184 79.8831 44.6258 78.9854 48.1305C78.0873 51.6353 76.2801 54.617 74.2825 57.222C63.3653 71.4591 45.4497 75.4125 31.5916 66.6422C30.4145 59.7974 32.5788 52.5243 36.1003 47.2486C39.6218 41.9723 44.3561 38.3794 49.115 35.1933C53.6783 32.1381 58.6494 29.2971 63.7383 30.0567C71.8583 31.269 77.9239 42.2415 77.6323 52.9719C77.3408 63.7028 71.6766 73.3723 64.4435 78.3692C58.3349 82.5892 50.0185 83.4247 45.1535 76.9933C40.2518 70.5125 41.0864 59.1556 45.2893 51.8764C49.4922 44.5972 56.1489 40.575 62.694 37.4883C66.5501 35.6699 70.5688 34.0575 74.6614 34.3098C78.754 34.5627 82.9773 37.002 85.0347 41.6568C87.6071 47.476 86.277 55.1094 88.4668 61.1932C90.693 67.3783 96.751 70.6358 101.639 68.2755C106.526 65.9153 109.537 58.2782 108.184 51.6709C106.837 45.0927 101.796 40.6041 96.6449 39.8236C91.4946 39.0431 86.3276 41.3886 81.8156 44.744C77.3036 48.0994 73.2741 52.4555 68.9413 56.1973C63.6469 60.7695 57.8921 64.4211 51.875 67.0276C46.5851 69.3191 40.8826 70.8031 35.4561 69.1529C30.0297 67.5027 24.9792 62.0817 24.0473 54.8668C22.8312 45.4536 29.2398 36.4631 36.3965 34.8079C43.5532 33.1531 50.8373 37.211 56.699 42.8538C62.5607 48.497 67.4374 55.7166 73.0844 61.7254C78.7314 67.7347 85.5589 72.65 92.8226 72.3727C98.9391 72.1392 105.043 67.7882 107.922 60.6946C110.802 53.6005 109.935 43.9534 105.412 38.5385C100.478 32.6316 92.8439 32.7835 86.4274 35.2004C68.303 42.0269 55.4613 62.7643 39.3365 75.6037C33.7864 80.023 27.4823 83.5991 21.0149 82.8961C14.4372 82.1809 8.27177 76.7257 5.29371 68.9867C2.31565 61.2477 2.62728 51.49 6.08825 44.1058C11.7624 32 24.6141 28.2511 34.8985 32.6719C45.1828 37.0932 53.1503 47.9608 59.2088 59.7408C63.0445 67.1989 66.3901 75.3131 71.5918 81.1705C78.0367 88.4282 87.1058 91.4696 95.4101 89.1577C103.714 86.8459 111.065 79.2333 114.716 69.1651C117.241 62.202 117.929 53.5663 114.892 46.9657C112.575 41.929 108.368 38.7306 103.984 37.5265C99.6 36.3224 95.0345 36.926 90.6533 38.148C82.2789 40.4833 74.2737 45.08 67.2803 51.5685C59.9064 58.4103 53.6708 67.2988 45.9389 73.4208C38.2074 79.5427 28.0471 82.4974 20.2621 76.4943C12.3101 70.3621 9.43893 55.4423 13.702 44.6997C17.965 33.957 28.3638 28.4626 37.2804 31.5488C43.8427 33.8199 49.3623 40.1264 52.7518 47.8511C56.1413 55.5759 57.5324 64.6133 57.5921 73.5294C51.5642 84.5223 39.0825 88.3324 29.9833 81.9581C25.5879 78.8785 22.0513 73.7277 20.1857 67.6592C17.5502 59.0878 18.4187 48.8085 22.4206 41.2056C26.4225 33.6022 33.436 28.9066 40.4698 29.1218C43.8047 30.8571 45.55 36.0466 45.1966 40.7366C44.8427 45.4266 42.7958 49.6186 40.3959 53.1213C34.1595 62.2244 25.0816 67.8621 15.7694 68.4157C12.3405 68.6197 8.76846 68.1109 5.81171 65.821C2.85537 63.5305 0.659729 59.1489 1.04363 54.6679C5.26113 38.9886 17.8175 27.909 30.4596 28.7124C32.151 38.5216 31.0427 49.119 27.4013 57.9652C23.7599 66.812 17.6162 73.8306 10.4428 77.3405C7.60172 75.047 6.92289 69.7458 8.02572 65.6109C9.12813 61.4761 11.5761 58.2451 13.9643 55.1874C18.2724 49.6716 22.784 44.0956 28.3834 41.2082C33.9828 38.3213 40.9858 38.722 45.2943 44.2373C45.0169 49.7679 44.679 55.3969 43.1075 60.5401C41.5359 65.6833 38.5173 70.3544 34.4657 71.8976C30.414 73.4407 25.4091 70.9937 23.9424 65.797C22.924 62.1888 23.7394 58.005 25.4713 54.9009C27.2029 51.7974 29.7369 49.6282 32.3544 47.9016C36.5327 45.1462 41.2811 43.3273 45.8779 44.4468C50.4743 45.5663 54.7795 50.2257 55.3873 56.3156C55.4529 65.0655 52.5421 73.7812 47.5969 79.6427C42.6517 85.5041 35.7544 88.4135 29.1366 87.4296" stroke="white" style="stroke:white;stroke-opacity:1;" stroke-miterlimit="10"/>
<path d="M64.2659 66.1397C60.0589 67.6537 55.3468 64.3264 53.4143 59.1878M96.8851 53.4247C98.1604 62.2704 95.6544 72.0164 90.2923 77.622C85.9027 82.2105 78.9632 83.5125 74.8798 78.4596C70.89 73.5223 71.322 64.6088 74.3405 58.5985M107.871 59.2566C105.819 64.4543 102.174 68.2114 98.5159 71.5561C96.238 73.6385 93.8343 75.6705 91.1115 76.3776C88.3887 77.0847 85.254 76.187 83.5705 73.2883C82.1017 70.7588 82.0169 67.1786 82.8445 64.1887C83.672 61.1989 85.2899 58.7045 87.0168 56.4747M116.849 66.8625C112.126 71.1809 106.067 71.9012 100.316 72.1011C97.7636 72.1898 95.1557 72.1923 92.7332 71.1345C90.3107 70.0762 88.0683 67.7689 87.3205 64.5619C86.1346 59.4753 88.9543 54.3194 91.9737 50.7748M122.683 54.2872C121.292 57.3327 119.121 59.6349 116.827 61.5144C109.207 67.7567 99.6864 69.8601 90.9315 67.2362C85.5706 65.6294 80.0314 61.5924 78.4369 54.6777M76.3361 64.6659C70.6402 65.3969 64.0988 64.334 60.6458 58.3375M26.1117 51.54C23.0798 52.5912 19.5156 51.9672 17.373 48.9585M50.8327 82.6229C49.1104 85.6663 47.1194 88.5604 44.575 90.3507C42.0305 92.1406 38.8398 92.6789 36.2557 90.99C32.6619 88.6414 31.1973 82.6153 31.8268 77.4069C32.4559 72.1984 34.7205 67.6175 36.9642 63.2451M76.8512 63.7422C76.824 73.2674 75.2596 83.0287 71.1453 90.8712C67.031 98.7137 60.0885 104.338 52.8445 103.975C45.6005 103.612 38.5495 96.3391 37.6702 86.8842C36.8372 77.9314 41.2276 69.597 46.1056 63.2512C49.6342 58.6607 53.9561 54.3571 58.9218 54.2806C64.1181 54.2006 68.902 59.1057 70.9673 65.3714C73.0326 71.6371 72.6759 78.9428 70.9318 85.3748C69.1877 91.8067 66.16 97.4958 62.9304 102.845C59.6704 108.246 55.2131 113.89 50.0252 112.868C45.09 111.897 41.9181 104.855 41.9319 98.2987C41.9457 91.7424 44.3364 85.6424 46.7731 79.9206C48.5009 75.8632 50.3406 71.7534 53.0751 68.8028C55.8101 65.8527 59.6545 64.2504 62.9626 65.9016C66.4478 67.641 68.5365 72.6368 68.7604 77.5267C68.9843 82.4165 67.658 87.2028 66.0175 91.6017C63.2872 98.9232 59.3947 105.901 53.817 109.473C48.2394 113.045 40.7401 112.292 36.724 106.077C32.7358 99.9056 33.2271 90.7239 34.718 82.8687C35.2661 79.9813 35.9566 77.0332 37.4337 74.7774C38.9108 72.5216 41.368 71.1274 43.4968 72.1429C45.4476 73.0732 46.647 75.7873 46.9172 78.4907C47.1875 81.1945 46.695 83.9198 46.1812 86.5615C45.1665 91.7781 43.9634 97.1782 41.1716 101.119C38.3795 105.06 33.5191 107.002 30.0857 104.063C26.6264 101.101 26.037 94.4198 27.6586 89.4306C29.2803 84.4413 32.5416 80.7531 35.6955 77.2514C36.3844 81.9694 35.891 86.9719 34.3094 91.303C33.4276 93.7184 32.1685 95.9828 30.414 97.347C28.6595 98.7117 26.3519 99.0344 24.5849 97.6982C22.5513 96.1602 21.6578 92.7926 21.8111 89.7166C21.9644 86.6405 22.9733 83.7654 23.9658 80.9718C24.7988 78.6268 25.661 76.2267 27.0679 74.4155C28.4749 72.6042 30.5648 71.4771 32.4459 72.2443C34.6311 73.1359 35.8847 76.3287 35.929 79.3344C35.9733 82.34 35.0722 85.2137 34.1866 87.9859C33.2952 90.7759 32.3787 93.62 30.8593 95.8936C29.3396 98.1672 27.0834 99.8118 24.7967 99.4508C21.4234 98.9181 19.1881 94.1721 19.1179 89.7089C19.0478 85.2463 20.5792 81.0421 22.0755 77.0352C23.2151 73.9842 24.4199 70.8251 26.4576 68.7314C28.4954 66.6377 31.6251 65.9602 33.6206 68.1227C35.7419 70.4208 35.7118 74.6581 35.2727 78.224C34.6315 83.4279 33.5086 88.5293 31.9367 93.3799C31.2796 95.4073 30.5051 97.4586 29.2084 98.8559C27.9118 100.254 25.9622 100.827 24.5356 99.6675C22.9662 98.3915 22.5793 95.474 23.1617 93.1734C23.7444 90.8727 25.0636 89.0452 26.3444 87.2997C29.383 83.1587 32.5006 78.9393 36.4107 76.3521C40.3207 73.765 45.2421 73.0737 48.9859 76.0554C54.2201 80.2249 55.249 90.2962 52.5621 97.5223C49.8752 104.749 44.4626 109.538 38.9426 113.015C40.1783 100.511 45.9005 88.8999 54.0789 82.3028C58.4138 78.8062 63.6757 76.6646 68.6167 78.2511C71.9097 84.1487 72.8442 92.1956 71.04 99.1154C69.2358 106.035 64.7417 111.638 59.388 113.644C58.8888 106.512 59.4866 98.9905 62.3418 92.89C65.1971 86.7889 70.6674 82.4736 76.0491 83.6104C78.6788 84.1655 81.214 86.0849 82.5412 89.1186C83.8683 92.1523 83.766 96.3137 81.9822 98.9115C80.1981 101.509 76.7367 101.927 74.8523 99.4549C72.4139 96.255 73.541 90.8717 74.8657 86.691C75.8014 83.7373 76.801 80.7108 78.548 78.482C80.2954 76.2532 82.9928 75.0002 85.2256 76.2762C87.5169 77.5853 88.6473 81.1726 88.5316 84.452C88.4158 87.7315 87.3114 90.7922 86.2277 93.75C81.6723 94.9898 77.1173 96.229 72.5618 97.4688C68.7253 91.014 68.6476 81.166 72.3813 74.6082C76.1151 68.0503 83.3269 65.3668 89.1235 68.3791C86.5389 76.5469 82.7095 84.6585 76.6268 88.4487C70.509 92.2609 62.6251 90.6495 57.8023 84.4051C52.9799 78.1608 51.6669 67.6527 54.8735 59.8174C58.0801 51.982 65.6182 47.6234 72.137 50.0285C73.9688 54.4463 73.9562 59.8892 72.8162 64.6924C71.6766 69.4956 69.5073 73.7589 67.1655 77.7398C64.9406 81.5218 62.4488 85.207 59.2071 87.3777C55.9659 89.5483 51.8136 89.9302 48.81 87.2324C46.1966 84.8854 44.8716 80.5507 44.9501 76.3929C45.0286 72.2351 46.3545 68.2568 48.1445 64.8265C53.5271 54.5126 63.4952 48.6807 72.9307 50.3252C73.3158 59.2046 70.4155 68.2313 65.304 74.0622C60.1926 79.8931 52.9832 82.3986 46.3462 80.6511C42.8092 79.2569 40.4853 74.47 40.0981 69.6449C39.7108 64.8198 40.9423 60.005 42.6066 55.6738M72.1378 52.4556C70.357 62.1088 64.248 69.3452 57.816 74.5653C54.1003 77.5812 50.0904 80.1801 45.7718 81.037C41.4532 81.894 36.7641 80.8234 33.4 77.1632C30.2507 68.5673 29.6074 58.4358 31.6284 49.273M44.0904 65.1563C35.9925 66.9767 27.2634 62.7353 22.0158 54.4295" stroke="white" style="stroke:white;stroke-opacity:1;" stroke-miterlimit="10"/>
<path d="M124 194.599C124 194.599 150.337 181.88 168.357 181.88C186.378 181.88 194.694 194.599 212.714 194.599" stroke="white" style="stroke:white;stroke-opacity:1;" stroke-width="0.95" stroke-linecap="round"/>
</svg>
