<svg width="930" height="196" viewBox="0 0 930 196" fill="none" xmlns="http://www.w3.org/2000/svg">
<path d="M3.08594 195.041C4.70268 164.314 7.75439 158.594 9.27084 137.547C9.74621 130.95 13.2149 124.589 17.9156 121.28C25.1066 116.219 34.8736 115.932 42.1629 111.084C45.4568 108.892 47.8602 104.807 48.5077 100.298C49.1687 95.6928 47.9847 90.7442 45.3857 87.3066C39.2354 74.8938 36.3462 60.1066 37.2712 45.6426" stroke="white" style="stroke:white;stroke-opacity:1;" stroke-miterlimit="10"/>
<path d="M24.3164 195.041C24.3164 181.289 25.5969 169.11 26.8628 157.17C27.1956 169.753 27.5288 182.337 27.8616 194.92" stroke="white" style="stroke:white;stroke-opacity:1;" stroke-miterlimit="10"/>
<path d="M104.357 195.041C104.357 180.658 102.973 166.42 101.672 154.521C101.316 167.988 100.96 181.455 100.604 194.921" stroke="white" style="stroke:white;stroke-opacity:1;" stroke-miterlimit="10"/>
<path d="M36.5946 53.4597C35.4774 52.7703 34.0993 52.7483 32.9679 53.402C31.8366 54.0558 30.9773 55.3712 30.7067 56.8626C30.3128 59.0344 31.1187 61.2339 31.9038 63.2416C32.6432 65.132 33.3826 67.0229 34.122 68.9133C34.6001 70.1359 35.1481 71.4472 36.1488 72.0348C37.1491 72.6224 38.674 71.9269 38.6621 70.5721" stroke="white" style="stroke:white;stroke-opacity:1;" stroke-miterlimit="10"/>
<path d="M122.678 195.041C121.061 164.314 117.801 158.594 116.284 137.547C115.809 130.95 112.34 124.589 107.639 121.28C100.448 116.219 90.6815 115.932 83.3921 111.084C80.0983 108.892 77.6949 104.807 77.0473 100.298C76.3864 95.6928 77.5704 90.7442 80.1694 87.3066C86.3197 74.8938 89.2088 60.1066 88.2838 45.6426" stroke="white" style="stroke:white;stroke-opacity:1;" stroke-miterlimit="10"/>
<path d="M88.9621 53.4597C90.0793 52.7703 91.4574 52.7483 92.5887 53.402C93.7201 54.0558 94.5794 55.3712 94.85 56.8626C95.2439 59.0344 94.438 61.2339 93.6529 63.2416C92.9135 65.132 92.1741 67.0229 91.4347 68.9133C90.9566 70.1359 90.4086 71.4472 89.4079 72.0348C88.4076 72.6224 86.8827 71.9269 86.8946 70.5721" stroke="white" style="stroke:white;stroke-opacity:1;" stroke-miterlimit="10"/>
<path d="M25.9651 59.0472C22.3257 51.8358 24.8075 40.9219 30.5836 36.7656C36.3597 32.6094 44.2006 35.1675 48.386 41.8481C52.5713 48.5283 53.1448 58.4487 50.4458 66.3411C48.6792 71.5067 45.2404 76.1498 40.9489 76.6826C36.6738 77.2132 32.4968 73.3007 30.8514 68.0897C29.2059 62.8782 29.8442 56.7404 31.8736 51.768C33.9025 46.7956 37.1918 42.8805 40.7848 39.7907C45.077 36.0993 50.4157 33.4072 55.292 35.5009C60.7168 37.83 63.9396 45.6746 64.042 53.1719C64.1443 60.6693 61.7231 67.8261 58.8779 74.3263C56.5018 79.7555 53.5772 85.1842 49.2398 87.78C44.902 90.3763 38.8653 88.9698 36.7778 83.3393C35.6144 80.2006 35.883 76.4017 36.9073 73.1803C37.9316 69.9585 39.6377 67.2042 41.36 64.5452C46.1084 57.2135 51.4618 49.9613 58.4104 46.9062C65.3591 43.8516 74.2532 46.4137 77.6565 54.9388C79.7168 60.0999 79.4223 66.4206 77.9915 71.937M43.7424 76.6943C45.0904 72.6609 47.4239 69.3534 49.7979 66.2437C54.7398 59.771 60.2201 53.6501 66.8011 50.6021C73.3822 47.5541 81.2908 48.096 86.64 53.984C91.9043 59.7782 93.7282 70.035 91.67 78.6432M61.4691 72.0502C64.9318 65.4893 70.5211 61.488 76.049 58.1714C80.7524 55.3497 85.7122 52.8084 90.883 52.7758M67.4311 79.909C68.2411 75.9449 70.1376 72.5202 72.2038 69.4416C79.4119 58.7031 89.2195 51.0237 99.8376 47.8044M84.5705 65.5056C86.688 57.0911 91.7974 50.6118 97.0622 45.071M93.7637 77.9183C88.9856 77.3519 84.2167 74.1586 81.8389 68.6836C78.8095 61.7072 80.3071 52.4934 84.0659 46.1589C87.8247 39.8243 93.4249 35.8704 99.0569 32.746M78.0425 72.3056C73.2335 71.9946 68.0059 70.3883 65.1243 65.3205C61.6897 59.2801 62.9855 50.2692 66.6036 44.4164C70.2216 38.5636 75.6108 35.1771 80.8764 32.1791C84.0905 30.349 87.399 28.5709 90.8922 28.2273C94.3853 27.8837 98.1475 29.1954 100.44 32.6751M96.9895 56.8775C87.9216 69.4498 73.7406 75.2439 60.8454 71.6444C57.1225 70.6049 53.2743 68.5974 51.1606 64.4386C48.1244 58.465 49.8485 49.968 53.6081 44.7524C57.3678 39.5368 62.6614 36.8253 67.7716 34.2707C70.6999 32.8067 73.6947 31.3247 76.826 31.1825C79.9574 31.0403 83.3069 32.4789 85.1228 35.8337C86.754 38.8471 86.8831 42.9544 85.9854 46.4591C85.0873 49.9639 83.2801 52.9456 81.2825 55.5506C70.3653 69.7878 52.4497 73.7411 38.5916 64.9708C37.4144 58.126 39.5788 50.8529 43.1003 45.5772C46.6218 40.301 51.3561 36.708 56.115 33.5219C60.6783 30.4668 65.6494 27.6257 70.7383 28.3853C78.8584 29.5976 84.9239 40.5701 84.6323 51.3005C84.3408 62.0314 78.6766 71.701 71.4435 76.6978C65.3349 80.9178 57.0185 81.7533 52.1535 75.3219C47.2518 68.8411 48.0864 57.4842 52.2893 50.205C56.4922 42.9258 63.1489 38.9036 69.694 35.8169C73.5501 33.9985 77.5688 32.3861 81.6614 32.6384C85.754 32.8913 89.9773 35.3306 92.0347 39.9854C94.6071 45.8046 93.277 53.438 95.4668 59.5218M88.8156 43.0726C84.3036 46.428 80.2741 50.7841 75.9413 54.5259C70.6469 59.0981 64.8921 62.7497 58.875 65.3562C53.5851 67.6477 47.8826 69.1317 42.4561 67.4815C37.0297 65.8313 31.9792 60.4103 31.0473 53.1954C29.8312 43.7823 36.2398 34.7917 43.3965 33.1365C50.5532 31.4817 57.8373 35.5396 63.699 41.1824C69.5607 46.8257 74.4374 54.0452 80.0844 60.054C85.7314 66.0633 92.5589 70.9786 99.8226 70.7013M93.4274 33.529C75.303 40.3555 62.4613 61.0929 46.3365 73.9323C40.7864 78.3516 34.4823 81.9277 28.0149 81.2247C21.4372 80.5095 15.2718 75.0543 12.2937 67.3153C9.31565 59.5763 9.62728 49.8186 13.0882 42.4344C18.7624 30.3286 31.6141 26.5797 41.8985 31.0005C52.1828 35.4218 60.1503 46.2894 66.2088 58.0694C70.0445 65.5275 73.3901 73.6417 78.5918 79.4991M97.6533 36.4766C89.2789 38.8119 81.2737 43.4086 74.2803 49.8971C66.9064 56.7389 60.6708 65.6274 52.9389 71.7494C45.2074 77.8714 35.0471 80.8261 27.2621 74.8229C19.3101 68.6907 16.4389 53.7709 20.702 43.0283C24.965 32.2857 35.3638 26.7912 44.2804 29.8775C50.8427 32.1485 56.3623 38.455 59.7518 46.1798C63.1413 53.9045 64.5324 62.9419 64.5921 71.858C58.5642 82.8509 46.0825 86.661 36.9833 80.2867C32.5879 77.2071 29.0513 72.0563 27.1857 65.9878C24.5502 57.4164 25.4187 47.1371 29.4206 39.5342C33.4225 31.9308 40.436 27.2353 47.4698 27.4504C50.8047 29.1857 52.55 34.3753 52.1966 39.0652C51.8427 43.7552 49.7958 47.9472 47.3959 51.4499C41.1595 60.5531 32.0816 66.1907 22.7694 66.7444C19.3405 66.9483 15.7685 66.4395 12.8117 64.1496C9.85537 61.8591 7.65973 57.4775 8.04363 52.9966C12.2611 37.3172 24.8175 26.2376 37.4596 27.041C39.151 36.8502 38.0427 47.4476 34.4013 56.2938C30.7599 65.1406 24.6162 72.1593 17.4428 75.6691C14.6017 73.3756 13.9229 68.0744 15.0257 63.9395C16.1281 59.8047 18.5761 56.5737 20.9643 53.516C25.2724 48.0002 29.784 42.4242 35.3834 39.5368C40.9828 36.6499 47.9858 37.0506 52.2943 42.5659C52.0169 48.0965 51.679 53.7255 50.1075 58.8687C48.5359 64.0119 45.5173 68.6831 41.4657 70.2262C37.414 71.7693 32.4091 69.3223 30.9424 64.1256C29.924 60.5174 30.7394 56.3336 32.4713 53.2295C34.2029 50.126 36.7369 47.9569 39.3544 46.2302C43.5327 43.4749 48.2811 41.656 52.8779 42.7754C57.4743 43.8949 61.7795 48.5543 62.3873 54.6442C62.4529 63.3941 59.5421 72.1098 54.5969 77.9713C49.6517 83.8327 42.7544 86.7421 36.1366 85.7582" stroke="white" style="stroke:white;stroke-opacity:1;" stroke-miterlimit="10"/>
<path d="M123 194.599C123 194.599 149.337 181.88 167.357 181.88C185.378 181.88 193.694 194.599 211.714 194.599C229.735 194.599 238.749 176.913 256.071 181.88C273.394 186.847 283.106 189.632 300.429 194.599" stroke="white" style="stroke:white;stroke-opacity:1;" stroke-width="0.95" stroke-linecap="round"/>
</svg>
