<svg width="930" height="196" viewBox="0 0 930 196" fill="none" xmlns="http://www.w3.org/2000/svg">
<path d="M3.08594 195.041C4.70268 164.314 7.75439 158.594 9.27084 137.547C9.74621 130.95 13.2149 124.589 17.9156 121.28C25.1066 116.219 34.8736 115.932 42.1629 111.084C45.4568 108.892 47.8602 104.807 48.5077 100.298C49.1687 95.6928 47.9847 90.7442 45.3857 87.3066C39.2354 74.8938 36.3462 60.1066 37.2712 45.6426" stroke="white" style="stroke:white;stroke-opacity:1;" stroke-miterlimit="10"/>
<path d="M24.3164 195.041C24.3164 181.289 25.5969 169.11 26.8628 157.17C27.1956 169.753 27.5288 182.337 27.8616 194.92" stroke="white" style="stroke:white;stroke-opacity:1;" stroke-miterlimit="10"/>
<path d="M104.357 195.041C104.357 180.658 102.973 166.42 101.672 154.521C101.316 167.988 100.96 181.455 100.604 194.921" stroke="white" style="stroke:white;stroke-opacity:1;" stroke-miterlimit="10"/>
<path d="M36.5946 53.4597C35.4774 52.7703 34.0993 52.7483 32.9679 53.402C31.8366 54.0558 30.9773 55.3712 30.7067 56.8626C30.3128 59.0344 31.1187 61.2339 31.9038 63.2416C32.6432 65.132 33.3826 67.0229 34.122 68.9133C34.6001 70.1359 35.1481 71.4472 36.1488 72.0348C37.1491 72.6224 38.674 71.9269 38.6621 70.5721" stroke="white" style="stroke:white;stroke-opacity:1;" stroke-miterlimit="10"/>
<path d="M122.678 195.041C121.061 164.314 117.801 158.594 116.284 137.547C115.809 130.95 112.34 124.589 107.639 121.28C100.448 116.219 90.6815 115.932 83.3921 111.084C80.0983 108.892 77.6949 104.807 77.0473 100.298C76.3864 95.6928 77.5704 90.7442 80.1694 87.3066C86.3197 74.8938 89.2088 60.1066 88.2838 45.6426" stroke="white" style="stroke:white;stroke-opacity:1;" stroke-miterlimit="10"/>
<path d="M88.9621 53.4597C90.0793 52.7703 91.4574 52.7483 92.5887 53.402C93.7201 54.0558 94.5794 55.3712 94.85 56.8626C95.2439 59.0344 94.438 61.2339 93.6529 63.2416C92.9135 65.132 92.1741 67.0229 91.4347 68.9133C90.9566 70.1359 90.4086 71.4472 89.4079 72.0348C88.4076 72.6224 86.8827 71.9269 86.8946 70.5721" stroke="white" style="stroke:white;stroke-opacity:1;" stroke-miterlimit="10"/>
<path d="M28.9651 59.0472C25.3257 51.8358 27.8075 40.9219 33.5836 36.7656C39.3597 32.6094 47.2006 35.1675 51.386 41.8481C55.5713 48.5283 56.1448 58.4487 53.4458 66.3411C51.6792 71.5067 48.2404 76.1498 43.9489 76.6826C39.6738 77.2132 35.4968 73.3007 33.8514 68.0897C32.2059 62.8782 32.8442 56.7404 34.8736 51.768C36.9025 46.7956 40.1918 42.8805 43.7848 39.7907C48.077 36.0993 53.4157 33.4072 58.292 35.5009C63.7168 37.83 66.9396 45.6746 67.042 53.1719C67.1443 60.6693 64.7231 67.8261 61.8779 74.3263C59.5018 79.7555 56.5772 85.1842 52.2398 87.78C47.902 90.3763 41.8653 88.9698 39.7778 83.3393C38.6144 80.2006 38.883 76.4017 39.9073 73.1803C40.9316 69.9585 42.6377 67.2042 44.36 64.5452C49.1084 57.2135 54.4618 49.9613 61.4104 46.9062C68.3591 43.8516 77.2532 46.4137 80.6565 54.9388C82.7168 60.0999 82.4223 66.4206 80.9915 71.937C77.7996 84.2416 68.9055 93.6415 59.074 95.101C54.5771 95.7688 49.3812 94.4138 46.9675 89.3838C45.1796 85.6578 45.3947 80.7277 46.7424 76.6943C48.0904 72.6609 50.4239 69.3534 52.7979 66.2437C57.7398 59.771 63.2201 53.6501 69.8011 50.6021C76.3822 47.5541 84.2908 48.096 89.64 53.984C94.9043 59.7782 96.7282 70.035 94.67 78.6432C92.6118 87.2513 87.0784 94.0416 80.6377 97.1717C75.256 99.7874 68.5036 99.6441 64.5539 94.1747C60.3715 88.3826 61.0065 78.6111 64.4691 72.0502C67.9318 65.4893 73.5211 61.488 79.049 58.1714C83.7524 55.3497 88.7122 52.8084 93.883 52.7758M84.6952 94.3297C80.357 95.2814 75.2719 95.6245 72.2328 91.4468C70.0743 88.4799 69.6211 83.873 70.4311 79.909C71.2411 75.9449 73.1376 72.5202 75.2038 69.4416M93.2614 88.7843C87.3011 84.6341 85.4526 73.92 87.5705 65.5056C89.688 57.0911 94.7974 50.6118 100.062 45.071M96.7637 77.9183C91.9856 77.3519 87.2167 74.1586 84.8389 68.6836C81.8095 61.7072 83.3071 52.4934 87.0659 46.1589C90.8247 39.8243 96.4249 35.8704 102.057 32.746M81.0425 72.3056C76.2335 71.9946 71.0059 70.3883 68.1243 65.3205C64.6897 59.2801 65.9855 50.2692 69.6036 44.4164C73.2216 38.5636 78.6108 35.1771 83.8764 32.1791C87.0905 30.349 90.399 28.5709 93.8922 28.2273M99.9895 56.8775C90.9216 69.4498 76.7406 75.2439 63.8454 71.6444C60.1225 70.6049 56.2743 68.5974 54.1606 64.4386C51.1244 58.465 52.8485 49.968 56.6081 44.7524C60.3678 39.5368 65.6614 36.8253 70.7716 34.2707C73.6999 32.8067 76.6947 31.3247 79.826 31.1825C82.9574 31.0403 86.3069 32.4789 88.1228 35.8337C89.754 38.8471 89.8831 42.9544 88.9854 46.4591C88.0873 49.9639 86.2801 52.9456 84.2825 55.5506C73.3653 69.7878 55.4497 73.7411 41.5916 64.9708C40.4144 58.126 42.5788 50.8529 46.1003 45.5772C49.6218 40.301 54.3561 36.708 59.115 33.5219C63.6783 30.4668 68.6494 27.6257 73.7383 28.3853C81.8584 29.5976 87.9239 40.5701 87.6323 51.3005C87.3408 62.0314 81.6766 71.701 74.4435 76.6978C68.3349 80.9178 60.0185 81.7533 55.1535 75.3219C50.2518 68.8411 51.0864 57.4842 55.2893 50.205C59.4922 42.9258 66.1489 38.9036 72.694 35.8169C76.5501 33.9985 80.5688 32.3861 84.6614 32.6384C88.754 32.8913 92.9773 35.3306 95.0347 39.9854C97.6071 45.8046 96.277 53.438 98.4668 59.5218M91.8156 43.0726C87.3036 46.428 83.2741 50.7841 78.9413 54.5259C73.6469 59.0981 67.8921 62.7497 61.875 65.3562C56.5851 67.6477 50.8826 69.1317 45.4561 67.4815C40.0297 65.8313 34.9792 60.4103 34.0473 53.1954C32.8312 43.7823 39.2398 34.7917 46.3965 33.1365C53.5532 31.4817 60.8373 35.5396 66.699 41.1824C72.5607 46.8257 77.4374 54.0452 83.0844 60.054M96.4274 33.529C78.303 40.3555 65.4613 61.0929 49.3365 73.9323C43.7864 78.3516 37.4823 81.9277 31.0149 81.2247C24.4372 80.5095 18.2718 75.0543 15.2937 67.3153C12.3156 59.5763 12.6273 49.8186 16.0882 42.4344C21.7624 30.3286 34.6141 26.5797 44.8985 31.0005C55.1828 35.4218 63.1503 46.2894 69.2088 58.0694C73.0445 65.5275 76.3901 73.6417 81.5918 79.4991M100.653 36.4766C92.2789 38.8119 84.2737 43.4086 77.2803 49.8971C69.9064 56.7389 63.6708 65.6274 55.9389 71.7494C48.2074 77.8714 38.0471 80.8261 30.2621 74.8229C22.3101 68.6907 19.4389 53.7709 23.702 43.0283C27.965 32.2857 38.3638 26.7912 47.2804 29.8775C53.8427 32.1485 59.3623 38.455 62.7518 46.1798C66.1413 53.9045 67.5324 62.9419 67.5921 71.858C61.5642 82.8509 49.0825 86.661 39.9833 80.2867C35.5879 77.2071 32.0513 72.0563 30.1857 65.9878C27.5502 57.4164 28.4187 47.1371 32.4206 39.5342C36.4225 31.9308 43.436 27.2353 50.4698 27.4504C53.8047 29.1857 55.55 34.3753 55.1966 39.0652C54.8427 43.7552 52.7958 47.9472 50.3959 51.4499C44.1595 60.5531 35.0816 66.1907 25.7694 66.7444C22.3405 66.9483 18.7685 66.4395 15.8117 64.1496C12.8554 61.8591 10.6597 57.4775 11.0436 52.9966C15.2611 37.3172 27.8175 26.2376 40.4596 27.041C42.151 36.8502 41.0427 47.4476 37.4013 56.2938C33.7599 65.1406 27.6162 72.1593 20.4428 75.6691C17.6017 73.3756 16.9229 68.0744 18.0257 63.9395C19.1281 59.8047 21.5761 56.5737 23.9643 53.516C28.2724 48.0002 32.784 42.4242 38.3834 39.5368C43.9828 36.6499 50.9858 37.0506 55.2943 42.5659C55.0169 48.0965 54.679 53.7255 53.1075 58.8687C51.5359 64.0119 48.5173 68.6831 44.4657 70.2262C40.414 71.7693 35.4091 69.3223 33.9424 64.1256C32.924 60.5174 33.7394 56.3336 35.4713 53.2295C37.2029 50.126 39.7369 47.9569 42.3544 46.2302C46.5327 43.4749 51.2811 41.656 55.8779 42.7754C60.4743 43.8949 64.7795 48.5543 65.3873 54.6442C65.4529 63.3941 62.5421 72.1098 57.5969 77.9713C52.6517 83.8327 45.7544 86.7421 39.1366 85.7582" stroke="white" style="stroke:white;stroke-opacity:1;" stroke-miterlimit="10"/>
<path d="M74.2651 64.4685C70.058 65.9825 65.3459 62.6552 63.4135 57.5166C61.481 52.378 62.1043 45.9731 64.4048 41.1032C66.7053 36.2332 70.4879 32.7968 74.5617 30.7469M86.3352 62.9947C80.6394 63.7257 74.098 62.6628 70.6449 56.6663C68.047 52.1542 67.9192 45.7651 69.4799 40.4919C71.0406 35.2188 74.065 30.9126 77.3572 27.2651M77.7202 48.9793C73.1957 48.4252 68.2638 46.361 66.0862 41.1205C64.4089 37.0845 64.8129 31.9684 66.3991 27.8697M63.3287 42.2349C58.0547 41.2954 52.2039 38.4039 50.3976 31.8262M55.1397 37.527C50.2016 38.1005 44.5367 37.213 41.5423 32.0224M43.4677 38.8051C38.9507 38.8438 33.6784 37.0871 31.9648 31.5957M38.5517 40.2574C34.7917 41.9698 29.9521 42.266 27.5017 38.1459C25.7677 35.23 25.9034 30.9656 27.0969 27.6138M54.9931 28.9026C52.8392 35.2361 48.5261 39.7793 44.286 43.9126C41.7675 46.3677 39.1428 48.8177 36.1109 49.8689C33.0789 50.92 29.5148 50.2961 27.3722 47.2873C25.309 44.3902 25.0019 39.8929 25.8738 36.094M46.9633 61.574C51.0538 53.603 55.4702 45.4705 61.8357 40.7305C68.2012 35.9901 77.0719 35.6623 82.1908 42.5311C85.9213 47.5366 86.8704 55.0656 86.8503 62.071M56.1047 61.5801C59.6334 56.9895 63.9553 52.6859 68.9209 52.6094C74.1172 52.5294 78.9011 57.4345 80.9664 63.7002M63.0743 67.1316C65.8092 64.1815 69.6537 62.5792 72.9617 64.2304M47.4329 73.1062C48.91 70.8505 51.3671 69.4562 53.4959 70.4717M37.0671 72.7443C38.474 70.933 40.564 69.8059 42.4451 70.5731M36.4568 67.0602C38.4945 64.9666 41.6242 64.2891 43.6197 66.4515M64.8726 58.1462C68.0792 50.3108 75.6173 45.9522 82.1361 48.3574C83.9679 52.7751 83.9554 58.2181 82.8154 63.0212M58.1437 63.1553C63.5263 52.8414 73.4944 47.0095 82.9298 48.654C83.315 57.5334 80.4146 66.5601 75.3032 72.391M50.0972 67.9737C49.71 63.1487 50.9415 58.3338 52.6057 54.0027M82.137 50.7844C80.3561 60.4377 74.2471 67.674 67.8152 72.8942M72.1943 43.7265C69.3466 53.8518 62.1874 61.6647 54.0895 63.4851C45.9917 65.3056 37.2626 61.0642 32.0149 52.7583" stroke="white" style="stroke:white;stroke-opacity:1;" stroke-miterlimit="10"/>
<path d="M123 194.599C123 194.599 149.337 181.88 167.357 181.88C185.378 181.88 193.694 194.599 211.714 194.599C229.735 194.599 238.749 176.913 256.071 181.88C273.394 186.847 283.106 189.632 300.429 194.599C317.751 199.566 326.765 181.88 344.786 181.88" stroke="white" style="stroke:white;stroke-opacity:1;" stroke-linecap="round"/>
</svg>
