<svg width="930" height="196" viewBox="0 0 930 196" fill="none" xmlns="http://www.w3.org/2000/svg">
<path d="M3.08594 195.041C4.70268 164.314 7.75439 158.594 9.27084 137.547C9.74621 130.95 13.2149 124.589 17.9156 121.28C25.1066 116.219 34.8736 115.932 42.1629 111.084C45.4568 108.892 47.8602 104.807 48.5077 100.298C49.1687 95.6928 47.9847 90.7442 45.3857 87.3066C39.2354 74.8938 36.3462 60.1066 37.2712 45.6426" stroke="white" style="stroke:white;stroke-opacity:1;" stroke-miterlimit="10"/>
<path d="M24.3164 195.041C24.3164 181.289 25.5969 169.11 26.8628 157.17C27.1956 169.753 27.5288 182.337 27.8616 194.92" stroke="white" style="stroke:white;stroke-opacity:1;" stroke-miterlimit="10"/>
<path d="M104.357 195.041C104.357 180.658 102.973 166.42 101.672 154.521C101.316 167.988 100.96 181.455 100.604 194.921" stroke="white" style="stroke:white;stroke-opacity:1;" stroke-miterlimit="10"/>
<path d="M36.5946 53.4597C35.4774 52.7703 34.0993 52.7483 32.9679 53.402C31.8366 54.0558 30.9773 55.3712 30.7067 56.8626C30.3128 59.0344 31.1187 61.2339 31.9038 63.2416C32.6432 65.132 33.3826 67.0229 34.122 68.9133C34.6001 70.1359 35.1481 71.4472 36.1488 72.0348C37.1491 72.6224 38.674 71.9269 38.6621 70.5721" stroke="white" style="stroke:white;stroke-opacity:1;" stroke-miterlimit="10"/>
<path d="M122.678 195.041C121.061 164.314 117.801 158.594 116.284 137.547C115.809 130.95 112.34 124.589 107.639 121.28C100.448 116.219 90.6815 115.932 83.3921 111.084C80.0983 108.892 77.6949 104.807 77.0473 100.298C76.3864 95.6928 77.5704 90.7442 80.1694 87.3066C86.3197 74.8938 89.2088 60.1066 88.2838 45.6426" stroke="white" style="stroke:white;stroke-opacity:1;" stroke-miterlimit="10"/>
<path d="M88.9621 53.4597C90.0793 52.7703 91.4574 52.7483 92.5887 53.402C93.7201 54.0558 94.5794 55.3712 94.85 56.8626C95.2439 59.0344 94.438 61.2339 93.6529 63.2416C92.9135 65.132 92.1741 67.0229 91.4347 68.9133C90.9566 70.1359 90.4086 71.4472 89.4079 72.0348C88.4076 72.6224 86.8827 71.9269 86.8946 70.5721" stroke="white" style="stroke:white;stroke-opacity:1;" stroke-miterlimit="10"/>
<path d="M38.9651 56.0472C35.3257 48.8358 37.8075 37.9219 43.5836 33.7656C49.3597 29.6094 57.2006 32.1675 61.386 38.8481C65.5713 45.5283 66.1448 55.4487 63.4458 63.3411C61.6792 68.5067 58.2404 73.1498 53.9489 73.6826C49.6738 74.2132 45.4968 70.3007 43.8514 65.0897C42.2059 59.8782 42.8442 53.7404 44.8736 48.768C46.9025 43.7956 50.1918 39.8805 53.7848 36.7907C58.077 33.0993 63.4157 30.4072 68.292 32.5009C73.7168 34.83 76.9396 42.6746 77.042 50.1719C77.1443 57.6693 74.7231 64.8261 71.8779 71.3263M49.7778 80.3393C48.6144 77.2006 48.883 73.4017 49.9073 70.1803C50.9316 66.9585 52.6377 64.2042 54.36 61.5452C59.1084 54.2135 64.4618 46.9613 71.4104 43.9062C78.3591 40.8516 87.2532 43.4137 90.6565 51.9388C92.7168 57.0999 92.4223 63.4206 90.9915 68.937M56.7424 73.6943C58.0904 69.6609 60.4239 66.3534 62.7979 63.2437C67.7398 56.771 73.2201 50.6501 79.8011 47.6021C86.3822 44.5541 94.2908 45.096 99.64 50.984M74.4691 69.0502C77.9318 62.4893 83.5211 58.488 89.049 55.1714M80.4311 76.909C81.2411 72.9449 83.1376 69.5202 85.2038 66.4416M94.8389 65.6836C91.8095 58.7072 93.3071 49.4934 97.0659 43.1589M91.0425 69.3056C86.2335 68.9946 81.0059 67.3883 78.1243 62.3205C74.6897 56.2801 75.9855 47.2692 79.6036 41.4164C83.2216 35.5636 88.6108 32.1771 93.8764 29.1791M73.8454 68.6444C70.1225 67.6049 66.2743 65.5974 64.1606 61.4386C61.1244 55.465 62.8485 46.968 66.6081 41.7524C70.3678 36.5368 75.6614 33.8253 80.7716 31.2707C83.6999 29.8067 86.6947 28.3247 89.826 28.1825C92.9574 28.0403 96.3069 29.4789 98.1228 32.8337C99.754 35.8471 99.8831 39.9544 98.9854 43.4591C98.0873 46.9639 96.2801 49.9456 94.2825 52.5506C83.3653 66.7878 65.4497 70.7411 51.5916 61.9708C50.4144 55.126 52.5788 47.8529 56.1003 42.5772C59.6218 37.301 64.3561 33.708 69.115 30.5219C73.6783 27.4668 78.6494 24.6257 83.7383 25.3853C91.8584 26.5976 97.9239 37.5701 97.6323 48.3005C97.3408 59.0314 91.6766 68.701 84.4435 73.6978C78.3349 77.9178 70.0185 78.7533 65.1535 72.3219C60.2518 65.8411 61.0864 54.4842 65.2893 47.205C69.4922 39.9258 76.1489 35.9036 82.694 32.8169C86.5501 30.9985 90.5688 29.3861 94.6614 29.6384M101.816 40.0726C97.3036 43.428 93.2741 47.7841 88.9413 51.5259C83.6469 56.0981 77.8921 59.7497 71.875 62.3562C66.5851 64.6477 60.8826 66.1317 55.4561 64.4815C50.0297 62.8313 44.9792 57.4103 44.0473 50.1954C42.8312 40.7823 49.2398 31.7917 56.3965 30.1365C63.5532 28.4817 70.8373 32.5396 76.699 38.1824C82.5607 43.8257 87.4374 51.0452 93.0844 57.054M59.3365 70.9323C53.7864 75.3516 47.4823 78.9277 41.0149 78.2247C34.4372 77.5095 28.2718 72.0543 25.2937 64.3153C22.3156 56.5763 22.6273 46.8186 26.0882 39.4344C31.7624 27.3286 44.6141 23.5797 54.8985 28.0005C65.1828 32.4218 73.1503 43.2894 79.2088 55.0694C83.0445 62.5275 86.3901 70.6417 91.5918 76.4991M87.2803 46.8971C79.9064 53.7389 73.6708 62.6274 65.9389 68.7494C58.2074 74.8714 48.0471 77.8261 40.2621 71.8229C32.3101 65.6907 29.4389 50.7709 33.702 40.0283C37.965 29.2857 48.3638 23.7912 57.2804 26.8775C63.8427 29.1485 69.3623 35.455 72.7518 43.1798C76.1413 50.9045 77.5324 59.9419 77.5921 68.858C71.5642 79.8509 59.0825 83.661 49.9833 77.2867C45.5879 74.2071 42.0513 69.0563 40.1857 62.9878C37.5502 54.4164 38.4187 44.1371 42.4206 36.5342C46.4225 28.9308 53.436 24.2353 60.4698 24.4504C63.8047 26.1857 65.55 31.3753 65.1966 36.0652C64.8427 40.7552 62.7958 44.9472 60.3959 48.4499C54.1595 57.5531 45.0816 63.1907 35.7694 63.7444C32.3405 63.9483 28.7685 63.4395 25.8117 61.1496C22.8554 58.8591 20.6597 54.4775 21.0436 49.9966C25.2611 34.3172 37.8175 23.2376 50.4596 24.041C52.151 33.8502 51.0427 44.4476 47.4013 53.2938C43.7599 62.1406 37.6162 69.1593 30.4428 72.6691C27.6017 70.3756 26.9229 65.0744 28.0257 60.9395C29.1281 56.8047 31.5761 53.5737 33.9643 50.516C38.2724 45.0002 42.784 39.4242 48.3834 36.5368C53.9828 33.6499 60.9858 34.0506 65.2943 39.5659C65.0169 45.0965 64.679 50.7255 63.1075 55.8687C61.5359 61.0119 58.5173 65.6831 54.4657 67.2262C50.414 68.7693 45.4091 66.3223 43.9424 61.1256C42.924 57.5174 43.7394 53.3336 45.4713 50.2295C47.2029 47.126 49.7369 44.9569 52.3544 43.2302C56.5327 40.4749 61.2811 38.656 65.8779 39.7754C70.4743 40.8949 74.7795 45.5543 75.3873 51.6442C75.4529 60.3941 72.5421 69.1098 67.5969 74.9713C62.6517 80.8327 55.7544 83.7421 49.1366 82.7582" stroke="white" style="stroke:white;stroke-opacity:1;" stroke-miterlimit="10"/>
<path d="M123 194.599C123 194.599 149.337 181.88 167.357 181.88C185.378 181.88 193.694 194.599 211.714 194.599C229.735 194.599 238.749 176.913 256.071 181.88C273.394 186.847 283.106 189.632 300.429 194.599C317.751 199.566 326.765 181.88 344.786 181.88C362.806 181.88 371.122 194.599 389.143 194.599" stroke="white" style="stroke:white;stroke-opacity:1;" stroke-width="0.95" stroke-linecap="round"/>
</svg>
