<svg width="930" height="197" viewBox="0 0 930 197" fill="none" xmlns="http://www.w3.org/2000/svg">
<g opacity="0.8">
<path d="M3.08594 196.041C4.70268 165.314 7.75439 159.594 9.27084 138.547C9.74621 131.95 13.2149 125.589 17.9156 122.28C25.1066 117.219 34.8736 116.932 42.1629 112.084C45.4568 109.892 47.8602 105.807 48.5077 101.298C49.1687 96.6928 47.9847 91.7442 45.3857 88.3066C39.2354 75.8938 36.3462 61.1066 37.2712 46.6426" stroke="white" style="stroke:white;stroke-opacity:1;" stroke-miterlimit="10"/>
<path d="M24.3164 196.041C24.3164 182.289 25.5969 170.11 26.8628 158.17C27.1956 170.753 27.5288 183.337 27.8616 195.92" stroke="white" style="stroke:white;stroke-opacity:1;" stroke-miterlimit="10"/>
<path d="M104.357 196.041C104.357 181.658 102.973 167.42 101.672 155.521C101.316 168.988 100.96 182.455 100.604 195.921" stroke="white" style="stroke:white;stroke-opacity:1;" stroke-miterlimit="10"/>
<path d="M36.5946 54.4597C35.4774 53.7703 34.0993 53.7483 32.9679 54.402C31.8366 55.0558 30.9773 56.3712 30.7067 57.8626C30.3128 60.0344 31.1187 62.2339 31.9038 64.2416C32.6432 66.132 33.3826 68.0229 34.122 69.9133C34.6001 71.1359 35.1481 72.4472 36.1488 73.0348C37.1491 73.6224 38.674 72.9269 38.6621 71.5721" stroke="white" style="stroke:white;stroke-opacity:1;" stroke-miterlimit="10"/>
<path d="M122.678 196.041C121.061 165.314 117.801 159.594 116.284 138.547C115.809 131.95 112.34 125.589 107.639 122.28C100.448 117.219 90.6815 116.932 83.3921 112.084C80.0983 109.892 77.6949 105.807 77.0473 101.298C76.3864 96.6928 77.5704 91.7442 80.1694 88.3066C86.3197 75.8938 89.2088 61.1066 88.2838 46.6426" stroke="white" style="stroke:white;stroke-opacity:1;" stroke-miterlimit="10"/>
<path d="M88.9621 54.4597C90.0793 53.7703 91.4574 53.7483 92.5887 54.402C93.7201 55.0558 94.5794 56.3712 94.85 57.8626C95.2439 60.0344 94.438 62.2339 93.6529 64.2416C92.9135 66.132 92.1741 68.0229 91.4347 69.9133C90.9566 71.1359 90.4086 72.4472 89.4079 73.0348C88.4076 73.6224 86.8827 72.9269 86.8946 71.5721" stroke="white" style="stroke:white;stroke-opacity:1;" stroke-miterlimit="10"/>
<path d="M44.1397 40.1989C39.2016 40.7724 33.5367 39.8848 30.5423 34.6942C27.2372 28.9648 28.8471 20.2684 32.6348 15.0804M32.4677 41.4769C27.9507 41.5156 22.6784 39.7589 20.9648 34.2676C19.8766 30.7801 20.6189 26.6769 22.1775 23.5127C23.7365 20.3485 26.0157 17.9357 28.2552 15.58C30.3827 13.342 32.57 11.0603 35.1567 9.93108C37.7433 8.80192 40.8542 9.04559 42.8631 11.4655C46.2121 15.4994 44.8503 22.8892 42.3401 27.8647C38.8315 34.8176 33.5509 40.1973 27.5517 42.9293C23.7917 44.6416 18.9521 44.9378 16.5017 40.8177C14.7677 37.9018 14.9034 33.6375 16.0969 30.2857C17.2904 26.9338 19.364 24.287 21.393 21.7208C24.0732 18.3308 26.8211 14.8795 30.1964 12.8236C33.5718 10.7676 37.7512 10.3287 40.8977 12.9368C45.3629 16.6378 46.1465 25.2409 43.9931 31.5744C41.8392 37.9079 37.5261 42.4511 33.286 46.5844C30.7675 49.0395 28.1428 51.4895 25.1109 52.5407C22.0789 53.5919 18.5148 52.9679 16.3722 49.9591C14.309 47.0621 14.0019 42.5648 14.8738 38.7659C15.7456 34.9675 17.6162 31.7192 19.5253 28.6447C22.8881 23.2287 26.57 17.9724 31.2003 14.5308M36.4329 75.7781C37.91 73.5223 40.3671 72.128 42.4959 73.1435M26.0671 75.4161C27.474 73.6049 29.564 72.4777 31.4451 73.245M25.4568 69.7321C27.4945 67.6384 30.6242 66.9609 32.6197 69.1234M39.0972 70.6456C38.71 65.8205 39.9415 61.0056 41.6057 56.6745M30.6275 50.2737C32.6486 41.1109 37.3155 33.0013 43.4747 27.9498M43.0895 66.1569C34.9917 67.9774 26.2626 63.736 21.0149 55.4301C19.425 36.9276 27.5154 17.6609 40.2756 9.55996" stroke="white" style="stroke:white;stroke-opacity:1;" stroke-miterlimit="10"/>
<path d="M95.8562 47.3033C90.1202 49.5249 83.5555 49.1879 78.5973 44.7946C73.6392 40.4018 70.9017 31.42 73.3054 24.2254C74.9429 19.3239 78.5255 16.022 82.2137 13.7494C85.2665 11.8683 88.585 10.4991 91.9545 10.6698M92.9183 43.2306C85.919 49.7691 77.7735 54.1751 69.2997 56.0057C66.1124 56.6945 62.8239 57.0192 59.6683 56.1123C56.5127 55.2049 53.4812 52.9384 51.7588 49.348C48.8388 43.2602 50.4425 34.8304 54.1132 29.4895C57.7835 24.1485 63.0487 21.258 68.2161 18.8722C73.0071 16.6603 78.815 14.9423 82.768 19.1307C86.5736 23.1625 86.6396 31.158 84.1984 36.7227C81.7571 42.2875 77.4707 45.9549 73.277 49.2557C68.3042 53.1703 62.9622 56.9759 57.1661 57.1135C51.3699 57.2512 45.0955 52.4674 44.2107 44.9399C43.4943 38.845 46.3583 33.0452 49.5056 28.4699C55.1379 20.2823 62.1493 13.7413 69.8887 9.45248C74.2077 7.05956 79.0685 5.3574 83.5492 7.1656C90.5681 9.99795 94.2588 20.9328 93.2846 30.4942C92.3105 40.0562 87.7613 48.3182 82.776 55.4011C80.0068 59.3356 76.961 63.135 73.196 65.1961C69.4313 67.2571 64.789 67.2775 61.5494 64.0216C57.8858 60.3394 56.9079 53.3508 58.0842 47.4904C59.2602 41.6299 62.1873 36.6738 65.213 32.0995C70.4222 24.2249 76.1987 16.8759 82.9518 11.3866M92.4404 59.4478C88.5362 54.1527 88.3047 45.5318 90.4678 38.7293M83.3775 50.5297C77.9711 48.6532 72.5593 45.7438 68.737 40.3809C64.9147 35.018 63.0537 26.7397 65.4227 20.0845C67.0105 15.6239 70.1799 12.5198 73.3844 9.96583M66.6028 64.5013C61.1851 64.7511 55.6116 64.0873 50.7145 61.0327C45.8173 57.9781 41.6763 52.212 40.7172 45.2019C39.8775 39.0657 41.5351 32.7031 44.2153 27.5579C46.8959 22.4132 50.5336 18.2814 54.1287 14.2118C58.3675 9.41374 62.7537 4.50301 68.0644 2.18962C73.3752 -0.124281 79.9019 0.777012 83.583 6.31324C87.6903 12.4892 86.9567 21.9559 84.9077 29.7031C79.2628 51.0471 65.0425 68.1064 48.3526 73.5565C45.5007 74.4879 42.518 75.1006 39.6277 74.4017C36.7374 73.7028 33.9335 71.5057 32.6514 68.0315C30.5845 62.43 32.9827 55.7682 35.8944 50.8564C40.9223 42.3742 47.6671 35.6649 55.2453 31.6081C60.2272 28.9409 66.3668 27.6094 70.6494 31.887C73.8823 35.1159 75.1852 40.9432 74.6376 46.2297C74.0899 51.5161 71.9411 56.3086 69.3536 60.4205C62.6656 71.0484 52.6712 77.9723 42.2185 79.2197C39.367 79.5597 36.4128 79.4766 33.753 78.0829C31.0933 76.6891 28.764 73.792 28.1616 70.114C27.3645 65.2461 29.6475 60.4638 32.1297 56.7016C40.416 44.1431 52.3052 35.7904 64.8558 33.7099C67.9279 33.2007 71.1453 33.0768 74.0189 34.5919C76.8929 36.1069 79.3417 39.6045 79.4224 43.6716C79.5184 48.5176 76.4518 52.3807 73.4604 55.2186C63.4263 64.7378 51.3382 70.4744 38.9906 71.577" stroke="white" style="stroke:white;stroke-opacity:1;" stroke-miterlimit="10"/>
<path d="M123 195.599C123 195.599 149.337 182.88 167.357 182.88C185.378 182.88 193.694 195.599 211.714 195.599C229.735 195.599 238.749 177.913 256.071 182.88C273.394 187.847 283.106 190.632 300.429 195.599C317.751 200.566 326.765 182.88 344.786 182.88C362.806 182.88 371.122 195.599 389.143 195.599C407.163 195.599 415.479 182.88 433.5 182.88" stroke="white" style="stroke:white;stroke-opacity:1;" stroke-width="0.95" stroke-linecap="round"/>
</g>
</svg>
