<svg width="930" height="196" viewBox="0 0 930 196" fill="none" xmlns="http://www.w3.org/2000/svg">
<g opacity="0.8">
<path d="M3.08594 195.041C4.70268 164.314 7.75439 158.594 9.27084 137.547C9.74621 130.95 13.2149 124.589 17.9156 121.28C25.1066 116.219 34.8736 115.932 42.1629 111.084C45.4568 108.892 47.8602 104.807 48.5077 100.298C49.1687 95.6928 47.9847 90.7442 45.3857 87.3066C39.2354 74.8938 36.3462 60.1066 37.2712 45.6426" stroke="white" style="stroke:white;stroke-opacity:1;" stroke-miterlimit="10"/>
<path d="M24.3164 195.041C24.3164 181.289 25.5969 169.11 26.8628 157.17C27.1956 169.753 27.5288 182.337 27.8616 194.92" stroke="white" style="stroke:white;stroke-opacity:1;" stroke-miterlimit="10"/>
<path d="M104.357 195.041C104.357 180.658 102.973 166.42 101.672 154.521C101.316 167.988 100.96 181.455 100.604 194.921" stroke="white" style="stroke:white;stroke-opacity:1;" stroke-miterlimit="10"/>
<path d="M36.5946 53.4597C35.4774 52.7703 34.0993 52.7483 32.9679 53.402C31.8366 54.0558 30.9773 55.3712 30.7067 56.8626C30.3128 59.0344 31.1187 61.2339 31.9038 63.2416C32.6432 65.132 33.3826 67.0229 34.122 68.9133C34.6001 70.1359 35.1481 71.4472 36.1488 72.0348C37.1491 72.6224 38.674 71.9269 38.6621 70.5721" stroke="white" style="stroke:white;stroke-opacity:1;" stroke-miterlimit="10"/>
<path d="M122.678 195.041C121.061 164.314 117.801 158.594 116.284 137.547C115.809 130.95 112.34 124.589 107.639 121.28C100.448 116.219 90.6815 115.932 83.3921 111.084C80.0983 108.892 77.6949 104.807 77.0473 100.298C76.3864 95.6928 77.5704 90.7442 80.1694 87.3066C86.3197 74.8938 89.2088 60.1066 88.2838 45.6426" stroke="white" style="stroke:white;stroke-opacity:1;" stroke-miterlimit="10"/>
<path d="M88.9621 53.4597C90.0793 52.7703 91.4574 52.7483 92.5887 53.402C93.7201 54.0558 94.5794 55.3712 94.85 56.8626C95.2439 59.0344 94.438 61.2339 93.6529 63.2416C92.9135 65.132 92.1741 67.0229 91.4347 68.9133C90.9566 70.1359 90.4086 71.4472 89.4079 72.0348C88.4076 72.6224 86.8827 71.9269 86.8946 70.5721" stroke="white" style="stroke:white;stroke-opacity:1;" stroke-miterlimit="10"/>
<path d="M123 194.599C123 194.599 149.337 181.88 167.357 181.88C185.378 181.88 193.694 194.599 211.714 194.599C229.735 194.599 238.749 176.913 256.071 181.88C273.394 186.847 283.106 189.632 300.429 194.599C317.751 199.566 326.765 181.88 344.786 181.88C362.806 181.88 371.122 194.599 389.143 194.599C407.163 194.599 415.479 181.88 433.5 181.88C451.521 181.88 459.837 194.599 477.857 194.599" stroke="white" style="stroke:white;stroke-opacity:1;" stroke-width="0.95" stroke-linecap="round"/>
<path d="M43.7237 55.1989C38.7856 55.7724 33.1207 54.8848 30.1263 49.6942C26.8212 43.9648 28.4311 35.2684 32.2188 30.0804M32.0517 56.4769C27.5347 56.5156 22.2624 54.7589 20.5488 49.2676C19.4606 45.7801 20.2029 41.6769 21.7615 38.5127C23.3205 35.3485 25.5997 32.9357 27.8392 30.58C29.9667 28.342 32.154 26.0603 34.7407 24.9311C37.3273 23.8019 40.4382 24.0456 42.4471 26.4655C45.7961 30.4994 44.4343 37.8892 41.9241 42.8647C38.4155 49.8176 33.1349 55.1973 27.1357 57.9293C23.3756 59.6416 18.5361 59.9378 16.0857 55.8177C14.3516 52.9018 14.4874 48.6375 15.6809 45.2857C16.8744 41.9338 18.948 39.287 20.977 36.7208C23.6572 33.3308 26.4051 29.8795 29.7804 27.8236C33.1557 25.7676 37.3352 25.3287 40.4816 27.9368C44.9469 31.6378 45.7305 40.2409 43.5771 46.5744C41.4232 52.9079 37.1101 57.4511 32.87 61.5844C30.3515 64.0395 27.7268 66.4895 24.6949 67.5407C21.6629 68.5919 18.0988 67.9679 15.9562 64.9591C13.893 62.0621 13.5859 57.5648 14.4577 53.7659C15.3296 49.9675 17.2002 46.7192 19.1093 43.6447C22.4721 38.2287 26.154 32.9724 30.7842 29.5308M36.0168 90.7781C37.494 88.5223 39.9511 87.128 42.0799 88.1435M25.6511 90.4161C27.058 88.6049 29.148 87.4777 31.029 88.245M25.0408 84.7321C27.0785 82.6384 30.2082 81.9609 32.2037 84.1234M38.6812 85.6456C38.2939 80.8205 39.5254 76.0056 41.1897 71.6745M30.2115 65.2737C32.2325 56.1109 36.8995 48.0013 43.0587 42.9498M42.6735 81.1569C34.5756 82.9774 25.8466 78.736 20.5989 70.4301C19.009 51.9276 27.0994 32.6609 39.8596 24.56" stroke="white" style="stroke:white;stroke-opacity:1;" stroke-miterlimit="10"/>
<path d="M95.4404 62.3033C89.7044 64.5249 83.1396 64.1879 78.1815 59.7946C73.2233 55.4018 70.4859 46.42 72.8896 39.2254C74.5271 34.3239 78.1096 31.022 81.7979 28.7494C84.8507 26.8683 88.1692 25.4991 91.5387 25.6698M92.5024 58.2306C85.5032 64.7691 77.3577 69.1751 68.8839 71.0057C65.6965 71.6945 62.4081 72.0192 59.2525 71.1123C56.0969 70.2049 53.0653 67.9384 51.343 64.348C48.423 58.2602 50.0267 49.8304 53.6974 44.4895C57.3676 39.1485 62.6328 36.258 67.8002 33.8722C72.5913 31.6603 78.3991 29.9423 82.3522 34.1307C86.1578 38.1625 86.2238 46.158 83.7825 51.7227C81.3413 57.2875 77.0548 60.9549 72.8612 64.2557M43.7949 59.9399C43.0784 53.845 45.9425 48.0452 49.0897 43.4699C54.7221 35.2823 61.7334 28.7413 69.4729 24.4525C73.7919 22.0596 78.6527 20.3574 83.1334 22.1656C90.1522 24.9979 93.8429 35.9328 92.8688 45.4942C91.8946 55.0562 87.3454 63.3182 82.3601 70.4011M57.6684 62.4904C58.8443 56.6299 61.7714 51.6738 64.7971 47.0995C70.0063 39.2249 75.7828 31.8759 82.536 26.3866M82.9617 65.5297C77.5553 63.6532 72.1435 60.7438 68.3212 55.3809C64.4989 50.018 62.6378 41.7397 65.0068 35.0845C66.5947 30.6239 69.764 27.5198 72.9685 24.9658M40.3013 60.2019C39.4617 54.0657 41.1192 47.7031 43.7995 42.5579C46.4801 37.4132 50.1178 33.2814 53.7128 29.2118C57.9516 24.4137 62.3379 19.503 67.6486 17.1896C72.9593 14.8757 79.4861 15.777 83.1672 21.3132C87.2744 27.4892 86.5409 36.9559 84.4919 44.7031M35.4785 65.8564C40.5064 57.3742 47.2512 50.6649 54.8294 46.6081C59.8114 43.9409 65.9509 42.6094 70.2336 46.887C73.4665 50.1159 74.7694 55.9432 74.2217 61.2297M64.44 48.7099C67.512 48.2007 70.7294 48.0768 73.6031 49.5919C76.4771 51.1069 78.9259 54.6045 79.0065 58.6716C79.1026 63.5176 76.036 67.3807 73.0445 70.2186" stroke="white" style="stroke:white;stroke-opacity:1;" stroke-miterlimit="10"/>
</g>
</svg>
