<svg width="931" height="197" viewBox="0 0 931 197" fill="none" xmlns="http://www.w3.org/2000/svg">
<path d="M4.08594 196.041C5.70268 165.314 8.75439 159.594 10.2708 138.547C10.7462 131.95 14.2149 125.589 18.9156 122.28C26.1066 117.219 35.8736 116.932 43.1629 112.084C46.4568 109.892 48.8602 105.807 49.5077 101.298C50.1687 96.6928 48.9847 91.7442 46.3857 88.3066C40.2354 75.8938 37.3462 61.1066 38.2712 46.6426" stroke="white" style="stroke:white;stroke-opacity:1;" stroke-miterlimit="10"/>
<path d="M25.3159 196.041C25.3159 182.289 26.5964 170.11 27.8623 158.17C28.1951 170.753 28.5283 183.337 28.8611 195.92" stroke="white" style="stroke:white;stroke-opacity:1;" stroke-miterlimit="10"/>
<path d="M105.358 196.041C105.358 181.658 103.974 167.42 102.673 155.521C102.317 168.988 101.96 182.455 101.604 195.921" stroke="white" style="stroke:white;stroke-opacity:1;" stroke-miterlimit="10"/>
<path d="M37.5948 54.4597C36.4777 53.7703 35.0996 53.7483 33.9682 54.402C32.8368 55.0558 31.9775 56.3712 31.707 57.8626C31.3131 60.0344 32.1189 62.2339 32.9041 64.2416C33.6435 66.132 34.3828 68.0229 35.1222 69.9133C35.6003 71.1359 36.1483 72.4472 37.149 73.0348C38.1493 73.6224 39.6742 72.9269 39.6623 71.5721" stroke="white" style="stroke:white;stroke-opacity:1;" stroke-miterlimit="10"/>
<path d="M123.679 196.041C122.062 165.314 118.801 159.594 117.285 138.547C116.81 131.95 113.341 125.589 108.64 122.28C101.449 117.219 91.6822 116.932 84.3928 112.084C81.099 109.892 78.6956 105.807 78.0481 101.298C77.3871 96.6928 78.5711 91.7442 81.1701 88.3066C87.3204 75.8938 90.2096 61.1066 89.2846 46.6426" stroke="white" style="stroke:white;stroke-opacity:1;" stroke-miterlimit="10"/>
<path d="M89.9616 54.4597C91.0788 53.7703 92.4569 53.7483 93.5883 54.402C94.7196 55.0558 95.5789 56.3712 95.8495 57.8626C96.2434 60.0344 95.4375 62.2339 94.6524 64.2416C93.913 66.132 93.1736 68.0229 92.4342 69.9133C91.9561 71.1359 91.4081 72.4472 90.4074 73.0348C89.4071 73.6224 87.8822 72.9269 87.8941 71.5721" stroke="white" style="stroke:white;stroke-opacity:1;" stroke-miterlimit="10"/>
<path d="M18.9651 61.719C15.3257 54.5077 17.8075 43.5937 23.5836 39.4375C29.3597 35.2812 37.2006 37.8393 41.386 44.52C45.5713 51.2002 46.1448 61.1206 43.4458 69.013C41.6792 74.1786 38.2404 78.8217 33.9489 79.3544C29.6738 79.8851 25.4968 75.9725 23.8514 70.7615C22.2059 65.55 22.8442 59.4123 24.8736 54.4399C26.9025 49.4675 30.1918 45.5523 33.7848 42.4625C38.077 38.7712 43.4157 36.0791 48.292 38.1727C53.7168 40.5019 56.9396 48.3464 57.042 55.8438C57.1443 63.3412 54.7231 70.498 51.8779 76.9982C49.5018 82.4274 46.5772 87.8561 42.2398 90.4519C37.902 93.0482 31.8653 91.6417 29.7778 86.0112C28.6144 82.8724 28.883 79.0735 29.9073 75.8522C30.9316 72.6304 32.6377 69.876 34.36 67.217C39.1084 59.8853 44.4618 52.6332 51.4104 49.5781C58.3591 46.5235 67.2532 49.0856 70.6565 57.6107C72.7168 62.7717 72.4223 69.0925 70.9915 74.6089C67.7996 86.9135 58.9055 96.3133 49.074 97.7728C44.5771 98.4407 39.3812 97.0857 36.9675 92.0556C35.1796 88.3296 35.3947 83.3995 36.7424 79.3661C38.0904 75.3328 40.4239 72.0253 42.7979 68.9156C47.7398 62.4429 53.2201 56.322 59.8011 53.274C66.3822 50.226 74.2908 50.7679 79.64 56.6559C84.9043 62.4501 86.7282 72.7069 84.67 81.315C82.6118 89.9232 77.0784 96.7135 70.6377 99.8436C65.256 102.459 58.5036 102.316 54.5539 96.8466C50.3715 91.0544 51.0065 81.2829 54.4691 74.722C57.9318 68.1611 63.5211 64.1599 69.049 60.8432C73.7524 58.0216 78.7122 55.4803 83.883 55.4477C89.0533 55.4151 94.5157 58.3698 97.0484 64.2919C100.268 71.8209 97.7047 81.8569 92.78 87.5767C87.8552 93.2965 81.1785 95.5787 74.6952 97.0015C70.357 97.9533 65.2719 98.2964 62.2328 94.1187C60.0743 91.1518 59.6211 86.5449 60.4311 82.5808C61.2411 78.6168 63.1376 75.1921 65.2038 72.1135C72.4119 61.3749 82.2195 53.6956 92.8376 50.4763C95.7668 49.5883 98.8121 49.0306 101.777 49.6841C104.742 50.3371 107.639 52.338 109.259 55.6664C112.391 62.1049 109.846 70.6397 106.666 77.0385C104.074 82.2556 100.977 87.2397 96.8638 90.3407C92.7507 93.4417 87.4517 94.3741 83.2614 91.4561C77.3011 87.306 75.4526 76.5919 77.5705 68.1775C79.688 59.763 84.7974 53.2837 90.0622 47.7429C92.9604 44.6923 96.0283 41.7677 99.5515 40.2266C103.075 38.6856 107.158 38.6968 110.301 41.2951C115.288 45.4183 116.344 55.0195 113.824 62.0178C111.304 69.0155 106.101 73.7116 100.713 76.8458C96.3258 79.3978 91.5418 81.1565 86.7637 80.5901C81.9856 80.0238 77.2167 76.8305 74.8389 71.3554C71.8095 64.3791 73.3071 55.1653 77.0659 48.8307C80.8247 42.4962 86.4249 38.5423 92.0569 35.4179C97.0463 32.6498 103.264 30.5872 107.498 35.0248C110.873 38.5622 111.568 45.2714 110.048 50.5803C108.527 55.8887 105.228 59.9822 101.703 63.2565C92.8502 71.4814 81.872 75.6779 71.0425 74.9774C66.2335 74.6665 61.0059 73.0602 58.1243 67.9924C54.6897 61.952 55.9855 52.9411 59.6036 47.0883C63.2216 41.2355 68.6108 37.849 73.8764 34.851C77.0905 33.0209 80.399 31.2428 83.8922 30.8992C87.3853 30.5556 91.1475 31.8672 93.44 35.347C95.6866 38.7564 96.1653 43.7579 95.2914 48.1191C94.4175 52.4798 92.3501 56.2761 89.9895 59.5494C80.9216 72.1216 66.7406 77.9158 53.8454 74.3162C50.1225 73.2768 46.2743 71.2693 44.1606 67.1105C41.1244 61.1369 42.8485 52.6398 46.6081 47.4242C50.3678 42.2087 55.6614 39.4971 60.7716 36.9426C63.6999 35.4785 66.6947 33.9966 69.826 33.8544C72.9574 33.7121 76.3069 35.1507 78.1228 38.5056C79.754 41.5189 79.8831 45.6262 78.9854 49.131C78.0873 52.6357 76.2801 55.6175 74.2825 58.2224C63.3653 72.4596 45.4497 76.413 31.5916 67.6427C30.4145 60.7979 32.5788 53.5248 36.1003 48.2491C39.6218 42.9728 44.3561 39.3799 49.115 36.1938C53.6783 33.1386 58.6494 30.2976 63.7383 31.0572C71.8583 32.2695 77.9239 43.242 77.6323 53.9724C77.3408 64.7033 71.6766 74.3728 64.4435 79.3697C58.3349 83.5897 50.0185 84.4252 45.1535 77.9938C40.2518 71.513 41.0864 60.156 45.2893 52.8769C49.4922 45.5977 56.1489 41.5755 62.694 38.4888C66.5501 36.6704 70.5688 35.058 74.6614 35.3103C78.754 35.5632 82.9773 38.0025 85.0347 42.6573C87.6071 48.4764 86.277 56.1099 88.4668 62.1936C90.693 68.3788 96.751 71.6363 101.639 69.276C106.526 66.9157 109.537 59.2787 108.184 52.6714C106.837 46.0932 101.796 41.6046 96.6449 40.8241C91.4946 40.0436 86.3276 42.3891 81.8156 45.7445C77.3036 49.0999 73.2741 53.456 68.9413 57.1978C63.6469 61.77 57.8921 65.4216 51.875 68.0281C46.5851 70.3196 40.8826 71.8035 35.4561 70.1534C30.0297 68.5032 24.9792 63.0822 24.0473 55.8673C22.8312 46.4541 29.2398 37.4636 36.3965 35.8084C43.5532 34.1536 50.8373 38.2115 56.699 43.8542C62.5607 49.4975 67.4374 56.7171 73.0844 62.7259C78.7314 68.7352 85.5589 73.6505 92.8226 73.3732C98.9391 73.1397 105.043 68.7887 107.922 61.6951C110.802 54.601 109.935 44.9538 105.412 39.5389C100.478 33.6321 92.8439 33.784 86.4274 36.2009C68.303 43.0274 55.4613 63.7648 39.3365 76.6041C33.7864 81.0234 27.4823 84.5996 21.0149 83.8966C14.4372 83.1814 8.27177 77.7262 5.29371 69.9872C2.31565 62.2482 2.62728 52.4905 6.08825 45.1063C11.7624 33.0005 24.6141 29.2515 34.8985 33.6724C45.1828 38.0937 53.1503 48.9612 59.2088 60.7413C63.0445 68.1994 66.3901 76.3136 71.5918 82.171C78.0367 89.4287 87.1058 92.4701 95.4101 90.1582C103.714 87.8464 111.065 80.2338 114.716 70.1656C117.241 63.2025 117.929 54.5668 114.892 47.9661C112.575 42.9295 108.368 39.7311 103.984 38.527C99.6 37.3229 95.0345 37.9265 90.6533 39.1484C82.2789 41.4838 74.2737 46.0805 67.2803 52.569C59.9064 59.4107 53.6708 68.2993 45.9389 74.4213C38.2074 80.5432 28.0471 83.4979 20.2621 77.4947C12.3101 71.3626 9.43893 56.4428 13.702 45.7002C17.965 34.9575 28.3638 29.4631 37.2804 32.5493C43.8427 34.8204 49.3623 41.1269 52.7518 48.8516C56.1413 56.5764 57.5324 65.6138 57.5921 74.5299C51.5642 85.5228 39.0825 89.3329 29.9833 82.9586C25.5879 79.879 22.0513 74.7282 20.1857 68.6597C17.5502 60.0882 18.4187 49.809 22.4206 42.2061C26.4225 34.6027 33.436 29.9071 40.4698 30.1223C43.8047 31.8576 45.55 37.0471 45.1966 41.7371C44.8427 46.4271 42.7958 50.6191 40.3959 54.1218C34.1595 63.2249 25.0816 68.8626 15.7694 69.4162C12.3405 69.6201 8.76846 69.1114 5.81171 66.8214C2.85537 64.531 0.659729 60.1494 1.04363 55.6684C5.26113 39.9891 17.8175 28.9095 30.4596 29.7129C32.151 39.5221 31.0427 50.1195 27.4013 58.9657C23.7599 67.8125 17.6162 74.8311 10.4428 78.341C7.60172 76.0475 6.92289 70.7463 8.02572 66.6114C9.12813 62.4766 11.5761 59.2456 13.9643 56.1879C18.2724 50.6721 22.784 45.0961 28.3834 42.2087C33.9828 39.3218 40.9858 39.7225 45.2943 45.2378C45.0169 50.7684 44.679 56.3974 43.1075 61.5406C41.5359 66.6838 38.5173 71.3549 34.4657 72.898C30.414 74.4411 25.4091 71.9942 23.9424 66.7975C22.924 63.1892 23.7394 59.0055 25.4713 55.9014C27.2029 52.7979 29.7369 50.6287 32.3544 48.9021C36.5327 46.1467 41.2811 44.3278 45.8779 45.4473C50.4743 46.5668 54.7795 51.2262 55.3873 57.316C55.4529 66.0659 52.5421 74.7817 47.5969 80.6432C42.6517 86.5046 35.7544 89.414 29.1366 88.4301" stroke="white" style="stroke:white;stroke-opacity:1;" stroke-miterlimit="10"/>
<path d="M64.2651 67.1402C60.058 68.6543 55.3459 65.3269 53.4135 60.1883C51.481 55.0497 52.1043 48.6448 54.4048 43.7749C56.7053 38.9049 60.4879 35.4685 64.5617 33.4187C70.9606 30.1984 78.3583 30.2397 84.5626 34.062C90.7665 37.8844 95.6089 45.5795 96.8842 54.4252C98.1596 63.271 95.6536 73.017 90.2915 78.6225C85.9019 83.2111 78.9624 84.5131 74.879 79.4601C70.8892 74.5229 71.3211 65.6093 74.3397 59.599C77.3583 53.5887 82.2851 49.7913 87.0377 46.205C90.144 43.861 93.3226 41.4804 96.8387 40.5821C100.355 39.6834 104.333 40.5189 106.84 43.8809C109.959 48.0632 109.923 55.0594 107.87 60.2571C105.818 65.4549 102.173 69.212 98.5151 72.5566C96.2372 74.6391 93.8335 76.6711 91.1107 77.3782C88.3878 78.0852 85.2531 77.1875 83.5696 74.2889C82.1009 71.7594 82.0161 68.1792 82.8436 65.1893C83.6712 62.1994 85.2891 59.7051 87.016 57.4753C91.8233 51.2677 97.7498 46.5649 104.169 43.8641C107.111 42.6263 110.218 41.7995 113.284 42.294C116.35 42.7885 119.383 44.7552 121.077 48.1488C124.232 54.4706 121.57 63.5447 116.848 67.8631C112.125 72.1814 106.066 72.9018 100.315 73.1016C97.7627 73.1903 95.1548 73.1929 92.7323 72.1351C90.3099 71.0768 88.0674 68.7695 87.3197 65.5624C86.1337 60.4758 88.9535 55.3199 91.9729 51.7754C96.7121 46.2132 102.418 42.0804 108.527 39.7848C111.252 38.7607 114.131 38.0969 116.918 38.7729C119.705 39.4489 122.397 41.6659 123.518 45.086C124.587 48.3486 124.074 52.2424 122.682 55.2878C121.291 58.3332 119.121 60.6354 116.826 62.515C109.206 68.7572 99.6856 70.8606 90.9306 68.2368C85.5698 66.6299 80.0306 62.593 78.436 55.6783C76.8658 48.8681 79.7661 41.3753 84.0375 36.9999C88.3089 32.6244 93.6998 30.6929 98.9378 28.8831C103.005 27.4777 108.224 26.5968 110.606 31.1512C111.819 33.4717 111.81 36.6196 111.045 39.2495C110.28 41.8795 108.855 44.0797 107.359 46.0954C99.1831 57.1092 87.9889 64.1712 76.3352 65.6664C70.6394 66.3975 64.098 65.3346 60.6449 59.338C58.047 54.8259 57.9192 48.4368 59.4799 43.1637C61.0406 37.8905 64.065 33.5843 67.3572 29.9369M97.7385 38.5766C89.6778 48.1136 78.5208 52.9729 67.7202 51.651C63.1957 51.0969 58.2638 49.0328 56.0862 43.7922C54.4089 39.7563 54.8129 34.6401 56.3991 30.5415M93.9354 27.4879C83.3177 40.9058 67.9266 47.508 53.3287 44.9066C48.0547 43.9671 42.2039 41.0756 40.3976 34.4979M72.1666 25.046C64.6695 33.6593 55.0602 39.0467 45.1397 40.1988C40.2016 40.7723 34.5367 39.8847 31.5423 34.6941M60.8618 25.9952C53.7915 35.6729 43.6776 41.3891 33.4677 41.4768C28.9507 41.5155 23.6784 39.7588 21.9648 34.2675C20.8766 30.78 21.6189 26.6768 23.1775 23.5126M43.3401 27.8646C39.8315 34.8175 34.5509 40.1972 28.5517 42.9292C24.7917 44.6415 19.9521 44.9377 17.5017 40.8176C15.7677 37.9017 15.9034 33.6374 17.0969 30.2855C18.2904 26.9337 20.364 24.2869 22.393 21.7207M44.9931 31.5743C42.8392 37.9078 38.5261 42.451 34.286 46.5843C31.7675 49.0394 29.1428 51.4894 26.1109 52.5406C23.0789 53.5918 19.5148 52.9678 17.3722 49.959C15.309 47.062 15.0019 42.5647 15.8738 38.7658C16.7456 34.9674 18.6162 31.7191 20.5253 28.6446M59.2626 34.5458C61.8142 51.4848 58.6736 69.7661 50.8318 83.6235C49.1095 86.6669 47.1186 89.5609 44.5741 91.3513C42.0297 93.1411 38.839 93.6794 36.2548 91.9905C32.661 89.642 31.1964 83.6158 31.826 78.4074C32.4551 73.199 34.7196 68.6181 36.9633 64.2457C41.0538 56.2747 45.4702 48.1422 51.8357 43.4022C58.2012 38.6618 67.0719 38.334 72.1908 45.2028C75.9213 50.2083 76.8704 57.7373 76.8503 64.7427C76.8231 74.268 75.2587 84.0293 71.1444 91.8718C67.0301 99.7143 60.0877 105.339 52.8437 104.976C45.5997 104.613 38.5486 97.3397 37.6693 87.8848C36.8363 78.932 41.2268 70.5976 46.1047 64.2518C49.6334 59.6612 53.9553 55.3576 58.9209 55.2812C64.1172 55.2011 68.9011 60.1062 70.9664 66.372C73.0318 72.6377 72.675 79.9434 70.9309 86.3753C69.1869 92.8072 66.1591 98.4964 62.9296 103.846C59.6695 109.246 55.2123 114.89 50.0244 113.869C45.0892 112.897 41.9173 105.856 41.9311 99.2993C41.9449 92.743 44.3356 86.6429 46.7723 80.9212C48.5 76.8638 50.3397 72.7539 53.0743 69.8033C55.8092 66.8532 59.6537 65.251 62.9617 66.9021C66.4469 68.6415 68.5356 73.6374 68.7595 78.5272C68.9834 83.417 67.6571 88.2034 66.0167 92.6023C63.2863 99.9238 59.3938 106.902 53.8162 110.474C48.2385 114.046 40.7393 113.292 36.7231 107.078C32.735 100.906 33.2262 91.7244 34.7171 83.8692C35.2652 80.9818 35.9557 78.0337 37.4329 75.778C38.91 73.5222 41.3671 72.1279 43.4959 73.1434C45.4468 74.0738 46.6461 76.7878 46.9164 79.4912C47.1866 82.1951 46.6941 84.9204 46.1803 87.5621C45.1656 92.7787 43.9625 98.1788 41.1708 102.12C38.3786 106.061 33.5182 108.003 30.0848 105.063C26.6255 102.102 26.0361 95.4204 27.6578 90.4311C29.2794 85.4419 32.5407 81.7536 35.6946 78.2519C36.3835 82.97 35.8902 87.9725 34.3086 92.3036C33.4267 94.7189 32.1677 96.9834 30.4132 98.3475C28.6587 99.7122 26.3511 100.035 24.584 98.6988C22.5505 97.1608 21.6569 93.7931 21.8103 90.7171C21.9636 87.6411 22.9724 84.7659 23.965 81.9723C24.7979 79.6273 25.6601 77.2273 27.0671 75.416C28.474 73.6048 30.564 72.4776 32.4451 73.2449C34.6303 74.1365 35.8839 77.3292 35.9282 80.3349C35.9724 83.3406 35.0714 86.2142 34.1858 88.9864C33.2943 91.7764 32.3778 94.6205 30.8585 96.8941C29.3387 99.1678 27.0825 100.812 24.7958 100.451C21.4226 99.9187 19.1873 95.1726 19.1171 90.7095C19.0469 86.2468 20.5783 82.0427 22.0747 78.0358C23.2143 74.9847 24.419 71.8256 26.4568 69.7319C28.4945 67.6383 31.6242 66.9608 33.6197 69.1233C35.741 71.4214 35.7109 75.6587 35.2719 79.2246C34.6307 84.4284 33.5078 89.5298 31.9358 94.3804C31.2787 96.4078 30.5042 98.4592 29.2076 99.8565C27.9109 101.254 25.9613 101.828 24.5347 100.668C22.9653 99.3921 22.5785 96.4746 23.1608 94.1739C23.7436 91.8733 25.0628 90.0457 26.3436 88.3002C29.3822 84.1593 32.4998 79.9398 36.4098 77.3527C40.3199 74.7655 45.2412 74.0743 48.985 77.056C54.2193 81.2255 55.2482 91.2967 52.5613 98.5229C49.8744 105.749 44.4617 110.539 38.9417 114.016C40.1774 101.511 45.8996 89.9004 54.0781 83.3034C58.413 79.8068 63.6748 77.6652 68.6158 79.2516C71.9089 85.1493 72.8434 93.1962 71.0391 100.116C69.2349 107.036 64.7409 112.639 59.3871 114.645C58.8879 107.512 59.4857 99.9911 62.341 93.8905C65.1962 87.7894 70.6665 83.4741 76.0482 84.6109C78.6779 85.1661 81.2132 87.0854 82.5403 90.1191C83.8675 93.1528 83.7651 97.3142 81.9814 99.912C80.1972 102.51 76.7358 102.928 74.8514 100.455C72.4131 97.2556 73.5401 91.8723 74.8648 87.6916C75.8005 84.7379 76.8002 81.7113 78.5472 79.4825C80.2946 77.2538 82.9919 76.0007 85.2247 77.2767C87.516 78.5858 88.6464 82.1732 88.5307 85.4526C88.415 88.732 87.3105 91.7928 86.2269 94.7505C81.6714 95.9903 77.1164 97.2296 72.561 98.4694C68.7244 92.0145 68.6467 82.1665 72.3805 75.6087C76.1142 69.0509 83.3261 66.3674 89.1226 69.3797C86.5381 77.5474 82.7087 85.6591 76.626 89.4493C70.5082 93.2614 62.6242 91.65 57.8014 85.4057C52.979 79.1614 51.6661 68.6533 54.8726 60.8179C58.0792 52.9826 65.6173 48.6239 72.1361 51.0291C73.9679 55.4468 73.9554 60.8898 72.8154 65.6929C71.6758 70.4961 69.5065 74.7594 67.1646 78.7403C64.9397 82.5224 62.4479 86.2076 59.2063 88.3782C55.965 90.5489 51.8127 90.9307 48.8092 88.2329C46.1958 85.8859 44.8707 81.5512 44.9492 77.3935C45.0278 73.2357 46.3537 69.2573 48.1437 65.827C53.5263 55.5131 63.4944 49.6812 72.9298 51.3258C73.315 60.2051 70.4146 69.2319 65.3032 75.0627C60.1917 80.8936 52.9824 83.3992 46.3453 81.6517C42.8083 80.2574 40.4844 75.4706 40.0972 70.6455C39.71 65.8204 40.9415 61.0055 42.6057 56.6744C47.4553 44.0532 56.2629 34.1584 66.505 29.8242C71.4402 35.5817 73.6918 45.0284 72.137 53.4561C70.3561 63.1094 64.2471 70.3457 57.8152 75.5659C54.0994 78.5818 50.0895 81.1806 45.7709 82.0376C41.4523 82.8945 36.7632 81.824 33.3992 78.1637C30.2498 69.5678 29.6065 59.4364 31.6275 50.2736C33.6486 41.1108 38.3155 33.0012 44.4747 27.9497C48.8025 24.4001 54.6203 22.464 58.8854 26.142C63.6335 30.2361 64.1627 39.3989 62.1943 46.3982C59.3466 56.5235 52.1874 64.3364 44.0895 66.1568C35.9917 67.9773 27.2626 63.7359 22.0149 55.43M47.6608 23.6059C46.3612 26.8099 44.3339 29.3807 42.34 31.8944" stroke="white" style="stroke:white;stroke-opacity:1;" stroke-miterlimit="10"/>
<path d="M823.48 29.045C823.068 31.5435 825.014 39.0429 820.418 35.7055C810.856 34.8727 817.201 46.8617 823.87 46.5463C821.066 65.5152 843.073 79.1273 852.756 58.129C858.875 47.8501 853.027 26.4778 863.49 15.8857C867.154 9.5991 856.989 10.3612 855.782 6.39719C856.704 3.58744 854.973 0.915144 851.668 1.00206C843.421 4.98827 824.266 -2.44645 820.917 8.11336C810.666 10.6159 814.275 26.9185 821.358 31.7699C821.467 29.514 827.587 29.3563 829.649 28.4426C851.721 18.6772 847.911 25.9381 851.078 27.4845C853.878 28.8509 857.187 25.926 857.51 29.0207C857.83 32.1155 857.106 35.2123 856.386 38.2424C864.99 29.6959 865.311 41.8162 856.386 46.5463" stroke="white" style="stroke:white;stroke-opacity:1;" stroke-width="1.2" stroke-linecap="round" stroke-linejoin="round"/>
<path d="M881.051 194.98L856.804 193.831C856.717 193.175 857.658 193.477 858.113 193.458C862.23 193.288 866.4 193.676 870.51 193.454C884.277 192.712 916.413 188.135 918.312 170.594C918.876 165.368 916.71 161.311 912.784 158.097C916.586 159.668 919.474 159.563 923.185 157.789C925.314 156.771 930.443 152.868 930.443 150.382V143.047C926.487 142.414 927.664 147.278 925.817 149.327C924.832 150.42 920.609 152.141 919.722 150.182C918.665 147.854 925.122 146.765 926.288 145.469C929.691 141.683 921.839 143.559 920.218 143.906C914.672 145.089 910.998 148.461 906.151 144.038C901.071 139.404 896.382 131.707 891.73 126.308C888.951 123.084 886.067 121.445 884.16 117.335C879.238 106.722 880.671 85.1501 871.627 77.9657C866.382 73.7952 851.942 76.1574 849.471 68.9241L848.185 65.0098C846.384 77.9092 864.75 74.0552 870.875 78.7192C879.802 85.5193 878.2 108.086 883.653 118.597C885.616 122.383 888.714 124.357 891.35 127.442C895.167 131.903 898.359 136.978 902.266 141.344C904.117 143.409 907.79 147.575 910.667 147.526L925.55 143.797C925.592 144.396 925.682 144.682 925.167 145.104C923.813 146.208 917.755 147.244 918.564 150.205C919.478 153.55 924.524 151.663 926.321 150.024C928.017 148.479 928.036 146.253 928.563 144.177C930.281 142.923 929.277 150.043 929.149 150.597C928.051 155.362 919.974 158.911 915.405 157.909C912.167 157.201 901.285 152.013 897.871 150.258C892.226 147.36 887.387 143.329 882.716 139.099C874.173 131.36 869.202 126.331 865.998 114.833C865.562 113.273 864.185 104.94 863.343 104.68C861.549 104.13 859.165 110.275 858.665 111.62C853.044 126.783 855.698 145.168 872.955 150.378C883.104 153.441 906.215 153.396 913.341 159.974C919.865 165.994 917.511 175.005 911.656 180.483C898.615 192.678 862.809 193.383 845.922 191.74C845.414 191.691 845.027 191.197 845.151 192.136C845.602 193.047 848.87 193.511 849.953 193.725C861.644 196.023 872.932 196.381 884.108 195.673L883.942 194.886C882.976 194.927 882.01 194.961 881.043 194.98H881.051ZM874.079 149.636C857.473 145.074 854.352 128.373 859.049 113.511C859.575 111.849 860.779 108.53 861.745 107.182C862.114 106.665 862.422 106.051 863.185 106.179C864.607 115.504 867.333 125.118 873.891 132.14C880.178 138.876 887.992 145.624 895.87 150.389L906.771 155.457C896.209 152.205 884.676 152.544 874.083 149.632L874.079 149.636Z" fill="white" style="fill:white;fill-opacity:1;"/>
<path d="M870.515 162.615C864.514 162.091 863.923 165.003 859.779 167.282C854.966 169.927 850.055 163.417 845.046 164.574C841.444 165.406 842.959 173.48 837.913 175.484C833.066 177.409 824.113 173.299 819.472 171.212C811.049 167.418 803.152 162.362 794.436 159.22C800.554 153.686 818.07 149.956 820.912 141.532C822.262 137.528 820.882 132.144 820.179 127.993C819.239 122.421 817.953 115.719 816.415 110.316C816.08 109.137 815.155 105.023 813.779 105.031C812.862 105.11 812.719 106.07 812.455 106.73C810.101 112.618 810.474 118.363 806.619 124.21C800.862 132.943 795.587 135.29 787.554 140.862C782.256 144.535 778.887 149.881 774.111 153.358C772.186 154.76 768.933 154.488 766.376 155.773C764.646 156.64 763.285 158.746 761.965 159.254C760.717 159.736 756.092 160.256 754.873 159.898C754.133 159.68 750.414 154.213 750.18 153.313C750.105 153.034 749.722 150.94 750.658 151.328C753.719 155.114 759.262 157.623 762.65 152.793C763.533 151.535 764.583 150.077 762.326 149.802C759.329 149.436 756.453 150.544 753.482 150.57C753.433 150.228 753.441 150.092 753.659 149.813C754.317 148.981 762.183 145.827 763.612 145.484C766.97 144.674 771.05 144.908 774.247 144.094C774.807 143.951 775.273 143.684 775.645 143.235C779.338 138.195 782.26 132.604 785.862 127.507C788.179 124.229 792.165 120.334 793.752 116.969C798.824 106.213 796.685 81.541 809.368 76.5493C813.196 75.0423 816.065 75.5396 820.066 74.3341C823.297 73.3621 824.962 72.8121 826.339 71.3466C828.873 68.6454 829.102 64.6407 829.001 64.6105C828.922 64.5879 828.501 66.8822 827.677 68.5436C824.293 75.3776 814.234 72.1038 806.935 76.7489C795.162 84.2422 798.339 106.067 792.511 117.233C791.164 119.814 788.656 121.825 786.983 124.112C782.655 130.031 779.218 136.567 774.927 142.512C770.956 144.068 766.594 143.556 762.496 144.735C760.773 145.232 754.554 147.73 753.287 148.679C752.158 149.527 752.016 150.646 752.978 151.712L762.496 150.57C761.446 154.259 758.276 155.212 754.843 153.531C753.538 152.891 751.354 150.182 750.662 150.179C749.413 150.171 748.834 152.232 749.041 153.294C749.229 154.251 753.275 160.252 754.091 160.678C756.084 161.718 758.874 160.592 760.991 160.35C759.931 162.991 757.491 166.16 757.637 169.136C757.942 175.458 769.245 182.981 774.45 185.437C777.27 186.767 785.757 190.61 787.483 186.684C789.499 177.816 789.799 168.454 793.165 159.94C795.007 159.552 815.885 170.726 819.472 172.331C825.489 175.024 838.68 181.146 842.339 172.383C843.144 170.454 843.012 166.265 845.422 165.693C850.521 164.487 854.252 171.385 860.445 167.938C864.442 165.715 865.367 163.202 870.891 163.733C872.173 163.858 879.04 165.726 877.844 167.486C873.866 168.887 870.82 167.9 867.319 170.684C862.63 174.41 861.144 176.942 855.18 179.975C830.133 192.712 793.902 191.687 762.954 188.67V189.502C792.217 192.098 839.282 195.089 862.938 176.46C866.1 173.969 867.857 170.27 872.109 169.464C874.227 169.064 876.558 169.486 878.604 168.066C881.484 165.293 872.192 162.754 870.515 162.607V162.615ZM768.512 156.033C769.249 155.747 771.231 154.639 771.513 155.833L764 158.843C764.891 157.589 767.064 156.598 768.512 156.029V156.033ZM790.04 166.303C788.637 172.395 788.344 179.922 786.746 185.58C786.095 187.882 784.84 187.637 782.689 187.344C776.258 186.47 761.537 177.526 759.307 171.257C758.235 168.247 759.875 163.138 762.116 160.919C763.022 160.023 765.978 159.465 767.512 158.798C769.136 158.09 772.788 155.366 773.656 155.167C778.451 154.078 787.69 157.348 792.165 159.439C791.251 161.654 790.578 163.971 790.04 166.307V166.303ZM775.269 153.953C779.53 149.636 783.508 144.938 788.521 141.457C791.717 139.238 795.365 137.678 798.365 135.135C804.311 130.099 808.932 123.389 811.151 115.96C811.959 113.247 812.437 109.016 813.505 106.654C813.738 106.142 813.542 106.063 814.343 106.176C815.159 110.32 816.351 114.381 817.242 118.514C818.386 123.807 821.085 135.237 820.269 140.135C819.578 144.275 813.046 148.227 809.575 150.118C804.262 153.015 798.204 154.598 793.402 158.406C787.498 156.41 781.591 154.179 775.273 153.953H775.269Z" fill="white" style="fill:white;fill-opacity:1;"/>
</svg>
