<svg width="931" height="197" viewBox="0 0 931 197" fill="none" xmlns="http://www.w3.org/2000/svg">
<path d="M4.08594 196.041C5.70268 165.314 8.75439 159.594 10.2708 138.547C10.7462 131.95 14.2149 125.589 18.9156 122.28C26.1066 117.219 35.8736 116.932 43.1629 112.084C46.4568 109.892 48.8602 105.807 49.5077 101.298C50.1687 96.6928 48.9847 91.7442 46.3857 88.3066C40.2354 75.8938 37.3462 61.1066 38.2712 46.6426" stroke="white" style="stroke:white;stroke-opacity:1;" stroke-miterlimit="10"/>
<path d="M25.3159 196.041C25.3159 182.289 26.5964 170.11 27.8623 158.17C28.1951 170.753 28.5283 183.337 28.8611 195.92" stroke="white" style="stroke:white;stroke-opacity:1;" stroke-miterlimit="10"/>
<path d="M105.358 196.041C105.358 181.658 103.974 167.42 102.673 155.521C102.317 168.988 101.96 182.455 101.604 195.921" stroke="white" style="stroke:white;stroke-opacity:1;" stroke-miterlimit="10"/>
<path d="M37.5948 54.4587C36.4777 53.7694 35.0996 53.7473 33.9682 54.4011C32.8368 55.0548 31.9775 56.3703 31.707 57.8616C31.3131 60.0334 32.1189 62.2329 32.9041 64.2406C33.6435 66.131 34.3828 68.0219 35.1222 69.9123C35.6003 71.1349 36.1483 72.4462 37.149 73.0338C38.1493 73.6214 39.6742 72.926 39.6623 71.5711" stroke="white" style="stroke:white;stroke-opacity:1;" stroke-miterlimit="10"/>
<path d="M123.679 196.041C122.062 165.314 118.801 159.594 117.285 138.547C116.81 131.95 113.341 125.589 108.64 122.28C101.449 117.219 91.6822 116.932 84.3928 112.084C81.099 109.892 78.6956 105.807 78.0481 101.298C77.3871 96.6928 78.5711 91.7442 81.1701 88.3066C87.3204 75.8938 90.2096 61.1066 89.2846 46.6426" stroke="white" style="stroke:white;stroke-opacity:1;" stroke-miterlimit="10"/>
<path d="M89.9616 54.4587C91.0788 53.7694 92.4569 53.7473 93.5883 54.4011C94.7196 55.0548 95.5789 56.3703 95.8495 57.8616C96.2434 60.0334 95.4375 62.2329 94.6524 64.2406C93.913 66.131 93.1736 68.0219 92.4342 69.9123C91.9561 71.1349 91.4081 72.4462 90.4074 73.0338C89.4071 73.6214 87.8822 72.926 87.8941 71.5711" stroke="white" style="stroke:white;stroke-opacity:1;" stroke-miterlimit="10"/>
<path d="M18.9651 61.719C15.3257 54.5077 17.8075 43.5937 23.5836 39.4375C29.3597 35.2812 37.2006 37.8393 41.386 44.52C45.5713 51.2002 46.1448 61.1206 43.4458 69.013C41.6792 74.1786 38.2404 78.8217 33.9489 79.3544C29.6738 79.8851 25.4968 75.9725 23.8514 70.7615C22.2059 65.55 22.8442 59.4123 24.8736 54.4399C26.9025 49.4675 30.1918 45.5523 33.7848 42.4625C38.077 38.7712 43.4157 36.0791 48.292 38.1727C53.7168 40.5019 56.9396 48.3464 57.042 55.8438C57.1443 63.3412 54.7231 70.498 51.8779 76.9982C49.5018 82.4274 46.5772 87.8561 42.2398 90.4519C37.902 93.0482 31.8653 91.6417 29.7778 86.0112C28.6144 82.8724 28.883 79.0735 29.9073 75.8522C30.9316 72.6304 32.6377 69.876 34.36 67.217C39.1084 59.8853 44.4618 52.6332 51.4104 49.5781C58.3591 46.5235 67.2532 49.0856 70.6565 57.6107C72.7168 62.7717 72.4223 69.0925 70.9915 74.6089C67.7996 86.9135 58.9055 96.3133 49.074 97.7728C44.5771 98.4407 39.3812 97.0857 36.9675 92.0556C35.1796 88.3296 35.3947 83.3995 36.7424 79.3661C38.0904 75.3328 40.4239 72.0253 42.7979 68.9156C47.7398 62.4429 53.2201 56.322 59.8011 53.274C66.3822 50.226 74.2908 50.7679 79.64 56.6559C84.9043 62.4501 86.7282 72.7069 84.67 81.315C82.6118 89.9232 77.0784 96.7135 70.6377 99.8436C65.256 102.459 58.5036 102.316 54.5539 96.8466C50.3715 91.0544 51.0065 81.2829 54.4691 74.722C57.9318 68.1611 63.5211 64.1599 69.049 60.8432C73.7524 58.0216 78.7122 55.4803 83.883 55.4477C89.0533 55.4151 94.5157 58.3698 97.0484 64.2919C100.268 71.8209 97.7047 81.8569 92.78 87.5767C87.8552 93.2965 81.1785 95.5787 74.6952 97.0015C70.357 97.9533 65.2719 98.2964 62.2328 94.1187C60.0743 91.1518 59.6211 86.5449 60.4311 82.5808C61.2411 78.6168 63.1376 75.1921 65.2038 72.1135C72.4119 61.3749 82.2195 53.6956 92.8376 50.4763C95.7668 49.5883 98.8121 49.0306 101.777 49.6841C104.742 50.3371 107.639 52.338 109.259 55.6664C112.391 62.1049 109.846 70.6397 106.666 77.0385C104.074 82.2556 100.977 87.2397 96.8638 90.3407C92.7507 93.4417 87.4517 94.3741 83.2614 91.4561C77.3011 87.306 75.4526 76.5919 77.5705 68.1775C79.688 59.763 84.7974 53.2837 90.0622 47.7429C92.9604 44.6923 96.0283 41.7677 99.5515 40.2266C103.075 38.6856 107.158 38.6968 110.301 41.2951C115.288 45.4183 116.344 55.0195 113.824 62.0178C111.304 69.0155 106.101 73.7116 100.713 76.8458C96.3258 79.3978 91.5418 81.1565 86.7637 80.5901C81.9856 80.0238 77.2167 76.8305 74.8389 71.3554C71.8095 64.3791 73.3071 55.1653 77.0659 48.8307C80.8247 42.4962 86.4249 38.5423 92.0569 35.4179C97.0463 32.6498 103.264 30.5872 107.498 35.0248C110.873 38.5622 111.568 45.2714 110.048 50.5803C108.527 55.8887 105.228 59.9822 101.703 63.2565C92.8502 71.4814 81.872 75.6779 71.0425 74.9774C66.2335 74.6665 61.0059 73.0602 58.1243 67.9924C54.6897 61.952 55.9855 52.9411 59.6036 47.0883C63.2216 41.2355 68.6108 37.849 73.8764 34.851C77.0905 33.0209 80.399 31.2428 83.8922 30.8992C87.3853 30.5556 91.1475 31.8672 93.44 35.347C95.6866 38.7564 96.1653 43.7579 95.2914 48.1191C94.4175 52.4798 92.3501 56.2761 89.9895 59.5494C80.9216 72.1216 66.7406 77.9158 53.8454 74.3162C50.1225 73.2768 46.2743 71.2693 44.1606 67.1105C41.1244 61.1369 42.8485 52.6398 46.6081 47.4242C50.3678 42.2087 55.6614 39.4971 60.7716 36.9426C63.6999 35.4785 66.6947 33.9966 69.826 33.8544C72.9574 33.7121 76.3069 35.1507 78.1228 38.5056C79.754 41.5189 79.8831 45.6262 78.9854 49.131C78.0873 52.6357 76.2801 55.6175 74.2825 58.2224C63.3653 72.4596 45.4497 76.413 31.5916 67.6427C30.4145 60.7979 32.5788 53.5248 36.1003 48.2491C39.6218 42.9728 44.3561 39.3799 49.115 36.1938C53.6783 33.1386 58.6494 30.2976 63.7383 31.0572C71.8583 32.2695 77.9239 43.242 77.6323 53.9724C77.3408 64.7033 71.6766 74.3728 64.4435 79.3697C58.3349 83.5897 50.0185 84.4252 45.1535 77.9938C40.2518 71.513 41.0864 60.156 45.2893 52.8769C49.4922 45.5977 56.1489 41.5755 62.694 38.4888C66.5501 36.6704 70.5688 35.058 74.6614 35.3103C78.754 35.5632 82.9773 38.0025 85.0347 42.6573C87.6071 48.4764 86.277 56.1099 88.4668 62.1936C90.693 68.3788 96.751 71.6363 101.639 69.276C106.526 66.9157 109.537 59.2787 108.184 52.6714C106.837 46.0932 101.796 41.6046 96.6449 40.8241C91.4946 40.0436 86.3276 42.3891 81.8156 45.7445C77.3036 49.0999 73.2741 53.456 68.9413 57.1978C63.6469 61.77 57.8921 65.4216 51.875 68.0281C46.5851 70.3196 40.8826 71.8035 35.4561 70.1534C30.0297 68.5032 24.9792 63.0822 24.0473 55.8673C22.8312 46.4541 29.2398 37.4636 36.3965 35.8084C43.5532 34.1536 50.8373 38.2115 56.699 43.8542C62.5607 49.4975 67.4374 56.7171 73.0844 62.7259C78.7314 68.7352 85.5589 73.6505 92.8226 73.3732C98.9391 73.1397 105.043 68.7887 107.922 61.6951C110.802 54.601 109.935 44.9538 105.412 39.5389C100.478 33.6321 92.8439 33.784 86.4274 36.2009C68.303 43.0274 55.4613 63.7648 39.3365 76.6041C33.7864 81.0234 27.4823 84.5996 21.0149 83.8966C14.4372 83.1814 8.27177 77.7262 5.29371 69.9872C2.31565 62.2482 2.62728 52.4905 6.08825 45.1063C11.7624 33.0005 24.6141 29.2515 34.8985 33.6724C45.1828 38.0937 53.1503 48.9612 59.2088 60.7413C63.0445 68.1994 66.3901 76.3136 71.5918 82.171C78.0367 89.4287 87.1058 92.4701 95.4101 90.1582C103.714 87.8464 111.065 80.2338 114.716 70.1656C117.241 63.2025 117.929 54.5668 114.892 47.9661C112.575 42.9295 108.368 39.7311 103.984 38.527C99.6 37.3229 95.0345 37.9265 90.6533 39.1484C82.2789 41.4838 74.2737 46.0805 67.2803 52.569C59.9064 59.4107 53.6708 68.2993 45.9389 74.4213C38.2074 80.5432 28.0471 83.4979 20.2621 77.4947C12.3101 71.3626 9.43893 56.4428 13.702 45.7002C17.965 34.9575 28.3638 29.4631 37.2804 32.5493C43.8427 34.8204 49.3623 41.1269 52.7518 48.8516C56.1413 56.5764 57.5324 65.6138 57.5921 74.5299C51.5642 85.5228 39.0825 89.3329 29.9833 82.9586C25.5879 79.879 22.0513 74.7282 20.1857 68.6597C17.5502 60.0882 18.4187 49.809 22.4206 42.2061C26.4225 34.6027 33.436 29.9071 40.4698 30.1223C43.8047 31.8576 45.55 37.0471 45.1966 41.7371C44.8427 46.4271 42.7958 50.6191 40.3959 54.1218C34.1595 63.2249 25.0816 68.8626 15.7694 69.4162C12.3405 69.6201 8.76846 69.1114 5.81171 66.8214C2.85537 64.531 0.659729 60.1494 1.04363 55.6684C5.26113 39.9891 17.8175 28.9095 30.4596 29.7129C32.151 39.5221 31.0427 50.1195 27.4013 58.9657C23.7599 67.8125 17.6162 74.8311 10.4428 78.341C7.60172 76.0475 6.92289 70.7463 8.02572 66.6114C9.12813 62.4766 11.5761 59.2456 13.9643 56.1879C18.2724 50.6721 22.784 45.0961 28.3834 42.2087C33.9828 39.3218 40.9858 39.7225 45.2943 45.2378C45.0169 50.7684 44.679 56.3974 43.1075 61.5406C41.5359 66.6838 38.5173 71.3549 34.4657 72.898C30.414 74.4411 25.4091 71.9942 23.9424 66.7975C22.924 63.1892 23.7394 59.0055 25.4713 55.9014C27.2029 52.7979 29.7369 50.6287 32.3544 48.9021C36.5327 46.1467 41.2811 44.3278 45.8779 45.4473C50.4743 46.5668 54.7795 51.2262 55.3873 57.316C55.4529 66.0659 52.5421 74.7817 47.5969 80.6432C42.6517 86.5046 35.7544 89.414 29.1366 88.4301" stroke="white" style="stroke:white;stroke-opacity:1;" stroke-miterlimit="10"/>
<path d="M64.2651 67.1398C60.058 68.6539 55.3459 65.3265 53.4135 60.1879C51.481 55.0493 52.1043 48.6444 54.4048 43.7745M90.2915 78.6222C85.9019 83.2107 78.9624 84.5127 74.879 79.4597C70.8892 74.5225 71.3211 65.609 74.3397 59.5986C77.3583 53.5883 82.2851 49.7909 87.0377 46.2046M98.5151 72.5563C96.2372 74.6387 93.8335 76.6707 91.1107 77.3778C88.3878 78.0848 85.2531 77.1871 83.5696 74.2885C82.1009 71.759 82.0161 68.1788 82.8436 65.1889C83.6712 62.199 85.2891 59.7047 87.016 57.4749M116.848 67.8627C112.125 72.1811 106.066 72.9014 100.315 73.1012C97.7627 73.1899 95.1548 73.1925 92.7323 72.1347M90.9306 68.2364C85.5698 66.6295 80.0306 62.5926 78.436 55.6779C76.8658 48.8677 79.7661 41.3749 84.0375 36.9995M76.3352 65.666C70.6394 66.3971 64.098 65.3342 60.6449 59.3376C58.047 54.8255 57.9192 48.4364 59.4799 43.1633M67.7202 51.6506C63.1957 51.0965 58.2638 49.0324 56.0862 43.7918M28.5517 42.9288C24.7917 44.6411 19.9521 44.9373 17.5017 40.8172C15.7677 37.9013 15.9034 33.637 17.0969 30.2852M34.286 46.5839C31.7675 49.039 29.1428 51.489 26.1109 52.5402C23.0789 53.5914 19.5148 52.9674 17.3722 49.9587C15.309 47.0616 15.0019 42.5643 15.8738 38.7654M50.8318 83.6231C49.1095 86.6665 47.1186 89.5605 44.5741 91.3509C42.0297 93.1407 38.839 93.6791 36.2548 91.9902C32.661 89.6416 31.1964 83.6155 31.826 78.407C32.4551 73.1986 34.7196 68.6177 36.9633 64.2453C41.0538 56.2743 45.4702 48.1418 51.8357 43.4018C58.2012 38.6614 67.0719 38.3336 72.1908 45.2024C75.9213 50.2079 76.8704 57.7369 76.8503 64.7423C76.8231 74.2676 75.2587 84.0289 71.1444 91.8714C67.0301 99.7139 60.0877 105.338 52.8437 104.975C45.5997 104.612 38.5486 97.3393 37.6693 87.8844C36.8363 78.9316 41.2268 70.5972 46.1047 64.2514C49.6334 59.6608 53.9553 55.3572 58.9209 55.2808C64.1172 55.2007 68.9011 60.1059 70.9664 66.3716C73.0318 72.6373 72.675 79.943 70.9309 86.3749C69.1869 92.8068 66.1591 98.496 62.9296 103.845C59.6695 109.246 55.2123 114.89 50.0244 113.868C45.0892 112.897 41.9173 105.855 41.9311 99.2989C41.9449 92.7426 44.3356 86.6426 46.7723 80.9208C48.5 76.8634 50.3397 72.7535 53.0743 69.8029C55.8092 66.8528 59.6537 65.2506 62.9617 66.9018C66.4469 68.6411 68.5356 73.637 68.7595 78.5268C68.9834 83.4167 67.6571 88.203 66.0167 92.6019C63.2863 99.9234 59.3938 106.901 53.8162 110.473C48.2385 114.045 40.7393 113.292 36.7231 107.077C32.735 100.906 33.2262 91.724 34.7171 83.8688C35.2652 80.9814 35.9557 78.0334 37.4329 75.7776C38.91 73.5218 41.3671 72.1275 43.4959 73.143C45.4468 74.0734 46.6461 76.7874 46.9164 79.4908C47.1866 82.1947 46.6941 84.92 46.1803 87.5617C45.1656 92.7783 43.9625 98.1784 41.1708 102.12C38.3786 106.061 33.5182 108.002 30.0848 105.063C26.6255 102.101 26.0361 95.42 27.6578 90.4307C29.2794 85.4415 32.5407 81.7532 35.6946 78.2515C36.3835 82.9696 35.8902 87.9721 34.3086 92.3032C33.4267 94.7185 32.1677 96.983 30.4132 98.3471C28.6587 99.7118 26.3511 100.035 24.584 98.6984C22.5505 97.1604 21.6569 93.7927 21.8103 90.7167C21.9636 87.6407 22.9724 84.7655 23.965 81.9719C24.7979 79.6269 25.6601 77.2269 27.0671 75.4156C28.474 73.6044 30.564 72.4772 32.4451 73.2445C34.6303 74.1361 35.8839 77.3288 35.9282 80.3345C35.9724 83.3402 35.0714 86.2138 34.1858 88.986C33.2943 91.7761 32.3778 94.6201 30.8585 96.8938C29.3387 99.1674 27.0825 100.812 24.7958 100.451C21.4226 99.9183 19.1873 95.1722 19.1171 90.7091C19.0469 86.2464 20.5783 82.0423 22.0747 78.0354C23.2143 74.9843 24.419 71.8252 26.4568 69.7316C28.4945 67.6379 31.6242 66.9604 33.6197 69.1229C35.741 71.421 35.7109 75.6583 35.2719 79.2242C34.6307 84.4281 33.5078 89.5294 31.9358 94.38C31.2787 96.4074 30.5042 98.4588 29.2076 99.8561C27.9109 101.254 25.9613 101.827 24.5347 100.668C22.9653 99.3917 22.5785 96.4742 23.1608 94.1736C23.7436 91.8729 25.0628 90.0453 26.3436 88.2999C29.3822 84.1589 32.4998 79.9394 36.4098 77.3523C40.3199 74.7651 45.2412 74.0739 48.985 77.0556C54.2193 81.2251 55.2482 91.2964 52.5613 98.5225C49.8744 105.749 44.4617 110.539 38.9417 114.015C40.1774 101.511 45.8996 89.9001 54.0781 83.303C58.413 79.8064 63.6748 77.6648 68.6158 79.2512C71.9089 85.1489 72.8434 93.1958 71.0391 100.116C69.2349 107.035 64.7409 112.638 59.3871 114.644C58.8879 107.512 59.4857 99.9907 62.341 93.8901C65.1962 87.789 70.6665 83.4737 76.0482 84.6106C78.6779 85.1657 81.2132 87.085 82.5403 90.1187C83.8675 93.1525 83.7651 97.3138 81.9814 99.9117C80.1972 102.51 76.7358 102.928 74.8514 100.455C72.4131 97.2552 73.5401 91.8719 74.8648 87.6912C75.8005 84.7375 76.8002 81.7109 78.5472 79.4822C80.2946 77.2534 82.9919 76.0003 85.2247 77.2763C87.516 78.5854 88.6464 82.1728 88.5307 85.4522C88.415 88.7316 87.3105 91.7924 86.2269 94.7501C81.6714 95.9899 77.1164 97.2292 72.561 98.469C68.7244 92.0141 68.6467 82.1662 72.3805 75.6083C76.1142 69.0505 83.3261 66.367 89.1226 69.3793C86.5381 77.547 82.7087 85.6587 76.626 89.4489C70.5082 93.261 62.6242 91.6496 57.8014 85.4053C52.979 79.161 51.6661 68.6529 54.8726 60.8175C58.0792 52.9822 65.6173 48.6235 72.1361 51.0287C73.9679 55.4465 73.9554 60.8894 72.8154 65.6926C71.6758 70.4957 69.5065 74.759 67.1646 78.7399C64.9397 82.522 62.4479 86.2072 59.2063 88.3778C55.965 90.5485 51.8127 90.9303 48.8092 88.2326C46.1958 85.8855 44.8707 81.5508 44.9492 77.3931C45.0278 73.2353 46.3537 69.257 48.1437 65.8266C53.5263 55.5127 63.4944 49.6808 72.9298 51.3254C73.315 60.2048 70.4146 69.2315 65.3032 75.0623C60.1917 80.8932 52.9824 83.3988 46.3453 81.6513C42.8083 80.257 40.4844 75.4702 40.0972 70.6451C39.71 65.82 40.9415 61.0051 42.6057 56.674M72.137 53.4558C70.3561 63.109 64.2471 70.3453 57.8152 75.5655C54.0994 78.5814 50.0895 81.1802 45.7709 82.0372C41.4523 82.8941 36.7632 81.8236 33.3992 78.1634C30.2498 69.5674 29.6065 59.436 31.6275 50.2732M62.1943 46.3978C59.3466 56.5231 52.1874 64.336 44.0895 66.1565C35.9917 67.9769 27.2626 63.7355 22.0149 55.4296" stroke="white" style="stroke:white;stroke-opacity:1;" stroke-miterlimit="10"/>
<path d="M21.5146 78.5742C18.6627 79.5056 15.68 80.1184 12.7897 79.4194M15.3805 84.2374C12.529 84.5774 9.57478 84.4943 6.91504 83.1006" stroke="white" style="stroke:white;stroke-opacity:1;" stroke-miterlimit="10"/>
<path d="M124 195.6C124 195.6 150.337 182.881 168.357 182.881" stroke="white" style="stroke:white;stroke-opacity:1;" stroke-width="0.95" stroke-linecap="round"/>
<path d="M823.48 29.045C823.068 31.5435 825.014 39.0429 820.418 35.7055C810.856 34.8727 817.201 46.8617 823.87 46.5463C821.066 65.5152 843.073 79.1273 852.756 58.129C858.875 47.8501 853.027 26.4778 863.49 15.8857C867.154 9.5991 856.989 10.3612 855.782 6.39719C856.704 3.58744 854.973 0.915144 851.668 1.00206C843.421 4.98827 824.266 -2.44645 820.917 8.11336C810.666 10.6159 814.275 26.9185 821.358 31.7699C821.467 29.514 827.587 29.3563 829.649 28.4426C851.721 18.6772 847.911 25.9381 851.078 27.4845C853.878 28.8509 857.187 25.926 857.51 29.0207C857.83 32.1155 857.106 35.2123 856.386 38.2424C864.99 29.6959 865.311 41.8162 856.386 46.5463" stroke="white" style="stroke:white;stroke-opacity:1;" stroke-width="1.2" stroke-linecap="round" stroke-linejoin="round"/>
<path d="M881.051 194.978L856.804 193.829C856.717 193.173 857.658 193.475 858.113 193.456C862.23 193.286 866.4 193.674 870.51 193.452C884.277 192.71 916.413 188.133 918.312 170.592C918.876 165.366 916.71 161.309 912.784 158.095C916.586 159.666 919.474 159.561 923.185 157.787C925.314 156.769 930.443 152.866 930.443 150.38V143.045C926.487 142.412 927.664 147.276 925.817 149.325C924.832 150.418 920.609 152.139 919.722 150.18C918.665 147.852 925.122 146.763 926.288 145.467C929.691 141.681 921.839 143.557 920.218 143.904C914.672 145.087 910.998 148.459 906.151 144.036C901.071 139.402 896.382 131.705 891.73 126.307C888.951 123.082 886.067 121.443 884.16 117.333C879.238 106.72 880.671 85.1481 871.627 77.9638C866.382 73.7933 851.942 76.1554 849.471 68.9221L848.185 65.0078C846.384 77.9073 864.75 74.0532 870.875 78.7172C879.802 85.5173 878.2 108.084 883.653 118.595C885.616 122.381 888.714 124.355 891.35 127.44C895.167 131.901 898.359 136.976 902.266 141.342C904.117 143.407 907.79 147.573 910.667 147.524L925.55 143.795C925.592 144.394 925.682 144.68 925.167 145.102C923.813 146.206 917.755 147.242 918.564 150.203C919.478 153.548 924.524 151.661 926.321 150.022C928.017 148.477 928.036 146.251 928.563 144.175C930.281 142.921 929.277 150.041 929.149 150.595C928.051 155.36 919.974 158.909 915.405 157.907C912.167 157.199 901.285 152.011 897.871 150.256C892.226 147.359 887.387 143.327 882.716 139.097C874.173 131.359 869.202 126.329 865.998 114.831C865.562 113.271 864.185 104.938 863.343 104.678C861.549 104.128 859.165 110.273 858.665 111.618C853.044 126.781 855.698 145.166 872.955 150.376C883.104 153.439 906.215 153.394 913.341 159.972C919.865 165.992 917.511 175.003 911.656 180.481C898.615 192.676 862.809 193.381 845.922 191.738C845.414 191.689 845.027 191.196 845.151 192.134C845.602 193.045 848.87 193.509 849.953 193.723C861.644 196.021 872.932 196.379 884.108 195.671L883.942 194.884C882.976 194.925 882.01 194.959 881.043 194.978H881.051ZM874.079 149.634C857.473 145.072 854.352 128.371 859.049 113.509C859.575 111.847 860.779 108.528 861.745 107.18C862.114 106.664 862.422 106.049 863.185 106.178C864.607 115.502 867.333 125.116 873.891 132.138C880.178 138.874 887.992 145.622 895.87 150.387L906.771 155.455C896.209 152.203 884.676 152.542 874.083 149.63L874.079 149.634Z" fill="white" style="fill:white;fill-opacity:1;"/>
<path d="M870.515 162.614C864.514 162.09 863.923 165.002 859.779 167.281C854.966 169.926 850.055 163.416 845.046 164.573C841.444 165.405 842.959 173.479 837.913 175.483C833.066 177.408 824.113 173.298 819.472 171.211C811.049 167.417 803.152 162.361 794.436 159.219C800.554 153.685 818.07 149.955 820.912 141.531C822.262 137.527 820.882 132.143 820.179 127.992C819.239 122.42 817.953 115.718 816.415 110.315C816.08 109.136 815.155 105.022 813.779 105.03C812.862 105.109 812.719 106.069 812.455 106.729C810.101 112.617 810.474 118.362 806.619 124.209C800.862 132.942 795.587 135.289 787.554 140.861C782.256 144.534 778.887 149.88 774.111 153.357C772.186 154.759 768.933 154.487 766.376 155.772C764.646 156.639 763.285 158.745 761.965 159.253C760.717 159.735 756.092 160.255 754.873 159.897C754.133 159.679 750.414 154.212 750.18 153.312C750.105 153.033 749.722 150.939 750.658 151.327C753.719 155.113 759.262 157.622 762.65 152.792C763.533 151.534 764.583 150.076 762.326 149.801C759.329 149.435 756.453 150.543 753.482 150.569C753.433 150.227 753.441 150.091 753.659 149.812C754.317 148.98 762.183 145.826 763.612 145.483C766.97 144.673 771.05 144.907 774.247 144.093C774.807 143.95 775.273 143.683 775.645 143.234C779.338 138.194 782.26 132.603 785.862 127.506C788.179 124.228 792.165 120.333 793.752 116.968C798.824 106.212 796.685 81.5401 809.368 76.5483C813.196 75.0414 816.065 75.5386 820.066 74.3331C823.297 73.3611 824.962 72.8111 826.339 71.3456C828.873 68.6444 829.102 64.6397 829.001 64.6095C828.922 64.5869 828.501 66.8813 827.677 68.5427C824.293 75.3767 814.234 72.1028 806.935 76.748C795.162 84.2412 798.339 106.066 792.511 117.232C791.164 119.813 788.656 121.824 786.983 124.111C782.655 130.03 779.218 136.566 774.927 142.511C770.956 144.067 766.594 143.555 762.496 144.734C760.773 145.231 754.554 147.729 753.287 148.678C752.158 149.526 752.016 150.645 752.978 151.711L762.496 150.569C761.446 154.258 758.276 155.211 754.843 153.531C753.538 152.89 751.354 150.181 750.662 150.178C749.413 150.17 748.834 152.231 749.041 153.293C749.229 154.25 753.275 160.251 754.091 160.677C756.084 161.717 758.874 160.591 760.991 160.349C759.931 162.99 757.491 166.159 757.637 169.135C757.942 175.457 769.245 182.98 774.45 185.436C777.27 186.766 785.757 190.609 787.483 186.683C789.499 177.815 789.799 168.453 793.165 159.939C795.007 159.551 815.885 170.725 819.472 172.33C825.489 175.023 838.68 181.145 842.339 172.382C843.144 170.453 843.012 166.264 845.422 165.692C850.521 164.486 854.252 171.384 860.445 167.937C864.442 165.714 865.367 163.201 870.891 163.733C872.173 163.857 879.04 165.725 877.844 167.485C873.866 168.886 870.82 167.899 867.319 170.683C862.63 174.409 861.144 176.941 855.18 179.974C830.133 192.711 793.902 191.686 762.954 188.669V189.501C792.217 192.097 839.282 195.088 862.938 176.459C866.1 173.968 867.857 170.269 872.109 169.463C874.227 169.063 876.558 169.485 878.604 168.065C881.484 165.292 872.192 162.753 870.515 162.606V162.614ZM768.512 156.032C769.249 155.746 771.231 154.638 771.513 155.832L764 158.842C764.891 157.588 767.064 156.597 768.512 156.028V156.032ZM790.04 166.302C788.637 172.394 788.344 179.921 786.746 185.579C786.095 187.881 784.84 187.636 782.689 187.343C776.258 186.469 761.537 177.525 759.307 171.256C758.235 168.246 759.875 163.137 762.116 160.918C763.022 160.022 765.978 159.464 767.512 158.797C769.136 158.089 772.788 155.365 773.656 155.166C778.451 154.077 787.69 157.347 792.165 159.438C791.251 161.653 790.578 163.97 790.04 166.306V166.302ZM775.269 153.952C779.53 149.635 783.508 144.937 788.521 141.456C791.717 139.237 795.365 137.677 798.365 135.135C804.311 130.098 808.932 123.388 811.151 115.959C811.959 113.246 812.437 109.015 813.505 106.653C813.738 106.141 813.542 106.062 814.343 106.175C815.159 110.319 816.351 114.38 817.242 118.513C818.386 123.806 821.085 135.236 820.269 140.134C819.578 144.274 813.046 148.226 809.575 150.117C804.262 153.014 798.204 154.597 793.402 158.405C787.498 156.409 781.591 154.178 775.273 153.952H775.269Z" fill="white" style="fill:white;fill-opacity:1;"/>
</svg>
