<svg width="930" height="196" viewBox="0 0 930 196" fill="none" xmlns="http://www.w3.org/2000/svg">
<!-- <path d="M105 191.599C105 191.599 131.337 178.88 149.357 178.88C167.378 178.88 175.694 191.599 193.714 191.599C211.735 191.599 220.749 173.913 238.071 178.88C255.394 183.847 265.106 186.632 282.429 191.599C299.751 196.566 308.765 178.88 326.786 178.88C344.806 178.88 353.122 191.599 371.143 191.599C389.163 191.599 397.479 178.88 415.5 178.88C433.521 178.88 441.837 191.599 459.857 191.599C477.878 191.599 486.194 178.88 504.214 178.88C522.235 178.88 530.551 191.599 548.571 191.599C566.592 191.599 574.908 178.88 592.929 178.88C610.949 178.88 619.265 191.599 637.286 191.599" stroke="white" style="stroke:white;stroke-opacity:1;" stroke-width="1.5" stroke-linecap="round"/> -->
<path d="M57.2691 95.9972C48.298 95.9972 41 88.6993 41 79.7281C41 70.7569 48.298 63.459 57.2691 63.459C66.2403 63.459 73.5382 70.7569 73.5382 79.7281C73.5382 88.6993 66.2403 95.9972 57.2691 95.9972ZM57.2691 64.5896C48.9221 64.5896 42.1306 71.3801 42.1306 79.7281C42.1306 88.0761 48.9211 94.8666 57.2691 94.8666C65.6171 94.8666 72.4077 88.0761 72.4077 79.7281C72.4077 71.3801 65.6171 64.5896 57.2691 64.5896Z" fill="white" style="fill:white;fill-opacity:1;"/>
<path d="M100.146 75.1291C91.1749 75.1291 83.877 67.8311 83.877 58.8599C83.877 49.8888 91.1749 42.5908 100.146 42.5908C109.117 42.5908 116.415 49.8888 116.415 58.8599C116.415 67.8311 109.117 75.1291 100.146 75.1291ZM100.146 43.7224C91.7991 43.7224 85.0075 50.513 85.0075 58.8609C85.0075 67.2089 91.7981 73.9995 100.146 73.9995C108.494 73.9995 115.285 67.2089 115.285 58.8609C115.285 50.513 108.494 43.7224 100.146 43.7224Z" fill="white" style="fill:white;fill-opacity:1;"/>
<path d="M56.6821 77.9491C50.1382 77.9491 44.8145 72.6254 44.8145 66.0815C44.8145 59.5376 50.1382 54.2139 56.6821 54.2139C63.2259 54.2139 68.5497 59.5376 68.5497 66.0815C68.5497 72.6254 63.2259 77.9491 56.6821 77.9491ZM56.6821 55.0404C50.5932 55.0404 45.64 59.9936 45.64 66.0825C45.64 72.1713 50.5932 77.1245 56.6821 77.1245C62.7709 77.1245 67.7241 72.1713 67.7241 66.0825C67.7241 59.9936 62.7709 55.0404 56.6821 55.0404Z" fill="white" style="fill:white;fill-opacity:1;"/>
<path d="M84.9711 60.8329C78.4272 60.8329 73.1035 55.5091 73.1035 48.9653C73.1035 42.4214 78.4272 37.0977 84.9711 37.0977C91.515 37.0977 96.8387 42.4214 96.8387 48.9653C96.8387 55.5091 91.515 60.8329 84.9711 60.8329ZM84.9711 37.9242C78.8823 37.9242 73.9291 42.8774 73.9291 48.9663C73.9291 55.0551 78.8823 60.0083 84.9711 60.0083C91.06 60.0083 96.0132 55.0551 96.0132 48.9663C96.0132 42.8774 91.06 37.9242 84.9711 37.9242Z" fill="white" style="fill:white;fill-opacity:1;"/>
<path d="M74.4859 68.5382C65.5147 68.5382 58.2168 61.2403 58.2168 52.2691C58.2168 43.298 65.5147 36 74.4859 36C83.4571 36 90.755 43.298 90.755 52.2691C90.755 61.2403 83.4571 68.5382 74.4859 68.5382ZM74.4859 37.1316C66.1389 37.1316 59.3474 43.9221 59.3474 52.2701C59.3474 60.6181 66.1379 67.4087 74.4859 67.4087C82.8339 67.4087 89.6245 60.6181 89.6245 52.2701C89.6245 43.9221 82.8339 37.1316 74.4859 37.1316Z" fill="white" style="fill:white;fill-opacity:1;"/>
<path d="M73.8961 89.1203C64.9249 89.1203 57.627 81.8223 57.627 72.8512C57.627 63.88 64.9249 56.582 73.8961 56.582C82.8672 56.582 90.1652 63.88 90.1652 72.8512C90.1652 81.8223 82.8672 89.1203 73.8961 89.1203ZM73.8961 57.7126C65.5491 57.7126 58.7575 64.5032 58.7575 72.8512C58.7575 81.1991 65.5481 87.9897 73.8961 87.9897C82.2441 87.9897 89.0346 81.1991 89.0346 72.8512C89.0346 64.5032 82.2441 57.7126 73.8961 57.7126Z" fill="white" style="fill:white;fill-opacity:1;"/>
<path d="M42.4381 190.695L42.1691 191.911H43.4145H107.755H110.458L108.406 190.151C108.3 190.061 108.112 189.813 107.89 189.293C107.678 188.795 107.471 188.135 107.275 187.323C106.882 185.7 106.556 183.568 106.297 181.114C105.779 176.213 105.538 170.138 105.538 164.531C105.538 159.223 107.719 156.115 109.849 154.316C110.926 153.406 112.006 152.819 112.815 152.461C113.218 152.283 113.551 152.163 113.778 152.088C113.872 152.058 113.947 152.035 114.001 152.019H126.822H126.839L126.855 152.019C130.137 151.908 133.46 150.49 136.024 148.411C138.562 146.353 140.483 143.539 140.781 140.518L145.966 115.29L157.504 108.117L157.591 108.063L157.665 107.993C158.912 106.808 160.422 105.164 160.823 103.149C161.249 101.006 160.38 98.7809 157.681 96.5785L141.248 76.9851V58.6898C141.248 33.6367 128.186 19.6582 113.569 12.0012C99.0165 4.37861 82.9131 3 76.5507 3C70.1563 3 55.3282 4.79179 42.0615 12.6293C28.73 20.5052 17 34.4835 17 58.6898C17 77.3304 25.3433 92.5774 33.5638 105.472C34.8861 107.546 36.2006 109.553 37.477 111.501C40.1916 115.645 42.7342 119.526 44.8146 123.238C47.8706 128.691 49.8141 133.591 49.8141 138.151C49.8141 147.71 47.9779 160.827 46.1287 171.6C45.2058 176.977 44.2827 181.752 43.5904 185.184C43.2443 186.899 42.9559 188.278 42.7542 189.228C42.6534 189.702 42.5742 190.07 42.5203 190.318C42.4934 190.442 42.4727 190.537 42.4589 190.6L42.4432 190.671L42.4393 190.689L42.4383 190.693L42.4381 190.694C42.4381 190.695 42.4381 190.695 43.4145 190.911L42.4381 190.695Z" stroke="white" style="stroke:white;stroke-opacity:1;" stroke-width="2"/>
<path d="M794.438 190.695L794.169 191.911H795.414H859.755H862.458L860.406 190.151C860.3 190.061 860.112 189.813 859.89 189.293C859.678 188.795 859.471 188.135 859.275 187.323C858.882 185.7 858.556 183.568 858.297 181.114C857.779 176.213 857.538 170.138 857.538 164.531C857.538 159.223 859.719 156.115 861.849 154.316C862.926 153.406 864.006 152.819 864.815 152.461C865.218 152.283 865.551 152.163 865.778 152.088C865.872 152.058 865.947 152.035 866.001 152.019H878.822H878.839L878.855 152.019C882.137 151.908 885.46 150.49 888.024 148.411C890.562 146.353 892.483 143.539 892.781 140.518L897.966 115.29L909.504 108.117L909.591 108.063L909.665 107.993C910.912 106.808 912.422 105.164 912.823 103.149C913.249 101.006 912.38 98.7809 909.681 96.5785L893.248 76.9851V58.6898C893.248 33.6367 880.186 19.6582 865.569 12.0012C851.017 4.37861 834.913 3 828.551 3C822.156 3 807.328 4.79179 794.062 12.6293C780.73 20.5052 769 34.4835 769 58.6898C769 77.3304 777.343 92.5774 785.564 105.472C786.886 107.546 788.201 109.553 789.477 111.501C792.192 115.645 794.734 119.526 796.815 123.238C799.871 128.691 801.814 133.591 801.814 138.151C801.814 147.71 799.978 160.827 798.129 171.6C797.206 176.977 796.283 181.752 795.59 185.184C795.244 186.899 794.956 188.278 794.754 189.228C794.653 189.702 794.574 190.07 794.52 190.318C794.493 190.442 794.473 190.537 794.459 190.6L794.443 190.671L794.439 190.689L794.438 190.693L794.438 190.694C794.438 190.695 794.438 190.695 795.414 190.911L794.438 190.695Z" stroke="white" style="stroke:white;stroke-opacity:1;" stroke-width="2"/>
<path d="M840.659 109.356H825.794C824.972 109.356 824.307 108.69 824.307 107.869C824.307 107.047 824.972 106.382 825.794 106.382H840.659C841.481 106.382 842.146 107.047 842.146 107.869C842.146 108.69 841.481 109.356 840.659 109.356Z" fill="#4E4E4E" style="fill:#4E4E4E;fill:color(display-p3 0.3059 0.3059 0.3059);fill-opacity:1;"/>
<path d="M844.005 104.153H822.45C821.628 104.153 820.963 103.487 820.963 102.666C820.963 101.844 821.628 101.179 822.45 101.179H844.005C844.827 101.179 845.492 101.844 845.492 102.666C845.492 103.487 844.827 104.153 844.005 104.153Z" fill="#4E4E4E" style="fill:#4E4E4E;fill:color(display-p3 0.3059 0.3059 0.3059);fill-opacity:1;"/>
<path d="M844.005 98.9495H822.45C821.628 98.9495 820.963 98.2841 820.963 97.4626C820.963 96.6411 821.628 95.9756 822.45 95.9756H844.005C844.827 95.9756 845.492 96.6411 845.492 97.4626C845.492 98.2841 844.827 98.9495 844.005 98.9495Z" fill="#4E4E4E" style="fill:#4E4E4E;fill:color(display-p3 0.3059 0.3059 0.3059);fill-opacity:1;"/>
<path d="M844.005 93.7464H822.45C821.628 93.7464 820.963 93.0809 820.963 92.2594C820.963 91.4379 821.628 90.7725 822.45 90.7725H844.005C844.827 90.7725 845.492 91.4379 845.492 92.2594C845.492 93.0809 844.827 93.7464 844.005 93.7464Z" fill="#4E4E4E" style="fill:#4E4E4E;fill:color(display-p3 0.3059 0.3059 0.3059);fill-opacity:1;"/>
<path d="M833.228 84.4556C846.056 84.4556 856.456 74.0562 856.456 61.2278C856.456 48.3994 846.056 38 833.228 38C820.399 38 810 48.3994 810 61.2278C810 74.0562 820.399 84.4556 833.228 84.4556Z" fill="#AFAFAF" style="fill:#AFAFAF;fill:color(display-p3 0.6875 0.6875 0.6875);fill-opacity:1;"/>
<path d="M823.036 88.7295H843.42C844.667 88.7295 845.678 87.7185 845.678 86.4713V79.4664C845.678 78.2192 844.667 77.2082 843.42 77.2082H823.036C821.789 77.2082 820.778 78.2192 820.778 79.4664V86.4713C820.778 87.7185 821.789 88.7295 823.036 88.7295Z" fill="#AFAFAF" style="fill:#AFAFAF;fill:color(display-p3 0.6875 0.6875 0.6875);fill-opacity:1;"/>
<path d="M816.991 53.9009C816.849 53.9009 816.705 53.8687 816.57 53.7993C816.113 53.5667 815.931 53.007 816.164 52.5499C819.055 46.8778 824.539 43.022 830.837 42.2367C831.345 42.1733 831.81 42.5347 831.874 43.0441C831.937 43.5535 831.576 44.0177 831.066 44.0811C825.382 44.7898 820.43 48.2712 817.819 53.3935C817.655 53.7157 817.329 53.9009 816.991 53.9009Z" fill="white" style="fill:white;fill-opacity:1;"/>
<path d="M815.017 62.1575C814.504 62.1575 814.088 61.7417 814.088 61.2283C814.088 59.6577 814.278 58.0963 814.655 56.5861C814.779 56.0878 815.284 55.7858 815.781 55.9096C816.28 56.0334 816.583 56.5378 816.458 57.0361C816.119 58.3993 815.946 59.8098 815.946 61.2283C815.946 61.7417 815.531 62.1575 815.017 62.1575Z" fill="white" style="fill:white;fill-opacity:1;"/>
</svg>
