<svg width="930" height="197" viewBox="0 0 930 197" fill="none" xmlns="http://www.w3.org/2000/svg">
<defs>
  <filter id="glowFilter">
    <feGaussianBlur in="SourceAlpha" stdDeviation="5" result="blur" />
    <feMerge>
      <feMergeNode in="blur" />
      <feMergeNode in="SourceGraphic" />
    </feMerge>
  </filter>

  <circle id="glowShape" cx="50%" cy="50%" r="50%" fill="yellow" filter="url(#glowFilter)" />
</defs>
<path
    d="M856.386 38.2424C864.99 29.6959 865.311 41.8162 856.386 46.5463C857.106 35.2123 857.83 32.1155 857.51 29.0207C857.187 25.926 853.878 28.8509 851.078 27.4845C847.911 25.9381 851.721 18.6772 829.649 28.4426C827.587 29.3563 821.467 29.514 821.358 31.7699C814.275 26.9185 810.666 10.6159 820.917 8.11336C824.266 -2.44645 843.421 4.98827 851.668 1.00206C854.973 0.915144 856.704 3.58744 855.782 6.39719C856.989 10.3612 867.154 9.5991 863.49 15.8857C853.027 26.4778 858.875 47.8501 852.756 58.129"
    fill="yellow"
    stroke="yellow"
    stroke-width="3.2"
    stroke-linecap="round"
    stroke-linejoin="round"
/>
  <path
    d="M823.48 29.045C823.068 31.5435 825.014 39.0429 820.418 35.7055C810.856 34.8727 817.201 46.8617 823.87 46.5463C821.066 65.5152 843.073 79.1273 852.756 58.129C853.027 26.4778 858.875 47.8501 852.756 58.129C843.073 79.1273 821.066 65.5152 823.87 46.5463C820.418 35.7055 823.068 31.5435 823.48 29.045Z"
    fill="yellow"
    stroke="yellow"
    stroke-width="3.2"
    stroke-linecap="round"
    stroke-linejoin="round"
/>
<use href="#glowShape" transform="translate(856.386 38.2424)">
  <animate
    attributeName="opacity"
    values="0.5;1;0.5"
    dur="2s"
    repeatCount="indefinite"
  />
  <animate
    attributeName="r"
    values="50%;60%;50%"
    dur="2s"
    repeatCount="indefinite"
  />
</use>
<path d="M880.051 194.978L855.804 193.829C855.717 193.173 856.658 193.475 857.113 193.456C861.23 193.286 865.4 193.674 869.51 193.452C883.277 192.71 915.413 188.133 917.312 170.592C917.876 165.366 915.71 161.309 911.784 158.095C915.586 159.666 918.474 159.561 922.185 157.787C924.314 156.769 929.443 152.866 929.443 150.38V143.045C925.487 142.412 926.664 147.276 924.817 149.325C923.832 150.418 919.609 152.139 918.722 150.18C917.665 147.852 924.122 146.763 925.288 145.467C928.691 141.681 920.839 143.557 919.218 143.904C913.672 145.087 909.998 148.459 905.151 144.036C900.071 139.402 895.382 131.705 890.73 126.307C887.951 123.082 885.067 121.443 883.16 117.333C878.238 106.72 879.671 85.1481 870.627 77.9638C865.382 73.7933 850.942 76.1554 848.471 68.9221L847.185 65.0078C845.384 77.9073 863.75 74.0532 869.875 78.7172C878.802 85.5173 877.2 108.084 882.653 118.595C884.616 122.381 887.714 124.355 890.35 127.44C894.167 131.901 897.359 136.976 901.266 141.342C903.117 143.407 906.79 147.573 909.667 147.524L924.55 143.795C924.592 144.394 924.682 144.68 924.167 145.102C922.813 146.206 916.755 147.242 917.564 150.203C918.478 153.548 923.524 151.661 925.321 150.022C927.017 148.477 927.036 146.251 927.563 144.175C929.281 142.921 928.277 150.041 928.149 150.595C927.051 155.36 918.974 158.909 914.405 157.907C911.167 157.199 900.285 152.011 896.871 150.256C891.226 147.359 886.387 143.327 881.716 139.097C873.173 131.359 868.202 126.329 864.998 114.831C864.562 113.271 863.185 104.938 862.343 104.678C860.549 104.128 858.165 110.273 857.665 111.618C852.044 126.781 854.698 145.166 871.955 150.376C882.104 153.439 905.215 153.394 912.341 159.972C918.865 165.992 916.511 175.003 910.656 180.481C897.615 192.676 861.809 193.381 844.922 191.738C844.414 191.689 844.027 191.196 844.151 192.134C844.602 193.045 847.87 193.509 848.953 193.723C860.644 196.021 871.932 196.379 883.108 195.671L882.942 194.884C881.976 194.925 881.01 194.959 880.043 194.978H880.051ZM873.079 149.634C856.473 145.072 853.352 128.371 858.049 113.509C858.575 111.847 859.779 108.528 860.745 107.18C861.114 106.664 861.422 106.049 862.185 106.178C863.607 115.502 866.333 125.116 872.891 132.138C879.178 138.874 886.992 145.622 894.87 150.387L905.771 155.455C895.209 152.203 883.676 152.542 873.083 149.63L873.079 149.634Z"
    fill="yellow"
    stroke="yellow"
    stroke-width="3.2"
    stroke-linecap="round"
    stroke-linejoin="round"/>
<path d="M869.515 162.614C863.514 162.09 862.923 165.002 858.779 167.281C853.966 169.926 849.055 163.416 844.046 164.573C840.444 165.405 841.959 173.479 836.913 175.483C832.066 177.408 823.113 173.298 818.472 171.211C810.049 167.417 802.152 162.361 793.436 159.219C799.554 153.685 817.07 149.955 819.912 141.531C821.262 137.527 819.882 132.143 819.179 127.992C818.239 122.42 816.953 115.718 815.415 110.315C815.08 109.136 814.155 105.022 812.779 105.03C811.862 105.109 811.719 106.069 811.455 106.729C809.101 112.617 809.474 118.362 805.619 124.209C799.862 132.942 794.587 135.289 786.554 140.861C781.256 144.534 777.887 149.88 773.111 153.357C771.186 154.759 767.933 154.487 765.376 155.772C763.646 156.639 762.285 158.745 760.965 159.253C759.717 159.735 755.092 160.255 753.873 159.897C753.133 159.679 749.414 154.212 749.18 153.312C749.105 153.033 748.722 150.939 749.658 151.327C752.719 155.113 758.262 157.622 761.65 152.792C762.533 151.534 763.583 150.076 761.326 149.801C758.329 149.435 755.453 150.543 752.482 150.569C752.433 150.227 752.441 150.091 752.659 149.812C753.317 148.98 761.183 145.826 762.612 145.483C765.97 144.673 770.05 144.907 773.247 144.093C773.807 143.95 774.273 143.683 774.645 143.234C778.338 138.194 781.26 132.603 784.862 127.506C787.179 124.228 791.165 120.333 792.752 116.968C797.824 106.212 795.685 81.5401 808.368 76.5483C812.196 75.0414 815.065 75.5386 819.066 74.3331C822.297 73.3611 823.962 72.8111 825.339 71.3456C827.873 68.6444 828.102 64.6397 828.001 64.6095C827.922 64.5869 827.501 66.8813 826.677 68.5427C823.293 75.3767 813.234 72.1028 805.935 76.748C794.162 84.2412 797.339 106.066 791.511 117.232C790.164 119.813 787.656 121.824 785.983 124.111C781.655 130.03 778.218 136.566 773.927 142.511C769.956 144.067 765.594 143.555 761.496 144.734C759.773 145.231 753.554 147.729 752.287 148.678C751.158 149.526 751.016 150.645 751.978 151.711L761.496 150.569C760.446 154.258 757.276 155.211 753.843 153.531C752.538 152.89 750.354 150.181 749.662 150.178C748.413 150.17 747.834 152.231 748.041 153.293C748.229 154.25 752.275 160.251 753.091 160.677C755.084 161.717 757.874 160.591 759.991 160.349C758.931 162.99 756.491 166.159 756.637 169.135C756.942 175.457 768.245 182.98 773.45 185.436C776.27 186.766 784.757 190.609 786.483 186.683C788.499 177.815 788.799 168.453 792.165 159.939C794.007 159.551 814.885 170.725 818.472 172.33C824.489 175.023 837.68 181.145 841.339 172.382C842.144 170.453 842.012 166.264 844.422 165.692C849.521 164.486 853.252 171.384 859.445 167.937C863.442 165.714 864.367 163.201 869.891 163.733C871.173 163.857 878.04 165.725 876.844 167.485C872.866 168.886 869.82 167.899 866.319 170.683C861.63 174.409 860.144 176.941 854.18 179.974C829.133 192.711 792.902 191.686 761.954 188.669V189.501C791.217 192.097 838.282 195.088 861.938 176.459C865.1 173.968 866.857 170.269 871.109 169.463C873.227 169.063 875.558 169.485 877.604 168.065C880.484 165.292 871.192 162.753 869.515 162.606V162.614ZM767.512 156.032C768.249 155.746 770.231 154.638 770.513 155.832L763 158.842C763.891 157.588 766.064 156.597 767.512 156.028V156.032ZM789.04 166.302C787.637 172.394 787.344 179.921 785.746 185.579C785.095 187.881 783.84 187.636 781.689 187.343C775.258 186.469 760.537 177.525 758.307 171.256C757.235 168.246 758.875 163.137 761.116 160.918C762.022 160.022 764.978 159.464 766.512 158.797C768.136 158.089 771.788 155.365 772.656 155.166C777.451 154.077 786.69 157.347 791.165 159.438C790.251 161.653 789.578 163.97 789.04 166.306V166.302ZM774.269 153.952C778.53 149.635 782.508 144.937 787.521 141.456C790.717 139.237 794.365 137.677 797.365 135.135C803.311 130.098 807.932 123.388 810.151 115.959C810.959 113.246 811.437 109.015 812.505 106.653C812.738 106.141 812.542 106.062 813.343 106.175C814.159 110.319 815.351 114.38 816.242 118.513C817.386 123.806 820.085 135.236 819.269 140.134C818.578 144.274 812.046 148.226 808.575 150.117C803.262 153.014 797.204 154.597 792.402 158.405C786.498 156.409 780.591 154.178 774.273 153.952H774.269Z"
     fill="yellow"
    stroke="yellow"
    stroke-width="3.2"
    stroke-linecap="round"
    stroke-linejoin="round"/>
<path d="M123 195.599C123 195.599 149.337 182.88 167.357 182.88C185.378 182.88 193.694 195.599 211.714 195.599C229.735 195.599 238.749 177.913 256.071 182.88C273.394 187.847 283.106 190.632 300.429 195.599C317.751 200.566 326.765 182.88 344.786 182.88C362.806 182.88 371.122 195.599 389.143 195.599C407.163 195.599 415.479 182.88 433.5 182.88C451.521 182.88 459.837 195.599 477.857 195.599C495.878 195.599 504.194 182.88 522.214 182.88C540.235 182.88 548.551 195.599 566.571 195.599C584.592 195.599 592.908 182.88 610.929 182.88C628.949 182.88 637.265 195.599 655.286 195.599C673.306 195.599 681.622 182.88 699.643 182.88C715.5 182.88 709.5 193 724.5 193C739.5 193 735.5 186 746.5 187C755.3 187.8 760.5 188.667 762 189" stroke="white" style="stroke:white;stroke-opacity:1;" stroke-width="0.95" stroke-linecap="round"/>
<path d="M3.08594 196C4.70268 160.142 7.7544 153.466 9.27084 128.904C9.74621 121.206 13.2149 113.783 17.9156 109.922C25.1066 104.015 34.8736 103.68 42.1629 98.0219C45.4568 95.465 47.8602 90.6976 48.5077 85.4348C49.1687 80.061 48.599 74.5116 46 70.5" stroke="white" style="stroke:white;stroke-opacity:1;" stroke-miterlimit="10"/>
<path d="M24.3164 196C24.3164 179.952 25.5969 165.739 26.8628 151.805C27.1956 166.49 27.5288 181.174 27.8616 195.859" stroke="white" style="stroke:white;stroke-opacity:1;" stroke-miterlimit="10"/>
<path d="M104.357 195.999C104.357 179.214 102.973 162.599 101.672 148.713C101.316 164.428 100.96 180.144 100.604 195.859" stroke="white" style="stroke:white;stroke-opacity:1;" stroke-miterlimit="10"/>
<path d="M122.68 196C121.063 160.142 117.802 153.466 116.286 128.904C115.81 121.206 112.342 113.783 107.641 109.922C100.45 104.015 90.6831 103.68 83.3937 98.0219C80.0999 95.465 77.6965 90.6976 77.0489 85.4348C76.388 80.061 76.401 74.5116 79 70.5" stroke="white" style="stroke:white;stroke-opacity:1;" stroke-miterlimit="10"/>
<path d="M43.7563 34.7822C43.2596 37.7917 45.6044 46.8253 40.0674 42.8052C28.5502 41.8021 36.1934 56.2436 44.2262 55.8637C40.849 78.7131 67.358 95.1098 79.0213 69.8158C86.3918 57.4343 79.3476 31.6898 91.9507 18.9308C96.3652 11.3582 84.12 12.2762 82.6664 7.5013C83.7767 4.11675 81.6924 0.897785 77.7113 1.00249C67.7768 5.80415 44.7035 -3.15149 40.6688 9.56855C28.3213 12.583 32.6677 32.2206 41.1996 38.0645C41.3311 35.3471 48.7041 35.1572 51.1877 34.0566C77.7746 22.2935 73.1848 31.0397 77.0003 32.9024C80.3727 34.5484 84.3586 31.0251 84.7482 34.753C85.1329 38.4808 84.2612 42.2111 83.3944 45.8611C93.7574 35.5662 95.8466 50.8575 85.0964 56.5553" stroke="white" style="stroke:white;stroke-opacity:1;" stroke-linecap="round" stroke-linejoin="round"/>
</svg>
