<svg width="930" height="196" viewBox="0 0 930 196" fill="none" xmlns="http://www.w3.org/2000/svg">
<g filter="url(#filter0_d_186_574)">
<path d="M840.415 113.356H825.549C824.728 113.356 824.062 112.69 824.062 111.869C824.062 111.047 824.728 110.382 825.549 110.382H840.415C841.237 110.382 841.902 111.047 841.902 111.869C841.902 112.69 841.237 113.356 840.415 113.356Z" fill="white" style="fill:white;fill-opacity:1;"/>
<path d="M843.761 108.153H822.206C821.384 108.153 820.719 107.487 820.719 106.666C820.719 105.844 821.384 105.179 822.206 105.179H843.761C844.583 105.179 845.248 105.844 845.248 106.666C845.248 107.487 844.583 108.153 843.761 108.153Z" fill="white" style="fill:white;fill-opacity:1;"/>
<path d="M843.761 102.95H822.206C821.384 102.95 820.719 102.284 820.719 101.463C820.719 100.641 821.384 99.9756 822.206 99.9756H843.761C844.583 99.9756 845.248 100.641 845.248 101.463C845.248 102.284 844.583 102.95 843.761 102.95Z" fill="white" style="fill:white;fill-opacity:1;"/>
<path d="M843.761 97.7464H822.206C821.384 97.7464 820.719 97.0809 820.719 96.2594C820.719 95.4379 821.384 94.7725 822.206 94.7725H843.761C844.583 94.7725 845.248 95.4379 845.248 96.2594C845.248 97.0809 844.583 97.7464 843.761 97.7464Z" fill="white" style="fill:white;fill-opacity:1;"/>
<path d="M832.984 88.4556C845.812 88.4556 856.211 78.0562 856.211 65.2278C856.211 52.3994 845.812 42 832.984 42C820.155 42 809.756 52.3994 809.756 65.2278C809.756 78.0562 820.155 88.4556 832.984 88.4556Z" fill="#F1B100" style="fill:#F1B100;fill:color(display-p3 0.9458 0.6936 0.0000);fill-opacity:1;filter: drop-shadow(0px 0px 10px rgb(253, 187, 20)) drop-shadow(0px 0px 20px rgba(253, 187, 20, 0.7));"/>
<path d="M822.792 92.7295H843.175C844.423 92.7295 845.434 91.7185 845.434 90.4713V83.4664C845.434 82.2192 844.423 81.2082 843.175 81.2082H822.792C821.545 81.2082 820.534 82.2192 820.534 83.4664V90.4713C820.534 91.7185 821.545 92.7295 822.792 92.7295Z" fill="#F1B100" style="fill:#F1B100;fill:color(display-p3 0.9458 0.6936 0.0000);fill-opacity:1;"/>
<path d="M816.747 57.9009C816.605 57.9009 816.461 57.8687 816.326 57.7993C815.869 57.5667 815.687 57.007 815.92 56.5499C818.811 50.8778 824.295 47.022 830.593 46.2367C831.101 46.1733 831.566 46.5347 831.63 47.0441C831.693 47.5535 831.332 48.0177 830.822 48.0811C825.138 48.7898 820.186 52.2712 817.575 57.3935C817.411 57.7157 817.085 57.9009 816.747 57.9009Z" fill="white" style="fill:white;fill-opacity:1;"/>
<path d="M814.773 66.1575C814.26 66.1575 813.844 65.7417 813.844 65.2283C813.844 63.6577 814.034 62.0963 814.411 60.5861C814.534 60.0878 815.04 59.7858 815.537 59.9096C816.035 60.0334 816.338 60.5378 816.214 61.0361C815.874 62.3993 815.702 63.8098 815.702 65.2283C815.702 65.7417 815.286 66.1575 814.773 66.1575Z" fill="white" style="fill:white;fill-opacity:1;"/>
<path d="M833.256 26V38" stroke="#FFC455" style="stroke:#FFC455;stroke:color(display-p3 1.0000 0.7667 0.3333);stroke-opacity:1;" stroke-width="2" stroke-linecap="round"/>
<path d="M855.998 32.7256L848.285 41.9181" stroke="#FFC455" style="stroke:#FFC455;stroke:color(display-p3 1.0000 0.7667 0.3333);stroke-opacity:1;" stroke-width="2" stroke-linecap="round"/>
<path d="M870.225 47.416L859.439 52.6765" stroke="#FFC455" style="stroke:#FFC455;stroke:color(display-p3 1.0000 0.7667 0.3333);stroke-opacity:1;" stroke-width="2" stroke-linecap="round"/>
<path d="M818.086 41.5137L810.372 32.3211" stroke="#FFC455" style="stroke:#FFC455;stroke:color(display-p3 1.0000 0.7667 0.3333);stroke-opacity:1;" stroke-width="2" stroke-linecap="round"/>
<path d="M804.785 52.6748L794 47.4144" stroke="#FFC455" style="stroke:#FFC455;stroke:color(display-p3 1.0000 0.7667 0.3333);stroke-opacity:1;" stroke-width="2" stroke-linecap="round"/>
</g>
<!-- <path d="M105 191.599C105 191.599 131.337 178.88 149.357 178.88C167.378 178.88 175.694 191.599 193.714 191.599C211.735 191.599 220.749 173.913 238.071 178.88C255.394 183.847 265.106 186.632 282.429 191.599C299.751 196.566 308.765 178.88 326.786 178.88C344.806 178.88 353.122 191.599 371.143 191.599C389.163 191.599 397.479 178.88 415.5 178.88C433.521 178.88 441.837 191.599 459.857 191.599C477.878 191.599 486.194 178.88 504.214 178.88C522.235 178.88 530.551 191.599 548.571 191.599C566.592 191.599 574.908 178.88 592.929 178.88C610.949 178.88 619.265 191.599 637.286 191.599C655.306 191.599 663.622 178.88 681.643 178.88C697.5 178.88 691.5 189 706.5 189C721.5 189 717 183 728.5 183C737.336 183 742.5 184.667 744 185C748 187 757.4 191 763 191C770 191 789 186.5 792.5 186.5C795.3 186.5 798 186.5 799 186.5" stroke="white" style="stroke:white;stroke-opacity:1;" stroke-width="1.5" stroke-linecap="round"/> -->
<path d="M42.4381 190.695L42.1691 191.911H43.4145H107.755H110.458L108.406 190.151C108.3 190.061 108.112 189.813 107.89 189.293C107.678 188.795 107.471 188.135 107.275 187.323C106.882 185.7 106.556 183.568 106.297 181.114C105.779 176.213 105.538 170.138 105.538 164.531C105.538 159.223 107.719 156.115 109.849 154.316C110.926 153.406 112.006 152.819 112.815 152.461C113.218 152.283 113.551 152.163 113.778 152.088C113.872 152.058 113.947 152.035 114.001 152.019H126.822H126.839L126.855 152.019C130.137 151.908 133.46 150.49 136.024 148.411C138.562 146.353 140.483 143.539 140.781 140.518L145.966 115.29L157.504 108.117L157.591 108.063L157.665 107.993C158.912 106.808 160.422 105.164 160.823 103.149C161.249 101.006 160.38 98.7809 157.681 96.5785L141.248 76.9851V58.6898C141.248 33.6367 128.186 19.6582 113.569 12.0012C99.0165 4.37861 82.9131 3 76.5507 3C70.1563 3 55.3282 4.79179 42.0615 12.6293C28.73 20.5052 17 34.4835 17 58.6898C17 77.3304 25.3433 92.5774 33.5638 105.472C34.8861 107.546 36.2006 109.553 37.477 111.501C40.1916 115.645 42.7342 119.526 44.8146 123.238C47.8706 128.691 49.8141 133.591 49.8141 138.151C49.8141 147.71 47.9779 160.827 46.1287 171.6C45.2058 176.977 44.2827 181.752 43.5904 185.184C43.2443 186.899 42.9559 188.278 42.7542 189.228C42.6534 189.702 42.5742 190.07 42.5203 190.318C42.4934 190.442 42.4727 190.537 42.4589 190.6L42.4432 190.671L42.4393 190.689L42.4383 190.693L42.4381 190.694C42.4381 190.695 42.4381 190.695 43.4145 190.911L42.4381 190.695Z" stroke="white" style="stroke:white;stroke-opacity:1;" stroke-width="4"/>
<path  d="M794.438 190.695L794.169 191.911H795.414H859.755H862.458L860.406 190.151C860.3 190.061 860.112 189.813 859.89 189.293C859.678 188.795 859.471 188.135 859.275 187.323C858.882 185.7 858.556 183.568 858.297 181.114C857.779 176.213 857.538 170.138 857.538 164.531C857.538 159.223 859.719 156.115 861.849 154.316C862.926 153.406 864.006 152.819 864.815 152.461C865.218 152.283 865.551 152.163 865.778 152.088C865.872 152.058 865.947 152.035 866.001 152.019H878.822H878.839L878.855 152.019C882.137 151.908 885.46 150.49 888.024 148.411C890.562 146.353 892.483 143.539 892.781 140.518L897.966 115.29L909.504 108.117L909.591 108.063L909.665 107.993C910.912 106.808 912.422 105.164 912.823 103.149C913.249 101.006 912.38 98.7809 909.681 96.5785L893.248 76.9851V58.6898C893.248 33.6367 880.186 19.6582 865.569 12.0012C851.017 4.37861 834.913 3 828.551 3C822.156 3 807.328 4.79179 794.062 12.6293C780.73 20.5052 769 34.4835 769 58.6898C769 77.3304 777.343 92.5774 785.564 105.472C786.886 107.546 788.201 109.553 789.477 111.501C792.192 115.645 794.734 119.526 796.815 123.238C799.871 128.691 801.814 133.591 801.814 138.151C801.814 147.71 799.978 160.827 798.129 171.6C797.206 176.977 796.283 181.752 795.59 185.184C795.244 186.899 794.956 188.278 794.754 189.228C794.653 189.702 794.574 190.07 794.52 190.318C794.493 190.442 794.473 190.537 794.459 190.6L794.443 190.671L794.439 190.689L794.438 190.693L794.438 190.694C794.438 190.695 794.438 190.695 795.414 190.911L794.438 190.695Z" stroke="white" style="stroke:color(display-p3 0.9458 0.6936 0.0000);stroke-opacity:1;filter: drop-shadow(0px 0px 10px rgb(253, 187, 20)) drop-shadow(0px 0px 20px rgba(253, 187, 20, 0.7));" stroke-width="4"/>
<defs>
<filter id="filter0_d_186_574" x="789" y="25" width="86.2246" height="96.3555" filterUnits="userSpaceOnUse" color-interpolation-filters="sRGB">
<feFlood flood-opacity="0" result="BackgroundImageFix"/>
<feColorMatrix in="SourceAlpha" type="matrix" values="0 0 0 0 0 0 0 0 0 0 0 0 0 0 0 0 0 0 127 0" result="hardAlpha"/>
<feOffset dy="4"/>
<feGaussianBlur stdDeviation="2"/>
<feComposite in2="hardAlpha" operator="out"/>
<feColorMatrix type="matrix" values="0 0 0 0 0 0 0 0 0 0 0 0 0 0 0 0 0 0 0.25 0"/>
<feBlend mode="normal" in2="BackgroundImageFix" result="effect1_dropShadow_186_574"/>
<feBlend mode="normal" in="SourceGraphic" in2="effect1_dropShadow_186_574" result="shape"/>
</filter>
</defs>
</svg>
