<svg id="Layer_1" data-name="Layer 1" xmlns="http://www.w3.org/2000/svg" viewBox="0 0 20 20"><defs><style>.cls-1{fill:#f5921d;}</style></defs><polygon class="cls-1" points="9.53 8.86 11.16 4.43 11.19 4.35 11.19 4.34 11.56 3.34 11.19 3.34 9.11 3.34 4.13 3.34 4.13 5 8.72 5 5.24 14.47 5.24 14.47 3.21 20 3.82 20 5.89 20 11.19 20 11.19 18.33 6.03 18.33 9.52 8.86 9.53 8.86"/><polygon class="cls-1" points="14.76 5.53 16.39 1.09 16.42 1.01 16.42 1.01 16.79 0 16.42 0 14.33 0 9.36 0 9.36 1.67 13.95 1.67 10.47 11.14 10.47 11.14 8.44 16.66 9.05 16.66 11.12 16.66 16.42 16.66 16.42 15 11.26 15 14.75 5.53 14.76 5.53"/></svg>