<svg id="Layer_1" data-name="Layer 1" xmlns="http://www.w3.org/2000/svg" viewBox="0 0 20 20"><defs><style>.cls-1{fill:#347afd;}</style></defs><path class="cls-1" d="M17.38,14.11a5,5,0,0,1-.21.69c-.12.34-.26.68-.41,1a1.12,1.12,0,0,1-.47.54l-.16.08a.79.79,0,0,0-.32.15h0V20H4.15V16.58a1,1,0,0,0-.3-.16,1,1,0,0,1-.62-.6c-.22-.51-.4-1-.59-1.53a1.07,1.07,0,0,1,0-.4A.47.47,0,0,1,3,13.48c.42,0,.84,0,1.26,0H16c.3,0,.61,0,.93,0A.49.49,0,0,1,17.38,14.11Z"/><path class="cls-1" d="M7.56,9.73c-.06.15-.12.29-.17.43-.26.65-.51,1.3-.76,1.95a.32.32,0,0,1-.34.25L5,12.38l-.1,0c-.12,0-.2-.1-.14-.27.49-1.3,1-2.6,1.46-3.89.14-.37.28-.73.43-1.09a1.19,1.19,0,0,1,.75-.72,1.58,1.58,0,0,1,.38,0h4.41a1.17,1.17,0,0,1,1.18.82c.64,1.64,1.26,3.29,1.88,4.93.07.17,0,.24-.16.27a4.26,4.26,0,0,1-.51,0h-.62a.39.39,0,0,1-.4-.27c-.12-.32-.24-.63-.35-.95s-.31-.88-.46-1.32l0-.1h0a.5.5,0,0,0,0,.12c0,.76,0,1.53,0,2.3,0,.18,0,.2-.2.21l-1.32,0c-1.06,0-2.11,0-3.16,0H7.86c-.18,0-.21,0-.21-.22,0-.41,0-.82,0-1.23s0-.68,0-1a.66.66,0,0,0,0-.14Zm3.14-2V7.43c0-.18,0-.21-.22-.22h-1c-.17,0-.21,0-.2.21A7.9,7.9,0,0,1,9.07,9.1c-.09.44-.17.89-.25,1.33a.25.25,0,0,0,.07.23,7.41,7.41,0,0,0,1,.88.19.19,0,0,0,.26,0l.9-.78a.46.46,0,0,0,.13-.48c-.08-.43-.17-.86-.26-1.29A6.82,6.82,0,0,1,10.7,7.7Z"/><path class="cls-1" d="M10,5.41A2.69,2.69,0,0,1,7.25,2.72,2.74,2.74,0,1,1,10,5.41Z"/></svg>