<svg id="Layer_1" data-name="Layer 1" xmlns="http://www.w3.org/2000/svg" viewBox="0 0 20 20"><defs><style>.cls-1{fill:#347afd;}</style></defs><path class="cls-1" d="M4.09,1.83v.1c0,.52,0,1,0,1.55a1.08,1.08,0,0,0,2.16,0c0-.5,0-1,0-1.51v-.1h1v1.6a1.08,1.08,0,0,0,2.15.19,1.5,1.5,0,0,0,0-.22V1.84h1v1.6a1.08,1.08,0,0,0,1.87.76,1.05,1.05,0,0,0,.3-.75V1.84h1.05v1.6a1.08,1.08,0,0,0,2.14.21.83.83,0,0,0,0-.22V1.83h1.81a1.34,1.34,0,0,1,1.36,1.36V18.64A1.34,1.34,0,0,1,17.72,20H2.28A1.33,1.33,0,0,1,.92,18.63V3.21A1.33,1.33,0,0,1,2.09,1.84h2ZM10,7H2.24a.39.39,0,0,0-.38.33V18.68a.38.38,0,0,0,.29.36.52.52,0,0,0,.17,0H17.78a.38.38,0,0,0,.34-.29.47.47,0,0,0,0-.17V7.41a.39.39,0,0,0-.3-.36H10Z"/><path class="cls-1" d="M8.9,2c0,.49,0,1,0,1.47a.51.51,0,1,1-1,0V.51A.51.51,0,0,1,8.25,0a.5.5,0,0,1,.56.21A.49.49,0,0,1,8.9.54Z"/><path class="cls-1" d="M5.69,2V3.45A.52.52,0,0,1,5.25,4a.51.51,0,0,1-.56-.37.39.39,0,0,1,0-.15c0-1,0-1.95,0-2.92A.49.49,0,0,1,5,0a.51.51,0,0,1,.55.1.49.49,0,0,1,.16.38Z"/><path class="cls-1" d="M15.33,2V3.44a.49.49,0,0,1-.32.48.51.51,0,0,1-.7-.48V.52A.52.52,0,0,1,14.83,0a.51.51,0,0,1,.5.52Z"/><path class="cls-1" d="M11.1,2V.52a.5.5,0,0,1,.27-.46.49.49,0,0,1,.52,0,.53.53,0,0,1,.23.46V3.4a.51.51,0,0,1-.51.56.53.53,0,0,1-.52-.56c0-.48,0-.95,0-1.42Z"/><path class="cls-1" d="M2.89,15.77v-.68a.33.33,0,0,1,.36-.35H4.62a.32.32,0,0,1,.35.35q0,.69,0,1.38a.32.32,0,0,1-.35.35H3.25a.34.34,0,0,1-.36-.36Z"/><path class="cls-1" d="M13,13.73h-.7a.33.33,0,0,1-.34-.34V12a.32.32,0,0,1,.35-.34h1.39a.32.32,0,0,1,.34.34c0,.46,0,.93,0,1.39a.33.33,0,0,1-.35.35Z"/><path class="cls-1" d="M8,15.75v.69a.34.34,0,0,1-.35.35H6.27a.32.32,0,0,1-.34-.34V15a.31.31,0,0,1,.32-.33c.48,0,1,0,1.43,0A.31.31,0,0,1,8,15C8,15.28,8,15.52,8,15.75Z"/><path class="cls-1" d="M13,14.65h.69a.32.32,0,0,1,.34.34c0,.46,0,.93,0,1.39a.33.33,0,0,1-.35.35H12.34a.33.33,0,0,1-.35-.36V15a.33.33,0,0,1,.36-.35Z"/><path class="cls-1" d="M6.88,8.66h.68A.33.33,0,0,1,7.92,9v1.36a.33.33,0,0,1-.36.36H6.2a.34.34,0,0,1-.36-.36V9a.34.34,0,0,1,.37-.37Z"/><path class="cls-1" d="M11,9.68v.68a.34.34,0,0,1-.36.36H9.22a.33.33,0,0,1-.34-.35V9a.32.32,0,0,1,.33-.34h1.41A.33.33,0,0,1,11,9Z"/><path class="cls-1" d="M3.93,13.82H3.24a.34.34,0,0,1-.35-.35V12.09a.33.33,0,0,1,.35-.35H4.62a.32.32,0,0,1,.35.34c0,.47,0,.93,0,1.39a.33.33,0,0,1-.35.35Z"/><path class="cls-1" d="M16.06,13.7h-.68a.33.33,0,0,1-.35-.37V12a.33.33,0,0,1,.36-.36h1.36a.33.33,0,0,1,.36.36v1.36a.33.33,0,0,1-.36.36Z"/><path class="cls-1" d="M16.07,14.62h.67a.33.33,0,0,1,.37.36v1.35a.33.33,0,0,1-.37.37H15.39a.33.33,0,0,1-.36-.36V15a.33.33,0,0,1,.36-.36h.68Z"/><path class="cls-1" d="M14.94,9.61V8.93a.33.33,0,0,1,.36-.35h1.37a.32.32,0,0,1,.35.35V10.3a.33.33,0,0,1-.35.36H15.3a.34.34,0,0,1-.36-.36Z"/><path class="cls-1" d="M14,9.64v.7a.33.33,0,0,1-.36.34H12.27a.34.34,0,0,1-.36-.37V9a.33.33,0,0,1,.36-.36h1.36A.32.32,0,0,1,14,9v.68Z"/><path class="cls-1" d="M10,11.68h.69A.32.32,0,0,1,11,12v1.39a.32.32,0,0,1-.34.35H9.29A.33.33,0,0,1,9,13.42V12a.32.32,0,0,1,.35-.33Z"/><path class="cls-1" d="M11,15.72v.69a.33.33,0,0,1-.35.35H9.31A.33.33,0,0,1,9,16.41V15a.32.32,0,0,1,.34-.34h1.39A.32.32,0,0,1,11,15Z"/><path class="cls-1" d="M8,12.75v.69a.34.34,0,0,1-.35.35H6.28a.33.33,0,0,1-.35-.36V12.06a.32.32,0,0,1,.35-.35H7.66a.33.33,0,0,1,.35.35Z"/></svg>