<svg id="Layer_1" data-name="Layer 1" xmlns="http://www.w3.org/2000/svg" viewBox="0 0 20 20"><defs><style>.cls-1{fill:#009ed4;}</style></defs><path class="cls-1" d="M14.82,1.13A9.9,9.9,0,0,0,10,0a9.84,9.84,0,0,0-4.8,1.13A7.9,7.9,0,0,0,2,4.36,10.27,10.27,0,0,0,.89,9.28,10.33,10.33,0,0,0,2,14.2a8,8,0,0,0,1.17,1.66c-.41,1.31-.8,2.62-1.2,3.93,0,.06-.09.14,0,.19s.13,0,.19-.06L5.8,17.74a10.13,10.13,0,0,0,4.22.85,9.79,9.79,0,0,0,4.8-1.14A7.67,7.67,0,0,0,18,14.2a10.44,10.44,0,0,0,1.11-4.92A10.38,10.38,0,0,0,18,4.36,7.8,7.8,0,0,0,14.82,1.13ZM13.38,13.58A4.08,4.08,0,0,1,10,15a4.59,4.59,0,0,1-2.29-.54l-1.27.76-.92.54c-.06,0-.12.12-.19.07s0-.13,0-.2l.2-.68c.22-.7.43-1.41.64-2.11a7.91,7.91,0,0,1-.72-3.6A6.76,6.76,0,0,1,6.64,5,4.1,4.1,0,0,1,10,3.51,4,4,0,0,1,13.38,5a6.82,6.82,0,0,1,1.17,4.3A6.76,6.76,0,0,1,13.38,13.58Z"/></svg>