<svg id="Layer_1" data-name="Layer 1" xmlns="http://www.w3.org/2000/svg" viewBox="0 0 20 20"><defs><style>.cls-1{fill:#0547db;}</style></defs><g id="Abstract_figure_triangle" data-name="Abstract figure triangle"><g id="Path_287" data-name="Path 287"><path class="cls-1" d="M6.47,20A.45.45,0,0,1,6,19.55V4.65a.45.45,0,0,1,.23-.39.43.43,0,0,1,.45,0l12,7.45a.45.45,0,0,1,0,.76L9.59,18.23a.45.45,0,0,1-.46,0,.43.43,0,0,1-.23-.39v-7.7a.45.45,0,0,1,.9,0V17l7.83-4.94L6.92,5.45v14.1A.45.45,0,0,1,6.47,20Z"/></g></g><path id="Path_270" data-name="Path 270" class="cls-1" d="M4,5a.46.46,0,0,1,.48.45h0A.48.48,0,0,1,4,5.91H1.56a.48.48,0,0,1-.48-.46h0A.47.47,0,0,1,1.56,5Z"/><path id="Path_273" data-name="Path 273" class="cls-1" d="M6.39.45A.48.48,0,0,1,6.88,0h0a.47.47,0,0,1,.48.45V2.73a.47.47,0,0,1-.48.45h0a.47.47,0,0,1-.49-.45Z"/><path id="Path_275" data-name="Path 275" class="cls-1" d="M2.78,2.24a.44.44,0,0,1,0-.63h0a.5.5,0,0,1,.68,0L5.17,3.2a.44.44,0,0,1,0,.63v0h0a.53.53,0,0,1-.69,0Z"/><path id="Path_276" data-name="Path 276" class="cls-1" d="M9.27,3.85a.53.53,0,0,1-.69,0h0a.44.44,0,0,1,0-.62l0,0,1.71-1.6a.5.5,0,0,1,.68,0h0a.43.43,0,0,1,0,.61l0,0Z"/><path id="Path_277" data-name="Path 277" class="cls-1" d="M3.46,9.31a.52.52,0,0,1-.68,0h0a.44.44,0,0,1,0-.63h0L4.49,7.06a.5.5,0,0,1,.68,0h0a.44.44,0,0,1,0,.62l0,0Z"/></svg>