<svg id="Layer_1" data-name="Layer 1" xmlns="http://www.w3.org/2000/svg" viewBox="0 0 20 20"><defs><style>.cls-1{fill:#0e2ba5;}</style></defs><path class="cls-1" d="M19.25,6.19c-.11-.27-.24-.53-.37-.79H13.79a4.69,4.69,0,0,0-1.68.32A4.59,4.59,0,0,0,10,12.61l-.06.06a4,4,0,0,1-1.33.88l-.21.08a6.45,6.45,0,0,1,.5-7.91,6.55,6.55,0,0,1,1.6-1.32,6.4,6.4,0,0,1,3.28-.9H17.6a10,10,0,0,0-15.2,0H7.23A6.5,6.5,0,0,1,9.69,4a7.13,7.13,0,0,0-1.6,1.5,4.12,4.12,0,0,0-.86-.09H1.11a10,10,0,0,0,0,9.18H7.23a4.8,4.8,0,0,0,.85-.08h0a3.2,3.2,0,0,0,.42-.1h0l.4-.13a4.69,4.69,0,0,0,1.6-1.07,3.58,3.58,0,0,0,.26-.29h0l.24-.31h0a4.61,4.61,0,0,0,0-5.22,3.79,3.79,0,0,1,1.6-1,6.49,6.49,0,0,1,0,7.26h0l-.24.33h0c-.08.11-.17.21-.26.32a6.55,6.55,0,0,1-1.6,1.32l-.4.22h0L9.69,16h0a6.5,6.5,0,0,1-2.46.49H2.4a10,10,0,0,0,15.2,0H13.79A6.59,6.59,0,0,1,11.32,16a7.27,7.27,0,0,0,1.38-1.22l.24-.27a4.71,4.71,0,0,0,.85.08h5.09c.13-.26.26-.52.37-.79a10.05,10.05,0,0,0,0-7.62Z"/></svg>