<?xml version="1.0" encoding="utf-8"?>
<!-- Generator: Adobe Illustrator 24.0.0, SVG Export Plug-In . SVG Version: 6.00 Build 0)  -->
<svg version="1.1" id="Layer_1" xmlns="http://www.w3.org/2000/svg" xmlns:xlink="http://www.w3.org/1999/xlink" x="0px" y="0px"
	 viewBox="0 0 20 20" style="enable-background:new 0 0 20 20;" xml:space="preserve">
<style type="text/css">
	.st0{fill:#D84728;}
	.st1{fill:none;}
	.st2{fill:url(#SVGID_7_);}
	.st3{fill:#FFFFFF;}
	.st4{fill:#D8D8D8;}
	.st5{fill:#2070D8;}
	.st6{fill:#0547DB;}
	.st7{fill:#0195AA;}
	.st8{fill:#606060;}
	.st9{fill:#1293F1;}
	.st10{fill:#33CC99;}
	.st11{fill:#002D67;}
	.st12{fill:#47C9F3;}
	.st13{fill:#1BCEC1;}
	.st14{fill:#00D9A4;}
	.st15{fill:#F5921D;}
	.st16{fill:#1EAEF7;}
	.st17{opacity:0.2;fill:#FFFF00;}
	.st18{fill:#3A3A3A;}
	.st19{fill:#03458F;}
	.st20{fill:#009ED4;}
	.st21{fill:#121226;}
	.st22{enable-background:new    ;}
	.st23{fill:#E24A47;}
	.st24{fill:#0E2BA5;}
	.st25{fill:#1681C4;}
	.st26{fill:#582D82;}
	.st27{opacity:0.4;fill:#006837;}
	.st28{clip-path:url(#SVGID_8_);}
	.st29{fill:#545454;}
	.st30{clip-path:url(#SVGID_9_);}
	.st31{fill:#F2F2F2;}
	.st32{fill:#E6E6E6;}
	.st33{fill:url(#SVGID_10_);}
	.st34{fill:url(#SVGID_11_);}
	.st35{fill-rule:evenodd;clip-rule:evenodd;fill:#02355E;}
	.st36{fill-rule:evenodd;clip-rule:evenodd;fill:#ED701E;}
	.st37{clip-path:url(#SVGID_12_);}
	.st38{fill-rule:evenodd;clip-rule:evenodd;fill:#B2D925;}
	.st39{fill-rule:evenodd;clip-rule:evenodd;fill:#F2CE1B;}
	.st40{fill:#02355E;}
	.st41{clip-path:url(#SVGID_13_);}
	.st42{clip-path:url(#SVGID_14_);}
	.st43{clip-path:url(#SVGID_15_);}
	.st44{fill:url(#SVGID_16_);}
	.st45{fill:url(#SVGID_17_);}
	.st46{fill:#24539F;}
	.st47{fill:#E91F3A;}
</style>
<g>
	<path class="st35" d="M1.13,0h17.74C19.5,0,20,0.5,20,1.13v17.74C20,19.5,19.5,20,18.87,20H1.13C0.5,20,0,19.5,0,18.87V1.13
		C0,0.51,0.5,0,1.13,0z"/>
	<path class="st36" d="M7.32,15.48H3.46c0,0-0.4,0.01-0.35-0.6V4.93c0,0-0.05-0.4,0.48-0.38c0,0,2.02-0.08,2.82,0.14
		c0.82,0.22,1.67,0.47,2.84,2.3c0,0,0.25,0.63,0.76,0.64c0.5-0.01,0.76-0.64,0.76-0.64c1.17-1.81,2.03-2.08,2.84-2.29
		c0.82-0.22,2.82-0.14,2.82-0.14c0.52-0.02,0.47,0.38,0.47,0.38v9.94c0.04,0.61-0.34,0.6-0.34,0.6h-3.87
		c-0.29,0.04-0.33-0.2-0.33-0.2s-0.01-1.39,0.2-2.47c0.21-1.08,1.46-2.32,2.06-3.19c0.59-0.88-0.16-1.32-0.6-1.34
		c-0.44-0.03-1.25,1.19-2.18,2.51c-0.92,1.32-1.81,1.14-1.81,1.14s-0.9,0.17-1.82-1.14C7.27,9.47,6.47,8.25,6.03,8.28
		c-0.45,0.03-1.2,0.46-0.61,1.34c0.59,0.88,1.85,2.12,2.06,3.19c0.21,1.07,0.2,2.47,0.2,2.47S7.62,15.52,7.32,15.48z M10.01,8.87
		c0.58,0,1.07,0.47,1.07,1.07S10.59,11,10.01,11c-0.59,0-1.07-0.47-1.07-1.07S9.41,8.87,10.01,8.87z"/>
	<g>
		<g>
			<defs>
				<path id="SVGID_6_" d="M7.32,15.48H3.46c0,0-0.4,0.01-0.35-0.6V4.93c0,0-0.05-0.4,0.48-0.38c0,0,2.02-0.08,2.82,0.14
					c0.82,0.22,1.67,0.47,2.84,2.3c0,0,0.25,0.63,0.76,0.64c0.5-0.01,0.76-0.64,0.76-0.64c1.17-1.81,2.03-2.08,2.84-2.29
					c0.82-0.22,2.82-0.14,2.82-0.14c0.52-0.02,0.47,0.38,0.47,0.38v9.94c0.04,0.61-0.34,0.6-0.34,0.6h-3.87
					c-0.29,0.04-0.33-0.2-0.33-0.2s-0.01-1.39,0.2-2.47c0.21-1.08,1.46-2.32,2.06-3.19c0.59-0.88-0.16-1.32-0.6-1.34
					c-0.44-0.03-1.25,1.19-2.18,2.51c-0.92,1.32-1.81,1.14-1.81,1.14s-0.9,0.17-1.82-1.14C7.27,9.47,6.47,8.25,6.03,8.28
					c-0.45,0.03-1.2,0.46-0.61,1.34c0.59,0.88,1.85,2.12,2.06,3.19c0.21,1.07,0.2,2.47,0.2,2.47S7.62,15.52,7.32,15.48z M10.01,8.87
					c0.58,0,1.07,0.47,1.07,1.07S10.59,11,10.01,11c-0.59,0-1.07-0.47-1.07-1.07S9.41,8.87,10.01,8.87z"/>
			</defs>
			<clipPath id="SVGID_7_">
				<use xlink:href="#SVGID_6_"  style="overflow:visible;"/>
			</clipPath>
			<g style="clip-path:url(#SVGID_7_);">
				<g>
					<path id="_x31__2_" class="st38" d="M7.35,10.34L6.71,9.84c0,0-0.54,1.67-3.61,2.77l-0.57,2.96l3.91,0.66l2.31-1.5L7.35,10.34z
						"/>
					<path class="st39" d="M2.54,4.28l0.55,1.43c0,0,1.35,3.24,3.61,4.12c0,0-0.54,1.67-3.61,2.77L2.54,4.28z"/>
					<path class="st38" d="M12.68,10.04l0.62-0.19c0,0,0.54,1.67,3.61,2.77l0.58,2.96l-3.92,0.66l-2.31-1.5L12.68,10.04z"/>
					<path class="st39" d="M17.46,4.28l-0.55,1.43c0,0-1.35,3.24-3.61,4.12c0,0,0.54,1.67,3.61,2.77L17.46,4.28z"/>
				</g>
			</g>
		</g>
	</g>
	<path class="st1" d="M7.32,15.48H3.46c0,0-0.4,0.01-0.35-0.6V4.93c0,0-0.05-0.4,0.48-0.38c0,0,2.02-0.08,2.82,0.14
		c0.82,0.22,1.67,0.47,2.84,2.3c0,0,0.25,0.63,0.76,0.64c0.5-0.01,0.76-0.64,0.76-0.64c1.17-1.81,2.03-2.08,2.84-2.29
		c0.82-0.22,2.82-0.14,2.82-0.14c0.52-0.02,0.47,0.38,0.47,0.38v9.94c0.04,0.61-0.34,0.6-0.34,0.6h-3.87
		c-0.29,0.04-0.33-0.2-0.33-0.2s-0.01-1.39,0.2-2.47c0.21-1.08,1.46-2.32,2.06-3.19c0.59-0.88-0.16-1.32-0.6-1.34
		c-0.44-0.03-1.25,1.19-2.18,2.51c-0.92,1.32-1.81,1.14-1.81,1.14s-0.9,0.17-1.82-1.14C7.27,9.47,6.47,8.25,6.03,8.28
		c-0.45,0.03-1.2,0.46-0.61,1.34c0.59,0.88,1.85,2.12,2.06,3.19c0.21,1.07,0.2,2.47,0.2,2.47S7.62,15.52,7.32,15.48z M10.01,8.87
		c0.58,0,1.07,0.47,1.07,1.07S10.59,11,10.01,11c-0.59,0-1.07-0.47-1.07-1.07S9.41,8.87,10.01,8.87z"/>
</g>
</svg>
