<svg id="Layer_1" data-name="Layer 1" xmlns="http://www.w3.org/2000/svg" viewBox="0 0 20 20"><defs><style>.cls-1{fill:#0195aa;}.cls-2{fill:#606060;}</style></defs><path class="cls-1" d="M19.79,6.81a6.8,6.8,0,0,0-13.6-.37c0,.12,0,.25,0,.37v6.81h6.36c0-.14,0-.28,0-.43v-.85H7.45V6.81c0-.14,0-.29,0-.43a5.53,5.53,0,1,1,7,5.75v1.32A6.82,6.82,0,0,0,19.79,6.81Z"/><path class="cls-2" d="M7.47,6.38c0,.14,0,.28,0,.43v.85h5.1v5.53c0,.15,0,.29,0,.43a5.53,5.53,0,1,1-7-5.74V6.55a6.81,6.81,0,1,0,8.28,7c0-.12,0-.25,0-.37V6.38Z"/></svg>