<svg id="Layer_1" data-name="Layer 1" xmlns="http://www.w3.org/2000/svg" viewBox="0 0 20 20"><defs><style>.cls-1{fill:#002d67;}.cls-2{fill:#47c9f3;}</style></defs><path class="cls-1" d="M13,16.16H11.33v3.77H9.25V9.64H13a4.16,4.16,0,0,1,2.75.81,2.82,2.82,0,0,1,1,2.3,3.18,3.18,0,0,1-.45,1.75,3,3,0,0,1-1.35,1.12l2.18,4.21v.1H14.86Zm-1.65-1.72H13a1.7,1.7,0,0,0,1.21-.4,1.51,1.51,0,0,0,.43-1.12,1.58,1.58,0,0,0-.41-1.15A1.65,1.65,0,0,0,13,11.35H11.33Z"/><path class="cls-2" d="M1.63,18.71a.9.9,0,0,1-.3,0c-.09-.19-.14-1.24,1.16-3.55A34.73,34.73,0,0,1,8.06,8.06c4.4-4.39,8.6-6.77,10.31-6.77a.84.84,0,0,1,.3,0c.09.19.14,1.24-1.16,3.55a27.35,27.35,0,0,1-2.68,3.85,4.59,4.59,0,0,1,1.23.54c3.21-4,4.74-7.63,3.52-8.85A1.61,1.61,0,0,0,18.37,0C16,0,11.49,2.81,7.15,7.15,1.86,12.44-1.16,18,.42,19.58A1.61,1.61,0,0,0,1.63,20C3.12,20,5.48,18.87,8.11,17V15.32C5.25,17.54,2.83,18.71,1.63,18.71Z"/></svg>