<svg id="Layer_1" data-name="Layer 1" xmlns="http://www.w3.org/2000/svg" viewBox="0 0 20 20"><defs><style>.cls-1{fill:#002d67;}.cls-2{fill:#1bcec1;}</style></defs><path class="cls-1" d="M17.65,2.18c-.14-.13-.3-.25-.45-.37A8.75,8.75,0,0,0,11.58,0,11.08,11.08,0,0,0,3.24,3.44,11.92,11.92,0,0,0,0,11.94a7.64,7.64,0,0,0,2.32,5.88A8.09,8.09,0,0,0,6,19.7,10.66,10.66,0,0,0,8.42,20a13.47,13.47,0,0,0,2.74-.27,12.44,12.44,0,0,0,1.27-.35.35.35,0,0,0,0-.08h0l0-.05L12.26,19l-.36-.91h0L11,15.6a6.21,6.21,0,0,1-1.91.29c-2.79,0-4.53-1.93-4.53-4.76a7.54,7.54,0,0,1,1.79-5A5.76,5.76,0,0,1,11,3.92c2.79,0,4.55,1.93,4.55,4.75a7.7,7.7,0,0,1-1.81,5.06,6.41,6.41,0,0,1-.87.86h0L14.35,18a.72.72,0,0,1,.12.33s0,0,0,.06a11,11,0,0,0,2.25-1.81c.16-.17.32-.35.47-.53a11.83,11.83,0,0,0,2.8-8A7.6,7.6,0,0,0,17.65,2.18Z"/><path class="cls-2" d="M10.62,6.1A3.67,3.67,0,0,0,7.67,7.49a4.79,4.79,0,0,0-1.13,3.19,2.77,2.77,0,0,0,2.88,3,3.69,3.69,0,0,0,2.94-1.36,4.88,4.88,0,0,0,1.16-3.22A2.79,2.79,0,0,0,10.62,6.1Z"/></svg>