<svg id="Layer_1" data-name="Layer 1" xmlns="http://www.w3.org/2000/svg" viewBox="0 0 20 20"><defs><style>.cls-1{fill:#00d9a4;}</style></defs><polygon class="cls-1" points="13.76 9.74 0.2 7.81 6.24 2.51 19.8 4.44 13.76 9.74"/><path class="cls-1" d="M13.76,12.13h0L.17,10.19A.2.2,0,0,1,0,10a.21.21,0,0,1,.23-.17l13.46,1.92,6-5.24a.21.21,0,0,1,.29,0,.21.21,0,0,1,0,.29l-6,5.3A.21.21,0,0,1,13.76,12.13Z"/><path class="cls-1" d="M13.76,14.81h0L.17,12.88A.21.21,0,0,1,0,12.65a.22.22,0,0,1,.23-.18l13.46,1.92,6-5.24a.21.21,0,0,1,.29,0,.21.21,0,0,1,0,.29l-6,5.3A.21.21,0,0,1,13.76,14.81Z"/><path class="cls-1" d="M13.76,17.49h0L.17,15.56A.21.21,0,0,1,0,15.33a.2.2,0,0,1,.23-.17l13.46,1.91,6-5.23a.2.2,0,0,1,.29,0,.19.19,0,0,1,0,.28l-6,5.3A.21.21,0,0,1,13.76,17.49Z"/></svg>