<svg id="Layer_1" data-name="Layer 1" xmlns="http://www.w3.org/2000/svg" viewBox="0 0 20 20"><defs><style>.cls-1{fill:#1eaef7;}</style></defs><path class="cls-1" d="M7.9,10.9a1.62,1.62,0,0,0,.26-.9,1.57,1.57,0,0,0-.26-.89,1.51,1.51,0,0,0-.71-.61l-6-2.59-.12.46C1,6.79.89,7.23.82,7.67L.78,8l5,2-5,2,0,.32c.07.44.16.88.26,1.3l.12.46,6-2.59A1.6,1.6,0,0,0,7.9,10.9Z"/><path class="cls-1" d="M19.22,8l0-.32c-.07-.44-.15-.88-.26-1.3l-.12-.46-6,2.59a1.51,1.51,0,0,0-.71.61,1.57,1.57,0,0,0-.26.89,1.62,1.62,0,0,0,.26.9,1.6,1.6,0,0,0,.71.6l6,2.59.12-.46c.1-.42.19-.86.26-1.3l0-.32-5-2Z"/><path class="cls-1" d="M9.1,7.9a1.62,1.62,0,0,0,.9.26,1.57,1.57,0,0,0,.89-.26,1.49,1.49,0,0,0,.61-.72L14.34.61,14,.45A10.43,10.43,0,0,0,12.73.06L12.48,0l-.16.2a1.77,1.77,0,0,0-.24.4L10,5.75,7.92.6A2.23,2.23,0,0,0,7.68.2L7.52,0,7.27.06A10.43,10.43,0,0,0,6,.45L5.66.61,8.5,7.19A1.6,1.6,0,0,0,9.1,7.9Z"/><path class="cls-1" d="M10.89,12.1h0a1.57,1.57,0,0,0-.89-.26,1.62,1.62,0,0,0-.9.26,1.6,1.6,0,0,0-.6.71L5.65,19.39l.39.16a10.43,10.43,0,0,0,1.23.39l.25.06.16-.2a2.23,2.23,0,0,0,.24-.4L10,14.25l2.08,5.15a1.77,1.77,0,0,0,.24.4l.16.2.25-.06A10.43,10.43,0,0,0,14,19.55l.38-.16L11.5,12.81A1.51,1.51,0,0,0,10.89,12.1Z"/></svg>