<svg width="930" height="196" viewBox="0 0 930 196" fill="none" xmlns="http://www.w3.org/2000/svg">
<path d="M42.4381 190.695L42.1691 191.911H43.4145H107.755H110.458L108.406 190.151C108.3 190.061 108.112 189.813 107.89 189.293C107.678 188.795 107.471 188.135 107.275 187.323C106.882 185.7 106.556 183.568 106.297 181.114C105.779 176.213 105.538 170.138 105.538 164.531C105.538 159.223 107.719 156.115 109.849 154.316C110.926 153.406 112.006 152.819 112.815 152.461C113.218 152.283 113.551 152.163 113.778 152.088C113.872 152.058 113.947 152.035 114.001 152.019H126.822H126.839L126.855 152.019C130.137 151.908 133.46 150.49 136.024 148.411C138.562 146.353 140.483 143.539 140.781 140.518L145.966 115.29L157.504 108.117L157.591 108.063L157.665 107.993C158.912 106.808 160.422 105.164 160.823 103.149C161.249 101.006 160.38 98.7809 157.681 96.5785L141.248 76.9851V58.6898C141.248 33.6367 128.186 19.6582 113.569 12.0012C99.0165 4.37861 82.9131 3 76.5507 3C70.1563 3 55.3282 4.79179 42.0615 12.6293C28.73 20.5052 17 34.4835 17 58.6898C17 77.3304 25.3433 92.5774 33.5638 105.472C34.8861 107.546 36.2006 109.553 37.477 111.501C40.1916 115.645 42.7342 119.526 44.8146 123.238C47.8706 128.691 49.8141 133.591 49.8141 138.151C49.8141 147.71 47.9779 160.827 46.1287 171.6C45.2058 176.977 44.2827 181.752 43.5904 185.184C43.2443 186.899 42.9559 188.278 42.7542 189.228C42.6534 189.702 42.5742 190.07 42.5203 190.318C42.4934 190.442 42.4727 190.537 42.4589 190.6L42.4432 190.671L42.4393 190.689L42.4383 190.693L42.4381 190.694C42.4381 190.695 42.4381 190.695 43.4145 190.911L42.4381 190.695Z" stroke="white" style="stroke:blue;stroke-opacity:1;" stroke-width="4"/>
<path d="M794.438 190.695L794.169 191.911H795.414H859.755H862.458L860.406 190.151C860.3 190.061 860.112 189.813 859.89 189.293C859.678 188.795 859.471 188.135 859.275 187.323C858.882 185.7 858.556 183.568 858.297 181.114C857.779 176.213 857.538 170.138 857.538 164.531C857.538 159.223 859.719 156.115 861.849 154.316C862.926 153.406 864.006 152.819 864.815 152.461C865.218 152.283 865.551 152.163 865.778 152.088C865.872 152.058 865.947 152.035 866.001 152.019H878.822H878.839L878.855 152.019C882.137 151.908 885.46 150.49 888.024 148.411C890.562 146.353 892.483 143.539 892.781 140.518L897.966 115.29L909.504 108.117L909.591 108.063L909.665 107.993C910.912 106.808 912.422 105.164 912.823 103.149C913.249 101.006 912.38 98.7809 909.681 96.5785L893.248 76.9851V58.6898C893.248 33.6367 880.186 19.6582 865.569 12.0012C851.017 4.37861 834.913 3 828.551 3C822.156 3 807.328 4.79179 794.062 12.6293C780.73 20.5052 769 34.4835 769 58.6898C769 77.3304 777.343 92.5774 785.564 105.472C786.886 107.546 788.201 109.553 789.477 111.501C792.192 115.645 794.734 119.526 796.815 123.238C799.871 128.691 801.814 133.591 801.814 138.151C801.814 147.71 799.978 160.827 798.129 171.6C797.206 176.977 796.283 181.752 795.59 185.184C795.244 186.899 794.956 188.278 794.754 189.228C794.653 189.702 794.574 190.07 794.52 190.318C794.493 190.442 794.473 190.537 794.459 190.6L794.443 190.671L794.439 190.689L794.438 190.693L794.438 190.694C794.438 190.695 794.438 190.695 795.414 190.911L794.438 190.695Z" stroke="white" style="stroke:blue;stroke-opacity:1;" stroke-width="4"/>
<path d="M840.415 113.356H825.549C824.728 113.356 824.062 112.69 824.062 111.869C824.062 111.047 824.728 110.382 825.549 110.382H840.415C841.237 110.382 841.902 111.047 841.902 111.869C841.902 112.69 841.237 113.356 840.415 113.356Z" fill="#4E4E4E" style="fill:#4E4E4E;fill:color(display-p3 0.3059 0.3059 0.3059);fill-opacity:1;"/>
<path d="M843.761 108.153H822.206C821.384 108.153 820.719 107.487 820.719 106.666C820.719 105.844 821.384 105.179 822.206 105.179H843.761C844.583 105.179 845.248 105.844 845.248 106.666C845.248 107.487 844.583 108.153 843.761 108.153Z" fill="#4E4E4E" style="fill:#4E4E4E;fill:color(display-p3 0.3059 0.3059 0.3059);fill-opacity:1;"/>
<path d="M843.761 102.95H822.206C821.384 102.95 820.719 102.284 820.719 101.463C820.719 100.641 821.384 99.9756 822.206 99.9756H843.761C844.583 99.9756 845.248 100.641 845.248 101.463C845.248 102.284 844.583 102.95 843.761 102.95Z" fill="#4E4E4E" style="fill:#4E4E4E;fill:color(display-p3 0.3059 0.3059 0.3059);fill-opacity:1;"/>
<path d="M843.761 97.7469H822.206C821.384 97.7469 820.719 97.0814 820.719 96.2599C820.719 95.4384 821.384 94.7729 822.206 94.7729H843.761C844.583 94.7729 845.248 95.4384 845.248 96.2599C845.248 97.0814 844.583 97.7469 843.761 97.7469Z" fill="#4E4E4E" style="fill:#4E4E4E;fill:color(display-p3 0.3059 0.3059 0.3059);fill-opacity:1;"/>
<path d="M832.984 88.4556C845.812 88.4556 856.211 78.0562 856.211 65.2278C856.211 52.3994 845.812 42 832.984 42C820.155 42 809.756 52.3994 809.756 65.2278C809.756 78.0562 820.155 88.4556 832.984 88.4556Z" fill="#AFAFAF" style="fill:#AFAFAF;fill:color(display-p3 0.6875 0.6875 0.6875);fill-opacity:1;"/>
<path d="M822.792 92.729H843.175C844.423 92.729 845.434 91.718 845.434 90.4709V83.4659C845.434 82.2187 844.423 81.2077 843.175 81.2077H822.792C821.545 81.2077 820.534 82.2187 820.534 83.4659V90.4709C820.534 91.718 821.545 92.729 822.792 92.729Z" fill="#AFAFAF" style="fill:#AFAFAF;fill:color(display-p3 0.6875 0.6875 0.6875);fill-opacity:1;"/>
<path d="M816.747 57.9009C816.605 57.9009 816.461 57.8687 816.326 57.7993C815.869 57.5667 815.687 57.007 815.92 56.5499C818.811 50.8778 824.295 47.022 830.593 46.2367C831.101 46.1733 831.566 46.5347 831.63 47.0441C831.693 47.5535 831.332 48.0177 830.822 48.0811C825.138 48.7898 820.186 52.2712 817.575 57.3935C817.411 57.7157 817.085 57.9009 816.747 57.9009Z" fill="white" style="fill:white;fill-opacity:1;"/>
<path d="M814.773 66.1575C814.26 66.1575 813.844 65.7417 813.844 65.2283C813.844 63.6577 814.034 62.0963 814.411 60.5861C814.534 60.0878 815.04 59.7858 815.537 59.9096C816.035 60.0334 816.338 60.5378 816.214 61.0361C815.874 62.3993 815.702 63.8098 815.702 65.2283C815.702 65.7417 815.286 66.1575 814.773 66.1575Z" fill="white" style="fill:white;fill-opacity:1;"/>
<!-- <path d="M105 191.599C105 191.599 131.337 178.88 149.357 178.88C167.378 178.88 175.694 191.599 193.714 191.599" stroke="white" style="stroke:white;stroke-opacity:1;" stroke-width="1.5" stroke-linecap="round"/> -->
<path d="M66.8988 86.7537C54.0708 86.7537 43.6348 76.3177 43.6348 63.4896C43.6348 50.6616 54.0708 40.2256 66.8988 40.2256C79.7268 40.2256 90.1628 50.6616 90.1628 63.4896C90.1628 76.3177 79.7268 86.7537 66.8988 86.7537ZM66.8988 41.3562C54.695 41.3562 44.7653 51.2848 44.7653 63.4896C44.7653 75.6945 54.6939 85.6231 66.8988 85.6231C79.1037 85.6231 89.0323 75.6945 89.0323 63.4896C89.0323 51.2848 79.1037 41.3562 66.8988 41.3562Z" stroke="blue" style="fill:blue;fill-opacity:1;" stroke-width="1"/>
<path d="M72.9691 92.8235C60.1411 92.8235 49.7051 82.3875 49.7051 69.5594C49.7051 56.7314 60.1411 46.2954 72.9691 46.2954C85.7972 46.2954 96.2332 56.7314 96.2332 69.5594C96.2332 82.3875 85.7972 92.8235 72.9691 92.8235ZM72.9691 47.426C60.7653 47.426 50.8357 57.3546 50.8357 69.5594C50.8357 81.7643 60.7643 91.6929 72.9691 91.6929C85.174 91.6929 95.1026 81.7643 95.1026 69.5594C95.1026 57.3546 85.174 47.426 72.9691 47.426Z" stroke="blue" style="fill:blue;fill-opacity:1;" stroke-width="1"/>
<path d="M72.9691 81.1794C60.1411 81.1794 49.7051 70.7434 49.7051 57.9154C49.7051 45.0874 60.1411 34.6514 72.9691 34.6514C85.7972 34.6514 96.2332 45.0874 96.2332 57.9154C96.2332 70.7434 85.7972 81.1794 72.9691 81.1794ZM72.9691 35.7819C60.7653 35.7819 50.8357 45.7105 50.8357 57.9154C50.8357 70.1203 60.7643 80.0489 72.9691 80.0489C85.174 80.0489 95.1026 70.1203 95.1026 57.9154C95.1026 45.7105 85.174 35.7819 72.9691 35.7819Z" stroke="blue" style="fill:blue;fill-opacity:1;" stroke-width="1"/>
<path d="M89.598 88.7224C76.77 88.7224 66.334 78.2864 66.334 65.4584C66.334 52.6303 76.77 42.1943 89.598 42.1943C102.426 42.1943 112.862 52.6303 112.862 65.4584C112.862 78.2864 102.426 88.7224 89.598 88.7224ZM89.598 43.3249C77.3942 43.3249 67.4646 53.2535 67.4646 65.4584C67.4646 77.6632 77.3932 87.5918 89.598 87.5918C101.803 87.5918 111.731 77.6632 111.731 65.4584C111.731 53.2535 101.803 43.3249 89.598 43.3249Z" stroke="blue" style="fill:blue;fill-opacity:1;" stroke-width="1"/>
<path d="M91.5082 109.453C78.6801 109.453 68.2441 99.0169 68.2441 86.1888C68.2441 73.3608 78.6801 62.9248 91.5082 62.9248C104.336 62.9248 114.772 73.3608 114.772 86.1888C114.772 99.0169 104.336 109.453 91.5082 109.453ZM91.5082 64.0554C79.3043 64.0554 69.3747 73.984 69.3747 86.1888C69.3747 98.3937 79.3033 108.322 91.5082 108.322C103.713 108.322 113.642 98.3937 113.642 86.1888C113.642 73.984 103.713 64.0554 91.5082 64.0554Z" stroke="blue" style="fill:blue;fill-opacity:1;" stroke-width="1"/>
<path d="M71.232 112.587C62.2608 112.587 54.9629 105.289 54.9629 96.3175C54.9629 87.3463 62.2608 80.0483 71.232 80.0483C80.2032 80.0483 87.5011 87.3463 87.5011 96.3175C87.5011 105.289 80.2032 112.587 71.232 112.587ZM71.232 81.1799C62.885 81.1799 56.0935 87.9705 56.0935 96.3185C56.0935 104.666 62.884 111.457 71.232 111.457C79.58 111.457 86.3706 104.666 86.3706 96.3185C86.3706 87.9705 79.58 81.1799 71.232 81.1799Z" stroke="blue" style="fill:blue;fill-opacity:1;" stroke-width="1"/>
<path d="M55.5269 108.527C46.5558 108.527 39.2578 101.229 39.2578 92.2574C39.2578 83.2862 46.5558 75.9883 55.5269 75.9883C64.4981 75.9883 71.7961 83.2862 71.7961 92.2574C71.7961 101.229 64.4981 108.527 55.5269 108.527ZM55.5269 77.1199C47.1799 77.1199 40.3884 83.9104 40.3884 92.2584C40.3884 100.606 47.1789 107.397 55.5269 107.397C63.8749 107.397 70.6655 100.606 70.6655 92.2584C70.6655 83.9104 63.8749 77.1199 55.5269 77.1199Z" stroke="blue" style="fill:blue;fill-opacity:1;" stroke-width="1"/>
<path d="M50.2691 83.9977C41.298 83.9977 34 76.6998 34 67.7286C34 58.7574 41.298 51.4595 50.2691 51.4595C59.2403 51.4595 66.5382 58.7574 66.5382 67.7286C66.5382 76.6998 59.2403 83.9977 50.2691 83.9977ZM50.2691 52.5901C41.9221 52.5901 35.1306 59.3806 35.1306 67.7286C35.1306 76.0766 41.9211 82.8671 50.2691 82.8671C58.6171 82.8671 65.4077 76.0766 65.4077 67.7286C65.4077 59.3806 58.6171 52.5901 50.2691 52.5901Z" stroke="blue" style="fill:blue;fill-opacity:1;" stroke-width="1"/>
<path d="M93.1461 63.1296C84.1749 63.1296 76.877 55.8316 76.877 46.8604C76.877 37.8893 84.1749 30.5913 93.1461 30.5913C102.117 30.5913 109.415 37.8893 109.415 46.8604C109.415 55.8316 102.117 63.1296 93.1461 63.1296ZM93.1461 31.7229C84.7991 31.7229 78.0075 38.5134 78.0075 46.8614C78.0075 55.2094 84.7981 62 93.1461 62C101.494 62 108.285 55.2094 108.285 46.8614C108.285 38.5134 101.494 31.7229 93.1461 31.7229Z" stroke="blue" style="fill:blue;fill-opacity:1;" stroke-width="1"/>
<path d="M113.21 96.3521C105.833 96.3521 99.832 90.3509 99.832 82.9744C99.832 75.5979 105.833 69.5967 113.21 69.5967C120.586 69.5967 126.587 75.5979 126.587 82.9744C126.587 90.3509 120.586 96.3521 113.21 96.3521ZM113.21 70.5279C106.347 70.5279 100.762 76.1114 100.762 82.9754C100.762 89.8395 106.346 95.4229 113.21 95.4229C120.074 95.4229 125.657 89.8395 125.657 82.9754C125.657 76.1114 120.074 70.5279 113.21 70.5279Z" stroke="blue" style="fill:blue;fill-opacity:1;" stroke-width="1"/>
<path d="M49.6821 65.9486C43.1382 65.9486 37.8145 60.6249 37.8145 54.081C37.8145 47.5371 43.1382 42.2134 49.6821 42.2134C56.2259 42.2134 61.5497 47.5371 61.5497 54.081C61.5497 60.6249 56.2259 65.9486 49.6821 65.9486ZM49.6821 43.0399C43.5932 43.0399 38.64 47.9931 38.64 54.082C38.64 60.1708 43.5932 65.124 49.6821 65.124C55.7709 65.124 60.7241 60.1708 60.7241 54.082C60.7241 47.9931 55.7709 43.0399 49.6821 43.0399Z" stroke="blue" style="fill:blue;fill-opacity:1;" stroke-width="1"/>
<path d="M77.9711 48.8333C71.4272 48.8333 66.1035 43.5096 66.1035 36.9657C66.1035 30.4219 71.4272 25.0981 77.9711 25.0981C84.515 25.0981 89.8387 30.4219 89.8387 36.9657C89.8387 43.5096 84.515 48.8333 77.9711 48.8333ZM77.9711 25.9247C71.8823 25.9247 66.9291 30.8779 66.9291 36.9668C66.9291 43.0556 71.8823 48.0088 77.9711 48.0088C84.06 48.0088 89.0132 43.0556 89.0132 36.9668C89.0132 30.8779 84.06 25.9247 77.9711 25.9247Z" stroke="blue" style="fill:blue;fill-opacity:1;" stroke-width="1"/>
<path d="M92.6703 103.5C86.1264 103.5 80.8027 98.1766 80.8027 91.6327C80.8027 85.0888 86.1264 79.7651 92.6703 79.7651C99.2142 79.7651 104.538 85.0888 104.538 91.6327C104.538 98.1766 99.2142 103.5 92.6703 103.5ZM92.6703 80.5917C86.5815 80.5917 81.6283 85.5449 81.6283 91.6337C81.6283 97.7226 86.5815 102.676 92.6703 102.676C98.7592 102.676 103.712 97.7226 103.712 91.6337C103.712 85.5449 98.7592 80.5917 92.6703 80.5917Z" stroke="blue" style="fill:blue;fill-opacity:1;" stroke-width="1"/>
<path d="M67.4859 56.5382C58.5147 56.5382 51.2168 49.2403 51.2168 40.2691C51.2168 31.298 58.5147 24 67.4859 24C76.4571 24 83.755 31.298 83.755 40.2691C83.755 49.2403 76.4571 56.5382 67.4859 56.5382ZM67.4859 25.1316C59.1389 25.1316 52.3474 31.9221 52.3474 40.2701C52.3474 48.6181 59.1379 55.4087 67.4859 55.4087C75.8339 55.4087 82.6245 48.6181 82.6245 40.2701C82.6245 31.9221 75.8339 25.1316 67.4859 25.1316Z" stroke="blue" style="fill:blue;fill-opacity:1;" stroke-width="1"/>
<path d="M108.849 85.8288C99.878 85.8288 92.5801 78.5308 92.5801 69.5597C92.5801 60.5885 99.878 53.2905 108.849 53.2905C117.82 53.2905 125.118 60.5885 125.118 69.5597C125.118 78.5308 117.82 85.8288 108.849 85.8288ZM108.849 54.4211C100.502 54.4211 93.7107 61.2117 93.7107 69.5597C93.7107 77.9076 100.501 84.6982 108.849 84.6982C117.197 84.6982 123.988 77.9076 123.988 69.5597C123.988 61.2117 117.197 54.4211 108.849 54.4211Z" stroke="blue" style="fill:blue;fill-opacity:1;" stroke-width="1"/>
<path d="M105.298 108.527C96.3273 108.527 89.0293 101.229 89.0293 92.2574C89.0293 83.2862 96.3273 75.9883 105.298 75.9883C114.27 75.9883 121.568 83.2862 121.568 92.2574C121.568 101.229 114.27 108.527 105.298 108.527ZM105.298 77.1199C96.9514 77.1199 90.1599 83.9104 90.1599 92.2584C90.1599 100.606 96.9504 107.397 105.298 107.397C113.646 107.397 120.437 100.606 120.437 92.2584C120.437 83.9104 113.646 77.1199 105.298 77.1199Z" stroke="blue" style="fill:blue;fill-opacity:1;" stroke-width="1"/>
<path d="M66.8961 77.1203C57.9249 77.1203 50.627 69.8223 50.627 60.8512C50.627 51.88 57.9249 44.582 66.8961 44.582C75.8672 44.582 83.1652 51.88 83.1652 60.8512C83.1652 69.8223 75.8672 77.1203 66.8961 77.1203ZM66.8961 45.7126C58.5491 45.7126 51.7575 52.5032 51.7575 60.8512C51.7575 69.1991 58.5481 75.9897 66.8961 75.9897C75.2441 75.9897 82.0346 69.1991 82.0346 60.8512C82.0346 52.5032 75.2441 45.7126 66.8961 45.7126Z" fill="white" style="fill:blue;fill-opacity:1;" stroke-width="4"/>
<path d="M66.8988 103.878C54.0708 103.878 43.6348 93.4417 43.6348 80.6137C43.6348 67.7856 54.0708 57.3496 66.8988 57.3496C79.7268 57.3496 90.1628 67.7856 90.1628 80.6137C90.1628 93.4417 79.7268 103.878 66.8988 103.878ZM66.8988 58.4802C54.695 58.4802 44.7653 68.4088 44.7653 80.6137C44.7653 92.8185 54.6939 102.747 66.8988 102.747C79.1037 102.747 89.0323 92.8185 89.0323 80.6137C89.0323 68.4088 79.1037 58.4802 66.8988 58.4802Z" fill="white" style="fill:blue;fill-opacity:1;"/>
<path d="M72.9691 103.878C60.1411 103.878 49.7051 93.4417 49.7051 80.6137C49.7051 67.7856 60.1411 57.3496 72.9691 57.3496C85.7972 57.3496 96.2332 67.7856 96.2332 80.6137C96.2332 93.4417 85.7972 103.878 72.9691 103.878ZM72.9691 58.4802C60.7653 58.4802 50.8357 68.4088 50.8357 80.6137C50.8357 92.8185 60.7643 102.747 72.9691 102.747C85.174 102.747 95.1026 92.8185 95.1026 80.6137C95.1026 68.4088 85.174 58.4802 72.9691 58.4802Z" fill="white" style="fill:blue;fill-opacity:1;"/>
</svg>
