<svg width="930" height="196" viewBox="0 0 930 196" fill="none" xmlns="http://www.w3.org/2000/svg">
<g clip-path="url(#clip0_348_928)">
<path d="M3.43457 195.042C5.23401 160.842 8.63057 154.476 10.3184 131.05C10.8475 123.708 14.7081 116.628 19.94 112.946C27.9436 107.312 38.8142 106.993 46.9273 101.597C50.5933 99.1581 53.2683 94.6113 53.989 89.592C54.7247 84.4668 53.4069 78.959 50.5142 75.133C43.6689 61.3175 40.4533 44.8593 41.4828 28.7607" stroke="white" style="stroke:white;stroke-opacity:1;" stroke-width="1.113" stroke-miterlimit="10"/>
<path d="M27.0637 195.041C27.0637 179.735 28.4889 166.18 29.8978 152.891C30.2682 166.896 30.6391 180.902 31.0095 194.907" stroke="white" style="stroke:white;stroke-opacity:1;" stroke-width="1.113" stroke-miterlimit="10"/>
<path d="M116.151 195.042C116.151 179.033 114.61 163.187 113.162 149.943C112.766 164.932 112.369 179.92 111.973 194.908" stroke="white" style="stroke:white;stroke-opacity:1;" stroke-width="1.113" stroke-miterlimit="10"/>
<path d="M40.7301 37.4614C39.4867 36.6941 37.9528 36.6695 36.6936 37.3972C35.4344 38.1248 34.478 39.5889 34.1769 41.2488C33.7385 43.666 34.6354 46.114 35.5092 48.3486C36.3322 50.4526 37.1551 52.5572 37.9781 54.6613C38.5102 56.022 39.1201 57.4815 40.2339 58.1355C41.3473 58.7895 43.0445 58.0154 43.0312 56.5075" stroke="white" style="stroke:white;stroke-opacity:1;" stroke-width="1.113" stroke-miterlimit="10"/>
<path d="M136.542 195.042C134.742 160.842 131.113 154.476 129.425 131.05C128.896 123.708 125.036 116.628 119.804 112.946C111.8 107.312 100.93 106.993 92.8164 101.597C89.1504 99.1581 86.4754 94.6113 85.7547 89.592C85.019 84.4668 86.3368 78.959 89.2295 75.133C96.0748 61.3175 99.2905 44.8593 98.2609 28.7607" stroke="white" style="stroke:white;stroke-opacity:1;" stroke-width="1.113" stroke-miterlimit="10"/>
<path d="M99.0144 37.4614C100.258 36.6941 101.792 36.6695 103.051 37.3972C104.31 38.1248 105.266 39.5889 105.568 41.2488C106.006 43.666 105.109 46.114 104.235 48.3486C103.412 50.4526 102.589 52.5572 101.766 54.6613C101.234 56.022 100.624 57.4815 99.5105 58.1355C98.3972 58.7895 96.7 58.0154 96.7132 56.5075" stroke="white" style="stroke:white;stroke-opacity:1;" stroke-width="1.113" stroke-miterlimit="10"/>
<path d="M19.9951 45.5407C15.9445 37.5144 18.7068 25.3672 25.1356 20.7412C31.5643 16.1153 40.2913 18.9625 44.9496 26.3981C49.6079 33.8332 50.2463 44.8746 47.2422 53.6589C45.276 59.4082 41.4486 64.576 36.6722 65.1689C31.914 65.7596 27.265 61.4049 25.4336 55.605C23.6022 49.8046 24.3126 42.9733 26.5713 37.4389C28.8295 31.9046 32.4905 27.5471 36.4895 24.1081C41.2668 19.9997 47.2088 17.0033 52.6361 19.3336C58.6738 21.926 62.2609 30.6569 62.3748 39.0015C62.4887 47.3461 59.7939 55.3117 56.6271 62.5465C53.9825 68.5892 50.7275 74.6313 45.9 77.5204C41.072 80.4101 34.3531 78.8447 32.0297 72.5779C30.7349 69.0845 31.0338 64.8563 32.1739 61.271C33.3139 57.6851 35.2127 54.6195 37.1297 51.66C42.4147 43.4998 48.373 35.4281 56.1069 32.0278C63.8407 28.628 73.7399 31.4797 77.5278 40.9681C79.8209 46.7123 79.4931 53.7474 77.9007 59.8871C74.348 73.5822 64.4489 84.0443 53.5064 85.6687C48.5013 86.412 42.7183 84.9039 40.0319 79.3054C38.0419 75.1584 38.2814 69.6712 39.7813 65.182C41.2817 60.6928 43.8788 57.0116 46.5211 53.5505C52.0214 46.3464 58.121 39.5337 65.4457 36.1413C72.7705 32.7489 81.5728 33.352 87.5264 39.9054C93.3856 46.3543 95.4156 57.7702 93.1248 67.3511C90.834 76.9321 84.6754 84.4897 77.5069 87.9734C71.517 90.8847 64.0016 90.7253 59.6056 84.6378C54.9506 78.1911 55.6573 67.3154 59.5112 60.0131C63.3651 52.7108 69.5861 48.2573 75.7387 44.5659C80.9735 41.4254 86.4938 38.597 92.2488 38.5607C98.0034 38.5243 104.083 41.8129 106.902 48.4043C110.486 56.7841 107.632 67.9543 102.151 74.3204C96.67 80.6865 89.2388 83.2267 82.0229 84.8103C77.1944 85.8696 71.5346 86.2514 68.1522 81.6017C65.7498 78.2995 65.2454 73.172 66.1469 68.7599C67.0484 64.3479 69.1593 60.5362 71.4589 57.1097C79.4815 45.1577 90.3974 36.6106 102.215 33.0275C105.476 32.0391 108.865 31.4184 112.165 32.1458C115.465 32.8726 118.689 35.0996 120.492 38.8041C123.978 45.9702 121.146 55.4694 117.607 62.5913C114.721 68.398 111.274 73.9453 106.697 77.3967C102.119 80.8482 96.2209 81.8859 91.557 78.6382C84.9232 74.0191 82.8658 62.0943 85.2231 52.7289C87.5799 43.3636 93.2666 36.1521 99.1263 29.9852C102.352 26.5899 105.767 23.3348 109.688 21.6196C113.61 19.9043 118.154 19.9168 121.652 22.8088C127.203 27.3979 128.378 38.0841 125.573 45.8732C122.769 53.6617 116.977 58.8885 110.981 62.3768C106.098 65.2172 100.773 67.1747 95.4551 66.5443C90.1371 65.9139 84.8293 62.3598 82.1828 56.266C78.811 48.5013 80.4778 38.2463 84.6614 31.196C88.845 24.1456 95.078 19.7449 101.346 16.2674C106.9 13.1865 113.82 10.8908 118.533 15.8299C122.288 19.767 123.062 27.2344 121.37 33.1432C119.678 39.0515 116.006 43.6076 112.083 47.2519C102.229 56.4062 90.0106 61.0769 77.9574 60.2973C72.605 59.9512 66.7866 58.1634 63.5795 52.523C59.7567 45.8 61.1989 35.7708 65.2258 29.2566C69.2527 22.7424 75.2509 18.9733 81.1116 15.6364C84.6888 13.5995 88.3712 11.6205 92.2591 11.238C96.1469 10.8556 100.334 12.3155 102.886 16.1885C105.386 19.9832 105.919 25.5499 104.946 30.4039C103.974 35.2573 101.673 39.4827 99.0454 43.1259C88.9528 57.1188 73.1694 63.5678 58.817 59.5614C54.6734 58.4045 50.3904 56.1702 48.0378 51.5414C44.6586 44.8927 46.5774 35.4355 50.7619 29.6305C54.9464 23.8256 60.8381 20.8076 66.5258 17.9644C69.7851 16.3349 73.1182 14.6855 76.6035 14.5272C80.0887 14.3689 83.8166 15.9701 85.8377 19.7041C87.6533 23.0579 87.797 27.6293 86.7978 31.5301C85.7982 35.4309 83.7869 38.7496 81.5635 41.649C69.4126 57.495 49.4726 61.8951 34.0485 52.1337C32.7383 44.5154 35.1472 36.4205 39.0667 30.5486C42.9862 24.6761 48.2554 20.6771 53.552 17.1309C58.6311 13.7306 64.1639 10.5685 69.8278 11.4139C78.8654 12.7632 85.6164 24.9757 85.2919 36.9186C84.9674 48.8622 78.6632 59.6244 70.6127 65.186C63.8138 69.8828 54.5577 70.8128 49.1429 63.6546C43.6873 56.4414 44.6162 43.8011 49.294 35.6993C53.9718 27.5976 61.3807 23.1209 68.6655 19.6853C72.9574 17.6615 77.4301 15.8668 81.9852 16.1477C86.5403 16.4291 91.2408 19.144 93.5307 24.3249C96.3938 30.8016 94.9134 39.2977 97.3507 46.0689C99.8284 52.9531 106.571 56.5787 112.011 53.9517C117.451 51.3246 120.802 42.8246 119.296 35.4707C117.797 28.1491 112.186 23.1532 106.453 22.2845C100.721 21.4159 94.9697 24.0264 89.9478 27.761C84.926 31.4955 80.4411 36.3439 75.6187 40.5085C69.726 45.5974 63.3209 49.6616 56.6239 52.5627C50.7363 55.1131 44.3893 56.7648 38.3497 54.9281C32.3101 53.0915 26.6889 47.0579 25.6516 39.0276C24.2982 28.5508 31.4309 18.5443 39.3963 16.702C47.3617 14.8603 55.469 19.3767 61.9931 25.6571C68.5172 31.9381 73.9449 39.9735 80.23 46.6613C86.5151 53.3497 94.1142 58.8204 102.199 58.5118C109.006 58.2519 115.8 53.4092 119.005 45.514C122.209 37.6182 121.245 26.881 116.211 20.8542C110.719 14.2798 102.222 14.4489 95.0808 17.1389C74.9083 24.7368 60.6154 47.8176 42.6686 62.1079C36.4913 67.0266 29.4749 71.0068 22.2766 70.2244C14.9556 69.4283 8.09349 63.3567 4.7789 54.7432C1.46432 46.1296 1.81117 35.2692 5.66323 27.0506C11.9786 13.5768 26.2826 9.40424 37.729 14.3246C49.1755 19.2456 58.0434 31.3412 64.7865 44.4524C69.0556 52.7533 72.7793 61.7845 78.5688 68.3038C85.7419 76.3817 95.8359 79.7667 105.079 77.1936C114.321 74.6205 122.503 66.1477 126.566 54.9418C129.376 47.1918 130.142 37.5802 126.762 30.2337C124.184 24.6279 119.501 21.0681 114.621 19.7279C109.742 18.3877 104.661 19.0595 99.7842 20.4195C90.4635 23.0187 81.5537 28.1349 73.7701 35.3566C65.5629 42.9715 58.6227 52.8645 50.017 59.6783C41.4119 66.4921 30.1035 69.7807 21.4388 63.0991C12.5881 56.274 9.39254 39.6682 14.1373 27.7116C18.8821 15.755 30.4559 9.63971 40.3801 13.0747C47.6839 15.6024 53.8273 22.6216 57.5998 31.2192C61.3724 39.8169 62.9206 49.8755 62.9871 59.7992C56.278 72.0344 42.3859 76.275 32.2585 69.1804C27.3664 65.7528 23.4301 60.0199 21.3537 53.2657C18.4204 43.7256 19.387 32.2848 23.8411 23.8227C28.2953 15.3601 36.1013 10.1339 43.93 10.3733C47.6416 12.3047 49.5842 18.0808 49.1908 23.3007C48.797 28.5207 46.5188 33.1864 43.8477 37.0849C36.9065 47.2168 26.8028 53.4915 16.4383 54.1077C12.622 54.3346 8.64631 53.7684 5.35543 51.2197C2.06503 48.6704 -0.378722 43.7937 0.0485619 38.8063C4.74264 21.3552 18.7179 9.02353 32.7885 9.91773C34.6711 20.8354 33.4376 32.6303 29.3847 42.4762C25.3318 52.3227 18.4938 60.1345 10.5098 64.041C7.34772 61.4883 6.59218 55.588 7.81964 50.9859C9.04662 46.3838 11.7712 42.7877 14.4293 39.3845C19.2243 33.2454 24.2457 27.0393 30.4778 23.8256C36.7099 20.6124 44.5042 21.0584 49.2996 27.197C48.9909 33.3526 48.6148 39.6177 46.8656 45.3421C45.1165 51.0665 41.7568 56.2655 37.2473 57.983C32.7379 59.7004 27.1674 56.977 25.5349 51.193C24.4014 47.177 25.309 42.5205 27.2366 39.0656C29.1638 35.6114 31.9842 33.1971 34.8975 31.2754C39.5479 28.2087 44.8329 26.1842 49.9492 27.4302C55.0649 28.6762 59.8567 33.8621 60.5331 40.6401C60.6061 50.3788 57.3664 60.0795 51.8624 66.6033C46.3584 73.1271 38.6817 76.3652 31.3161 75.2702" stroke="white" style="stroke:white;stroke-opacity:1;" stroke-width="1.113" stroke-miterlimit="10"/>
<path d="M70.414 51.5746C65.7315 53.2597 60.487 49.5564 58.3361 43.8371C56.1853 38.1178 56.879 30.9891 59.4394 25.5688C61.9999 20.1486 66.21 16.3238 70.7441 14.0423C77.8661 10.4581 86.0998 10.5041 93.0052 14.7584C99.91 19.0127 105.3 27.5774 106.719 37.4227C108.139 47.2681 105.349 58.1154 99.3814 64.3544C94.4958 69.4615 86.7721 70.9106 82.2273 65.2866C77.7866 59.7915 78.2674 49.8707 81.627 43.1812C84.9867 36.4917 90.4703 32.2652 95.7599 28.2736C99.2173 25.6647 102.755 23.015 106.668 22.0153C110.582 21.015 115.01 21.9449 117.8 25.6869C121.272 30.3417 121.231 38.1286 118.947 43.9137C116.662 49.6988 112.606 53.8804 108.534 57.6031C105.999 59.9208 103.324 62.1825 100.293 62.9694C97.2626 63.7564 93.7737 62.7572 91.9 59.5311C90.2652 56.7157 90.1709 52.7309 91.0919 49.4032C92.013 46.0754 93.8137 43.2992 95.7358 40.8174C101.086 33.9083 107.683 28.6742 114.827 25.6681C118.101 24.2905 121.56 23.3702 124.972 23.9206C128.385 24.471 131.761 26.6599 133.645 30.437C137.157 37.4732 134.195 47.5728 128.939 52.3791C123.683 57.1855 116.939 57.9872 110.537 58.2096C107.697 58.3083 104.794 58.3112 102.098 57.1338C99.4019 55.9559 96.906 53.3879 96.0738 49.8185C94.7538 44.1571 97.8922 38.4185 101.253 34.4735C106.528 28.2827 112.878 23.6828 119.678 21.1279C122.71 19.988 125.914 19.2493 129.016 20.0016C132.119 20.754 135.115 23.2216 136.362 27.0282C137.552 30.6595 136.981 34.9932 135.432 38.3828C133.884 41.7723 131.468 44.3347 128.915 46.4266C120.433 53.3743 109.837 55.7154 100.093 52.795C94.1261 51.0066 87.961 46.5134 86.1863 38.8174C84.4386 31.2376 87.6667 22.8981 92.4207 18.0282C97.1748 13.1583 103.175 11.0085 109.005 8.99428C113.532 7.42999 119.34 6.44954 121.991 11.5186C123.342 14.1013 123.332 17.605 122.48 20.5321C121.629 23.4593 120.043 25.9081 118.377 28.1516C109.278 40.41 96.8186 48.2701 83.8481 49.9342C77.5086 50.7479 70.228 49.5649 66.3848 42.8907C63.4933 37.8687 63.351 30.7576 65.088 24.8886C66.8251 19.0195 70.1913 14.2267 73.8555 10.1671M107.67 19.7832C98.6984 30.3979 86.2807 35.8062 74.2595 34.335C69.2237 33.7183 63.7346 31.4209 61.3108 25.5881C59.4441 21.0961 59.8937 15.4018 61.6591 10.84M103.437 7.44133C91.6196 22.3756 74.4892 29.7238 58.2418 26.8285C52.3718 25.7828 45.8598 22.5645 43.8494 15.2435M79.2084 4.72354C70.864 14.3101 60.1689 20.3063 49.1275 21.5886C43.6313 22.2269 37.3262 21.2391 33.9935 15.4619M66.6261 5.78002C58.7569 16.5513 47.5001 22.9135 36.1364 23.0111C31.109 23.0542 25.2409 21.099 23.3337 14.987C22.1226 11.1055 22.9488 6.53862 24.6835 3.01684M47.1245 7.86064C43.2194 15.5993 37.342 21.5869 30.665 24.6275C26.48 26.5334 21.0936 26.8631 18.3663 22.2774C16.4363 19.032 16.5874 14.2857 17.9158 10.5552C19.2441 6.82458 21.5521 3.8787 23.8103 1.02246M48.9643 11.9895C46.567 19.0388 41.7665 24.0953 37.0473 28.6957C34.2441 31.4283 31.3229 34.1551 27.9483 35.3251C24.5738 36.4951 20.6068 35.8006 18.2221 32.4518C15.9258 29.2274 15.5841 24.2219 16.5544 19.9937C17.5247 15.7661 19.6067 12.1507 21.7315 8.72874M64.8463 15.2968C67.6861 34.15 64.1907 54.4972 55.4628 69.9205C53.5458 73.3078 51.3299 76.5289 48.4979 78.5216C45.6659 80.5137 42.1147 81.1128 39.2386 79.2331C35.2386 76.6191 33.6085 69.912 34.3092 64.115C35.0094 58.318 37.5299 53.2194 40.0271 48.3529C44.5798 39.4812 49.4952 30.4297 56.58 25.1541C63.6649 19.8779 73.5379 19.5131 79.2354 27.1581C83.3873 32.7293 84.4437 41.1091 84.4213 48.9061C84.3911 59.5078 82.6499 70.3722 78.0707 79.1009C73.4915 87.8296 65.7645 94.0896 57.7019 93.6856C49.6394 93.2816 41.7916 85.1867 40.8129 74.6633C39.8858 64.6988 44.7723 55.4226 50.2015 48.3597C54.1289 43.2504 58.9392 38.4605 64.466 38.3754C70.2494 38.2863 75.5739 43.7457 77.8726 50.7195C80.1713 57.6933 79.7742 65.8245 77.8331 72.9833C75.892 80.142 72.522 86.4741 68.9276 92.4277C65.2991 98.4386 60.3382 104.721 54.564 103.584C49.0712 102.502 45.5409 94.6649 45.5562 87.3677C45.5716 80.0705 48.2324 73.2812 50.9445 66.9128C52.8675 62.3969 54.9151 57.8226 57.9586 54.5386C61.0026 51.2551 65.2815 49.4718 68.9634 51.3096C72.8424 53.2455 75.1671 58.8059 75.4163 64.2483C75.6655 69.6907 74.1893 75.0179 72.3635 79.9139C69.3246 88.0628 64.9923 95.8292 58.7843 99.8049C52.5764 103.781 44.2297 102.942 39.7598 96.025C35.3209 89.1561 35.8677 78.9369 37.5271 70.194C38.1371 66.9803 38.9057 63.6991 40.5497 61.1884C42.1937 58.6777 44.9285 57.1259 47.2979 58.2561C49.4692 59.2916 50.804 62.3124 51.1049 65.3213C51.4057 68.3307 50.8575 71.3639 50.2856 74.3042C49.1563 80.1103 47.8172 86.1206 44.71 90.5071C41.6023 94.8936 36.1927 97.0548 32.3713 93.7832C28.5211 90.4867 27.8651 83.0505 29.67 77.4974C31.4749 71.9444 35.1047 67.8393 38.6151 63.9419C39.3818 69.1931 38.8327 74.7609 37.0724 79.5815C36.0909 82.2697 34.6895 84.7901 32.7368 86.3084C30.784 87.8273 28.2157 88.1865 26.2489 86.6993C23.9856 84.9875 22.9911 81.2394 23.1617 77.8157C23.3323 74.3921 24.4552 71.192 25.5599 68.0827C26.487 65.4728 27.4466 62.8015 29.0126 60.7856C30.5785 58.7696 32.9046 57.5151 34.9983 58.369C37.4304 59.3614 38.8257 62.915 38.875 66.2603C38.9243 69.6056 37.9214 72.804 36.9357 75.8894C35.9435 78.9948 34.9234 82.1602 33.2324 84.6908C31.5409 87.2213 29.0298 89.0517 26.4847 88.65C22.7302 88.0571 20.2423 82.7747 20.1642 77.8072C20.0861 72.8403 21.7906 68.161 23.456 63.7014C24.7244 60.3055 26.0653 56.7894 28.3333 54.4592C30.6013 52.1289 34.0846 51.3748 36.3057 53.7817C38.6667 56.3395 38.6332 61.0556 38.1445 65.0245C37.4308 70.8164 36.1811 76.4943 34.4315 81.893C33.7001 84.1495 32.8381 86.4327 31.3949 87.9879C29.9518 89.5437 27.7819 90.182 26.1941 88.8912C24.4473 87.471 24.0167 84.2238 24.6649 81.6632C25.3135 79.1026 26.7818 77.0685 28.2073 75.1257C31.5893 70.5168 35.0592 65.8206 39.411 62.9411C43.7629 60.0616 49.2404 59.2922 53.4073 62.6108C59.233 67.2515 60.3782 78.4609 57.3876 86.5036C54.3971 94.5463 48.3728 99.8775 42.2291 103.747C43.6044 89.8296 49.9732 76.9068 59.0759 69.5642C63.9006 65.6725 69.757 63.2889 75.2564 65.0546C78.9215 71.6187 79.9616 80.5749 77.9535 88.2767C75.9454 95.9784 70.9436 102.215 64.9848 104.447C64.4292 96.5089 65.0946 88.1377 68.2725 81.3477C71.4503 74.5572 77.5388 69.7543 83.5287 71.0195C86.4555 71.6374 89.2772 73.7736 90.7544 77.1502C92.2315 80.5267 92.1176 85.1583 90.1323 88.0497C88.1465 90.9411 84.294 91.4064 82.1966 88.6546C79.4827 85.0931 80.7371 79.1014 82.2115 74.4483C83.253 71.1608 84.3656 67.7922 86.31 65.3116C88.2548 62.831 91.257 61.4363 93.7421 62.8565C96.2923 64.3136 97.5504 68.3063 97.4217 71.9563C97.2929 75.6063 96.0636 79.0129 94.8575 82.3049C89.7873 83.6848 84.7175 85.0641 79.6473 86.444C75.3773 79.2597 75.2908 68.2989 79.4464 61C83.6021 53.7011 91.6289 50.7144 98.0805 54.0671C95.2039 63.1578 90.9417 72.1861 84.1717 76.4046C77.3626 80.6476 68.5877 78.854 63.2199 71.9041C57.8526 64.9542 56.3913 53.2586 59.9602 44.5378C63.5291 35.817 71.919 30.9659 79.1745 33.6428C81.2132 38.5598 81.1993 44.6178 79.9305 49.9637C78.6621 55.3097 76.2476 60.0548 73.6412 64.4855C71.1649 68.695 68.3915 72.7966 64.7835 75.2126C61.176 77.6285 56.5545 78.0535 53.2115 75.0508C50.3028 72.4386 48.828 67.6141 48.9154 62.9864C49.0028 58.3588 50.4786 53.9309 52.4709 50.113C58.4617 38.6335 69.5562 32.1426 80.0579 33.973C80.4865 43.8558 77.2584 53.9026 71.5694 60.3923C65.8803 66.8821 57.8563 69.6709 50.4693 67.7259C46.5326 66.174 43.9461 60.8463 43.5151 55.4759C43.0841 50.1056 44.4548 44.7466 46.3071 39.9261C51.7046 25.8786 61.5075 14.8656 72.907 10.0417C78.3999 16.4498 80.9059 26.9641 79.1754 36.3441C77.1933 47.0882 70.394 55.1423 63.2352 60.9524C59.0996 64.309 54.6366 67.2016 49.83 68.1554C45.0234 69.1091 39.8044 67.9176 36.0602 63.8438C32.555 54.2765 31.839 43.0002 34.0884 32.8019C36.3378 22.6037 41.5321 13.5776 48.3873 7.95539C53.2041 4.00466 59.6794 1.84972 64.4264 5.94343C69.711 10.5001 70.3001 20.6984 68.1093 28.4886C64.9397 39.7581 56.9715 48.4539 47.9586 50.4801C38.9456 52.5062 29.2302 47.7855 23.3895 38.5411M51.9334 3.12067C50.4869 6.68671 48.2306 9.54805 46.0114 12.3458" stroke="white" style="stroke:white;stroke-opacity:1;" stroke-width="1.113" stroke-miterlimit="10"/>
<path d="M822.48 28.045C822.068 30.5435 824.014 38.0429 819.418 34.7055C809.856 33.8727 816.201 45.8617 822.87 45.5463C820.066 64.5152 842.073 78.1273 851.756 57.129C857.875 46.8501 852.027 25.4778 862.49 14.8857C866.154 8.5991 855.989 9.36117 854.782 5.39719C855.704 2.58744 853.973 -0.0848564 850.668 0.00206398C842.421 3.98827 823.266 -3.44645 819.917 7.11336C809.666 9.61586 813.275 25.9185 820.358 30.7699C820.467 28.514 826.587 28.3563 828.649 27.4426C850.721 17.6772 846.911 24.9381 850.078 26.4845C852.878 27.8509 856.187 24.926 856.51 28.0207C856.83 31.1155 856.106 34.2123 855.386 37.2424C863.99 28.6959 864.311 40.8162 855.386 45.5463" stroke="white" style="stroke:white;stroke-opacity:1;" stroke-width="1.2" stroke-linecap="round" stroke-linejoin="round"/>
<path d="M880.051 193.98L855.804 192.831C855.717 192.175 856.658 192.477 857.113 192.458C861.23 192.288 865.4 192.676 869.51 192.454C883.277 191.712 915.413 187.135 917.312 169.594C917.876 164.368 915.71 160.311 911.784 157.097C915.586 158.668 918.474 158.563 922.185 156.789C924.314 155.771 929.443 151.868 929.443 149.382V142.047C925.487 141.414 926.664 146.278 924.817 148.327C923.832 149.42 919.609 151.141 918.722 149.182C917.665 146.854 924.122 145.765 925.288 144.469C928.691 140.683 920.839 142.559 919.218 142.906C913.672 144.089 909.998 147.461 905.151 143.038C900.071 138.404 895.382 130.707 890.73 125.308C887.951 122.084 885.067 120.445 883.16 116.335C878.238 105.722 879.671 84.1501 870.627 76.9657C865.382 72.7952 850.942 75.1574 848.471 67.9241L847.185 64.0098C845.384 76.9092 863.75 73.0552 869.875 77.7192C878.802 84.5193 877.2 107.086 882.653 117.597C884.616 121.383 887.714 123.357 890.35 126.442C894.167 130.903 897.359 135.978 901.266 140.344C903.117 142.409 906.79 146.575 909.667 146.526L924.55 142.797C924.592 143.396 924.682 143.682 924.167 144.104C922.813 145.208 916.755 146.244 917.564 149.205C918.478 152.55 923.524 150.663 925.321 149.024C927.017 147.479 927.036 145.253 927.563 143.177C929.281 141.923 928.277 149.043 928.149 149.597C927.051 154.362 918.974 157.911 914.405 156.909C911.167 156.201 900.285 151.013 896.871 149.258C891.226 146.36 886.387 142.329 881.716 138.099C873.173 130.36 868.202 125.331 864.998 113.833C864.562 112.273 863.185 103.94 862.343 103.68C860.549 103.13 858.165 109.275 857.665 110.62C852.044 125.783 854.698 144.168 871.955 149.378C882.104 152.441 905.215 152.396 912.341 158.974C918.865 164.994 916.511 174.005 910.656 179.483C897.615 191.678 861.809 192.383 844.922 190.74C844.414 190.691 844.027 190.197 844.151 191.136C844.602 192.047 847.87 192.511 848.953 192.725C860.644 195.023 871.932 195.381 883.108 194.673L882.942 193.886C881.976 193.927 881.01 193.961 880.043 193.98H880.051ZM873.079 148.636C856.473 144.074 853.352 127.373 858.049 112.511C858.575 110.849 859.779 107.53 860.745 106.182C861.114 105.665 861.422 105.051 862.185 105.179C863.607 114.504 866.333 124.118 872.891 131.14C879.178 137.876 886.992 144.624 894.87 149.389L905.771 154.457C895.209 151.205 883.676 151.544 873.083 148.632L873.079 148.636Z" fill="white" style="fill:white;fill-opacity:1;"/>
<path d="M869.515 161.615C863.514 161.091 862.923 164.003 858.779 166.282C853.966 168.927 849.055 162.417 844.046 163.574C840.444 164.406 841.959 172.48 836.913 174.484C832.066 176.409 823.113 172.299 818.472 170.212C810.049 166.418 802.152 161.362 793.436 158.22C799.554 152.686 817.07 148.956 819.912 140.532C821.262 136.528 819.882 131.144 819.179 126.993C818.239 121.421 816.953 114.719 815.415 109.316C815.08 108.137 814.155 104.023 812.779 104.031C811.862 104.11 811.719 105.07 811.455 105.73C809.101 111.618 809.474 117.363 805.619 123.21C799.862 131.943 794.587 134.29 786.554 139.862C781.256 143.535 777.887 148.881 773.111 152.358C771.186 153.76 767.933 153.488 765.376 154.773C763.646 155.64 762.285 157.746 760.965 158.254C759.717 158.736 755.092 159.256 753.873 158.898C753.133 158.68 749.414 153.213 749.18 152.313C749.105 152.034 748.722 149.94 749.658 150.328C752.719 154.114 758.262 156.623 761.65 151.793C762.533 150.535 763.583 149.077 761.326 148.802C758.329 148.436 755.453 149.544 752.482 149.57C752.433 149.228 752.441 149.092 752.659 148.813C753.317 147.981 761.183 144.827 762.612 144.484C765.97 143.674 770.05 143.908 773.247 143.094C773.807 142.951 774.273 142.684 774.645 142.235C778.338 137.195 781.26 131.604 784.862 126.507C787.179 123.229 791.165 119.334 792.752 115.969C797.824 105.213 795.685 80.541 808.368 75.5493C812.196 74.0423 815.065 74.5396 819.066 73.3341C822.297 72.3621 823.962 71.8121 825.339 70.3466C827.873 67.6454 828.102 63.6407 828.001 63.6105C827.922 63.5879 827.501 65.8822 826.677 67.5436C823.293 74.3776 813.234 71.1038 805.935 75.7489C794.162 83.2422 797.339 105.067 791.511 116.233C790.164 118.814 787.656 120.825 785.983 123.112C781.655 129.031 778.218 135.567 773.927 141.512C769.956 143.068 765.594 142.556 761.496 143.735C759.773 144.232 753.554 146.73 752.287 147.679C751.158 148.527 751.016 149.646 751.978 150.712L761.496 149.57C760.446 153.259 757.276 154.212 753.843 152.531C752.538 151.891 750.354 149.182 749.662 149.179C748.413 149.171 747.834 151.232 748.041 152.294C748.229 153.251 752.275 159.252 753.091 159.678C755.084 160.718 757.874 159.592 759.991 159.35C758.931 161.991 756.491 165.16 756.637 168.136C756.942 174.458 768.245 181.981 773.45 184.437C776.27 185.767 784.757 189.61 786.483 185.684C788.499 176.816 788.799 167.454 792.165 158.94C794.007 158.552 814.885 169.726 818.472 171.331C824.489 174.024 837.68 180.146 841.339 171.383C842.144 169.454 842.012 165.265 844.422 164.693C849.521 163.487 853.252 170.385 859.445 166.938C863.442 164.715 864.367 162.202 869.891 162.733C871.173 162.858 878.04 164.726 876.844 166.486C872.866 167.887 869.82 166.9 866.319 169.684C861.63 173.41 860.144 175.942 854.18 178.975C829.133 191.712 792.902 190.687 761.954 187.67V188.502C791.217 191.098 838.282 194.089 861.938 175.46C865.1 172.969 866.857 169.27 871.109 168.464C873.227 168.064 875.558 168.486 877.604 167.066C880.484 164.293 871.192 161.754 869.515 161.607V161.615ZM767.512 155.033C768.249 154.747 770.231 153.639 770.513 154.833L763 157.843C763.891 156.589 766.064 155.598 767.512 155.029V155.033ZM789.04 165.303C787.637 171.395 787.344 178.922 785.746 184.58C785.095 186.882 783.84 186.637 781.689 186.344C775.258 185.47 760.537 176.526 758.307 170.257C757.235 167.247 758.875 162.138 761.116 159.919C762.022 159.023 764.978 158.465 766.512 157.798C768.136 157.09 771.788 154.366 772.656 154.167C777.451 153.078 786.69 156.348 791.165 158.439C790.251 160.654 789.578 162.971 789.04 165.307V165.303ZM774.269 152.953C778.53 148.636 782.508 143.938 787.521 140.457C790.717 138.238 794.365 136.678 797.365 134.135C803.311 129.099 807.932 122.389 810.151 114.96C810.959 112.247 811.437 108.016 812.505 105.654C812.738 105.142 812.542 105.063 813.343 105.176C814.159 109.32 815.351 113.381 816.242 117.514C817.386 122.807 820.085 134.237 819.269 139.135C818.578 143.275 812.046 147.227 808.575 149.118C803.262 152.015 797.204 153.598 792.402 157.406C786.498 155.41 780.591 153.179 774.273 152.953H774.269Z" fill="white" style="fill:white;fill-opacity:1;"/>
</g>
<defs>
<clipPath id="clip0_348_928">
<rect width="929.443" height="195.041" fill="white" style="fill:white;fill-opacity:1;"/>
</clipPath>
</defs>
</svg>
