<svg width="930" height="196" viewBox="0 0 930 196" fill="none" xmlns="http://www.w3.org/2000/svg">
<!-- <path d="M105 191.599C105 191.599 131.337 178.88 149.357 178.88C167.378 178.88 175.694 191.599 193.714 191.599C211.735 191.599 220.749 173.913 238.071 178.88C255.394 183.847 265.106 186.632 282.429 191.599C299.751 196.566 308.765 178.88 326.786 178.88C344.806 178.88 353.122 191.599 371.143 191.599C389.163 191.599 397.479 178.88 415.5 178.88C433.521 178.88 441.837 191.599 459.857 191.599C477.878 191.599 486.194 178.88 504.214 178.88C522.235 178.88 530.551 191.599 548.571 191.599" stroke="white" style="stroke:white;stroke-opacity:1;" stroke-width="1.5" stroke-linecap="round"/> -->
<path d="M42.4381 192.695L42.1691 193.911H43.4145H107.755H110.458L108.406 192.151C108.3 192.061 108.112 191.813 107.89 191.293C107.678 190.795 107.471 190.135 107.275 189.323C106.882 187.7 106.556 185.568 106.297 183.114C105.779 178.213 105.538 172.138 105.538 166.531C105.538 161.223 107.719 158.115 109.849 156.316C110.926 155.406 112.006 154.819 112.815 154.461C113.218 154.283 113.551 154.163 113.778 154.088C113.872 154.058 113.947 154.035 114.001 154.019H126.822H126.839L126.855 154.019C130.137 153.908 133.46 152.49 136.024 150.411C138.562 148.353 140.483 145.539 140.781 142.518L145.966 117.29L157.504 110.117L157.591 110.063L157.665 109.993C158.912 108.808 160.422 107.164 160.823 105.149C161.249 103.006 160.38 100.781 157.681 98.5785L141.248 78.9851V60.6898C141.248 35.6367 128.186 21.6582 113.569 14.0012C99.0165 6.37861 82.9131 5 76.5507 5C70.1563 5 55.3282 6.79179 42.0615 14.6293C28.73 22.5052 17 36.4835 17 60.6898C17 79.3304 25.3433 94.5774 33.5638 107.472C34.8861 109.546 36.2006 111.553 37.477 113.501C40.1916 117.645 42.7342 121.526 44.8146 125.238C47.8706 130.691 49.8141 135.591 49.8141 140.151C49.8141 149.71 47.9779 162.827 46.1287 173.6C45.2058 178.977 44.2827 183.752 43.5904 187.184C43.2443 188.899 42.9559 190.278 42.7542 191.228C42.6534 191.702 42.5742 192.07 42.5203 192.318C42.4934 192.442 42.4727 192.537 42.4589 192.6L42.4432 192.671L42.4393 192.689L42.4383 192.693L42.4381 192.694C42.4381 192.695 42.4381 192.695 43.4145 192.911L42.4381 192.695Z" stroke="blue" style="stroke-opacity:1;" stroke-width="4"/>
<path d="M794.438 190.695L794.169 191.911H795.414H859.755H862.458L860.406 190.151C860.3 190.061 860.112 189.813 859.89 189.293C859.678 188.795 859.471 188.135 859.275 187.323C858.882 185.7 858.556 183.568 858.297 181.114C857.779 176.213 857.538 170.138 857.538 164.531C857.538 159.223 859.719 156.115 861.849 154.316C862.926 153.406 864.006 152.819 864.815 152.461C865.218 152.283 865.551 152.163 865.778 152.088C865.872 152.058 865.947 152.035 866.001 152.019H878.822H878.839L878.855 152.019C882.137 151.908 885.46 150.49 888.024 148.411C890.562 146.353 892.483 143.539 892.781 140.518L897.966 115.29L909.504 108.117L909.591 108.063L909.665 107.993C910.912 106.808 912.422 105.164 912.823 103.149C913.249 101.006 912.38 98.7809 909.681 96.5785L893.248 76.9851V58.6898C893.248 33.6367 880.186 19.6582 865.569 12.0012C851.017 4.37861 834.913 3 828.551 3C822.156 3 807.328 4.79179 794.062 12.6293C780.73 20.5052 769 34.4835 769 58.6898C769 77.3304 777.343 92.5774 785.564 105.472C786.886 107.546 788.201 109.553 789.477 111.501C792.192 115.645 794.734 119.526 796.815 123.238C799.871 128.691 801.814 133.591 801.814 138.151C801.814 147.71 799.978 160.827 798.129 171.6C797.206 176.977 796.283 181.752 795.59 185.184C795.244 186.899 794.956 188.278 794.754 189.228C794.653 189.702 794.574 190.07 794.52 190.318C794.493 190.442 794.473 190.537 794.459 190.6L794.443 190.671L794.439 190.689L794.438 190.693L794.438 190.694C794.438 190.695 794.438 190.695 795.414 190.911L794.438 190.695Z" stroke="blue" style="stroke-opacity:1;" stroke-width="4"/>
<path d="M69.8988 99.7537C57.0708 99.7537 46.6348 89.3177 46.6348 76.4896C46.6348 63.6616 57.0708 53.2256 69.8988 53.2256C82.7268 53.2256 93.1628 63.6616 93.1628 76.4896C93.1628 89.3177 82.7268 99.7537 69.8988 99.7537ZM69.8988 54.3562C57.695 54.3562 47.7653 64.2848 47.7653 76.4896C47.7653 88.6945 57.6939 98.6231 69.8988 98.6231C82.1037 98.6231 92.0323 88.6945 92.0323 76.4896C92.0323 64.2848 82.1037 54.3562 69.8988 54.3562Z" stroke="blue" style="fill:white;fill-opacity:1;"/>
<path d="M75.9691 94.1794C63.1411 94.1794 52.7051 83.7434 52.7051 70.9154C52.7051 58.0874 63.1411 47.6514 75.9691 47.6514C88.7972 47.6514 99.2332 58.0874 99.2332 70.9154C99.2332 83.7434 88.7972 94.1794 75.9691 94.1794ZM75.9691 48.7819C63.7653 48.7819 53.8357 58.7105 53.8357 70.9154C53.8357 83.1203 63.7643 93.0489 75.9691 93.0489C88.174 93.0489 98.1026 83.1203 98.1026 70.9154C98.1026 58.7105 88.174 48.7819 75.9691 48.7819Z" stroke="blue" style="fill:white;fill-opacity:1;"/>
<path d="M53.2691 96.9972C44.298 96.9972 37 89.6993 37 80.7281C37 71.7569 44.298 64.459 53.2691 64.459C62.2403 64.459 69.5382 71.7569 69.5382 80.7281C69.5382 89.6993 62.2403 96.9972 53.2691 96.9972ZM53.2691 65.5896C44.9221 65.5896 38.1306 72.3801 38.1306 80.7281C38.1306 89.0761 44.9211 95.8666 53.2691 95.8666C61.6171 95.8666 68.4077 89.0761 68.4077 80.7281C68.4077 72.3801 61.6171 65.5896 53.2691 65.5896Z" stroke="blue" style="fill:white;fill-opacity:1;"/>
<path d="M96.1461 76.1291C87.1749 76.1291 79.877 68.8311 79.877 59.8599C79.877 50.8888 87.1749 43.5908 96.1461 43.5908C105.117 43.5908 112.415 50.8888 112.415 59.8599C112.415 68.8311 105.117 76.1291 96.1461 76.1291ZM96.1461 44.7224C87.7991 44.7224 81.0075 51.513 81.0075 59.8609C81.0075 68.2089 87.7981 74.9995 96.1461 74.9995C104.494 74.9995 111.285 68.2089 111.285 59.8609C111.285 51.513 104.494 44.7224 96.1461 44.7224Z" stroke="blue" style="fill:white;fill-opacity:1;"/>
<path d="M52.6821 78.9491C46.1382 78.9491 40.8145 73.6254 40.8145 67.0815C40.8145 60.5376 46.1382 55.2139 52.6821 55.2139C59.2259 55.2139 64.5497 60.5376 64.5497 67.0815C64.5497 73.6254 59.2259 78.9491 52.6821 78.9491ZM52.6821 56.0404C46.5932 56.0404 41.64 60.9936 41.64 67.0825C41.64 73.1713 46.5932 78.1245 52.6821 78.1245C58.7709 78.1245 63.7241 73.1713 63.7241 67.0825C63.7241 60.9936 58.7709 56.0404 52.6821 56.0404Z" stroke="blue" style="fill:white;fill-opacity:1;"/>
<path d="M80.9711 61.8329C74.4272 61.8329 69.1035 56.5091 69.1035 49.9653C69.1035 43.4214 74.4272 38.0977 80.9711 38.0977C87.515 38.0977 92.8387 43.4214 92.8387 49.9653C92.8387 56.5091 87.515 61.8329 80.9711 61.8329ZM80.9711 38.9242C74.8823 38.9242 69.9291 43.8774 69.9291 49.9663C69.9291 56.0551 74.8823 61.0083 80.9711 61.0083C87.06 61.0083 92.0132 56.0551 92.0132 49.9663C92.0132 43.8774 87.06 38.9242 80.9711 38.9242Z" stroke="blue" style="fill:white;fill-opacity:1;"/>
<path d="M70.4859 69.5382C61.5147 69.5382 54.2168 62.2403 54.2168 53.2691C54.2168 44.298 61.5147 37 70.4859 37C79.4571 37 86.755 44.298 86.755 53.2691C86.755 62.2403 79.4571 69.5382 70.4859 69.5382ZM70.4859 38.1316C62.1389 38.1316 55.3474 44.9221 55.3474 53.2701C55.3474 61.6181 62.1379 68.4087 70.4859 68.4087C78.8339 68.4087 85.6245 61.6181 85.6245 53.2701C85.6245 44.9221 78.8339 38.1316 70.4859 38.1316Z" stroke="blue" style="fill:white;fill-opacity:1;"/>
<path d="M69.8961 90.1203C60.9249 90.1203 53.627 82.8223 53.627 73.8512C53.627 64.88 60.9249 57.582 69.8961 57.582C78.8672 57.582 86.1652 64.88 86.1652 73.8512C86.1652 82.8223 78.8672 90.1203 69.8961 90.1203ZM69.8961 58.7126C61.5491 58.7126 54.7575 65.5032 54.7575 73.8512C54.7575 82.1991 61.5481 88.9897 69.8961 88.9897C78.2441 88.9897 85.0346 82.1991 85.0346 73.8512C85.0346 65.5032 78.2441 58.7126 69.8961 58.7126Z" stroke="blue" style="fill:white;fill-opacity:1;"/>
<path d="M794.438 190.695L794.169 191.911H795.414H859.755H862.458L860.406 190.151C860.3 190.061 860.112 189.813 859.89 189.293C859.678 188.795 859.471 188.135 859.275 187.323C858.882 185.7 858.556 183.568 858.297 181.114C857.779 176.213 857.538 170.138 857.538 164.531C857.538 159.223 859.719 156.115 861.849 154.316C862.926 153.406 864.006 152.819 864.815 152.461C865.218 152.283 865.551 152.163 865.778 152.088C865.872 152.058 865.947 152.035 866.001 152.019H878.822H878.839L878.855 152.019C882.137 151.908 885.46 150.49 888.024 148.411C890.562 146.353 892.483 143.539 892.781 140.518L897.966 115.29L909.504 108.117L909.591 108.063L909.665 107.993C910.912 106.808 912.422 105.164 912.823 103.149C913.249 101.006 912.38 98.7809 909.681 96.5785L893.248 76.9851V58.6898C893.248 33.6367 880.186 19.6582 865.569 12.0012C851.017 4.37861 834.913 3 828.551 3C822.156 3 807.328 4.79179 794.062 12.6293C780.73 20.5052 769 34.4835 769 58.6898C769 77.3304 777.343 92.5774 785.564 105.472C786.886 107.546 788.201 109.553 789.477 111.501C792.192 115.645 794.734 119.526 796.815 123.238C799.871 128.691 801.814 133.591 801.814 138.151C801.814 147.71 799.978 160.827 798.129 171.6C797.206 176.977 796.283 181.752 795.59 185.184C795.244 186.899 794.956 188.278 794.754 189.228C794.653 189.702 794.574 190.07 794.52 190.318C794.493 190.442 794.473 190.537 794.459 190.6L794.443 190.671L794.439 190.689L794.438 190.693L794.438 190.694C794.438 190.695 794.438 190.695 795.414 190.911L794.438 190.695Z" stroke="blue" style="stroke-opacity:1;" stroke-width="4"/>
<path d="M840.659 109.356H825.794C824.972 109.356 824.307 108.69 824.307 107.869C824.307 107.047 824.972 106.382 825.794 106.382H840.659C841.481 106.382 842.146 107.047 842.146 107.869C842.146 108.69 841.481 109.356 840.659 109.356Z" fill="#4E4E4E" style="fill:#4E4E4E;fill:color(display-p3 0.3059 0.3059 0.3059);fill-opacity:1;"/>
<path d="M844.005 104.153H822.45C821.628 104.153 820.963 103.487 820.963 102.666C820.963 101.844 821.628 101.179 822.45 101.179H844.005C844.827 101.179 845.492 101.844 845.492 102.666C845.492 103.487 844.827 104.153 844.005 104.153Z" fill="#4E4E4E" style="fill:#4E4E4E;fill:color(display-p3 0.3059 0.3059 0.3059);fill-opacity:1;"/>
<path d="M844.005 98.9495H822.45C821.628 98.9495 820.963 98.2841 820.963 97.4626C820.963 96.6411 821.628 95.9756 822.45 95.9756H844.005C844.827 95.9756 845.492 96.6411 845.492 97.4626C845.492 98.2841 844.827 98.9495 844.005 98.9495Z" fill="#4E4E4E" style="fill:#4E4E4E;fill:color(display-p3 0.3059 0.3059 0.3059);fill-opacity:1;"/>
<path d="M844.005 93.7464H822.45C821.628 93.7464 820.963 93.0809 820.963 92.2594C820.963 91.4379 821.628 90.7725 822.45 90.7725H844.005C844.827 90.7725 845.492 91.4379 845.492 92.2594C845.492 93.0809 844.827 93.7464 844.005 93.7464Z" fill="#4E4E4E" style="fill:#4E4E4E;fill:color(display-p3 0.3059 0.3059 0.3059);fill-opacity:1;"/>
<path d="M833.228 84.4556C846.056 84.4556 856.456 74.0562 856.456 61.2278C856.456 48.3994 846.056 38 833.228 38C820.399 38 810 48.3994 810 61.2278C810 74.0562 820.399 84.4556 833.228 84.4556Z" fill="#AFAFAF" style="fill:#AFAFAF;fill:color(display-p3 0.6875 0.6875 0.6875);fill-opacity:1;"/>
<path d="M823.036 88.7295H843.42C844.667 88.7295 845.678 87.7185 845.678 86.4713V79.4664C845.678 78.2192 844.667 77.2082 843.42 77.2082H823.036C821.789 77.2082 820.778 78.2192 820.778 79.4664V86.4713C820.778 87.7185 821.789 88.7295 823.036 88.7295Z" fill="#AFAFAF" style="fill:#AFAFAF;fill:color(display-p3 0.6875 0.6875 0.6875);fill-opacity:1;"/>
<path d="M816.991 53.9009C816.849 53.9009 816.705 53.8687 816.57 53.7993C816.113 53.5667 815.931 53.007 816.164 52.5499C819.055 46.8778 824.539 43.022 830.837 42.2367C831.345 42.1733 831.81 42.5347 831.874 43.0441C831.937 43.5535 831.576 44.0177 831.066 44.0811C825.382 44.7898 820.43 48.2712 817.819 53.3935C817.655 53.7157 817.329 53.9009 816.991 53.9009Z" fill="white" style="fill:white;fill-opacity:1;"/>
<path d="M815.017 62.1575C814.504 62.1575 814.088 61.7417 814.088 61.2283C814.088 59.6577 814.278 58.0963 814.655 56.5861C814.779 56.0878 815.284 55.7858 815.781 55.9096C816.28 56.0334 816.583 56.5378 816.458 57.0361C816.119 58.3993 815.946 59.8098 815.946 61.2283C815.946 61.7417 815.531 62.1575 815.017 62.1575Z" fill="white" style="fill:white;fill-opacity:1;"/>
</svg>
