<svg width="930" height="196" viewBox="0 0 930 196" fill="none" xmlns="http://www.w3.org/2000/svg">
<g opacity="0.8" clip-path="url(#clip0_348_1115)">
<path d="M3.08594 193.532C4.89412 159.166 8.30718 152.769 10.0032 129.23C10.5348 121.852 14.4142 114.738 19.6716 111.037C27.714 105.376 38.6375 105.055 46.79 99.633C50.4738 97.1826 53.1618 92.6136 53.886 87.57C54.6253 82.4199 53.301 76.8853 50.3943 73.0407C43.5157 59.1582 40.2845 42.6201 41.319 26.4434" stroke="white" style="stroke:white;stroke-opacity:1;" stroke-miterlimit="10"/>
<path d="M26.8298 193.531C26.8298 178.151 28.2619 164.53 29.6777 151.176C30.0499 165.249 30.4226 179.323 30.7948 193.396" stroke="white" style="stroke:white;stroke-opacity:1;" stroke-miterlimit="10"/>
<path d="M116.349 193.532C116.349 177.446 114.802 161.523 113.346 148.215C112.948 163.276 112.55 178.337 112.151 193.398" stroke="white" style="stroke:white;stroke-opacity:1;" stroke-miterlimit="10"/>
<path d="M40.5625 35.1859C39.3131 34.4149 37.7718 34.3902 36.5065 35.1214C35.2411 35.8526 34.2801 37.3238 33.9775 38.9917C33.5369 41.4207 34.4382 43.8806 35.3163 46.126C36.1433 48.2403 36.9702 50.3551 37.7971 52.4693C38.3318 53.8367 38.9447 55.3032 40.0639 55.9604C41.1827 56.6176 42.8882 55.8398 42.8748 54.3245" stroke="white" style="stroke:white;stroke-opacity:1;" stroke-miterlimit="10"/>
<path d="M136.84 193.532C135.031 159.166 131.385 152.769 129.689 129.23C129.157 121.852 125.277 114.738 120.02 111.037C111.978 105.376 101.054 105.055 92.9018 99.633C89.2179 97.1826 86.53 92.6136 85.8057 87.57C85.0665 82.4199 86.3907 76.8853 89.2975 73.0407C96.176 59.1582 99.4073 42.6201 98.3727 26.4434" stroke="white" style="stroke:white;stroke-opacity:1;" stroke-miterlimit="10"/>
<path d="M99.13 35.1859C100.379 34.4149 101.921 34.3902 103.186 35.1214C104.451 35.8526 105.412 37.3238 105.715 38.9917C106.156 41.4207 105.254 43.8806 104.376 46.126C103.549 48.2403 102.722 50.3551 101.895 52.4693C101.361 53.8367 100.748 55.3032 99.6286 55.9604C98.5098 56.6176 96.8044 55.8398 96.8177 54.3245" stroke="white" style="stroke:white;stroke-opacity:1;" stroke-miterlimit="10"/>
<path d="M137.199 193.035C137.199 193.035 166.654 178.81 186.808 178.81C206.963 178.81 216.263 193.035 236.417 193.035C256.572 193.035 266.653 173.255 286.027 178.81C305.401 184.365 316.263 187.48 335.636 193.035C355.01 198.591 365.091 178.81 385.246 178.81C405.4 178.81 414.701 193.035 434.855 193.035C455.009 193.035 464.31 178.81 484.464 178.81C504.619 178.81 513.919 193.035 534.074 193.035C554.228 193.035 563.529 178.81 583.683 178.81C603.838 178.81 613.138 193.035 633.293 193.035" stroke="white" style="stroke:white;stroke-opacity:1;" stroke-width="2" stroke-linecap="round"/>
<path d="M72.2378 33.2432C72.8792 27.7204 71.8866 21.3847 66.0814 18.0358C59.6736 14.3393 49.9475 16.1399 44.1451 20.376M73.6672 20.1891C73.7105 15.1373 71.7458 9.2407 65.6042 7.32423C61.7038 6.10717 57.1147 6.93739 53.5759 8.68052C50.037 10.4241 47.3385 12.9732 44.7039 15.4779C42.2009 17.8573 39.649 20.3036 38.3861 23.1965C37.1232 26.0894 37.3957 29.5687 40.1022 31.8155C44.6138 35.561 52.8786 34.0379 58.4432 31.2305C66.2194 27.3065 72.2361 21.4006 75.2915 14.6911C77.2066 10.4858 77.5379 5.07324 72.93 2.33263C69.6687 0.393275 64.8995 0.545119 61.1508 1.87992C57.4021 3.21471 54.4419 5.53391 51.5718 7.80311C47.7803 10.8007 43.9205 13.8739 41.6211 17.6489C39.3217 21.4239 38.8308 26.0983 41.7477 29.6173C45.8869 34.6112 55.5087 35.4877 62.5921 33.0792C69.6756 30.6704 74.7567 25.8465 79.3794 21.1044C82.1252 18.2876 84.8654 15.3522 86.041 11.9612C87.2166 8.57026 86.5188 4.58408 83.1538 2.1878C79.9137 -0.119712 74.8838 -0.463106 70.6351 0.511946C66.387 1.487 62.754 3.57913 59.3155 5.71425C53.2583 9.47523 47.3795 13.5932 43.5305 18.7716M112.03 24.6238C109.507 26.2758 107.948 29.0239 109.083 31.4048M111.625 13.0306C109.599 14.6042 108.339 16.9416 109.197 19.0454M105.268 12.3481C102.926 14.6271 102.169 18.1274 104.587 20.3592M106.29 27.6036C100.893 27.1705 95.5082 28.5478 90.6643 30.4092M83.5056 18.1311C73.2578 20.3914 64.188 25.611 58.5384 32.4994M101.27 32.0687C103.306 23.012 98.5619 13.2493 89.2726 7.38029C68.5792 5.60212 47.0312 14.6504 37.971 28.9216" stroke="white" style="stroke:white;stroke-opacity:1;" stroke-miterlimit="10"/>
<path d="M82.4704 41.7644C75.6618 38.4987 66.2339 40.2923 60.2605 44.3976M77.5404 33.3226C70.7238 32.5213 64.2372 35.7244 59.1202 39.2444M77.8334 29.4153C70.9706 28.4763 63.8547 30.3301 58.1002 33.3277C52.3463 36.3257 47.7253 40.3941 43.1738 44.4149M84.1575 24.0215C74.6709 29.6447 67.1672 37.1882 62.63 45.6637" stroke="white" style="stroke:white;stroke-opacity:1;" stroke-miterlimit="10"/>
<path d="M822.48 28.045C822.068 30.5435 824.014 38.0429 819.418 34.7055C809.856 33.8727 816.201 45.8617 822.87 45.5463C820.066 64.5152 842.073 78.1273 851.756 57.129C857.875 46.8501 852.027 25.4778 862.49 14.8857C866.154 8.5991 855.989 9.36117 854.782 5.39719C855.704 2.58744 853.973 -0.0848564 850.668 0.00206398C842.421 3.98827 823.266 -3.44645 819.917 7.11336C809.666 9.61586 813.275 25.9185 820.358 30.7699C820.467 28.514 826.587 28.3563 828.649 27.4426C850.721 17.6772 846.911 24.9381 850.078 26.4845C852.878 27.8509 856.187 24.926 856.51 28.0207C856.83 31.1155 856.106 34.2123 855.386 37.2424C863.99 28.6959 864.311 40.8162 855.386 45.5463" stroke="white" style="stroke:white;stroke-opacity:1;" stroke-width="1.2" stroke-linecap="round" stroke-linejoin="round"/>
<path d="M880.051 193.978L855.804 192.829C855.717 192.173 856.658 192.475 857.113 192.456C861.23 192.286 865.4 192.674 869.51 192.452C883.277 191.71 915.413 187.133 917.312 169.592C917.876 164.366 915.71 160.309 911.784 157.095C915.586 158.666 918.474 158.561 922.185 156.787C924.314 155.769 929.443 151.866 929.443 149.38V142.045C925.487 141.412 926.664 146.276 924.817 148.325C923.832 149.418 919.609 151.139 918.722 149.18C917.665 146.852 924.122 145.763 925.288 144.467C928.691 140.681 920.839 142.557 919.218 142.904C913.672 144.087 909.998 147.459 905.151 143.036C900.071 138.402 895.382 130.705 890.73 125.307C887.951 122.082 885.067 120.443 883.16 116.333C878.238 105.72 879.671 84.1481 870.627 76.9638C865.382 72.7933 850.942 75.1554 848.471 67.9221L847.185 64.0078C845.384 76.9073 863.75 73.0532 869.875 77.7172C878.802 84.5173 877.2 107.084 882.653 117.595C884.616 121.381 887.714 123.355 890.35 126.44C894.167 130.901 897.359 135.976 901.266 140.342C903.117 142.407 906.79 146.573 909.667 146.524L924.55 142.795C924.592 143.394 924.682 143.68 924.167 144.102C922.813 145.206 916.755 146.242 917.564 149.203C918.478 152.548 923.524 150.661 925.321 149.022C927.017 147.477 927.036 145.251 927.563 143.175C929.281 141.921 928.277 149.041 928.149 149.595C927.051 154.36 918.974 157.909 914.405 156.907C911.167 156.199 900.285 151.011 896.871 149.256C891.226 146.359 886.387 142.327 881.716 138.097C873.173 130.359 868.202 125.329 864.998 113.831C864.562 112.271 863.185 103.938 862.343 103.678C860.549 103.128 858.165 109.273 857.665 110.618C852.044 125.781 854.698 144.166 871.955 149.376C882.104 152.439 905.215 152.394 912.341 158.972C918.865 164.992 916.511 174.003 910.656 179.481C897.615 191.676 861.809 192.381 844.922 190.738C844.414 190.689 844.027 190.196 844.151 191.134C844.602 192.045 847.87 192.509 848.953 192.723C860.644 195.021 871.932 195.379 883.108 194.671L882.942 193.884C881.976 193.925 881.01 193.959 880.043 193.978H880.051ZM873.079 148.634C856.473 144.072 853.352 127.371 858.049 112.509C858.575 110.847 859.779 107.528 860.745 106.18C861.114 105.664 861.422 105.049 862.185 105.178C863.607 114.502 866.333 124.116 872.891 131.138C879.178 137.874 886.992 144.622 894.87 149.387L905.771 154.455C895.209 151.203 883.676 151.542 873.083 148.63L873.079 148.634Z" fill="white" style="fill:white;fill-opacity:1;"/>
<path d="M869.515 161.614C863.514 161.09 862.923 164.002 858.779 166.281C853.966 168.926 849.055 162.416 844.046 163.573C840.444 164.405 841.959 172.479 836.913 174.483C832.066 176.408 823.113 172.298 818.472 170.211C810.049 166.417 802.152 161.361 793.436 158.219C799.554 152.685 817.07 148.955 819.912 140.531C821.262 136.527 819.882 131.143 819.179 126.992C818.239 121.42 816.953 114.718 815.415 109.315C815.08 108.136 814.155 104.022 812.779 104.03C811.862 104.109 811.719 105.069 811.455 105.729C809.101 111.617 809.474 117.362 805.619 123.209C799.862 131.942 794.587 134.289 786.554 139.861C781.256 143.534 777.887 148.88 773.111 152.357C771.186 153.759 767.933 153.487 765.376 154.772C763.646 155.639 762.285 157.745 760.965 158.253C759.717 158.735 755.092 159.255 753.873 158.897C753.133 158.679 749.414 153.212 749.18 152.312C749.105 152.033 748.722 149.939 749.658 150.327C752.719 154.113 758.262 156.622 761.65 151.792C762.533 150.534 763.583 149.076 761.326 148.801C758.329 148.435 755.453 149.543 752.482 149.569C752.433 149.227 752.441 149.091 752.659 148.812C753.317 147.98 761.183 144.826 762.612 144.483C765.97 143.673 770.05 143.907 773.247 143.093C773.807 142.95 774.273 142.683 774.645 142.234C778.338 137.194 781.26 131.603 784.862 126.506C787.179 123.228 791.165 119.333 792.752 115.968C797.824 105.212 795.685 80.5401 808.368 75.5483C812.196 74.0414 815.065 74.5386 819.066 73.3331C822.297 72.3611 823.962 71.8111 825.339 70.3456C827.873 67.6444 828.102 63.6397 828.001 63.6095C827.922 63.5869 827.501 65.8813 826.677 67.5427C823.293 74.3767 813.234 71.1028 805.935 75.748C794.162 83.2412 797.339 105.066 791.511 116.232C790.164 118.813 787.656 120.824 785.983 123.111C781.655 129.03 778.218 135.566 773.927 141.511C769.956 143.067 765.594 142.555 761.496 143.734C759.773 144.231 753.554 146.729 752.287 147.678C751.158 148.526 751.016 149.645 751.978 150.711L761.496 149.569C760.446 153.258 757.276 154.211 753.843 152.531C752.538 151.89 750.354 149.181 749.662 149.178C748.413 149.17 747.834 151.231 748.041 152.293C748.229 153.25 752.275 159.251 753.091 159.677C755.084 160.717 757.874 159.591 759.991 159.349C758.931 161.99 756.491 165.159 756.637 168.135C756.942 174.457 768.245 181.98 773.45 184.436C776.27 185.766 784.757 189.609 786.483 185.683C788.499 176.815 788.799 167.453 792.165 158.939C794.007 158.551 814.885 169.725 818.472 171.33C824.489 174.023 837.68 180.145 841.339 171.382C842.144 169.453 842.012 165.264 844.422 164.692C849.521 163.486 853.252 170.384 859.445 166.937C863.442 164.714 864.367 162.201 869.891 162.733C871.173 162.857 878.04 164.725 876.844 166.485C872.866 167.886 869.82 166.899 866.319 169.683C861.63 173.409 860.144 175.941 854.18 178.974C829.133 191.711 792.902 190.686 761.954 187.669V188.501C791.217 191.097 838.282 194.088 861.938 175.459C865.1 172.968 866.857 169.269 871.109 168.463C873.227 168.063 875.558 168.485 877.604 167.065C880.484 164.292 871.192 161.753 869.515 161.606V161.614ZM767.512 155.032C768.249 154.746 770.231 153.638 770.513 154.832L763 157.842C763.891 156.588 766.064 155.597 767.512 155.028V155.032ZM789.04 165.302C787.637 171.394 787.344 178.921 785.746 184.579C785.095 186.881 783.84 186.636 781.689 186.343C775.258 185.469 760.537 176.525 758.307 170.256C757.235 167.246 758.875 162.137 761.116 159.918C762.022 159.022 764.978 158.464 766.512 157.797C768.136 157.089 771.788 154.365 772.656 154.166C777.451 153.077 786.69 156.347 791.165 158.438C790.251 160.653 789.578 162.97 789.04 165.306V165.302ZM774.269 152.952C778.53 148.635 782.508 143.937 787.521 140.456C790.717 138.237 794.365 136.677 797.365 134.134C803.311 129.098 807.932 122.388 810.151 114.959C810.959 112.246 811.437 108.015 812.505 105.653C812.738 105.141 812.542 105.062 813.343 105.175C814.159 109.319 815.351 113.38 816.242 117.513C817.386 122.806 820.085 134.236 819.269 139.134C818.578 143.274 812.046 147.226 808.575 149.117C803.262 152.014 797.204 153.597 792.402 157.405C786.498 155.409 780.591 153.178 774.273 152.952H774.269Z" fill="white" style="fill:white;fill-opacity:1;"/>
</g>
<defs>
<clipPath id="clip0_348_1115">
<rect width="929.443" height="195.479" fill="white" style="fill:white;fill-opacity:1;"/>
</clipPath>
</defs>
</svg>
