<svg width="930" height="196" viewBox="0 0 930 196" fill="none" xmlns="http://www.w3.org/2000/svg">
<g opacity="0.8" clip-path="url(#clip0_348_1157)">
<path d="M822.48 28.045C822.068 30.5435 824.014 38.0429 819.418 34.7055C809.856 33.8727 816.201 45.8617 822.87 45.5463C820.066 64.5152 842.073 78.1273 851.756 57.129C857.875 46.8501 852.027 25.4778 862.49 14.8857C866.154 8.5991 855.989 9.36117 854.782 5.39719C855.704 2.58744 853.973 -0.0848564 850.668 0.00206398C842.421 3.98827 823.266 -3.44645 819.917 7.11336C809.666 9.61586 813.275 25.9185 820.358 30.7699C820.467 28.514 826.587 28.3563 828.649 27.4426C850.721 17.6772 846.911 24.9381 850.078 26.4845C852.878 27.8509 856.187 24.926 856.51 28.0207C856.83 31.1155 856.106 34.2123 855.386 37.2424C863.99 28.6959 864.311 40.8162 855.386 45.5463" stroke="white" style="stroke:white;stroke-opacity:1;" stroke-width="1.2" stroke-linecap="round" stroke-linejoin="round"/>
<path d="M880.051 193.978L855.804 192.829C855.717 192.173 856.658 192.475 857.113 192.456C861.23 192.286 865.4 192.674 869.51 192.452C883.277 191.71 915.413 187.133 917.312 169.592C917.876 164.366 915.71 160.309 911.784 157.095C915.586 158.666 918.474 158.561 922.185 156.787C924.314 155.769 929.443 151.866 929.443 149.38V142.045C925.487 141.412 926.664 146.276 924.817 148.325C923.832 149.418 919.609 151.139 918.722 149.18C917.665 146.852 924.122 145.763 925.288 144.467C928.691 140.681 920.839 142.557 919.218 142.904C913.672 144.087 909.998 147.459 905.151 143.036C900.071 138.402 895.382 130.705 890.73 125.307C887.951 122.082 885.067 120.443 883.16 116.333C878.238 105.72 879.671 84.1481 870.627 76.9638C865.382 72.7933 850.942 75.1554 848.471 67.9221L847.185 64.0078C845.384 76.9073 863.75 73.0532 869.875 77.7172C878.802 84.5173 877.2 107.084 882.653 117.595C884.616 121.381 887.714 123.355 890.35 126.44C894.167 130.901 897.359 135.976 901.266 140.342C903.117 142.407 906.79 146.573 909.667 146.524L924.55 142.795C924.592 143.394 924.682 143.68 924.167 144.102C922.813 145.206 916.755 146.242 917.564 149.203C918.478 152.548 923.524 150.661 925.321 149.022C927.017 147.477 927.036 145.251 927.563 143.175C929.281 141.921 928.277 149.041 928.149 149.595C927.051 154.36 918.974 157.909 914.405 156.907C911.167 156.199 900.285 151.011 896.871 149.256C891.226 146.359 886.387 142.327 881.716 138.097C873.173 130.359 868.202 125.329 864.998 113.831C864.562 112.271 863.185 103.938 862.343 103.678C860.549 103.128 858.165 109.273 857.665 110.618C852.044 125.781 854.698 144.166 871.955 149.376C882.104 152.439 905.215 152.394 912.341 158.972C918.865 164.992 916.511 174.003 910.656 179.481C897.615 191.676 861.809 192.381 844.922 190.738C844.414 190.689 844.027 190.196 844.151 191.134C844.602 192.045 847.87 192.509 848.953 192.723C860.644 195.021 871.932 195.379 883.108 194.671L882.942 193.884C881.976 193.925 881.01 193.959 880.043 193.978H880.051ZM873.079 148.634C856.473 144.072 853.352 127.371 858.049 112.509C858.575 110.847 859.779 107.528 860.745 106.18C861.114 105.664 861.422 105.049 862.185 105.178C863.607 114.502 866.333 124.116 872.891 131.138C879.178 137.874 886.992 144.622 894.87 149.387L905.771 154.455C895.209 151.203 883.676 151.542 873.083 148.63L873.079 148.634Z" fill="white" style="fill:white;fill-opacity:1;"/>
<path d="M869.515 161.614C863.514 161.09 862.923 164.002 858.779 166.281C853.966 168.926 849.055 162.416 844.046 163.573C840.444 164.405 841.959 172.479 836.913 174.483C832.066 176.408 823.113 172.298 818.472 170.211C810.049 166.417 802.152 161.361 793.436 158.219C799.554 152.685 817.07 148.955 819.912 140.531C821.262 136.527 819.882 131.143 819.179 126.992C818.239 121.42 816.953 114.718 815.415 109.315C815.08 108.136 814.155 104.022 812.779 104.03C811.862 104.109 811.719 105.069 811.455 105.729C809.101 111.617 809.474 117.362 805.619 123.209C799.862 131.942 794.587 134.289 786.554 139.861C781.256 143.534 777.887 148.88 773.111 152.357C771.186 153.759 767.933 153.487 765.376 154.772C763.646 155.639 762.285 157.745 760.965 158.253C759.717 158.735 755.092 159.255 753.873 158.897C753.133 158.679 749.414 153.212 749.18 152.312C749.105 152.033 748.722 149.939 749.658 150.327C752.719 154.113 758.262 156.622 761.65 151.792C762.533 150.534 763.583 149.076 761.326 148.801C758.329 148.435 755.453 149.543 752.482 149.569C752.433 149.227 752.441 149.091 752.659 148.812C753.317 147.98 761.183 144.826 762.612 144.483C765.97 143.673 770.05 143.907 773.247 143.093C773.807 142.95 774.273 142.683 774.645 142.234C778.338 137.194 781.26 131.603 784.862 126.506C787.179 123.228 791.165 119.333 792.752 115.968C797.824 105.212 795.685 80.5401 808.368 75.5483C812.196 74.0414 815.065 74.5386 819.066 73.3331C822.297 72.3611 823.962 71.8111 825.339 70.3456C827.873 67.6444 828.102 63.6397 828.001 63.6095C827.922 63.5869 827.501 65.8813 826.677 67.5427C823.293 74.3767 813.234 71.1028 805.935 75.748C794.162 83.2412 797.339 105.066 791.511 116.232C790.164 118.813 787.656 120.824 785.983 123.111C781.655 129.03 778.218 135.566 773.927 141.511C769.956 143.067 765.594 142.555 761.496 143.734C759.773 144.231 753.554 146.729 752.287 147.678C751.158 148.526 751.016 149.645 751.978 150.711L761.496 149.569C760.446 153.258 757.276 154.211 753.843 152.531C752.538 151.89 750.354 149.181 749.662 149.178C748.413 149.17 747.834 151.231 748.041 152.293C748.229 153.25 752.275 159.251 753.091 159.677C755.084 160.717 757.874 159.591 759.991 159.349C758.931 161.99 756.491 165.159 756.637 168.135C756.942 174.457 768.245 181.98 773.45 184.436C776.27 185.766 784.757 189.609 786.483 185.683C788.499 176.815 788.799 167.453 792.165 158.939C794.007 158.551 814.885 169.725 818.472 171.33C824.489 174.023 837.68 180.145 841.339 171.382C842.144 169.453 842.012 165.264 844.422 164.692C849.521 163.486 853.252 170.384 859.445 166.937C863.442 164.714 864.367 162.201 869.891 162.733C871.173 162.857 878.04 164.725 876.844 166.485C872.866 167.886 869.82 166.899 866.319 169.683C861.63 173.409 860.144 175.941 854.18 178.974C829.133 191.711 792.902 190.686 761.954 187.669V188.501C791.217 191.097 838.282 194.088 861.938 175.459C865.1 172.968 866.857 169.269 871.109 168.463C873.227 168.063 875.558 168.485 877.604 167.065C880.484 164.292 871.192 161.753 869.515 161.606V161.614ZM767.512 155.032C768.249 154.746 770.231 153.638 770.513 154.832L763 157.842C763.891 156.588 766.064 155.597 767.512 155.028V155.032ZM789.04 165.302C787.637 171.394 787.344 178.921 785.746 184.579C785.095 186.881 783.84 186.636 781.689 186.343C775.258 185.469 760.537 176.525 758.307 170.256C757.235 167.246 758.875 162.137 761.116 159.918C762.022 159.022 764.978 158.464 766.512 157.797C768.136 157.089 771.788 154.365 772.656 154.166C777.451 153.077 786.69 156.347 791.165 158.438C790.251 160.653 789.578 162.97 789.04 165.306V165.302ZM774.269 152.952C778.53 148.635 782.508 143.937 787.521 140.456C790.717 138.237 794.365 136.677 797.365 134.134C803.311 129.098 807.932 122.388 810.151 114.959C810.959 112.246 811.437 108.015 812.505 105.653C812.738 105.141 812.542 105.062 813.343 105.175C814.159 109.319 815.351 113.38 816.242 117.513C817.386 122.806 820.085 134.236 819.269 139.134C818.578 143.274 812.046 147.226 808.575 149.117C803.262 152.014 797.204 153.597 792.402 157.405C786.498 155.409 780.591 153.178 774.273 152.952H774.269Z" fill="white" style="fill:white;fill-opacity:1;"/>
<path d="M87.3588 30.2502C87.9495 25.2246 87.0353 19.4593 81.689 16.4119C75.7876 13.0483 66.8303 14.6867 61.4866 18.5415M88.6751 18.3714C88.715 13.7744 86.9056 8.40872 81.2495 6.6648C77.6574 5.55731 73.431 6.31279 70.1719 7.89898C66.9127 9.48559 64.4275 11.8051 62.0011 14.0843C59.696 16.2495 57.3458 18.4756 56.1827 21.108C55.0197 23.7405 55.2707 26.9065 57.7632 28.951C61.9182 32.3593 69.5297 30.9734 74.6545 28.4187C81.816 24.848 87.3572 19.4738 90.1711 13.3684C91.9348 9.54171 92.2399 4.61648 87.9962 2.12262C84.9927 0.357867 80.6005 0.496039 77.1481 1.71066C73.6957 2.92528 70.9695 5.03567 68.3262 7.10057C64.8345 9.82826 61.2797 12.6248 59.162 16.0599C57.0444 19.4951 56.5923 23.7486 59.2786 26.9507C63.0907 31.495 71.9519 32.2926 78.4755 30.101C84.9991 27.909 89.6785 23.5194 93.9359 19.2043C96.4647 16.6411 98.9882 13.97 100.071 10.8843C101.154 7.79864 100.511 4.17136 97.4119 1.99082C94.4279 -0.108934 89.7956 -0.421411 85.8828 0.465853C81.9704 1.35312 78.6246 3.25689 75.4578 5.19977C69.8794 8.62213 64.4653 12.3693 60.9205 17.0815M97.7359 16.4987C88.2981 18.5555 79.9452 23.3051 74.7422 29.5734M103.047 6.71581C83.9893 5.09774 64.1445 13.3314 55.8005 26.3177" stroke="white" style="stroke:white;stroke-opacity:1;" stroke-miterlimit="10"/>
<path d="M3.08594 193.935C5.10826 155.5 8.92552 148.345 10.8224 122.019C11.417 113.767 15.7558 105.81 21.6358 101.672C30.6307 95.3405 42.8478 94.9815 51.9658 88.9171C56.0859 86.1765 59.0922 81.0665 59.9022 75.4256C60.729 69.6657 59.2479 63.4757 55.9969 59.1758C48.3038 43.6494 44.6898 25.1529 45.8469 7.06055" stroke="white" style="stroke:white;stroke-opacity:1;" stroke-miterlimit="10"/>
<path d="M29.6416 193.935C29.6416 176.734 31.2433 161.5 32.8267 146.564C33.243 162.304 33.6598 178.044 34.0761 193.784" stroke="white" style="stroke:white;stroke-opacity:1;" stroke-miterlimit="10"/>
<path d="M129.763 193.936C129.763 175.945 128.032 158.136 126.404 143.252C125.959 160.097 125.513 176.941 125.068 193.785" stroke="white" style="stroke:white;stroke-opacity:1;" stroke-miterlimit="10"/>
<path d="M45.0008 16.8385C43.6034 15.9762 41.8796 15.9486 40.4644 16.7664C39.0492 17.5841 37.9744 19.2296 37.6359 21.095C37.1432 23.8116 38.1513 26.5628 39.1333 29.0741C40.0582 31.4387 40.9831 33.804 41.9079 36.1686C42.5059 37.6979 43.1914 39.3381 44.4432 40.0731C45.6944 40.8081 47.6019 39.9382 47.587 38.2435" stroke="white" style="stroke:white;stroke-opacity:1;" stroke-miterlimit="10"/>
<path d="M152.68 193.935C150.657 155.5 146.579 148.345 144.682 122.019C144.087 113.767 139.748 105.81 133.868 101.672C124.874 95.3405 112.656 94.9815 103.538 88.9171C99.4184 86.1765 96.412 81.0665 95.6021 75.4256C94.7753 69.6657 96.2563 63.4757 99.5073 59.1758C107.2 43.6494 110.814 25.1529 109.657 7.06055" stroke="white" style="stroke:white;stroke-opacity:1;" stroke-miterlimit="10"/>
<path d="M110.504 16.8385C111.902 15.9762 113.626 15.9486 115.041 16.7664C116.456 17.5841 117.531 19.2296 117.869 21.095C118.362 23.8116 117.354 26.5628 116.372 29.0741C115.447 31.4387 114.522 33.804 113.597 36.1686C112.999 37.6979 112.314 39.3381 111.062 40.0731C109.811 40.8081 107.903 39.9382 107.918 38.2435" stroke="white" style="stroke:white;stroke-opacity:1;" stroke-miterlimit="10"/>
<path d="M153.243 193.036C153.243 193.036 182.685 178.817 202.831 178.817C222.976 178.817 232.272 193.036 252.418 193.036C272.563 193.036 282.64 173.265 302.005 178.817C321.37 184.37 332.227 187.484 351.592 193.036C370.957 198.589 381.034 178.817 401.18 178.817C421.325 178.817 430.621 193.036 450.767 193.036C470.912 193.036 480.209 178.817 500.354 178.817C520.5 178.817 529.796 193.036 549.941 193.036C570.087 193.036 579.383 178.817 599.529 178.817C619.674 178.817 628.971 193.036 649.116 193.036C669.261 193.036 678.558 178.817 698.703 178.817" stroke="white" style="stroke:white;stroke-opacity:1;" stroke-width="2" stroke-linecap="round"/>
</g>
<defs>
<clipPath id="clip0_348_1157">
<rect width="929.443" height="195.479" fill="white" style="fill:white;fill-opacity:1;"/>
</clipPath>
</defs>
</svg>
