<svg width="930" height="196" viewBox="0 0 930 196" fill="none" xmlns="http://www.w3.org/2000/svg">
<path d="M105 191.599C105 191.599 131.337 178.88 149.357 178.88C167.378 178.88 175.694 191.599 193.714 191.599C211.735 191.599 220.749 173.913 238.071 178.88C255.394 183.847 265.106 186.632 282.429 191.599C299.751 196.566 308.765 178.88 326.786 178.88C344.806 178.88 353.122 191.599 371.143 191.599C389.163 191.599 397.479 178.88 415.5 178.88C433.521 178.88 441.837 191.599 459.857 191.599C477.878 191.599 486.194 178.88 504.214 178.88C522.235 178.88 530.551 191.599 548.571 191.599C566.592 191.599 574.908 178.88 592.929 178.88C610.949 178.88 619.265 191.599 637.286 191.599C655.306 191.599 663.622 178.88 681.643 178.88C697.5 178.88 691.5 189 706.5 189C721.5 189 717 183 728.5 183C737.336 183 742.5 184.667 744 185" stroke="white" style="stroke:white;stroke-opacity:1;" stroke-width="1.5" stroke-linecap="round"/>
<path d="M88.9293 86.1291C79.9581 86.1291 72.6602 78.8311 72.6602 69.8599C72.6602 60.8888 79.9581 53.5908 88.9293 53.5908C97.9004 53.5908 105.198 60.8888 105.198 69.8599C105.198 78.8311 97.9004 86.1291 88.9293 86.1291ZM88.9293 54.7224C80.5823 54.7224 73.7907 61.513 73.7907 69.8609C73.7907 78.2089 80.5813 84.9995 88.9293 84.9995C97.2773 84.9995 104.068 78.2089 104.068 69.8609C104.068 61.513 97.2773 54.7224 88.9293 54.7224Z" fill="white" style="fill:white;fill-opacity:1;"/>
<path d="M73.7563 71.8329C67.2124 71.8329 61.8887 66.5091 61.8887 59.9653C61.8887 53.4214 67.2124 48.0977 73.7563 48.0977C80.3002 48.0977 85.6239 53.4214 85.6239 59.9653C85.6239 66.5091 80.3002 71.8329 73.7563 71.8329ZM73.7563 48.9242C67.6674 48.9242 62.7142 53.8774 62.7142 59.9663C62.7142 66.0551 67.6674 71.0083 73.7563 71.0083C79.8451 71.0083 84.7983 66.0551 84.7983 59.9663C84.7983 53.8774 79.8451 48.9242 73.7563 48.9242Z" fill="white" style="fill:white;fill-opacity:1;"/>
<path d="M63.2691 79.5382C54.2979 79.5382 47 72.2403 47 63.2691C47 54.298 54.2979 47 63.2691 47C72.2403 47 79.5382 54.298 79.5382 63.2691C79.5382 72.2403 72.2403 79.5382 63.2691 79.5382ZM63.2691 48.1316C54.9221 48.1316 48.1306 54.9221 48.1306 63.2701C48.1306 71.6181 54.9211 78.4087 63.2691 78.4087C71.6171 78.4087 78.4077 71.6181 78.4077 63.2701C78.4077 54.9221 71.6171 48.1316 63.2691 48.1316Z" fill="white" style="fill:white;fill-opacity:1;"/>
<path d="M42.4381 190.695L42.1691 191.911H43.4145H107.755H110.458L108.406 190.151C108.3 190.061 108.112 189.813 107.89 189.293C107.678 188.795 107.471 188.135 107.275 187.323C106.882 185.7 106.556 183.568 106.297 181.114C105.779 176.213 105.538 170.138 105.538 164.531C105.538 159.223 107.719 156.115 109.849 154.316C110.926 153.406 112.006 152.819 112.815 152.461C113.218 152.283 113.551 152.163 113.778 152.088C113.872 152.058 113.947 152.035 114.001 152.019H126.822H126.839L126.855 152.019C130.137 151.908 133.46 150.49 136.024 148.411C138.562 146.353 140.483 143.539 140.781 140.518L145.966 115.29L157.504 108.117L157.591 108.063L157.665 107.993C158.912 106.808 160.422 105.164 160.823 103.149C161.249 101.006 160.38 98.7809 157.681 96.5785L141.248 76.9851V58.6898C141.248 33.6367 128.186 19.6582 113.569 12.0012C99.0165 4.37861 82.9131 3 76.5507 3C70.1563 3 55.3282 4.79179 42.0615 12.6293C28.73 20.5052 17 34.4835 17 58.6898C17 77.3304 25.3433 92.5774 33.5638 105.472C34.8861 107.546 36.2006 109.553 37.477 111.501C40.1916 115.645 42.7342 119.526 44.8146 123.238C47.8706 128.691 49.8141 133.591 49.8141 138.151C49.8141 147.71 47.9779 160.827 46.1287 171.6C45.2058 176.977 44.2827 181.752 43.5904 185.184C43.2443 186.899 42.9559 188.278 42.7542 189.228C42.6534 189.702 42.5742 190.07 42.5203 190.318C42.4934 190.442 42.4727 190.537 42.4589 190.6L42.4432 190.671L42.4393 190.689L42.4383 190.693L42.4381 190.694C42.4381 190.695 42.4381 190.695 43.4145 190.911L42.4381 190.695Z" stroke="white" style="stroke:white;stroke-opacity:1;" stroke-width="2"/>
<path d="M794.438 190.695L794.169 191.911H795.414H859.755H862.458L860.406 190.151C860.3 190.061 860.112 189.813 859.89 189.293C859.678 188.795 859.471 188.135 859.275 187.323C858.882 185.7 858.556 183.568 858.297 181.114C857.779 176.213 857.538 170.138 857.538 164.531C857.538 159.223 859.719 156.115 861.849 154.316C862.926 153.406 864.006 152.819 864.815 152.461C865.218 152.283 865.551 152.163 865.778 152.088C865.872 152.058 865.947 152.035 866.001 152.019H878.822H878.839L878.855 152.019C882.137 151.908 885.46 150.49 888.024 148.411C890.562 146.353 892.483 143.539 892.781 140.518L897.966 115.29L909.504 108.117L909.591 108.063L909.665 107.993C910.912 106.808 912.422 105.164 912.823 103.149C913.249 101.006 912.38 98.7809 909.681 96.5785L893.248 76.9851V58.6898C893.248 33.6367 880.186 19.6582 865.569 12.0012C851.017 4.37861 834.913 3 828.551 3C822.156 3 807.328 4.79179 794.062 12.6293C780.73 20.5052 769 34.4835 769 58.6898C769 77.3304 777.343 92.5774 785.564 105.472C786.886 107.546 788.201 109.553 789.477 111.501C792.192 115.645 794.734 119.526 796.815 123.238C799.871 128.691 801.814 133.591 801.814 138.151C801.814 147.71 799.978 160.827 798.129 171.6C797.206 176.977 796.283 181.752 795.59 185.184C795.244 186.899 794.956 188.278 794.754 189.228C794.653 189.702 794.574 190.07 794.52 190.318C794.493 190.442 794.473 190.537 794.459 190.6L794.443 190.671L794.439 190.689L794.438 190.693L794.438 190.694C794.438 190.695 794.438 190.695 795.414 190.911L794.438 190.695Z" stroke="white" style="stroke:white;stroke-opacity:1;" stroke-width="2"/>
<path d="M840.659 109.356H825.794C824.972 109.356 824.307 108.69 824.307 107.869C824.307 107.047 824.972 106.382 825.794 106.382H840.659C841.481 106.382 842.146 107.047 842.146 107.869C842.146 108.69 841.481 109.356 840.659 109.356Z" fill="#4E4E4E" style="fill:#4E4E4E;fill:color(display-p3 0.3059 0.3059 0.3059);fill-opacity:1;"/>
<path d="M844.005 104.153H822.45C821.628 104.153 820.963 103.487 820.963 102.666C820.963 101.844 821.628 101.179 822.45 101.179H844.005C844.827 101.179 845.492 101.844 845.492 102.666C845.492 103.487 844.827 104.153 844.005 104.153Z" fill="#4E4E4E" style="fill:#4E4E4E;fill:color(display-p3 0.3059 0.3059 0.3059);fill-opacity:1;"/>
<path d="M844.005 98.9495H822.45C821.628 98.9495 820.963 98.2841 820.963 97.4626C820.963 96.6411 821.628 95.9756 822.45 95.9756H844.005C844.827 95.9756 845.492 96.6411 845.492 97.4626C845.492 98.2841 844.827 98.9495 844.005 98.9495Z" fill="#4E4E4E" style="fill:#4E4E4E;fill:color(display-p3 0.3059 0.3059 0.3059);fill-opacity:1;"/>
<path d="M844.005 93.7464H822.45C821.628 93.7464 820.963 93.0809 820.963 92.2594C820.963 91.4379 821.628 90.7725 822.45 90.7725H844.005C844.827 90.7725 845.492 91.4379 845.492 92.2594C845.492 93.0809 844.827 93.7464 844.005 93.7464Z" fill="#4E4E4E" style="fill:#4E4E4E;fill:color(display-p3 0.3059 0.3059 0.3059);fill-opacity:1;"/>
<path d="M833.228 84.4556C846.056 84.4556 856.456 74.0562 856.456 61.2278C856.456 48.3994 846.056 38 833.228 38C820.399 38 810 48.3994 810 61.2278C810 74.0562 820.399 84.4556 833.228 84.4556Z" fill="#AFAFAF" style="fill:#AFAFAF;fill:color(display-p3 0.6875 0.6875 0.6875);fill-opacity:1;"/>
<path d="M823.036 88.7295H843.42C844.667 88.7295 845.678 87.7185 845.678 86.4713V79.4664C845.678 78.2192 844.667 77.2082 843.42 77.2082H823.036C821.789 77.2082 820.778 78.2192 820.778 79.4664V86.4713C820.778 87.7185 821.789 88.7295 823.036 88.7295Z" fill="#AFAFAF" style="fill:#AFAFAF;fill:color(display-p3 0.6875 0.6875 0.6875);fill-opacity:1;"/>
<path d="M816.991 53.9009C816.849 53.9009 816.705 53.8687 816.57 53.7993C816.113 53.5667 815.931 53.007 816.164 52.5499C819.055 46.8778 824.539 43.022 830.837 42.2367C831.345 42.1733 831.81 42.5347 831.874 43.0441C831.937 43.5535 831.576 44.0177 831.066 44.0811C825.382 44.7898 820.43 48.2712 817.819 53.3935C817.655 53.7157 817.329 53.9009 816.991 53.9009Z" fill="white" style="fill:white;fill-opacity:1;"/>
<path d="M815.017 62.1575C814.504 62.1575 814.088 61.7417 814.088 61.2283C814.088 59.6577 814.278 58.0963 814.655 56.5861C814.779 56.0878 815.284 55.7858 815.781 55.9096C816.28 56.0334 816.583 56.5378 816.458 57.0361C816.119 58.3993 815.946 59.8098 815.946 61.2283C815.946 61.7417 815.531 62.1575 815.017 62.1575Z" fill="white" style="fill:white;fill-opacity:1;"/>
</svg>
