<svg width="930" height="196" viewBox="0 0 930 196" fill="none" xmlns="http://www.w3.org/2000/svg">
<g clip-path="url(#clip0_348_948)">
<path d="M3.59863 194.02C5.48408 158.186 9.04298 151.515 10.8114 126.97C11.3658 119.277 15.411 111.858 20.893 108C29.2791 102.097 40.6693 101.762 49.1701 96.1084C53.0114 93.5532 55.8142 88.789 56.5694 83.5298C57.3403 78.1596 55.9595 72.3886 52.9285 68.3797C45.756 53.9039 42.3867 36.659 43.4654 19.791" stroke="white" style="stroke:white;stroke-opacity:1;" stroke-miterlimit="10"/>
<path d="M28.3569 194.019C28.3569 177.981 29.8502 163.778 31.3265 149.854C31.7146 164.528 32.1032 179.203 32.4913 193.878" stroke="white" style="stroke:white;stroke-opacity:1;" stroke-miterlimit="10"/>
<path d="M121.702 194.02C121.702 177.246 120.088 160.642 118.571 146.766C118.155 162.47 117.74 178.175 117.324 193.879" stroke="white" style="stroke:white;stroke-opacity:1;" stroke-miterlimit="10"/>
<path d="M42.6767 28.9067C41.3739 28.1027 39.7667 28.077 38.4473 28.8394C37.1279 29.6018 36.1258 31.1359 35.8103 32.8751C35.3509 35.4079 36.2907 37.9729 37.2063 40.3143C38.0686 42.5189 38.9309 44.7241 39.7932 46.9287C40.3507 48.3545 40.9898 49.8837 42.1568 50.569C43.3234 51.2543 45.1017 50.4432 45.0878 48.8632" stroke="white" style="stroke:white;stroke-opacity:1;" stroke-miterlimit="10"/>
<path d="M143.068 194.02C141.182 158.186 137.38 151.515 135.611 126.97C135.057 119.277 131.012 111.858 125.53 108C117.143 102.097 105.753 101.762 97.2524 96.1084C93.4112 93.5532 90.6083 88.789 89.8532 83.5298C89.0823 78.1596 90.4631 72.3886 93.4941 68.3797C100.667 53.9039 104.036 36.659 102.957 19.791" stroke="white" style="stroke:white;stroke-opacity:1;" stroke-miterlimit="10"/>
<path d="M103.747 28.9067C105.049 28.1027 106.657 28.077 107.976 28.8394C109.295 29.6018 110.298 31.1359 110.613 32.8751C111.072 35.4079 110.133 37.9729 109.217 40.3143C108.355 42.5189 107.492 44.7241 106.63 46.9287C106.073 48.3545 105.434 49.8837 104.267 50.569C103.1 51.2543 101.322 50.4432 101.336 48.8632" stroke="white" style="stroke:white;stroke-opacity:1;" stroke-miterlimit="10"/>
<path d="M20.9508 37.3735C16.7066 28.9635 19.6009 16.2357 26.3369 11.3887C33.073 6.54166 42.2171 9.5249 47.098 17.3159C51.9789 25.1064 52.6478 36.6755 49.5002 45.8797C47.44 51.9038 43.4297 57.3186 38.425 57.9399C33.4393 58.5588 28.5682 53.9959 26.6492 47.9188C24.7303 41.8412 25.4746 34.6833 27.8413 28.8845C30.2075 23.0856 34.0434 18.5198 38.2335 14.9165C43.2392 10.6117 49.4652 7.47206 55.1519 9.91371C61.4782 12.63 65.2367 21.7783 65.356 30.5217C65.4754 39.2652 62.6518 47.6115 59.3337 55.1921C56.5627 61.5236 53.152 67.8545 48.0938 70.8817C43.035 73.9096 35.995 72.2693 33.5606 65.703C32.2039 62.0426 32.5171 57.6123 33.7117 53.8556C34.9062 50.0983 36.8958 46.8862 38.9044 43.7852C44.442 35.235 50.685 26.7775 58.7885 23.2147C66.8921 19.6524 77.2643 22.6404 81.2333 32.5823C83.636 38.6011 83.2925 45.9724 81.624 52.4056C77.9016 66.7553 67.5293 77.7174 56.0638 79.4195C50.8195 80.1983 44.7601 78.6181 41.9453 72.7521C39.8602 68.4068 40.1111 62.6573 41.6827 57.9536C43.2548 53.2498 45.9761 49.3926 48.7446 45.7661C54.5078 38.2177 60.899 31.0794 68.5738 27.5248C76.2486 23.9703 85.4716 24.6022 91.7098 31.4688C97.8491 38.226 99.9761 50.1875 97.5758 60.2264C95.1755 70.2652 88.7225 78.1841 81.2114 81.8344C74.9352 84.8848 67.0606 84.7177 62.4545 78.3393C57.577 71.5844 58.3175 60.1889 62.3556 52.5376C66.3937 44.8863 72.912 40.22 79.3587 36.3521C84.8437 33.0615 90.6278 30.0979 96.658 30.0598C102.688 30.0218 109.058 33.4675 112.011 40.3739C115.767 49.1542 112.777 60.8583 107.034 67.5287C101.29 74.1991 93.504 76.8607 85.9432 78.52C80.884 79.6299 74.9537 80.03 71.4096 75.158C68.8924 71.698 68.3638 66.3254 69.3084 61.7025C70.253 57.0796 72.4648 53.0857 74.8743 49.4955C83.2804 36.9722 94.7181 28.0165 107.101 24.2622C110.517 23.2265 114.068 22.5761 117.526 23.3383C120.984 24.0999 124.362 26.4333 126.251 30.3149C129.904 37.8235 126.936 47.7768 123.228 55.239C120.204 61.3232 116.593 67.1357 111.796 70.7521C107 74.3685 100.82 75.4559 95.9331 72.0529C88.9822 67.213 86.8265 54.7182 89.2964 44.9053C91.7658 35.0923 97.7244 27.5361 103.864 21.0744C107.244 17.5169 110.822 14.1062 114.931 12.309C119.04 10.5118 123.801 10.5249 127.467 13.5551C133.283 18.3635 134.514 29.5604 131.575 37.7218C128.637 45.8827 122.568 51.3593 116.285 55.0143C111.169 57.9904 105.59 60.0415 100.017 59.381C94.4452 58.7205 88.8838 54.9965 86.1108 48.6115C82.5779 40.4756 84.3244 29.7305 88.7079 22.3431C93.0914 14.9557 99.6224 10.3447 106.19 6.70099C112.009 3.47281 119.261 1.06742 124.198 6.24262C128.133 10.3679 128.944 18.1922 127.171 24.3834C125.398 30.5741 121.55 35.348 117.44 39.1665C107.115 48.7583 94.3127 53.6523 81.6834 52.8354C76.0752 52.4728 69.9788 50.5995 66.6183 44.6895C62.6128 37.6452 64.124 27.1366 68.3434 20.3111C72.5627 13.4855 78.8476 9.5362 84.9884 6.0399C88.7366 3.90561 92.595 1.83196 96.6687 1.43127C100.742 1.03057 105.13 2.56024 107.803 6.61835C110.423 10.5944 110.982 16.4271 109.962 21.5132C108.943 26.5986 106.532 31.0259 103.779 34.8432C93.2044 49.505 76.6666 56.2622 61.6282 52.0644C57.2866 50.8522 52.7988 48.511 50.3338 43.661C46.793 36.6945 48.8036 26.7853 53.1881 20.7029C57.5726 14.6204 63.746 11.4582 69.7055 8.47916C73.1205 6.77173 76.613 5.0435 80.2648 4.87763C83.9166 4.71176 87.8227 6.38946 89.9404 10.3019C91.8428 13.8161 91.9933 18.606 90.9464 22.6933C89.899 26.7805 87.7915 30.2578 85.4619 33.2957C72.7303 49.8992 51.8372 54.5096 35.6759 44.2817C34.3031 36.2992 36.8271 27.8173 40.9339 21.6648C45.0407 15.5116 50.5618 11.3215 56.1116 7.60583C61.4334 4.04294 67.2307 0.729745 73.1653 1.61556C82.6349 3.0293 89.7085 15.8255 89.3685 28.3393C89.0284 40.8537 82.4229 52.1303 73.9877 57.9577C66.8638 62.8791 57.1653 63.8535 51.4918 56.3531C45.7754 48.7952 46.7487 35.5507 51.6501 27.0617C56.5515 18.5727 64.3145 13.8821 71.9474 10.2823C76.4444 8.1617 81.131 6.28127 85.9038 6.57555C90.6765 6.87043 95.6018 9.71515 98.0011 15.1436C101.001 21.9299 99.4499 30.8321 102.004 37.9269C104.6 45.1401 111.665 48.939 117.364 46.1865C123.064 43.4339 126.575 34.5275 124.998 26.8221C123.427 19.1506 117.548 13.9159 111.541 13.0057C105.535 12.0956 99.5089 14.8309 94.247 18.7439C88.9851 22.657 84.2859 27.7371 79.233 32.1008C73.0586 37.4329 66.3474 41.6914 59.3303 44.7311C53.1613 47.4034 46.511 49.134 40.1827 47.2096C33.8544 45.2852 27.9646 38.9632 26.8777 30.5491C25.4595 19.5715 32.9332 9.08675 41.2793 7.15638C49.6254 5.2266 58.1202 9.95889 64.9561 16.5395C71.792 23.1207 77.4792 31.5401 84.0647 38.5476C90.6502 45.5557 98.6125 51.2879 107.083 50.9645C114.216 50.6922 121.334 45.6181 124.692 37.3455C128.05 29.0723 127.04 17.8219 121.765 11.507C116.011 4.61842 107.108 4.79559 99.6253 7.61415C78.4886 15.5752 63.5126 39.7592 44.708 54.7325C38.2355 59.8863 30.8837 64.0568 23.3413 63.237C15.6704 62.4029 8.48033 56.041 5.00731 47.0158C1.5343 37.9906 1.89773 26.6111 5.93391 17.9996C12.5511 3.88183 27.5388 -0.490187 39.5323 4.66539C51.5259 9.82156 60.8176 22.4953 67.883 36.2332C72.3561 44.9309 76.2579 54.3936 82.3241 61.2245C89.8401 69.6886 100.416 73.2354 110.101 70.5393C119.785 67.8432 128.358 58.9654 132.615 47.2239C135.56 39.1035 136.362 29.0325 132.821 21.3348C130.119 15.4611 125.213 11.7311 120.1 10.3269C114.987 8.92267 109.663 9.62656 104.553 11.0516C94.7872 13.775 85.4517 19.1357 77.296 26.7026C68.6965 34.6815 61.4246 45.0474 52.4076 52.1868C43.3912 59.3263 31.5423 62.7721 22.4635 55.7711C13.1898 48.6198 9.84147 31.2203 14.813 18.6922C19.7845 6.16415 31.9116 -0.243464 42.3101 3.35569C49.963 6.00422 56.4 13.3589 60.3528 22.3675C64.3057 31.3761 65.928 41.9155 65.9976 52.3135C58.9678 65.1334 44.4118 69.5768 33.8003 62.1431C28.6744 58.5516 24.55 52.5447 22.3743 45.4677C19.3008 35.4716 20.3136 23.484 24.9807 14.6175C29.6477 5.75037 37.8268 0.274353 46.0297 0.525236C49.9187 2.54894 51.9541 8.60104 51.542 14.0705C51.1293 19.54 48.7422 24.4286 45.9434 28.5135C38.6705 39.1296 28.0839 45.7043 17.224 46.3499C13.2253 46.5877 9.05957 45.9944 5.6114 43.3239C2.16373 40.6528 -0.396823 35.543 0.050883 30.3172C4.96932 12.0319 19.6126 -0.889101 34.3557 0.0478438C36.3282 11.4874 35.0358 23.846 30.7891 34.1625C26.5425 44.4796 19.3778 52.6648 11.0121 56.758C7.69891 54.0833 6.90726 47.901 8.19338 43.079C9.47901 38.2569 12.3338 34.4889 15.1189 30.923C20.1431 24.4905 25.4045 17.9877 31.9345 14.6204C38.4645 11.2537 46.6313 11.721 51.6559 18.153C51.3325 24.6028 50.9384 31.1674 49.1056 37.1654C47.2729 43.1634 43.7526 48.6109 39.0276 50.4104C34.3026 52.21 28.4658 49.3564 26.7554 43.296C25.5677 39.088 26.5186 34.2089 28.5384 30.5889C30.5577 26.9696 33.5129 24.4399 36.5655 22.4263C41.4381 19.213 46.9757 17.0918 52.3365 18.3973C57.6968 19.7029 62.7176 25.1367 63.4264 32.2387C63.5029 42.4428 60.1083 52.6071 54.3412 59.4428C48.5741 66.2785 40.5305 69.6713 32.8128 68.5239" stroke="white" style="stroke:white;stroke-opacity:1;" stroke-miterlimit="10"/>
<path d="M73.7797 43.6948C68.8734 45.4605 63.3782 41.5802 61.1246 35.5875C58.8709 29.5949 59.5978 22.1255 62.2806 16.4461M104.132 57.0855C99.0125 62.4367 90.9197 63.9551 86.1576 58.0623C81.5047 52.3045 82.0084 41.9095 85.5287 34.9003C89.049 27.891 94.7946 23.4625 100.337 19.2802M113.722 50.0115C111.065 52.44 108.262 54.8098 105.087 55.6343C101.912 56.4589 98.2559 55.412 96.2926 52.0316C94.5798 49.0817 94.4809 44.9064 95.4459 41.4197C96.411 37.9329 98.2978 35.0239 100.312 32.4235M135.102 44.5378C129.594 49.5739 122.528 50.414 115.821 50.647C112.845 50.7505 109.803 50.7534 106.978 49.5198M104.877 44.9736C98.6252 43.0997 92.1654 38.3918 90.3058 30.3279C88.4746 22.3859 91.857 13.6478 96.8383 8.54511M87.8559 41.9761C81.2134 42.8286 73.5848 41.5891 69.5579 34.5959C66.5282 29.3339 66.3791 21.8829 68.1992 15.7333M77.809 25.6313C72.5325 24.9851 66.7811 22.5779 64.2415 16.4663M32.1308 15.4598C27.7459 17.4568 22.102 17.8022 19.2443 12.9974C17.2221 9.5968 17.3804 4.62374 18.7723 0.714844M38.8182 19.7225C35.8811 22.5856 32.8202 25.4428 29.2843 26.6687C25.7485 27.8946 21.592 27.1669 19.0933 23.6581C16.6872 20.2795 16.3291 15.0348 17.3458 10.6045M58.1139 62.9177C56.1053 66.4669 53.7835 69.8419 50.8161 71.9298C47.8488 74.0172 44.1278 74.6449 41.1142 72.6753C36.9231 69.9364 35.2151 62.9087 35.9493 56.8347C36.6829 50.7606 39.3239 45.4183 41.9404 40.3192C46.7108 31.0235 51.8611 21.5393 59.2845 16.0116C66.708 10.4832 77.053 10.1009 83.0227 18.1113C87.3731 23.9488 88.4799 32.7291 88.4566 40.8989C88.4249 52.0073 86.6005 63.3909 81.8024 72.5368C77.0043 81.6827 68.908 88.2419 60.4601 87.8186C52.0121 87.3954 43.7892 78.9135 42.7637 67.8872C41.7923 57.4464 46.9125 47.7268 52.6011 40.3263C56.7162 34.9728 61.7564 29.954 67.5474 29.8648C73.6072 29.7714 79.1863 35.4918 81.5948 42.7989C84.0034 50.106 83.5873 58.6259 81.5534 66.1268C79.5195 73.6277 75.9885 80.2625 72.2222 86.5006C68.4204 92.7989 63.2223 99.3813 57.1722 98.1899C51.4168 97.0567 47.7177 88.8448 47.7338 81.1988C47.7499 73.5528 50.538 66.4389 53.3796 59.7662C55.3945 55.0345 57.54 50.2416 60.729 46.8006C63.9185 43.3601 68.4019 41.4916 72.2597 43.4172C76.3242 45.4457 78.76 51.2718 79.0211 56.9744C79.2822 62.6769 77.7355 68.2587 75.8224 73.3887C72.6383 81.9271 68.0988 90.0647 61.5942 94.2304C55.0895 98.3961 46.3439 97.5175 41.6603 90.2698C37.0093 83.0727 37.5822 72.365 39.3209 63.2042C39.9601 59.8369 40.7654 56.3989 42.488 53.7682C44.2106 51.1375 47.0761 49.5115 49.5587 50.6958C51.8338 51.7807 53.2325 54.9459 53.5477 58.0986C53.8629 61.2519 53.2885 64.4301 52.6893 67.5108C51.506 73.5944 50.1029 79.8921 46.8472 84.4882C43.591 89.0844 37.9228 91.3489 33.9188 87.9209C29.8845 84.4668 29.1971 76.6752 31.0883 70.8567C32.9795 65.0383 36.7828 60.737 40.4609 56.6533C41.2642 62.1555 40.6889 67.9894 38.8445 73.0404C37.8161 75.8572 36.3478 78.498 34.3017 80.0889C32.2556 81.6804 29.5645 82.0567 27.5037 80.4985C25.1322 78.7048 24.0902 74.7775 24.269 71.1903C24.4477 67.603 25.6243 64.25 26.7818 60.9921C27.7532 58.2573 28.7587 55.4584 30.3995 53.3461C32.0402 51.2338 34.4775 49.9193 36.6712 50.8141C39.2196 51.8539 40.6816 55.5773 40.7332 59.0825C40.7849 62.5877 39.7341 65.939 38.7013 69.1719C37.6617 72.4256 36.5928 75.7424 34.821 78.3939C33.0487 81.0454 30.4175 82.9633 27.7507 82.5424C23.8169 81.9211 21.21 76.3863 21.1282 71.1813C21.0464 65.977 22.8323 61.0741 24.5773 56.4013C25.9063 52.8431 27.3113 49.159 29.6877 46.7173C32.0641 44.2757 35.714 43.4856 38.0412 46.0075C40.515 48.6875 40.4799 53.6291 39.9679 57.7877C39.2201 63.8564 37.9106 69.8057 36.0774 75.4624C35.3111 77.8268 34.4079 80.2191 32.8957 81.8486C31.3835 83.4787 29.1099 84.1476 27.4463 82.7951C25.616 81.307 25.1649 77.9046 25.844 75.2216C26.5236 72.5386 28.062 70.4073 29.5557 68.3717C33.0993 63.5425 36.7351 58.6218 41.2949 55.6046C45.8548 52.5875 51.5941 51.7813 55.9601 55.2586C62.0643 60.1211 63.2642 71.8662 60.1307 80.2934C56.9973 88.7205 50.6851 94.3065 44.2477 98.3611C45.6887 83.7784 52.3619 70.2379 61.8997 62.5443C66.955 58.4666 73.0913 55.9691 78.8535 57.8192C82.6939 64.697 83.7837 74.0814 81.6796 82.1512C79.5755 90.2211 74.3346 96.7553 68.0911 99.0947C67.5089 90.7769 68.206 82.0056 71.5358 74.8911C74.8656 67.776 81.245 62.7435 87.5212 64.0692C90.5879 64.7167 93.5445 66.955 95.0923 70.4929C96.64 74.0308 96.5206 78.8838 94.4404 81.9134C92.3597 84.943 88.3231 85.4305 86.1255 82.5472C83.2819 78.8154 84.5963 72.5374 86.1411 67.6618C87.2323 64.2173 88.3981 60.6877 90.4354 58.0885C92.4732 55.4893 95.6189 54.028 98.2228 55.516C100.895 57.0427 102.213 61.2263 102.078 65.0508C101.943 68.8752 100.655 72.4447 99.3915 75.894C94.079 77.3399 88.7669 78.7851 83.4543 80.2309C78.9802 72.7033 78.8896 61.2186 83.2439 53.5708C87.5982 45.9231 96.0086 42.7936 102.769 46.3065C99.7544 55.8317 95.2886 65.2915 88.195 69.7117C81.0604 74.1574 71.8661 72.2782 66.2418 64.9961C60.6179 57.7139 59.0868 45.4593 62.8262 36.3217C66.5657 27.1841 75.3567 22.1011 82.9589 24.906C85.0951 30.058 85.0805 36.4056 83.751 42.007C82.422 47.6085 79.8922 52.5804 77.1611 57.2229C74.5665 61.6335 71.6605 65.9312 67.8801 68.4627C64.1002 70.9941 59.2577 71.4393 55.755 68.2932C52.7073 65.5561 51.162 60.501 51.2536 55.6522C51.3452 50.8034 52.8915 46.1638 54.979 42.1634C61.2561 30.1353 72.8809 23.3341 83.8845 25.252C84.3337 35.6071 80.9513 46.1341 74.9903 52.9341C69.0293 59.7341 60.6218 62.6561 52.8817 60.6181C48.7569 58.9921 46.0468 53.4097 45.5952 47.7827C45.1436 42.1556 46.5797 36.5405 48.5206 31.4896M82.9599 27.7364C80.8831 38.9941 73.7587 47.4331 66.2578 53.5209C61.9245 57.038 57.2482 60.0688 52.2119 61.0682C47.1755 62.0675 41.7071 60.8191 37.7839 56.5505C34.1112 46.5259 33.3609 34.7106 35.7179 24.0249M71.3648 19.5055C68.0438 31.3136 59.6947 40.425 50.251 42.548C40.8073 44.671 30.6275 39.7247 24.5077 30.0384" stroke="white" style="stroke:white;stroke-opacity:1;" stroke-miterlimit="10"/>
<path d="M23.9242 57.0293C20.5983 58.1155 17.1199 58.8301 13.7492 58.015M16.7706 63.6337C13.4452 64.0302 9.99998 63.9333 6.89819 62.3079" stroke="white" style="stroke:white;stroke-opacity:1;" stroke-miterlimit="10"/>
<path d="M143.442 193.505C143.442 193.505 174.156 178.672 195.172 178.672" stroke="white" style="stroke:white;stroke-opacity:1;" stroke-width="2" stroke-linecap="round"/>
<path d="M822.48 28.045C822.068 30.5435 824.014 38.0429 819.418 34.7055C809.856 33.8727 816.201 45.8617 822.87 45.5463C820.066 64.5152 842.073 78.1273 851.756 57.129C857.875 46.8501 852.027 25.4778 862.49 14.8857C866.154 8.5991 855.989 9.36117 854.782 5.39719C855.704 2.58744 853.973 -0.0848564 850.668 0.00206398C842.421 3.98827 823.266 -3.44645 819.917 7.11336C809.666 9.61586 813.275 25.9185 820.358 30.7699C820.467 28.514 826.587 28.3563 828.649 27.4426C850.721 17.6772 846.911 24.9381 850.078 26.4845C852.878 27.8509 856.187 24.926 856.51 28.0207C856.83 31.1155 856.106 34.2123 855.386 37.2424C863.99 28.6959 864.311 40.8162 855.386 45.5463" stroke="white" style="stroke:white;stroke-opacity:1;" stroke-width="1.2" stroke-linecap="round" stroke-linejoin="round"/>
<path d="M880.051 193.978L855.804 192.829C855.717 192.173 856.658 192.475 857.113 192.456C861.23 192.286 865.4 192.674 869.51 192.452C883.277 191.71 915.413 187.133 917.312 169.592C917.876 164.366 915.71 160.309 911.784 157.095C915.586 158.666 918.474 158.561 922.185 156.787C924.314 155.769 929.443 151.866 929.443 149.38V142.045C925.487 141.412 926.664 146.276 924.817 148.325C923.832 149.418 919.609 151.139 918.722 149.18C917.665 146.852 924.122 145.763 925.288 144.467C928.691 140.681 920.839 142.557 919.218 142.904C913.672 144.087 909.998 147.459 905.151 143.036C900.071 138.402 895.382 130.705 890.73 125.307C887.951 122.082 885.067 120.443 883.16 116.333C878.238 105.72 879.671 84.1481 870.627 76.9638C865.382 72.7933 850.942 75.1554 848.471 67.9221L847.185 64.0078C845.384 76.9073 863.75 73.0532 869.875 77.7172C878.802 84.5173 877.2 107.084 882.653 117.595C884.616 121.381 887.714 123.355 890.35 126.44C894.167 130.901 897.359 135.976 901.266 140.342C903.117 142.407 906.79 146.573 909.667 146.524L924.55 142.795C924.592 143.394 924.682 143.68 924.167 144.102C922.813 145.206 916.755 146.242 917.564 149.203C918.478 152.548 923.524 150.661 925.321 149.022C927.017 147.477 927.036 145.251 927.563 143.175C929.281 141.921 928.277 149.041 928.149 149.595C927.051 154.36 918.974 157.909 914.405 156.907C911.167 156.199 900.285 151.011 896.871 149.256C891.226 146.359 886.387 142.327 881.716 138.097C873.173 130.359 868.202 125.329 864.998 113.831C864.562 112.271 863.185 103.938 862.343 103.678C860.549 103.128 858.165 109.273 857.665 110.618C852.044 125.781 854.698 144.166 871.955 149.376C882.104 152.439 905.215 152.394 912.341 158.972C918.865 164.992 916.511 174.003 910.656 179.481C897.615 191.676 861.809 192.381 844.922 190.738C844.414 190.689 844.027 190.196 844.151 191.134C844.602 192.045 847.87 192.509 848.953 192.723C860.644 195.021 871.932 195.379 883.108 194.671L882.942 193.884C881.976 193.925 881.01 193.959 880.043 193.978H880.051ZM873.079 148.634C856.473 144.072 853.352 127.371 858.049 112.509C858.575 110.847 859.779 107.528 860.745 106.18C861.114 105.664 861.422 105.049 862.185 105.178C863.607 114.502 866.333 124.116 872.891 131.138C879.178 137.874 886.992 144.622 894.87 149.387L905.771 154.455C895.209 151.203 883.676 151.542 873.083 148.63L873.079 148.634Z" fill="white" style="fill:white;fill-opacity:1;"/>
<path d="M869.515 161.614C863.514 161.09 862.923 164.002 858.779 166.281C853.966 168.926 849.055 162.416 844.046 163.573C840.444 164.405 841.959 172.479 836.913 174.483C832.066 176.408 823.113 172.298 818.472 170.211C810.049 166.417 802.152 161.361 793.436 158.219C799.554 152.685 817.07 148.955 819.912 140.531C821.262 136.527 819.882 131.143 819.179 126.992C818.239 121.42 816.953 114.718 815.415 109.315C815.08 108.136 814.155 104.022 812.779 104.03C811.862 104.109 811.719 105.069 811.455 105.729C809.101 111.617 809.474 117.362 805.619 123.209C799.862 131.942 794.587 134.289 786.554 139.861C781.256 143.534 777.887 148.88 773.111 152.357C771.186 153.759 767.933 153.487 765.376 154.772C763.646 155.639 762.285 157.745 760.965 158.253C759.717 158.735 755.092 159.255 753.873 158.897C753.133 158.679 749.414 153.212 749.18 152.312C749.105 152.033 748.722 149.939 749.658 150.327C752.719 154.113 758.262 156.622 761.65 151.792C762.533 150.534 763.583 149.076 761.326 148.801C758.329 148.435 755.453 149.543 752.482 149.569C752.433 149.227 752.441 149.091 752.659 148.812C753.317 147.98 761.183 144.826 762.612 144.483C765.97 143.673 770.05 143.907 773.247 143.093C773.807 142.95 774.273 142.683 774.645 142.234C778.338 137.194 781.26 131.603 784.862 126.506C787.179 123.228 791.165 119.333 792.752 115.968C797.824 105.212 795.685 80.5401 808.368 75.5483C812.196 74.0414 815.065 74.5386 819.066 73.3331C822.297 72.3611 823.962 71.8111 825.339 70.3456C827.873 67.6444 828.102 63.6397 828.001 63.6095C827.922 63.5869 827.501 65.8813 826.677 67.5427C823.293 74.3767 813.234 71.1028 805.935 75.748C794.162 83.2412 797.339 105.066 791.511 116.232C790.164 118.813 787.656 120.824 785.983 123.111C781.655 129.03 778.218 135.566 773.927 141.511C769.956 143.067 765.594 142.555 761.496 143.734C759.773 144.231 753.554 146.729 752.287 147.678C751.158 148.526 751.016 149.645 751.978 150.711L761.496 149.569C760.446 153.258 757.276 154.211 753.843 152.531C752.538 151.89 750.354 149.181 749.662 149.178C748.413 149.17 747.834 151.231 748.041 152.293C748.229 153.25 752.275 159.251 753.091 159.677C755.084 160.717 757.874 159.591 759.991 159.349C758.931 161.99 756.491 165.159 756.637 168.135C756.942 174.457 768.245 181.98 773.45 184.436C776.27 185.766 784.757 189.609 786.483 185.683C788.499 176.815 788.799 167.453 792.165 158.939C794.007 158.551 814.885 169.725 818.472 171.33C824.489 174.023 837.68 180.145 841.339 171.382C842.144 169.453 842.012 165.264 844.422 164.692C849.521 163.486 853.252 170.384 859.445 166.937C863.442 164.714 864.367 162.201 869.891 162.733C871.173 162.857 878.04 164.725 876.844 166.485C872.866 167.886 869.82 166.899 866.319 169.683C861.63 173.409 860.144 175.941 854.18 178.974C829.133 191.711 792.902 190.686 761.954 187.669V188.501C791.217 191.097 838.282 194.088 861.938 175.459C865.1 172.968 866.857 169.269 871.109 168.463C873.227 168.063 875.558 168.485 877.604 167.065C880.484 164.292 871.192 161.753 869.515 161.606V161.614ZM767.512 155.032C768.249 154.746 770.231 153.638 770.513 154.832L763 157.842C763.891 156.588 766.064 155.597 767.512 155.028V155.032ZM789.04 165.302C787.637 171.394 787.344 178.921 785.746 184.579C785.095 186.881 783.84 186.636 781.689 186.343C775.258 185.469 760.537 176.525 758.307 170.256C757.235 167.246 758.875 162.137 761.116 159.918C762.022 159.022 764.978 158.464 766.512 157.797C768.136 157.089 771.788 154.365 772.656 154.166C777.451 153.077 786.69 156.347 791.165 158.438C790.251 160.653 789.578 162.97 789.04 165.306V165.302ZM774.269 152.952C778.53 148.635 782.508 143.937 787.521 140.456C790.717 138.237 794.365 136.677 797.365 134.134C803.311 129.098 807.932 122.388 810.151 114.959C810.959 112.246 811.437 108.015 812.505 105.653C812.738 105.141 812.542 105.062 813.343 105.175C814.159 109.319 815.351 113.38 816.242 117.513C817.386 122.806 820.085 134.236 819.269 139.134C818.578 143.274 812.046 147.226 808.575 149.117C803.262 152.014 797.204 153.597 792.402 157.405C786.498 155.409 780.591 153.178 774.273 152.952H774.269Z" fill="white" style="fill:white;fill-opacity:1;"/>
</g>
<defs>
<clipPath id="clip0_348_948">
<rect width="929.443" height="195.041" fill="white" style="fill:white;fill-opacity:1;"/>
</clipPath>
</defs>
</svg>
