<svg width="930" height="196" viewBox="0 0 930 196" fill="none" xmlns="http://www.w3.org/2000/svg">
<g clip-path="url(#clip0_348_1011)">
<path d="M3.08594 194.019C4.95263 158.541 8.47613 151.937 10.227 127.636C10.7759 120.019 14.7808 112.675 20.2083 108.855C28.511 103.011 39.7879 102.679 48.2042 97.0815C52.0072 94.5517 54.7822 89.8349 55.5298 84.6281C56.293 79.3113 54.926 73.5977 51.9251 69.6287C44.824 55.2969 41.4882 38.2236 42.5562 21.5234" stroke="white" style="stroke:white;stroke-opacity:1;" stroke-miterlimit="10"/>
<path d="M27.5981 194.019C27.5981 178.141 29.0766 164.079 30.5382 150.293C30.9224 164.822 31.3071 179.351 31.6914 193.88" stroke="white" style="stroke:white;stroke-opacity:1;" stroke-miterlimit="10"/>
<path d="M120.015 194.018C120.015 177.411 118.417 160.973 116.914 147.234C116.503 162.783 116.092 178.331 115.68 193.879" stroke="white" style="stroke:white;stroke-opacity:1;" stroke-miterlimit="10"/>
<path d="M41.7752 30.547C40.4853 29.751 38.8942 29.7256 37.5879 30.4804C36.2816 31.2352 35.2894 32.754 34.9771 34.4759C34.5223 36.9835 35.4527 39.523 36.3592 41.8411C37.2129 44.0238 38.0666 46.207 38.9203 48.3897C39.4723 49.8013 40.105 51.3153 41.2605 51.9938C42.4154 52.6722 44.1761 51.8692 44.1623 50.3049" stroke="white" style="stroke:white;stroke-opacity:1;" stroke-miterlimit="10"/>
<path d="M141.168 194.019C139.301 158.541 135.536 151.937 133.785 127.636C133.236 120.019 129.231 112.675 123.804 108.855C115.501 103.011 104.224 102.679 95.8081 97.0815C92.005 94.5517 89.2301 89.8349 88.4824 84.6281C87.7192 79.3113 89.0863 73.5977 92.0871 69.6287C99.1883 55.2969 102.524 38.2236 101.456 21.5234" stroke="white" style="stroke:white;stroke-opacity:1;" stroke-miterlimit="10"/>
<path d="M102.238 30.547C103.528 29.751 105.119 29.7256 106.425 30.4804C107.731 31.2352 108.724 32.754 109.036 34.4759C109.491 36.9835 108.56 39.523 107.654 41.8411C106.8 44.0238 105.946 46.207 105.093 48.3897C104.541 49.8013 103.908 51.3153 102.753 51.9938C101.598 52.6722 99.8369 51.8692 99.8507 50.3049" stroke="white" style="stroke:white;stroke-opacity:1;" stroke-miterlimit="10"/>
<path d="M29.5022 37.0016C25.3002 28.6754 28.1657 16.0742 34.8347 11.2754C41.5038 6.47657 50.557 9.43013 55.3893 17.1436C60.2217 24.8566 60.8839 36.3106 57.7677 45.4232C55.7279 51.3874 51.7575 56.7483 46.8026 57.3634C41.8665 57.9761 37.0438 53.4587 35.1439 47.4421C33.244 41.4249 33.981 34.3382 36.3241 28.5971C38.6668 22.8559 42.4646 18.3355 46.613 14.7681C51.5689 10.5061 57.7329 7.39772 63.3631 9.81507C69.6265 12.5044 73.3476 21.5616 73.4658 30.2181C73.5839 38.8745 70.7884 47.1378 67.5033 54.6429C64.7599 60.9114 61.3831 67.1794 56.3752 70.1765C51.3668 73.1742 44.3968 71.5503 41.9866 65.0493C40.6433 61.4253 40.9535 57.0391 42.1361 53.3198C43.3188 49.5999 45.2886 46.4197 47.2772 43.3496C52.7597 34.8844 58.9407 26.5111 66.9636 22.9837C74.9865 19.4568 85.2556 22.4151 89.1851 32.2581C91.5639 38.2171 91.2238 45.515 89.5719 51.8842M50.0278 57.3769C51.5843 52.72 54.2785 48.9012 57.0196 45.3108C62.7254 37.8374 69.053 30.7702 76.6515 27.251C84.25 23.7318 93.3813 24.3574 99.5574 31.1557C105.636 37.8457 107.741 49.6881 105.365 59.6271M70.4951 52.0149C74.4931 44.4397 80.9465 39.8198 87.3291 35.9904C92.7596 32.7325 98.4862 29.7984 104.456 29.7607M77.3788 61.0886C78.314 56.5117 80.5038 52.5575 82.8893 49.003C91.2118 36.6043 102.536 27.7377 114.795 24.0208M97.168 44.4585C99.6129 34.7432 105.512 27.2622 111.591 20.8647M107.782 58.7902C102.266 58.1362 96.7595 54.4493 94.0141 48.1278C90.5163 40.0729 92.2454 29.4347 96.5853 22.1208C100.925 14.8069 107.391 10.2418 113.894 6.63432M89.6308 52.3097C84.0783 51.9507 78.0425 50.096 74.7155 44.2448C70.7498 37.2706 72.246 26.8666 76.4234 20.109C80.6007 13.3513 86.8231 9.44132 92.9028 5.9798C96.6138 3.86675 100.434 1.81374 104.467 1.41703C108.5 1.02031 112.844 2.53476 115.491 6.5525M111.507 34.4966C101.037 49.0124 84.6638 55.7024 69.775 51.5463C65.4766 50.3462 61.0334 48.0283 58.5929 43.2266C55.0874 36.3294 57.0779 26.5188 61.4188 20.4969C65.7597 14.475 71.8717 11.3442 77.7719 8.3948C81.153 6.70436 84.6107 4.99332 88.2262 4.8291C91.8417 4.66488 95.709 6.32589 97.8056 10.1994C99.6891 13.6786 99.8381 18.4209 98.8016 22.4675C97.7646 26.5141 95.6781 29.9567 93.3716 32.9644C80.7666 49.4027 60.0813 53.9672 44.0808 43.8411C42.7216 35.938 45.2206 27.5406 49.2865 21.4492C53.3525 15.3573 58.8186 11.2089 64.3132 7.53015C69.5821 4.00272 75.3217 0.722484 81.1974 1.59949C90.5727 2.99916 97.576 15.668 97.2394 28.0573C96.9027 40.4472 90.3629 51.6117 82.0115 57.3811C74.9585 62.2534 65.3565 63.2181 59.7394 55.7925C54.0798 48.3097 55.0435 35.197 59.8961 26.7925C64.7488 18.3879 72.4346 13.7439 79.9916 10.18C84.4439 8.08049 89.0838 6.21877 93.8091 6.51013C98.5344 6.80207 103.411 9.61849 105.786 14.9929C108.756 21.7117 107.221 30.5253 109.749 37.5496M102.069 18.5574C96.8598 22.4316 92.2073 27.4611 87.2047 31.7814C81.0917 37.0605 74.4473 41.2766 67.4999 44.286C61.3923 46.9318 54.8081 48.6452 48.5428 46.7399C42.2774 44.8346 36.4462 38.5755 35.3701 30.2452C33.9661 19.3768 41.3654 8.99634 49.6285 7.08518C57.8916 5.1746 66.3018 9.85981 73.0698 16.3749C79.8377 22.8907 85.4683 31.2263 91.9883 38.1641C98.5083 45.1024 106.391 50.7776 114.778 50.4574M107.394 7.5384C86.4677 15.4202 71.6407 39.3636 53.0231 54.1879C46.6149 59.2905 39.3362 63.4194 31.8689 62.6078C24.2743 61.782 17.1557 55.4834 13.7173 46.548C10.2788 37.6126 10.6386 26.3463 14.6347 17.8205C21.186 3.8432 36.0246 -0.48531 47.8989 4.61897C59.7731 9.72384 68.9725 22.2715 75.9676 35.8727C80.3962 44.4838 84.2591 53.8525 90.265 60.6154M112.273 10.9416C102.604 13.638 93.3615 18.9453 85.287 26.4369C76.773 34.3365 69.5734 44.5992 60.6461 51.6676C51.7194 58.736 39.9883 62.1475 30.9998 55.2162C21.8183 48.136 18.5033 30.9097 23.4254 18.5062C28.3475 6.10281 40.3539 -0.241042 50.6491 3.3223C58.2259 5.94449 64.5988 13.226 68.5123 22.1449C72.4259 31.0639 74.032 41.4985 74.101 51.793C67.1411 64.4854 52.7298 68.8845 42.2239 61.5248C37.1489 57.9691 33.0656 52.0219 30.9115 45.0153C27.8686 35.1187 28.8713 23.2503 33.492 14.472C38.1126 5.69315 46.2103 0.271624 54.3316 0.52001C58.182 2.52358 60.1971 8.51546 59.7891 13.9305C59.3805 19.3456 57.0172 24.1856 54.2462 28.2298C47.0457 38.7403 36.5643 45.2496 25.8124 45.8888C21.8535 46.1242 17.7292 45.5368 14.3154 42.8928C10.902 40.2483 8.36689 35.1893 8.81014 30.0156C13.6797 11.9122 28.1773 -0.880255 42.7737 0.0473678C44.7267 11.3731 43.4471 23.6088 39.2427 33.8226C35.0383 44.0371 27.9448 52.1408 19.6624 56.1933C16.3821 53.5452 15.5983 47.4244 16.8717 42.6503C18.1445 37.8763 20.9709 34.1458 23.7283 30.6154C28.7025 24.2468 33.9116 17.8088 40.3766 14.475C46.8416 11.1418 54.9273 11.6044 59.9019 17.9724C59.5817 24.358 59.1915 30.8573 57.377 36.7956C55.5625 42.7339 52.0772 48.1272 47.3992 49.9089C42.7212 51.6905 36.9425 48.8653 35.2491 42.8652C34.0732 38.6991 35.0146 33.8685 37.0143 30.2846C39.0136 26.7012 41.9393 24.1968 44.9615 22.2032C49.7857 19.0219 55.2683 16.9218 60.5757 18.2143C65.8827 19.5069 70.8535 24.8866 71.5553 31.9179C71.631 42.0205 68.2702 52.0837 62.5605 58.8514C56.8508 65.619 48.8872 68.9781 41.2462 67.8421" stroke="white" style="stroke:white;stroke-opacity:1;" stroke-miterlimit="10"/>
<path d="M141.539 193.51C141.539 193.51 171.947 178.824 192.753 178.824C213.56 178.824 223.161 193.51 243.968 193.51C264.775 193.51 275.182 173.089 295.183 178.824C315.183 184.559 326.397 187.775 346.397 193.51" stroke="white" style="stroke:white;stroke-opacity:1;" stroke-width="2" stroke-linecap="round"/>
<path d="M822.48 28.045C822.068 30.5435 824.014 38.0429 819.418 34.7055C809.856 33.8727 816.201 45.8617 822.87 45.5463C820.066 64.5152 842.073 78.1273 851.756 57.129C857.875 46.8501 852.027 25.4778 862.49 14.8857C866.154 8.5991 855.989 9.36117 854.782 5.39719C855.704 2.58744 853.973 -0.0848564 850.668 0.00206398C842.421 3.98827 823.266 -3.44645 819.917 7.11336C809.666 9.61586 813.275 25.9185 820.358 30.7699C820.467 28.514 826.587 28.3563 828.649 27.4426C850.721 17.6772 846.911 24.9381 850.078 26.4845C852.878 27.8509 856.187 24.926 856.51 28.0207C856.83 31.1155 856.106 34.2123 855.386 37.2424C863.99 28.6959 864.311 40.8162 855.386 45.5463" stroke="white" style="stroke:white;stroke-opacity:1;" stroke-width="1.2" stroke-linecap="round" stroke-linejoin="round"/>
<path d="M880.051 193.978L855.804 192.829C855.717 192.173 856.658 192.475 857.113 192.456C861.23 192.286 865.4 192.674 869.51 192.452C883.277 191.71 915.413 187.133 917.312 169.592C917.876 164.366 915.71 160.309 911.784 157.095C915.586 158.666 918.474 158.561 922.185 156.787C924.314 155.769 929.443 151.866 929.443 149.38V142.045C925.487 141.412 926.664 146.276 924.817 148.325C923.832 149.418 919.609 151.139 918.722 149.18C917.665 146.852 924.122 145.763 925.288 144.467C928.691 140.681 920.839 142.557 919.218 142.904C913.672 144.087 909.998 147.459 905.151 143.036C900.071 138.402 895.382 130.705 890.73 125.307C887.951 122.082 885.067 120.443 883.16 116.333C878.238 105.72 879.671 84.1481 870.627 76.9638C865.382 72.7933 850.942 75.1554 848.471 67.9221L847.185 64.0078C845.384 76.9073 863.75 73.0532 869.875 77.7172C878.802 84.5173 877.2 107.084 882.653 117.595C884.616 121.381 887.714 123.355 890.35 126.44C894.167 130.901 897.359 135.976 901.266 140.342C903.117 142.407 906.79 146.573 909.667 146.524L924.55 142.795C924.592 143.394 924.682 143.68 924.167 144.102C922.813 145.206 916.755 146.242 917.564 149.203C918.478 152.548 923.524 150.661 925.321 149.022C927.017 147.477 927.036 145.251 927.563 143.175C929.281 141.921 928.277 149.041 928.149 149.595C927.051 154.36 918.974 157.909 914.405 156.907C911.167 156.199 900.285 151.011 896.871 149.256C891.226 146.359 886.387 142.327 881.716 138.097C873.173 130.359 868.202 125.329 864.998 113.831C864.562 112.271 863.185 103.938 862.343 103.678C860.549 103.128 858.165 109.273 857.665 110.618C852.044 125.781 854.698 144.166 871.955 149.376C882.104 152.439 905.215 152.394 912.341 158.972C918.865 164.992 916.511 174.003 910.656 179.481C897.615 191.676 861.809 192.381 844.922 190.738C844.414 190.689 844.027 190.196 844.151 191.134C844.602 192.045 847.87 192.509 848.953 192.723C860.644 195.021 871.932 195.379 883.108 194.671L882.942 193.884C881.976 193.925 881.01 193.959 880.043 193.978H880.051ZM873.079 148.634C856.473 144.072 853.352 127.371 858.049 112.509C858.575 110.847 859.779 107.528 860.745 106.18C861.114 105.664 861.422 105.049 862.185 105.178C863.607 114.502 866.333 124.116 872.891 131.138C879.178 137.874 886.992 144.622 894.87 149.387L905.771 154.455C895.209 151.203 883.676 151.542 873.083 148.63L873.079 148.634Z" fill="white" style="fill:white;fill-opacity:1;"/>
<path d="M869.515 161.614C863.514 161.09 862.923 164.002 858.779 166.281C853.966 168.926 849.055 162.416 844.046 163.573C840.444 164.405 841.959 172.479 836.913 174.483C832.066 176.408 823.113 172.298 818.472 170.211C810.049 166.417 802.152 161.361 793.436 158.219C799.554 152.685 817.07 148.955 819.912 140.531C821.262 136.527 819.882 131.143 819.179 126.992C818.239 121.42 816.953 114.718 815.415 109.315C815.08 108.136 814.155 104.022 812.779 104.03C811.862 104.109 811.719 105.069 811.455 105.729C809.101 111.617 809.474 117.362 805.619 123.209C799.862 131.942 794.587 134.289 786.554 139.861C781.256 143.534 777.887 148.88 773.111 152.357C771.186 153.759 767.933 153.487 765.376 154.772C763.646 155.639 762.285 157.745 760.965 158.253C759.717 158.735 755.092 159.255 753.873 158.897C753.133 158.679 749.414 153.212 749.18 152.312C749.105 152.033 748.722 149.939 749.658 150.327C752.719 154.113 758.262 156.622 761.65 151.792C762.533 150.534 763.583 149.076 761.326 148.801C758.329 148.435 755.453 149.543 752.482 149.569C752.433 149.227 752.441 149.091 752.659 148.812C753.317 147.98 761.183 144.826 762.612 144.483C765.97 143.673 770.05 143.907 773.247 143.093C773.807 142.95 774.273 142.683 774.645 142.234C778.338 137.194 781.26 131.603 784.862 126.506C787.179 123.228 791.165 119.333 792.752 115.968C797.824 105.212 795.685 80.5401 808.368 75.5483C812.196 74.0414 815.065 74.5386 819.066 73.3331C822.297 72.3611 823.962 71.8111 825.339 70.3456C827.873 67.6444 828.102 63.6397 828.001 63.6095C827.922 63.5869 827.501 65.8813 826.677 67.5427C823.293 74.3767 813.234 71.1028 805.935 75.748C794.162 83.2412 797.339 105.066 791.511 116.232C790.164 118.813 787.656 120.824 785.983 123.111C781.655 129.03 778.218 135.566 773.927 141.511C769.956 143.067 765.594 142.555 761.496 143.734C759.773 144.231 753.554 146.729 752.287 147.678C751.158 148.526 751.016 149.645 751.978 150.711L761.496 149.569C760.446 153.258 757.276 154.211 753.843 152.531C752.538 151.89 750.354 149.181 749.662 149.178C748.413 149.17 747.834 151.231 748.041 152.293C748.229 153.25 752.275 159.251 753.091 159.677C755.084 160.717 757.874 159.591 759.991 159.349C758.931 161.99 756.491 165.159 756.637 168.135C756.942 174.457 768.245 181.98 773.45 184.436C776.27 185.766 784.757 189.609 786.483 185.683C788.499 176.815 788.799 167.453 792.165 158.939C794.007 158.551 814.885 169.725 818.472 171.33C824.489 174.023 837.68 180.145 841.339 171.382C842.144 169.453 842.012 165.264 844.422 164.692C849.521 163.486 853.252 170.384 859.445 166.937C863.442 164.714 864.367 162.201 869.891 162.733C871.173 162.857 878.04 164.725 876.844 166.485C872.866 167.886 869.82 166.899 866.319 169.683C861.63 173.409 860.144 175.941 854.18 178.974C829.133 191.711 792.902 190.686 761.954 187.669V188.501C791.217 191.097 838.282 194.088 861.938 175.459C865.1 172.968 866.857 169.269 871.109 168.463C873.227 168.063 875.558 168.485 877.604 167.065C880.484 164.292 871.192 161.753 869.515 161.606V161.614ZM767.512 155.032C768.249 154.746 770.231 153.638 770.513 154.832L763 157.842C763.891 156.588 766.064 155.597 767.512 155.028V155.032ZM789.04 165.302C787.637 171.394 787.344 178.921 785.746 184.579C785.095 186.881 783.84 186.636 781.689 186.343C775.258 185.469 760.537 176.525 758.307 170.256C757.235 167.246 758.875 162.137 761.116 159.918C762.022 159.022 764.978 158.464 766.512 157.797C768.136 157.089 771.788 154.365 772.656 154.166C777.451 153.077 786.69 156.347 791.165 158.438C790.251 160.653 789.578 162.97 789.04 165.306V165.302ZM774.269 152.952C778.53 148.635 782.508 143.937 787.521 140.456C790.717 138.237 794.365 136.677 797.365 134.134C803.311 129.098 807.932 122.388 810.151 114.959C810.959 112.246 811.437 108.015 812.505 105.653C812.738 105.141 812.542 105.062 813.343 105.175C814.159 109.319 815.351 113.38 816.242 117.513C817.386 122.806 820.085 134.236 819.269 139.134C818.578 143.274 812.046 147.226 808.575 149.117C803.262 152.014 797.204 153.597 792.402 157.405C786.498 155.409 780.591 153.178 774.273 152.952H774.269Z" fill="white" style="fill:white;fill-opacity:1;"/>
</g>
<defs>
<clipPath id="clip0_348_1011">
<rect width="929.443" height="195.041" fill="white" style="fill:white;fill-opacity:1;"/>
</clipPath>
</defs>
</svg>
