<svg width="930" height="196" viewBox="0 0 930 196" fill="none" xmlns="http://www.w3.org/2000/svg">
<g clip-path="url(#clip0_348_1032)">
<path d="M3.08594 193.516C4.94778 158.13 8.46213 151.543 10.2085 127.305C10.7559 119.709 14.7504 112.383 20.1638 108.573C28.4449 102.744 39.6925 102.414 48.087 96.8305C51.8801 94.3073 54.6479 89.6027 55.3936 84.4094C56.1548 79.1065 54.7913 73.4077 51.7983 69.449C44.7156 55.1544 41.3884 38.1255 42.4536 21.4688" stroke="white" style="stroke:white;stroke-opacity:1;" stroke-miterlimit="10"/>
<path d="M27.5344 193.516C27.5344 177.68 29.009 163.654 30.4668 149.904C30.8501 164.395 31.2338 178.887 31.617 193.378" stroke="white" style="stroke:white;stroke-opacity:1;" stroke-miterlimit="10"/>
<path d="M119.711 193.516C119.711 176.952 118.117 160.556 116.619 146.854C116.208 162.362 115.798 177.87 115.388 193.377" stroke="white" style="stroke:white;stroke-opacity:1;" stroke-miterlimit="10"/>
<path d="M41.6747 30.4692C40.3882 29.6753 38.8011 29.6499 37.4983 30.4028C36.1954 31.1557 35.2058 32.6705 34.8942 34.388C34.4406 36.889 35.3687 39.4219 36.2728 41.734C37.1243 43.911 37.9758 46.0885 38.8273 48.2656C39.3778 49.6735 40.0089 51.1836 41.1613 51.8603C42.3133 52.537 44.0693 51.736 44.0556 50.1758" stroke="white" style="stroke:white;stroke-opacity:1;" stroke-miterlimit="10"/>
<path d="M140.809 193.516C138.947 158.13 135.192 151.543 133.446 127.305C132.898 119.709 128.904 112.383 123.49 108.573C115.209 102.744 103.962 102.414 95.5673 96.8305C91.7741 94.3073 89.0064 89.6027 88.2607 84.4094C87.4995 79.1065 88.863 73.4077 91.856 69.449C98.9387 55.1544 102.266 38.1255 101.201 21.4688" stroke="white" style="stroke:white;stroke-opacity:1;" stroke-miterlimit="10"/>
<path d="M101.98 30.4692C103.267 29.6753 104.854 29.6499 106.157 30.4028C107.46 31.1557 108.449 32.6705 108.761 34.388C109.214 36.889 108.286 39.4219 107.382 41.734C106.531 43.911 105.679 46.0885 104.828 48.2656C104.277 49.6735 103.646 51.1836 102.494 51.8603C101.342 52.537 99.5857 51.736 99.5994 50.1758" stroke="white" style="stroke:white;stroke-opacity:1;" stroke-miterlimit="10"/>
<path d="M32.8882 36.9055C28.6972 28.6009 31.5552 16.0324 38.2069 11.2461C44.8587 6.45975 53.8883 9.40563 58.7081 17.0991C63.5279 24.792 64.1884 36.2163 61.0803 45.3052C59.0458 51.2539 55.0857 56.6009 50.1437 57.2144C45.2204 57.8255 40.4102 53.3198 38.5153 47.3188C36.6204 41.3173 37.3554 34.249 39.6925 28.5228C42.029 22.7966 45.8169 18.2879 49.9546 14.7297C54.8976 10.4788 61.0456 7.3785 66.6611 9.78957C72.9083 12.4719 76.6197 21.5056 76.7376 30.1396C76.8554 38.7735 74.0672 47.0153 70.7906 54.501C68.0543 60.7532 64.6863 67.0048 59.6914 69.9942C54.696 72.9841 47.7441 71.3644 45.3402 64.8803C44.0004 61.2657 44.3098 56.8909 45.4893 53.1812C46.6689 49.471 48.6336 46.2991 50.617 43.237C56.0853 34.7938 62.2502 26.4422 70.2523 22.924C78.2544 19.4063 88.4968 22.3569 92.4161 32.1743C94.7887 38.1178 94.4495 45.3968 92.8019 51.7494C89.126 65.9193 78.8836 76.7442 67.5617 78.425C62.383 79.194 56.3995 77.6336 53.6199 71.8411C51.5609 67.5502 51.8086 61.8727 53.3606 57.2279C54.913 52.583 57.6002 48.7741 60.3341 45.1931C66.0252 37.7391 72.3363 30.6902 79.915 27.1802C87.4938 23.6701 96.6013 24.2942 102.761 31.0748C108.824 37.7473 110.924 49.559 108.554 59.4722C106.184 69.3854 99.8115 77.2051 92.3944 80.8096C86.1968 83.8219 78.4208 83.6569 73.8723 77.3583C69.0559 70.6881 69.7871 59.4352 73.7747 51.8797C77.7623 44.3242 84.1989 39.7163 90.5649 35.8969C95.9812 32.6475 101.693 29.721 107.648 29.6834M97.067 77.5368C92.0711 78.6328 86.2151 79.0279 82.7153 74.2169C80.2296 70.8002 79.7077 65.4949 80.6405 60.9299C81.5733 56.3649 83.7573 52.421 86.1367 48.8757M106.932 71.1507C100.068 66.3714 97.9392 54.0331 100.378 44.343C102.817 34.6529 108.701 27.1913 114.764 20.8105M110.965 58.6374C105.463 57.9852 99.9707 54.3078 97.2325 48.0027C93.7438 39.9688 95.4684 29.3582 99.7971 22.0633C104.126 14.7685 110.575 10.2152 117.061 6.61708M92.8606 52.1738C87.3225 51.8157 81.3024 49.9659 77.984 44.1299C74.0287 37.1738 75.521 26.7968 79.6875 20.0567C83.854 13.3167 90.0603 9.41679 96.1241 5.96427C99.8255 3.85671 103.636 1.80902 107.658 1.41334M114.68 34.4069C104.237 48.8851 87.9065 55.5577 73.0564 51.4124C68.7692 50.2154 64.3376 47.9035 61.9034 43.1143C58.407 36.235 60.3923 26.4499 64.7219 20.4436C69.0516 14.4374 75.1476 11.3148 81.0325 8.37298C84.4048 6.68694 87.8536 4.98034 91.4597 4.81655C95.0658 4.65276 98.923 6.30946 101.014 10.1729C102.893 13.6431 103.041 18.373 102.008 22.4091C100.973 26.4452 98.8922 29.8789 96.5917 32.8788C84.0195 49.2743 63.3879 53.827 47.429 43.7272C46.0733 35.8446 48.5658 27.469 52.6212 21.3935C56.6766 15.3174 62.1285 11.1797 67.6088 7.51059C72.864 3.99232 78.5887 0.720607 84.4491 1.59533C93.8001 2.99137 100.785 15.6273 100.449 27.9844C100.114 40.3421 93.5908 51.4776 85.2611 57.232C78.2265 62.0917 68.6494 63.0539 63.0469 55.6475C57.402 48.1841 58.3632 35.1055 63.2032 26.7228C68.0432 18.3402 75.7091 13.7082 83.2464 10.1536C87.6872 8.0595 92.315 6.20261 97.0281 6.49321C101.741 6.78439 106.605 9.5935 108.974 14.954C111.936 21.6553 110.405 30.446 112.926 37.452M105.267 18.5092C100.071 22.3733 95.4304 27.3898 90.4408 31.6988C84.3437 36.9642 77.7166 41.1693 70.7873 44.171C64.6955 46.8098 58.1284 48.5188 51.8794 46.6185C45.6303 44.7181 39.8142 38.4753 38.7409 30.1666C37.3405 19.3264 44.7206 8.97296 52.9622 7.06677C61.2039 5.16116 69.5923 9.83419 76.3426 16.3324C83.093 22.8312 88.7089 31.1452 95.212 38.0649M110.578 7.51881C89.7057 15.3802 74.9172 39.2614 56.348 54.0472C49.9565 59.1364 42.6967 63.2547 35.2488 62.4451C27.674 61.6215 20.5739 55.3393 17.1443 46.4271C13.7148 37.5148 14.0737 26.2779 18.0593 17.7742C24.5937 3.83322 39.3937 -0.484049 51.2371 4.60697C63.0805 9.69858 72.256 22.2136 79.2329 35.7795C83.65 44.3682 87.5029 53.7125 93.4932 60.4579M115.444 10.9132C105.8 13.6026 96.5816 18.8961 88.5281 26.3683C80.0363 34.2472 72.8554 44.4833 63.9513 51.5333C55.0477 58.5834 43.3471 61.986 34.382 55.0728C25.2244 48.011 21.918 30.8294 26.8273 18.4582C31.7366 6.08696 43.7118 -0.240416 53.9802 3.31367C61.5373 5.92904 67.8936 13.1916 71.797 22.0874C75.7004 30.9832 77.3024 41.3906 77.3712 51.6584C70.4293 64.3178 56.0555 68.7056 45.5769 61.3649C40.5151 57.8185 36.4424 51.8868 34.2939 44.8983C31.2589 35.0275 32.259 23.1899 36.8676 14.4344C41.4763 5.67836 49.5529 0.270918 57.6531 0.518659C61.4935 2.51702 63.5034 8.49333 63.0964 13.8943C62.689 19.2953 60.3317 24.1227 57.568 28.1565C50.3861 38.6397 39.932 45.132 29.2081 45.7696C25.2595 46.0044 21.1459 45.4185 17.7409 42.7814C14.3363 40.1437 11.8079 35.0979 12.25 29.9376C17.1068 11.8813 31.5668 -0.877968 46.1253 0.0472447C48.0732 11.3435 46.7969 23.5474 42.6034 33.7347C38.4099 43.9226 31.3349 52.0053 23.074 56.0473C19.8022 53.4061 19.0205 47.3012 20.2905 42.5395C21.5601 37.7779 24.3791 34.057 27.1294 30.5358C32.0906 24.1838 37.2862 17.7625 43.7344 14.4374C50.1826 11.1128 58.2473 11.5742 63.209 17.9257C62.8896 24.2948 62.5004 30.7771 60.6906 36.7C58.8808 42.6229 55.4046 48.0022 50.7387 49.7792C46.0729 51.5562 40.3092 48.7383 38.6202 42.7538C37.4473 38.5986 38.3864 33.7805 40.3809 30.2059C42.3749 26.6319 45.2931 24.1339 48.3074 22.1455C53.1191 18.9724 58.5874 16.8778 63.881 18.167C69.1742 19.4562 74.1321 24.8219 74.8321 31.835C74.9076 41.9114 71.5555 51.9484 65.8606 58.6985C60.1658 65.4485 52.2228 68.7989 44.6018 67.6659" stroke="white" style="stroke:white;stroke-opacity:1;" stroke-miterlimit="10"/>
<path d="M85.0558 43.15C80.2109 44.8936 74.7845 41.0618 72.5591 35.1442C70.3337 29.2266 71.0514 21.8507 73.7007 16.2425C76.3499 10.6343 80.706 6.67687 85.3973 4.31629M98.9558 41.4528C92.3964 42.2946 84.8634 41.0706 80.8869 34.165C77.8951 28.9689 77.7479 21.6112 79.5452 15.5386C81.3424 9.46601 84.8254 4.50708 88.6167 0.306641M89.0347 25.3126C83.8243 24.6745 78.1448 22.2975 75.637 16.2624C73.7055 11.6147 74.1707 5.72289 75.9973 1.0029M72.4614 17.5458C66.388 16.4638 59.6501 13.134 57.57 5.5591M63.0311 12.1242C57.3444 12.7847 50.8206 11.7626 47.3723 5.78512M49.5895 13.596C44.3878 13.6406 38.3162 11.6176 36.3429 5.29375M43.9283 15.2686C39.5982 17.2405 34.0251 17.5816 31.2031 12.8369C29.2062 9.47892 29.3626 4.56814 30.737 0.708189M62.8622 2.19229C60.3818 9.48597 55.4148 14.7179 50.532 19.4778C47.6316 22.3051 44.6091 25.1265 41.1175 26.3371C37.6259 27.5476 33.5214 26.829 31.054 23.3642C28.678 20.0279 28.3244 14.8488 29.3284 10.474M53.6151 39.8166C58.3257 30.6373 63.4116 21.2719 70.7421 15.8134C78.0726 10.3542 88.2881 9.97676 94.1831 17.8869C98.479 23.6512 99.572 32.3216 99.5489 40.389M64.1423 39.8237C68.2059 34.5372 73.183 29.5812 78.9015 29.4931C84.8855 29.4009 90.3947 35.0497 92.7731 42.2653M72.1685 46.2168C75.318 42.8195 79.7453 40.9743 83.5549 42.8758M54.1558 53.0972C55.8569 50.4994 58.6865 48.8938 61.1381 50.0632M42.2186 52.6804C43.8389 50.5945 46.2456 49.2965 48.4119 50.1801M41.5158 46.1346C43.8624 43.7235 47.4666 42.9433 49.7647 45.4337M74.2395 35.8692C77.9321 26.846 86.613 21.8266 94.1201 24.5964C96.2296 29.6839 96.2151 35.952 94.9023 41.4833M66.4904 41.6377C72.689 29.7602 84.1682 23.0442 95.0341 24.9381C95.4776 35.1636 92.1376 45.5587 86.2512 52.2735M57.2241 47.1866C56.7781 41.6301 58.1963 36.0853 60.1129 31.0976M94.121 27.3914C92.0702 38.5081 85.0351 46.8414 77.6281 52.853M82.6711 19.2635C79.3917 30.9238 71.1472 39.9211 61.8217 42.0175C52.4962 44.1139 42.4438 39.2296 36.4006 29.6645" stroke="white" style="stroke:white;stroke-opacity:1;" stroke-miterlimit="10"/>
<path d="M141.179 193.006C141.179 193.006 171.508 178.359 192.26 178.359C213.013 178.359 222.589 193.006 243.342 193.006C264.095 193.006 274.475 172.639 294.424 178.359C314.372 184.079 325.557 187.286 345.505 193.006C365.454 198.726 375.834 178.359 396.587 178.359" stroke="white" style="stroke:white;stroke-opacity:1;" stroke-width="2" stroke-linecap="round"/>
<path d="M822.48 28.045C822.068 30.5435 824.014 38.0429 819.418 34.7055C809.856 33.8727 816.201 45.8617 822.87 45.5463C820.066 64.5152 842.073 78.1273 851.756 57.129C857.875 46.8501 852.027 25.4778 862.49 14.8857C866.154 8.5991 855.989 9.36117 854.782 5.39719C855.704 2.58744 853.973 -0.0848564 850.668 0.00206398C842.421 3.98827 823.266 -3.44645 819.917 7.11336C809.666 9.61586 813.275 25.9185 820.358 30.7699C820.467 28.514 826.587 28.3563 828.649 27.4426C850.721 17.6772 846.911 24.9381 850.078 26.4845C852.878 27.8509 856.187 24.926 856.51 28.0207C856.83 31.1155 856.106 34.2123 855.386 37.2424C863.99 28.6959 864.311 40.8162 855.386 45.5463" stroke="white" style="stroke:white;stroke-opacity:1;" stroke-width="1.2" stroke-linecap="round" stroke-linejoin="round"/>
<path d="M880.051 193.978L855.804 192.829C855.717 192.173 856.658 192.475 857.113 192.456C861.23 192.286 865.4 192.674 869.51 192.452C883.277 191.71 915.413 187.133 917.312 169.592C917.876 164.366 915.71 160.309 911.784 157.095C915.586 158.666 918.474 158.561 922.185 156.787C924.314 155.769 929.443 151.866 929.443 149.38V142.045C925.487 141.412 926.664 146.276 924.817 148.325C923.832 149.418 919.609 151.139 918.722 149.18C917.665 146.852 924.122 145.763 925.288 144.467C928.691 140.681 920.839 142.557 919.218 142.904C913.672 144.087 909.998 147.459 905.151 143.036C900.071 138.402 895.382 130.705 890.73 125.307C887.951 122.082 885.067 120.443 883.16 116.333C878.238 105.72 879.671 84.1481 870.627 76.9638C865.382 72.7933 850.942 75.1554 848.471 67.9221L847.185 64.0078C845.384 76.9073 863.75 73.0532 869.875 77.7172C878.802 84.5173 877.2 107.084 882.653 117.595C884.616 121.381 887.714 123.355 890.35 126.44C894.167 130.901 897.359 135.976 901.266 140.342C903.117 142.407 906.79 146.573 909.667 146.524L924.55 142.795C924.592 143.394 924.682 143.68 924.167 144.102C922.813 145.206 916.755 146.242 917.564 149.203C918.478 152.548 923.524 150.661 925.321 149.022C927.017 147.477 927.036 145.251 927.563 143.175C929.281 141.921 928.277 149.041 928.149 149.595C927.051 154.36 918.974 157.909 914.405 156.907C911.167 156.199 900.285 151.011 896.871 149.256C891.226 146.359 886.387 142.327 881.716 138.097C873.173 130.359 868.202 125.329 864.998 113.831C864.562 112.271 863.185 103.938 862.343 103.678C860.549 103.128 858.165 109.273 857.665 110.618C852.044 125.781 854.698 144.166 871.955 149.376C882.104 152.439 905.215 152.394 912.341 158.972C918.865 164.992 916.511 174.003 910.656 179.481C897.615 191.676 861.809 192.381 844.922 190.738C844.414 190.689 844.027 190.196 844.151 191.134C844.602 192.045 847.87 192.509 848.953 192.723C860.644 195.021 871.932 195.379 883.108 194.671L882.942 193.884C881.976 193.925 881.01 193.959 880.043 193.978H880.051ZM873.079 148.634C856.473 144.072 853.352 127.371 858.049 112.509C858.575 110.847 859.779 107.528 860.745 106.18C861.114 105.664 861.422 105.049 862.185 105.178C863.607 114.502 866.333 124.116 872.891 131.138C879.178 137.874 886.992 144.622 894.87 149.387L905.771 154.455C895.209 151.203 883.676 151.542 873.083 148.63L873.079 148.634Z" fill="white" style="fill:white;fill-opacity:1;"/>
<path d="M869.515 161.614C863.514 161.09 862.923 164.002 858.779 166.281C853.966 168.926 849.055 162.416 844.046 163.573C840.444 164.405 841.959 172.479 836.913 174.483C832.066 176.408 823.113 172.298 818.472 170.211C810.049 166.417 802.152 161.361 793.436 158.219C799.554 152.685 817.07 148.955 819.912 140.531C821.262 136.527 819.882 131.143 819.179 126.992C818.239 121.42 816.953 114.718 815.415 109.315C815.08 108.136 814.155 104.022 812.779 104.03C811.862 104.109 811.719 105.069 811.455 105.729C809.101 111.617 809.474 117.362 805.619 123.209C799.862 131.942 794.587 134.289 786.554 139.861C781.256 143.534 777.887 148.88 773.111 152.357C771.186 153.759 767.933 153.487 765.376 154.772C763.646 155.639 762.285 157.745 760.965 158.253C759.717 158.735 755.092 159.255 753.873 158.897C753.133 158.679 749.414 153.212 749.18 152.312C749.105 152.033 748.722 149.939 749.658 150.327C752.719 154.113 758.262 156.622 761.65 151.792C762.533 150.534 763.583 149.076 761.326 148.801C758.329 148.435 755.453 149.543 752.482 149.569C752.433 149.227 752.441 149.091 752.659 148.812C753.317 147.98 761.183 144.826 762.612 144.483C765.97 143.673 770.05 143.907 773.247 143.093C773.807 142.95 774.273 142.683 774.645 142.234C778.338 137.194 781.26 131.603 784.862 126.506C787.179 123.228 791.165 119.333 792.752 115.968C797.824 105.212 795.685 80.5401 808.368 75.5483C812.196 74.0414 815.065 74.5386 819.066 73.3331C822.297 72.3611 823.962 71.8111 825.339 70.3456C827.873 67.6444 828.102 63.6397 828.001 63.6095C827.922 63.5869 827.501 65.8813 826.677 67.5427C823.293 74.3767 813.234 71.1028 805.935 75.748C794.162 83.2412 797.339 105.066 791.511 116.232C790.164 118.813 787.656 120.824 785.983 123.111C781.655 129.03 778.218 135.566 773.927 141.511C769.956 143.067 765.594 142.555 761.496 143.734C759.773 144.231 753.554 146.729 752.287 147.678C751.158 148.526 751.016 149.645 751.978 150.711L761.496 149.569C760.446 153.258 757.276 154.211 753.843 152.531C752.538 151.89 750.354 149.181 749.662 149.178C748.413 149.17 747.834 151.231 748.041 152.293C748.229 153.25 752.275 159.251 753.091 159.677C755.084 160.717 757.874 159.591 759.991 159.349C758.931 161.99 756.491 165.159 756.637 168.135C756.942 174.457 768.245 181.98 773.45 184.436C776.27 185.766 784.757 189.609 786.483 185.683C788.499 176.815 788.799 167.453 792.165 158.939C794.007 158.551 814.885 169.725 818.472 171.33C824.489 174.023 837.68 180.145 841.339 171.382C842.144 169.453 842.012 165.264 844.422 164.692C849.521 163.486 853.252 170.384 859.445 166.937C863.442 164.714 864.367 162.201 869.891 162.733C871.173 162.857 878.04 164.725 876.844 166.485C872.866 167.886 869.82 166.899 866.319 169.683C861.63 173.409 860.144 175.941 854.18 178.974C829.133 191.711 792.902 190.686 761.954 187.669V188.501C791.217 191.097 838.282 194.088 861.938 175.459C865.1 172.968 866.857 169.269 871.109 168.463C873.227 168.063 875.558 168.485 877.604 167.065C880.484 164.292 871.192 161.753 869.515 161.606V161.614ZM767.512 155.032C768.249 154.746 770.231 153.638 770.513 154.832L763 157.842C763.891 156.588 766.064 155.597 767.512 155.028V155.032ZM789.04 165.302C787.637 171.394 787.344 178.921 785.746 184.579C785.095 186.881 783.84 186.636 781.689 186.343C775.258 185.469 760.537 176.525 758.307 170.256C757.235 167.246 758.875 162.137 761.116 159.918C762.022 159.022 764.978 158.464 766.512 157.797C768.136 157.089 771.788 154.365 772.656 154.166C777.451 153.077 786.69 156.347 791.165 158.438C790.251 160.653 789.578 162.97 789.04 165.306V165.302ZM774.269 152.952C778.53 148.635 782.508 143.937 787.521 140.456C790.717 138.237 794.365 136.677 797.365 134.134C803.311 129.098 807.932 122.388 810.151 114.959C810.959 112.246 811.437 108.015 812.505 105.653C812.738 105.141 812.542 105.062 813.343 105.175C814.159 109.319 815.351 113.38 816.242 117.513C817.386 122.806 820.085 134.236 819.269 139.134C818.578 143.274 812.046 147.226 808.575 149.117C803.262 152.014 797.204 153.597 792.402 157.405C786.498 155.409 780.591 153.178 774.273 152.952H774.269Z" fill="white" style="fill:white;fill-opacity:1;"/>
</g>
<defs>
<clipPath id="clip0_348_1032">
<rect width="929.443" height="195.479" fill="white" style="fill:white;fill-opacity:1;"/>
</clipPath>
</defs>
</svg>
