<svg width="930" height="196" viewBox="0 0 930 196" fill="none" xmlns="http://www.w3.org/2000/svg">
<g clip-path="url(#clip0_348_1053)">
<path d="M3.08594 193.523C4.91521 158.757 8.36809 152.285 10.0839 128.471C10.6217 121.008 14.5464 113.81 19.8651 110.067C28.0013 104.34 39.0522 104.015 47.2998 98.5296C51.0266 96.0506 53.746 91.4283 54.4786 86.3259C55.2265 81.1157 53.8868 75.5166 50.9462 71.6272C43.9874 57.5827 40.7184 40.8517 41.765 24.4863" stroke="white" style="stroke:white;stroke-opacity:1;" stroke-miterlimit="10"/>
<path d="M27.1067 193.523C27.1067 177.964 28.5555 164.183 29.9878 150.674C30.3643 164.911 30.7413 179.149 31.1179 193.387" stroke="white" style="stroke:white;stroke-opacity:1;" stroke-miterlimit="10"/>
<path d="M117.671 193.524C117.671 177.25 116.105 161.141 114.633 147.678C114.23 162.914 113.827 178.151 113.424 193.387" stroke="white" style="stroke:white;stroke-opacity:1;" stroke-miterlimit="10"/>
<path d="M40.9998 33.3296C39.7358 32.5496 38.1765 32.5246 36.8964 33.2643C35.6163 34.004 34.6441 35.4924 34.338 37.1798C33.8923 39.6371 34.8041 42.1257 35.6924 44.3973C36.529 46.5362 37.3656 48.6757 38.2022 50.8146C38.7431 52.1979 39.3631 53.6815 40.4954 54.3464C41.6272 55.0113 43.3526 54.2243 43.3391 52.6914" stroke="white" style="stroke:white;stroke-opacity:1;" stroke-miterlimit="10"/>
<path d="M138.4 193.523C136.571 158.757 132.881 152.285 131.165 128.471C130.628 121.008 126.703 113.81 121.384 110.067C113.248 104.34 102.197 104.015 93.9495 98.5296C90.2227 96.0506 87.5034 91.4283 86.7707 86.3259C86.0229 81.1157 87.3625 75.5166 90.3032 71.6272C97.262 57.5827 100.531 40.8517 99.4843 24.4863" stroke="white" style="stroke:white;stroke-opacity:1;" stroke-miterlimit="10"/>
<path d="M100.251 33.3296C101.515 32.5496 103.074 32.5246 104.354 33.2643C105.634 34.004 106.606 35.4924 106.912 37.1798C107.358 39.6371 106.446 42.1257 105.558 44.3973C104.721 46.5362 103.885 48.6757 103.048 50.8146C102.507 52.1979 101.887 53.6815 100.755 54.3464C99.6231 55.0113 97.8977 54.2243 97.9112 52.6914" stroke="white" style="stroke:white;stroke-opacity:1;" stroke-miterlimit="10"/>
<path d="M43.6816 36.2598C39.5639 28.1005 42.3719 15.7519 48.9073 11.0493C55.4427 6.34674 64.3144 9.24108 69.0499 16.8C73.7854 24.3583 74.4343 35.5827 71.3805 44.5126C69.3817 50.3572 65.4908 55.6107 60.6352 56.2134C55.7981 56.8139 51.072 52.387 49.2103 46.491C47.3485 40.5944 48.0707 33.6498 50.3668 28.0238C52.6625 22.3977 56.3842 17.968 60.4495 14.472C65.306 10.2955 71.3465 7.24941 76.8638 9.61831C83.0016 12.2537 86.6482 21.1294 86.764 29.6123C86.8798 38.0952 84.1403 46.1928 80.921 53.5475M55.9158 63.7452C54.5994 60.1939 54.9034 55.8956 56.0623 52.2509C57.2213 48.6055 59.1516 45.4891 61.1003 42.4805C66.473 34.1851 72.53 25.9796 80.3921 22.5229C88.2542 19.0668 98.3175 21.9657 102.168 31.6114C104.499 37.4509 104.166 44.6026 102.547 50.844M63.7959 56.2267C65.3211 51.6631 67.9613 47.9209 70.6474 44.4024C76.2389 37.0789 82.4397 30.1533 89.8858 26.7047C97.332 23.256 106.28 23.8691 112.333 30.5311M83.8529 50.9721C87.7707 43.5488 94.0948 39.0215 100.349 35.2689M90.5986 59.864C91.5151 55.3788 93.6609 51.5039 95.9986 48.0206M106.9 47.163C103.473 39.2695 105.167 28.8446 109.42 21.6773M102.605 51.2611C97.1637 50.9092 91.249 49.0918 87.9886 43.3578C84.1024 36.5234 85.5686 26.328 89.6623 19.7058C93.7559 13.0837 99.8536 9.25205 105.811 5.85992M83.1472 50.513C78.9349 49.3369 74.5808 47.0655 72.1892 42.36C68.754 35.6011 70.7046 25.9871 74.9585 20.086C79.2124 14.1848 85.2018 11.1168 90.9838 8.2265C94.2971 6.56995 97.6855 4.89321 101.229 4.73229C104.772 4.57136 108.561 6.19907 110.616 9.99495C112.462 13.4044 112.608 18.0516 111.592 22.0171C110.576 25.9825 108.531 29.3562 106.271 32.3036C93.9185 48.4123 73.6478 52.8853 57.968 42.9622C56.6361 35.2176 59.0849 26.9884 63.0694 21.0192C67.0539 15.0494 72.4104 10.9842 77.7949 7.3792C82.9582 3.92247 88.5827 0.708 94.3406 1.56742C103.528 2.93904 110.391 15.3539 110.061 27.4949C109.731 39.6364 103.322 50.577 95.1384 56.2307C88.2268 61.0054 78.8172 61.9508 73.3127 54.674C67.7666 47.3412 68.711 34.4914 73.4663 26.2553C78.2217 18.0193 85.7534 13.4684 93.1589 9.97592C97.522 7.9185 102.069 6.0941 106.7 6.37961M114.794 18.1854C109.689 21.9819 105.13 26.9106 100.227 31.1442C94.2371 36.3175 87.7258 40.4491 80.9177 43.3982C74.9325 45.9909 68.4803 47.67 62.3406 45.8029C56.2008 43.9358 50.4864 37.8022 49.4319 29.6388C48.056 18.9883 55.307 8.81598 63.4045 6.94314C71.502 5.07086 79.7436 9.66214 86.3759 16.0467C93.0082 22.4318 98.5259 30.6003 104.915 37.399M66.731 53.1016C60.4514 58.1018 53.3186 62.1481 46.0009 61.3527C38.5585 60.5434 31.5827 54.3711 28.2131 45.6148C24.8436 36.8585 25.1962 25.8181 29.1121 17.4633C35.5322 3.76616 50.0733 -0.475581 61.7096 4.52637C73.3458 9.5289 82.3607 21.825 89.2156 35.1535C93.5555 43.592 97.341 52.7729 103.226 59.4002M98.3482 25.907C90.0049 33.6481 82.9496 43.7051 74.2013 50.6318C65.4535 57.5585 53.9576 60.9016 45.1492 54.1093C36.1518 47.171 32.9033 30.29 37.7267 18.1352C42.5501 5.98047 54.3159 -0.23621 64.4046 3.2557C71.8295 5.82531 78.0747 12.9608 81.9098 21.701C85.7449 30.4411 87.3189 40.6665 87.3864 50.7546C80.5661 63.1926 66.4437 67.5036 56.1483 60.2914C51.1751 56.8069 47.1736 50.979 45.0627 44.1129C42.0808 34.4147 43.0634 22.7842 47.5914 14.1819C52.1194 5.57902 60.0548 0.266178 68.0133 0.509585C71.7865 2.47299 73.7613 8.34475 73.3614 13.6512C72.9611 18.9577 70.6451 23.7007 67.9297 27.6639C60.8734 37.9637 50.6022 44.3424 40.0658 44.9688C36.1863 45.1995 32.1446 44.6239 28.7992 42.033C25.4542 39.4414 22.97 34.4839 23.4043 29.4139C28.1763 11.6734 42.3833 -0.862609 56.6872 0.0464182C58.6009 11.1451 57.347 23.1355 53.2269 33.1446C49.1067 43.1542 42.1554 51.0955 34.039 55.0668C30.8245 52.4718 30.0565 46.4737 31.3043 41.7953C32.5516 37.1169 35.3213 33.4612 38.0235 30.0016C42.898 23.7607 48.0026 17.4517 54.3381 14.1848C60.6735 10.9184 68.5971 11.3718 73.472 17.6121C73.1582 23.8697 72.7758 30.2387 70.9977 36.0579C69.2195 41.8772 65.8042 47.1624 61.2199 48.9083C56.6356 50.6543 50.9728 47.8857 49.3133 42.0058C48.161 37.9233 49.0836 33.1896 51.0432 29.6775C53.0023 26.1659 55.8695 23.7117 58.8311 21.7581C63.5586 18.6405 68.9312 16.5825 74.1323 17.8492C79.3329 19.1158 84.2041 24.3877 84.8918 31.2781C84.966 41.1781 81.6725 51.0396 76.0773 57.6716C70.482 64.3035 62.678 67.5953 55.1903 66.4821" stroke="white" style="stroke:white;stroke-opacity:1;" stroke-miterlimit="10"/>
<path d="M138.763 193.025C138.763 193.025 168.562 178.634 188.951 178.634C209.341 178.634 218.75 193.025 239.139 193.025C259.529 193.025 269.728 173.014 289.328 178.634C308.927 184.254 319.916 187.405 339.516 193.025C359.115 198.645 369.314 178.634 389.704 178.634C410.093 178.634 419.502 193.025 439.892 193.025" stroke="white" style="stroke:white;stroke-opacity:1;" stroke-width="2" stroke-linecap="round"/>
<path d="M822.48 28.045C822.068 30.5435 824.014 38.0429 819.418 34.7055C809.856 33.8727 816.201 45.8617 822.87 45.5463C820.066 64.5152 842.073 78.1273 851.756 57.129C857.875 46.8501 852.027 25.4778 862.49 14.8857C866.154 8.5991 855.989 9.36117 854.782 5.39719C855.704 2.58744 853.973 -0.0848564 850.668 0.00206398C842.421 3.98827 823.266 -3.44645 819.917 7.11336C809.666 9.61586 813.275 25.9185 820.358 30.7699C820.467 28.514 826.587 28.3563 828.649 27.4426C850.721 17.6772 846.911 24.9381 850.078 26.4845C852.878 27.8509 856.187 24.926 856.51 28.0207C856.83 31.1155 856.106 34.2123 855.386 37.2424C863.99 28.6959 864.311 40.8162 855.386 45.5463" stroke="white" style="stroke:white;stroke-opacity:1;" stroke-width="1.2" stroke-linecap="round" stroke-linejoin="round"/>
<path d="M880.051 193.978L855.804 192.829C855.717 192.173 856.658 192.475 857.113 192.456C861.23 192.286 865.4 192.674 869.51 192.452C883.277 191.71 915.413 187.133 917.312 169.592C917.876 164.366 915.71 160.309 911.784 157.095C915.586 158.666 918.474 158.561 922.185 156.787C924.314 155.769 929.443 151.866 929.443 149.38V142.045C925.487 141.412 926.664 146.276 924.817 148.325C923.832 149.418 919.609 151.139 918.722 149.18C917.665 146.852 924.122 145.763 925.288 144.467C928.691 140.681 920.839 142.557 919.218 142.904C913.672 144.087 909.998 147.459 905.151 143.036C900.071 138.402 895.382 130.705 890.73 125.307C887.951 122.082 885.067 120.443 883.16 116.333C878.238 105.72 879.671 84.1481 870.627 76.9638C865.382 72.7933 850.942 75.1554 848.471 67.9221L847.185 64.0078C845.384 76.9073 863.75 73.0532 869.875 77.7172C878.802 84.5173 877.2 107.084 882.653 117.595C884.616 121.381 887.714 123.355 890.35 126.44C894.167 130.901 897.359 135.976 901.266 140.342C903.117 142.407 906.79 146.573 909.667 146.524L924.55 142.795C924.592 143.394 924.682 143.68 924.167 144.102C922.813 145.206 916.755 146.242 917.564 149.203C918.478 152.548 923.524 150.661 925.321 149.022C927.017 147.477 927.036 145.251 927.563 143.175C929.281 141.921 928.277 149.041 928.149 149.595C927.051 154.36 918.974 157.909 914.405 156.907C911.167 156.199 900.285 151.011 896.871 149.256C891.226 146.359 886.387 142.327 881.716 138.097C873.173 130.359 868.202 125.329 864.998 113.831C864.562 112.271 863.185 103.938 862.343 103.678C860.549 103.128 858.165 109.273 857.665 110.618C852.044 125.781 854.698 144.166 871.955 149.376C882.104 152.439 905.215 152.394 912.341 158.972C918.865 164.992 916.511 174.003 910.656 179.481C897.615 191.676 861.809 192.381 844.922 190.738C844.414 190.689 844.027 190.196 844.151 191.134C844.602 192.045 847.87 192.509 848.953 192.723C860.644 195.021 871.932 195.379 883.108 194.671L882.942 193.884C881.976 193.925 881.01 193.959 880.043 193.978H880.051ZM873.079 148.634C856.473 144.072 853.352 127.371 858.049 112.509C858.575 110.847 859.779 107.528 860.745 106.18C861.114 105.664 861.422 105.049 862.185 105.178C863.607 114.502 866.333 124.116 872.891 131.138C879.178 137.874 886.992 144.622 894.87 149.387L905.771 154.455C895.209 151.203 883.676 151.542 873.083 148.63L873.079 148.634Z" fill="white" style="fill:white;fill-opacity:1;"/>
<path d="M869.515 161.614C863.514 161.09 862.923 164.002 858.779 166.281C853.966 168.926 849.055 162.416 844.046 163.573C840.444 164.405 841.959 172.479 836.913 174.483C832.066 176.408 823.113 172.298 818.472 170.211C810.049 166.417 802.152 161.361 793.436 158.219C799.554 152.685 817.07 148.955 819.912 140.531C821.262 136.527 819.882 131.143 819.179 126.992C818.239 121.42 816.953 114.718 815.415 109.315C815.08 108.136 814.155 104.022 812.779 104.03C811.862 104.109 811.719 105.069 811.455 105.729C809.101 111.617 809.474 117.362 805.619 123.209C799.862 131.942 794.587 134.289 786.554 139.861C781.256 143.534 777.887 148.88 773.111 152.357C771.186 153.759 767.933 153.487 765.376 154.772C763.646 155.639 762.285 157.745 760.965 158.253C759.717 158.735 755.092 159.255 753.873 158.897C753.133 158.679 749.414 153.212 749.18 152.312C749.105 152.033 748.722 149.939 749.658 150.327C752.719 154.113 758.262 156.622 761.65 151.792C762.533 150.534 763.583 149.076 761.326 148.801C758.329 148.435 755.453 149.543 752.482 149.569C752.433 149.227 752.441 149.091 752.659 148.812C753.317 147.98 761.183 144.826 762.612 144.483C765.97 143.673 770.05 143.907 773.247 143.093C773.807 142.95 774.273 142.683 774.645 142.234C778.338 137.194 781.26 131.603 784.862 126.506C787.179 123.228 791.165 119.333 792.752 115.968C797.824 105.212 795.685 80.5401 808.368 75.5483C812.196 74.0414 815.065 74.5386 819.066 73.3331C822.297 72.3611 823.962 71.8111 825.339 70.3456C827.873 67.6444 828.102 63.6397 828.001 63.6095C827.922 63.5869 827.501 65.8813 826.677 67.5427C823.293 74.3767 813.234 71.1028 805.935 75.748C794.162 83.2412 797.339 105.066 791.511 116.232C790.164 118.813 787.656 120.824 785.983 123.111C781.655 129.03 778.218 135.566 773.927 141.511C769.956 143.067 765.594 142.555 761.496 143.734C759.773 144.231 753.554 146.729 752.287 147.678C751.158 148.526 751.016 149.645 751.978 150.711L761.496 149.569C760.446 153.258 757.276 154.211 753.843 152.531C752.538 151.89 750.354 149.181 749.662 149.178C748.413 149.17 747.834 151.231 748.041 152.293C748.229 153.25 752.275 159.251 753.091 159.677C755.084 160.717 757.874 159.591 759.991 159.349C758.931 161.99 756.491 165.159 756.637 168.135C756.942 174.457 768.245 181.98 773.45 184.436C776.27 185.766 784.757 189.609 786.483 185.683C788.499 176.815 788.799 167.453 792.165 158.939C794.007 158.551 814.885 169.725 818.472 171.33C824.489 174.023 837.68 180.145 841.339 171.382C842.144 169.453 842.012 165.264 844.422 164.692C849.521 163.486 853.252 170.384 859.445 166.937C863.442 164.714 864.367 162.201 869.891 162.733C871.173 162.857 878.04 164.725 876.844 166.485C872.866 167.886 869.82 166.899 866.319 169.683C861.63 173.409 860.144 175.941 854.18 178.974C829.133 191.711 792.902 190.686 761.954 187.669V188.501C791.217 191.097 838.282 194.088 861.938 175.459C865.1 172.968 866.857 169.269 871.109 168.463C873.227 168.063 875.558 168.485 877.604 167.065C880.484 164.292 871.192 161.753 869.515 161.606V161.614ZM767.512 155.032C768.249 154.746 770.231 153.638 770.513 154.832L763 157.842C763.891 156.588 766.064 155.597 767.512 155.028V155.032ZM789.04 165.302C787.637 171.394 787.344 178.921 785.746 184.579C785.095 186.881 783.84 186.636 781.689 186.343C775.258 185.469 760.537 176.525 758.307 170.256C757.235 167.246 758.875 162.137 761.116 159.918C762.022 159.022 764.978 158.464 766.512 157.797C768.136 157.089 771.788 154.365 772.656 154.166C777.451 153.077 786.69 156.347 791.165 158.438C790.251 160.653 789.578 162.97 789.04 165.306V165.302ZM774.269 152.952C778.53 148.635 782.508 143.937 787.521 140.456C790.717 138.237 794.365 136.677 797.365 134.134C803.311 129.098 807.932 122.388 810.151 114.959C810.959 112.246 811.437 108.015 812.505 105.653C812.738 105.141 812.542 105.062 813.343 105.175C814.159 109.319 815.351 113.38 816.242 117.513C817.386 122.806 820.085 134.236 819.269 139.134C818.578 143.274 812.046 147.226 808.575 149.117C803.262 152.014 797.204 153.597 792.402 157.405C786.498 155.409 780.591 153.178 774.273 152.952H774.269Z" fill="white" style="fill:white;fill-opacity:1;"/>
</g>
<defs>
<clipPath id="clip0_348_1053">
<rect width="929.443" height="195.479" fill="white" style="fill:white;fill-opacity:1;"/>
</clipPath>
</defs>
</svg>
