<svg width="930" height="198" viewBox="0 0 930 198" fill="none" xmlns="http://www.w3.org/2000/svg">
<path d="M3.08594 196.041C4.70268 165.314 7.75439 159.594 9.27084 138.547C9.74621 131.95 13.2149 125.589 17.9156 122.28C25.1066 117.219 34.8736 116.932 42.1629 112.084C45.4568 109.892 47.8602 105.807 48.5077 101.298C49.1687 96.6928 47.9847 91.7442 45.3857 88.3066C39.2354 75.8938 36.3462 61.1066 37.2712 46.6426" stroke="#2563EB" style="stroke:#2563EB;stroke:color(display-p3 0.1451 0.3882 0.9216);stroke-opacity:1;" stroke-miterlimit="10"/>
<path d="M24.3159 196.041C24.3159 182.289 25.5964 170.11 26.8623 158.17C27.1951 170.753 27.5283 183.337 27.8611 195.92" stroke="#2563EB" style="stroke:#2563EB;stroke:color(display-p3 0.1451 0.3882 0.9216);stroke-opacity:1;" stroke-miterlimit="10"/>
<path d="M104.358 196.041C104.358 181.658 102.974 167.42 101.673 155.521C101.317 168.988 100.96 182.455 100.604 195.921" stroke="#2563EB" style="stroke:#2563EB;stroke:color(display-p3 0.1451 0.3882 0.9216);stroke-opacity:1;" stroke-miterlimit="10"/>
<path d="M36.5948 54.4587C35.4777 53.7694 34.0996 53.7473 32.9682 54.4011C31.8368 55.0548 30.9775 56.3703 30.707 57.8616C30.3131 60.0334 31.1189 62.2329 31.9041 64.2406C32.6435 66.131 33.3828 68.0219 34.1222 69.9123C34.6003 71.1349 35.1483 72.4462 36.149 73.0338C37.1493 73.6214 38.6742 72.926 38.6623 71.5711" stroke="#2563EB" style="stroke:#2563EB;stroke:color(display-p3 0.1451 0.3882 0.9216);stroke-opacity:1;" stroke-miterlimit="10"/>
<path d="M122.679 196.041C121.062 165.314 117.801 159.594 116.285 138.547C115.81 131.95 112.341 125.589 107.64 122.28C100.449 117.219 90.6822 116.932 83.3928 112.084C80.099 109.892 77.6956 105.807 77.0481 101.298C76.3871 96.6928 77.5711 91.7442 80.1701 88.3066C86.3204 75.8938 89.2096 61.1066 88.2846 46.6426" stroke="#2563EB" style="stroke:#2563EB;stroke:color(display-p3 0.1451 0.3882 0.9216);stroke-opacity:1;" stroke-miterlimit="10"/>
<path d="M88.9616 54.4587C90.0788 53.7694 91.4569 53.7473 92.5883 54.4011C93.7196 55.0548 94.5789 56.3703 94.8495 57.8616C95.2434 60.0334 94.4375 62.2329 93.6524 64.2406C92.913 66.131 92.1736 68.0219 91.4342 69.9123C90.9561 71.1349 90.4081 72.4462 89.4074 73.0338C88.4071 73.6214 86.8822 72.926 86.8941 71.5711" stroke="#2563EB" style="stroke:#2563EB;stroke:color(display-p3 0.1451 0.3882 0.9216);stroke-opacity:1;" stroke-miterlimit="10"/>
<path d="M38.9651 57.0472C35.3257 49.8358 37.8075 38.9219 43.5836 34.7656C49.3597 30.6094 57.2006 33.1675 61.386 39.8481C65.5713 46.5283 66.1448 56.4487 63.4458 64.3411C61.6792 69.5067 58.2404 74.1498 53.9489 74.6826C49.6738 75.2132 45.4968 71.3007 43.8514 66.0897C42.2059 60.8782 42.8442 54.7404 44.8736 49.768C46.9025 44.7956 50.1918 40.8805 53.7848 37.7907C58.077 34.0993 63.4157 31.4072 68.292 33.5009C73.7168 35.83 76.9396 43.6746 77.042 51.1719C77.1443 58.6693 74.7231 65.8261 71.8779 72.3263M49.7778 81.3393C48.6144 78.2006 48.883 74.4017 49.9073 71.1803C50.9316 67.9585 52.6377 65.2042 54.36 62.5452C59.1084 55.2135 64.4618 47.9613 71.4104 44.9062C78.3591 41.8516 87.2532 44.4137 90.6565 52.9388C92.7168 58.0999 92.4223 64.4206 90.9915 69.937M56.7424 74.6943C58.0904 70.6609 60.4239 67.3534 62.7979 64.2437C67.7398 57.771 73.2201 51.6501 79.8011 48.6021C86.3822 45.5541 94.2908 46.096 99.64 51.984M74.4691 70.0502C77.9318 63.4893 83.5211 59.488 89.049 56.1714M80.4311 77.909C81.2411 73.9449 83.1376 70.5202 85.2038 67.4416M94.8389 66.6836C91.8095 59.7072 93.3071 50.4934 97.0659 44.1589M91.0425 70.3056C86.2335 69.9946 81.0059 68.3883 78.1243 63.3205C74.6897 57.2801 75.9855 48.2692 79.6036 42.4164C83.2216 36.5636 88.6108 33.1771 93.8764 30.1791M73.8454 69.6444C70.1225 68.6049 66.2743 66.5974 64.1606 62.4386C61.1244 56.465 62.8485 47.968 66.6081 42.7524C70.3678 37.5368 75.6614 34.8253 80.7716 32.2707C83.6999 30.8067 86.6947 29.3247 89.826 29.1825C92.9574 29.0403 96.3069 30.4789 98.1228 33.8337C99.754 36.8471 99.8831 40.9544 98.9854 44.4591C98.0873 47.9639 96.2801 50.9456 94.2825 53.5506C83.3653 67.7878 65.4497 71.7411 51.5916 62.9708C50.4144 56.126 52.5788 48.8529 56.1003 43.5772C59.6218 38.301 64.3561 34.708 69.115 31.5219C73.6783 28.4668 78.6494 25.6257 83.7383 26.3853C91.8584 27.5976 97.9239 38.5701 97.6323 49.3005C97.3408 60.0314 91.6766 69.701 84.4435 74.6978C78.3349 78.9178 70.0185 79.7533 65.1535 73.3219C60.2518 66.8411 61.0864 55.4842 65.2893 48.205C69.4922 40.9258 76.1489 36.9036 82.694 33.8169C86.5501 31.9985 90.5688 30.3861 94.6614 30.6384M101.816 41.0726C97.3036 44.428 93.2741 48.7841 88.9413 52.5259C83.6469 57.0981 77.8921 60.7497 71.875 63.3562C66.5851 65.6477 60.8826 67.1317 55.4561 65.4815C50.0297 63.8313 44.9792 58.4103 44.0473 51.1954C42.8312 41.7823 49.2398 32.7917 56.3965 31.1365C63.5532 29.4817 70.8373 33.5396 76.699 39.1824C82.5607 44.8257 87.4374 52.0452 93.0844 58.054M59.3365 71.9323C53.7864 76.3516 47.4823 79.9277 41.0149 79.2247C34.4372 78.5095 28.2718 73.0543 25.2937 65.3153C22.3156 57.5763 22.6273 47.8186 26.0882 40.4344C31.7624 28.3286 44.6141 24.5797 54.8985 29.0005C65.1828 33.4218 73.1503 44.2894 79.2088 56.0694C83.0445 63.5275 86.3901 71.6417 91.5918 77.4991M87.2803 47.8971C79.9064 54.7389 73.6708 63.6274 65.9389 69.7494C58.2074 75.8714 48.0471 78.8261 40.2621 72.8229C32.3101 66.6907 29.4389 51.7709 33.702 41.0283C37.965 30.2857 48.3638 24.7912 57.2804 27.8775C63.8427 30.1485 69.3623 36.455 72.7518 44.1798C76.1413 51.9045 77.5324 60.9419 77.5921 69.858C71.5642 80.8509 59.0825 84.661 49.9833 78.2867C45.5879 75.2071 42.0513 70.0563 40.1857 63.9878C37.5502 55.4164 38.4187 45.1371 42.4206 37.5342C46.4225 29.9308 53.436 25.2353 60.4698 25.4504C63.8047 27.1857 65.55 32.3753 65.1966 37.0652C64.8427 41.7552 62.7958 45.9472 60.3959 49.4499C54.1595 58.5531 45.0816 64.1907 35.7694 64.7444C32.3405 64.9483 28.7685 64.4395 25.8117 62.1496C22.8554 59.8591 20.6597 55.4775 21.0436 50.9966C25.2611 35.3172 37.8175 24.2376 50.4596 25.041C52.151 34.8502 51.0427 45.4476 47.4013 54.2938C43.7599 63.1406 37.6162 70.1593 30.4428 73.6691C27.6017 71.3756 26.9229 66.0744 28.0257 61.9395C29.1281 57.8047 31.5761 54.5737 33.9643 51.516C38.2724 46.0002 42.784 40.4242 48.3834 37.5368C53.9828 34.6499 60.9858 35.0506 65.2943 40.5659C65.0169 46.0965 64.679 51.7255 63.1075 56.8687C61.5359 62.0119 58.5173 66.6831 54.4657 68.2262C50.414 69.7693 45.4091 67.3223 43.9424 62.1256C42.924 58.5174 43.7394 54.3336 45.4713 51.2295C47.2029 48.126 49.7369 45.9569 52.3544 44.2302C56.5327 41.4749 61.2811 39.656 65.8779 40.7754C70.4743 41.8949 74.7795 46.5543 75.3873 52.6442C75.4529 61.3941 72.5421 70.1098 67.5969 75.9713C62.6517 81.8327 55.7544 84.7421 49.1366 83.7582" stroke="#2563EB" style="stroke:#2563EB;stroke:color(display-p3 0.1451 0.3882 0.9216);stroke-opacity:1;" stroke-miterlimit="10"/>
<path d="M123 195.599C123 195.599 149.337 182.88 167.357 182.88C185.378 182.88 193.694 195.599 211.714 195.599C229.735 195.599 238.749 177.913 256.071 182.88C273.394 187.847 283.106 190.632 300.429 195.599C317.751 200.566 326.765 182.88 344.786 182.88C362.806 182.88 371.122 195.599 389.143 195.599" stroke="#2563EB" style="stroke:#2563EB;stroke:color(display-p3 0.1451 0.3882 0.9216);stroke-opacity:1;" stroke-width="2" stroke-linecap="round"/>
<path d="M822.48 29.045C822.068 31.5435 824.014 39.0429 819.418 35.7055C809.856 34.8727 816.201 46.8617 822.87 46.5463C820.066 65.5152 842.073 79.1273 851.756 58.129C857.875 47.8501 852.027 26.4778 862.49 15.8857C866.154 9.5991 855.989 10.3612 854.782 6.39719C855.704 3.58744 853.973 0.915144 850.668 1.00206C842.421 4.98827 823.266 -2.44645 819.917 8.11336C809.666 10.6159 813.275 26.9185 820.358 31.7699C820.467 29.514 826.587 29.3563 828.649 28.4426C850.721 18.6772 846.911 25.9381 850.078 27.4845C852.878 28.8509 856.187 25.926 856.51 29.0207C856.83 32.1155 856.106 35.2123 855.386 38.2424C863.99 29.6959 864.311 41.8162 855.386 46.5463" stroke="#2563EB" style="stroke:#2563EB;stroke:color(display-p3 0.1451 0.3882 0.9216);stroke-opacity:1;" stroke-width="1.2" stroke-linecap="round" stroke-linejoin="round"/>
<path d="M880.051 194.978L855.804 193.829C855.717 193.173 856.658 193.475 857.113 193.456C861.23 193.286 865.4 193.674 869.51 193.452C883.277 192.71 915.413 188.133 917.312 170.592C917.876 165.366 915.71 161.309 911.784 158.095C915.586 159.666 918.474 159.561 922.185 157.787C924.314 156.769 929.443 152.866 929.443 150.38V143.045C925.487 142.412 926.664 147.276 924.817 149.325C923.832 150.418 919.609 152.139 918.722 150.18C917.665 147.852 924.122 146.763 925.288 145.467C928.691 141.681 920.839 143.557 919.218 143.904C913.672 145.087 909.998 148.459 905.151 144.036C900.071 139.402 895.382 131.705 890.73 126.307C887.951 123.082 885.067 121.443 883.16 117.333C878.238 106.72 879.671 85.1481 870.627 77.9638C865.382 73.7933 850.942 76.1554 848.471 68.9221L847.185 65.0078C845.384 77.9073 863.75 74.0532 869.875 78.7172C878.802 85.5173 877.2 108.084 882.653 118.595C884.616 122.381 887.714 124.355 890.35 127.44C894.167 131.901 897.359 136.976 901.266 141.342C903.117 143.407 906.79 147.573 909.667 147.524L924.55 143.795C924.592 144.394 924.682 144.68 924.167 145.102C922.813 146.206 916.755 147.242 917.564 150.203C918.478 153.548 923.524 151.661 925.321 150.022C927.017 148.477 927.036 146.251 927.563 144.175C929.281 142.921 928.277 150.041 928.149 150.595C927.051 155.36 918.974 158.909 914.405 157.907C911.167 157.199 900.285 152.011 896.871 150.256C891.226 147.359 886.387 143.327 881.716 139.097C873.173 131.359 868.202 126.329 864.998 114.831C864.562 113.271 863.185 104.938 862.343 104.678C860.549 104.128 858.165 110.273 857.665 111.618C852.044 126.781 854.698 145.166 871.955 150.376C882.104 153.439 905.215 153.394 912.341 159.972C918.865 165.992 916.511 175.003 910.656 180.481C897.615 192.676 861.809 193.381 844.922 191.738C844.414 191.689 844.027 191.196 844.151 192.134C844.602 193.045 847.87 193.509 848.953 193.723C860.644 196.021 871.932 196.379 883.108 195.671L882.942 194.884C881.976 194.925 881.01 194.959 880.043 194.978H880.051ZM873.079 149.634C856.473 145.072 853.352 128.371 858.049 113.509C858.575 111.847 859.779 108.528 860.745 107.18C861.114 106.664 861.422 106.049 862.185 106.178C863.607 115.502 866.333 125.116 872.891 132.138C879.178 138.874 886.992 145.622 894.87 150.387L905.771 155.455C895.209 152.203 883.676 152.542 873.083 149.63L873.079 149.634Z" fill="#2563EB" style="fill:#2563EB;fill:color(display-p3 0.1451 0.3882 0.9216);fill-opacity:1;"/>
<path d="M869.515 162.614C863.514 162.09 862.923 165.002 858.779 167.281C853.966 169.926 849.055 163.416 844.046 164.573C840.444 165.405 841.959 173.479 836.913 175.483C832.066 177.408 823.113 173.298 818.472 171.211C810.049 167.417 802.152 162.361 793.436 159.219C799.554 153.685 817.07 149.955 819.912 141.531C821.262 137.527 819.882 132.143 819.179 127.992C818.239 122.42 816.953 115.718 815.415 110.315C815.08 109.136 814.155 105.022 812.779 105.03C811.862 105.109 811.719 106.069 811.455 106.729C809.101 112.617 809.474 118.362 805.619 124.209C799.862 132.942 794.587 135.289 786.554 140.861C781.256 144.534 777.887 149.88 773.111 153.357C771.186 154.759 767.933 154.487 765.376 155.772C763.646 156.639 762.285 158.745 760.965 159.253C759.717 159.735 755.092 160.255 753.873 159.897C753.133 159.679 749.414 154.212 749.18 153.312C749.105 153.033 748.722 150.939 749.658 151.327C752.719 155.113 758.262 157.622 761.65 152.792C762.533 151.534 763.583 150.076 761.326 149.801C758.329 149.435 755.453 150.543 752.482 150.569C752.433 150.227 752.441 150.091 752.659 149.812C753.317 148.98 761.183 145.826 762.612 145.483C765.97 144.673 770.05 144.907 773.247 144.093C773.807 143.95 774.273 143.683 774.645 143.234C778.338 138.194 781.26 132.603 784.862 127.506C787.179 124.228 791.165 120.333 792.752 116.968C797.824 106.212 795.685 81.5401 808.368 76.5483C812.196 75.0414 815.065 75.5386 819.066 74.3331C822.297 73.3611 823.962 72.8111 825.339 71.3456C827.873 68.6444 828.102 64.6397 828.001 64.6095C827.922 64.5869 827.501 66.8813 826.677 68.5427C823.293 75.3767 813.234 72.1028 805.935 76.748C794.162 84.2412 797.339 106.066 791.511 117.232C790.164 119.813 787.656 121.824 785.983 124.111C781.655 130.03 778.218 136.566 773.927 142.511C769.956 144.067 765.594 143.555 761.496 144.734C759.773 145.231 753.554 147.729 752.287 148.678C751.158 149.526 751.016 150.645 751.978 151.711L761.496 150.569C760.446 154.258 757.276 155.211 753.843 153.531C752.538 152.89 750.354 150.181 749.662 150.178C748.413 150.17 747.834 152.231 748.041 153.293C748.229 154.25 752.275 160.251 753.091 160.677C755.084 161.717 757.874 160.591 759.991 160.349C758.931 162.99 756.491 166.159 756.637 169.135C756.942 175.457 768.245 182.98 773.45 185.436C776.27 186.766 784.757 190.609 786.483 186.683C788.499 177.815 788.799 168.453 792.165 159.939C794.007 159.551 814.885 170.725 818.472 172.33C824.489 175.023 837.68 181.145 841.339 172.382C842.144 170.453 842.012 166.264 844.422 165.692C849.521 164.486 853.252 171.384 859.445 167.937C863.442 165.714 864.367 163.201 869.891 163.733C871.173 163.857 878.04 165.725 876.844 167.485C872.866 168.886 869.82 167.899 866.319 170.683C861.63 174.409 860.144 176.941 854.18 179.974C829.133 192.711 792.902 191.686 761.954 188.669V189.501C791.217 192.097 838.282 195.088 861.938 176.459C865.1 173.968 866.857 170.269 871.109 169.463C873.227 169.063 875.558 169.485 877.604 168.065C880.484 165.292 871.192 162.753 869.515 162.606V162.614ZM767.512 156.032C768.249 155.746 770.231 154.638 770.513 155.832L763 158.842C763.891 157.588 766.064 156.597 767.512 156.028V156.032ZM789.04 166.302C787.637 172.394 787.344 179.921 785.746 185.579C785.095 187.881 783.84 187.636 781.689 187.343C775.258 186.469 760.537 177.525 758.307 171.256C757.235 168.246 758.875 163.137 761.116 160.918C762.022 160.022 764.978 159.464 766.512 158.797C768.136 158.089 771.788 155.365 772.656 155.166C777.451 154.077 786.69 157.347 791.165 159.438C790.251 161.653 789.578 163.97 789.04 166.306V166.302ZM774.269 153.952C778.53 149.635 782.508 144.937 787.521 141.456C790.717 139.237 794.365 137.677 797.365 135.134C803.311 130.098 807.932 123.388 810.151 115.959C810.959 113.246 811.437 109.015 812.505 106.653C812.738 106.141 812.542 106.062 813.343 106.175C814.159 110.319 815.351 114.38 816.242 118.513C817.386 123.806 820.085 135.236 819.269 140.134C818.578 144.274 812.046 148.226 808.575 150.117C803.262 153.014 797.204 154.597 792.402 158.405C786.498 156.409 780.591 154.178 774.273 153.952H774.269Z" fill="#2563EB" style="fill:#2563EB;fill:color(display-p3 0.1451 0.3882 0.9216);fill-opacity:1;"/>
</svg>
