<svg width="930" height="196" viewBox="0 0 930 196" fill="none" xmlns="http://www.w3.org/2000/svg">
<g opacity="0.8" clip-path="url(#clip0_348_1073)">
<path d="M3.08594 193.584C4.69061 163.086 7.71955 157.409 9.22467 136.519C9.6965 129.972 13.1393 123.658 17.8049 120.374C24.9422 115.35 34.6363 115.065 41.8712 110.253C45.1405 108.079 47.5259 104.024 48.1686 99.548C48.8247 94.9775 47.6495 90.0658 45.0699 86.6539C38.9655 74.3337 36.0979 59.6569 37.016 45.3008" stroke="white" style="stroke:white;stroke-opacity:1;" stroke-miterlimit="10"/>
<path d="M24.1575 193.584C24.1575 179.935 25.4284 167.847 26.6848 155.996C27.0151 168.486 27.3458 180.975 27.6762 193.465" stroke="white" style="stroke:white;stroke-opacity:1;" stroke-miterlimit="10"/>
<path d="M103.602 193.585C103.602 179.308 102.228 165.177 100.937 153.367C100.583 166.733 100.23 180.099 99.8762 193.465" stroke="white" style="stroke:white;stroke-opacity:1;" stroke-miterlimit="10"/>
<path d="M36.3448 53.0583C35.2359 52.374 33.8681 52.3522 32.7452 53.001C31.6223 53.6499 30.7694 54.9555 30.5009 56.4358C30.1099 58.5914 30.9098 60.7744 31.689 62.7671C32.4229 64.6434 33.1568 66.5202 33.8906 68.3966C34.3651 69.61 34.9091 70.9115 35.9023 71.4947C36.8952 72.078 38.4087 71.3877 38.3969 70.0429" stroke="white" style="stroke:white;stroke-opacity:1;" stroke-miterlimit="10"/>
<path d="M121.786 193.584C120.181 163.086 116.945 157.409 115.44 136.519C114.968 129.972 111.525 123.658 106.86 120.374C99.7223 115.35 90.0283 115.065 82.7933 110.253C79.5241 108.079 77.1387 104.024 76.496 99.548C75.8399 94.9775 77.0151 90.0658 79.5947 86.6539C85.6991 74.3337 88.5667 59.6569 87.6486 45.3008" stroke="white" style="stroke:white;stroke-opacity:1;" stroke-miterlimit="10"/>
<path d="M88.3207 53.0583C89.4295 52.374 90.7973 52.3522 91.9203 53.001C93.0432 53.6499 93.8961 54.9555 94.1646 56.4358C94.5556 58.5914 93.7557 60.7744 92.9764 62.7671C92.2426 64.6434 91.5087 66.5202 90.7748 68.3966C90.3003 69.61 89.7564 70.9115 88.7632 71.4947C87.7703 72.078 86.2568 71.3877 86.2686 70.0429" stroke="white" style="stroke:white;stroke-opacity:1;" stroke-miterlimit="10"/>
<path d="M43.8334 38.9047C38.9321 39.4739 33.3095 38.593 30.3375 33.4411C27.057 27.7544 28.6549 19.123 32.4143 13.9736M32.2485 40.1732C27.7652 40.2116 22.5322 38.468 20.8315 33.0176C19.7514 29.5562 20.4882 25.4836 22.0351 22.343C23.5825 19.2024 25.8446 16.8076 28.0674 14.4695C30.1791 12.2483 32.35 9.98351 34.9174 8.86277C37.4847 7.74203 40.5724 7.98388 42.5663 10.3858C45.8903 14.3896 44.5386 21.7242 42.0472 26.6626C38.5648 33.5636 33.3236 38.9032 27.3692 41.6147C23.6372 43.3143 18.8338 43.6082 16.4016 39.5189C14.6806 36.6247 14.8153 32.3922 15.9999 29.0654C17.1845 25.7386 19.2426 23.1116 21.2564 20.5645C23.9167 17.1998 26.644 13.7743 29.9942 11.7337C33.3443 9.69307 37.4926 9.25743 40.6155 11.846C45.0474 15.5194 45.8252 24.0583 43.6878 30.3445C41.5501 36.6308 37.2691 41.1401 33.0607 45.2425C30.5609 47.6793 27.9559 50.1111 24.9466 51.1544C21.9373 52.1977 18.3997 51.5784 16.2731 48.5921C14.2253 45.7166 13.9206 41.2529 14.7859 37.4824C15.6512 33.7123 17.5079 30.4882 19.4027 27.4367C22.7404 22.0612 26.3948 16.8441 30.9905 13.4282M36.184 74.2184C37.6501 71.9794 40.0889 70.5956 42.2018 71.6035M25.8956 73.8591C27.2921 72.0614 29.3664 70.9427 31.2335 71.7042M25.2899 68.2175C27.3124 66.1394 30.4187 65.467 32.3994 67.6133M38.8285 69.1242C38.4441 64.3351 39.6664 59.5561 41.3183 55.2574M30.422 48.9043C32.428 39.8099 37.0601 31.7608 43.1733 26.747M42.791 64.669C34.7536 66.4759 26.0897 62.2662 20.8812 54.0223C19.3032 35.6578 27.3331 16.5349 39.9981 8.49441" stroke="white" style="stroke:white;stroke-opacity:1;" stroke-miterlimit="10"/>
<path d="M95.1637 45.9577C89.4705 48.1628 82.9547 47.8283 78.0336 43.4678C73.1125 39.1078 70.3954 30.193 72.7812 23.0521C74.4065 18.1872 77.9623 14.9099 81.623 12.6543C84.653 10.7872 87.9468 9.42817 91.2911 9.59768M92.2476 41.9155C85.3007 48.4051 77.216 52.7783 68.8054 54.5953C65.6418 55.2788 62.3779 55.6012 59.2459 54.701C56.1138 53.8004 53.1049 51.5508 51.3954 47.9872C48.4972 41.9448 50.089 33.578 53.7323 28.2768C57.3751 22.9757 62.601 20.1068 67.7298 17.7389C72.4851 15.5434 78.2496 13.8383 82.1732 17.9954C85.9504 21.9972 86.0159 29.9329 83.5928 35.4562C81.1698 40.9794 76.9154 44.6194 72.753 47.8956C67.8173 51.781 62.5152 55.5581 56.7623 55.6948C51.0094 55.8314 44.7818 51.0833 43.9037 43.612C43.1926 37.5625 46.0352 31.806 49.159 27.2649C54.7493 19.1384 61.7083 12.6462 69.39 8.3894C73.6768 6.01435 78.5013 4.32489 82.9485 6.11959C89.915 8.9308 93.5781 19.784 92.6113 29.2741C91.6444 38.7648 87.1291 46.9651 82.181 53.9952C79.4325 57.9003 76.4095 61.6714 72.6725 63.717C68.936 65.7627 64.3283 65.7829 61.1129 62.5513C57.4767 58.8966 56.5061 51.9601 57.6736 46.1434C58.8408 40.3267 61.746 35.4076 64.7491 30.8675C69.9195 23.0516 75.6528 15.7574 82.3556 10.3091M91.7733 58.0116C87.8982 52.756 87.6685 44.1995 89.8155 37.4477M82.7781 49.1601C77.4121 47.2976 72.0407 44.4099 68.2469 39.0871C64.4531 33.7642 62.606 25.5476 64.9573 18.9421C66.5333 14.5148 69.679 11.4339 72.8595 8.89892M66.1286 63.0274C60.7514 63.2753 55.2195 62.6165 50.3589 59.5847C45.4983 56.5529 41.3882 50.8298 40.4362 43.8721C39.6028 37.7816 41.248 31.4665 43.9082 26.3597C46.5688 21.2534 50.1794 17.1524 53.7476 13.1132C57.9547 8.35095 62.3083 3.47687 67.5793 1.18074C72.8504 -1.11589 79.3285 -0.221324 82.9821 5.27359C87.0586 11.4035 86.3306 20.7995 84.2969 28.4889C78.6941 49.6736 64.58 66.6057 48.0146 72.0151C45.184 72.9395 42.2236 73.5477 39.3549 72.854C36.4861 72.1603 33.7032 69.9795 32.4307 66.5313C30.3791 60.9716 32.7595 54.3595 35.6494 49.4844C40.6398 41.0654 47.3342 34.4063 54.8559 30.3797C59.8006 27.7324 65.8943 26.4108 70.145 30.6565C73.3538 33.8613 74.647 39.6452 74.1034 44.8921C73.5598 50.1391 71.427 54.8958 68.8589 58.977C62.2208 69.5257 52.301 76.3978 41.9263 77.636C39.0961 77.9735 36.1639 77.891 33.524 76.5076C30.8842 75.1243 28.5722 72.2488 27.9743 68.5982C27.1832 63.7666 29.4491 59.02 31.9128 55.2859C40.1372 42.8212 51.9378 34.5307 64.3946 32.4658C67.4438 31.9604 70.6372 31.8374 73.4893 33.3412C76.3419 34.8449 78.7724 38.3165 78.8525 42.3531C78.9478 47.163 75.9041 50.9973 72.935 53.814C62.9758 63.2622 50.9779 68.9559 38.7226 70.0504" stroke="white" style="stroke:white;stroke-opacity:1;" stroke-miterlimit="10"/>
<path d="M122.105 193.146C122.105 193.146 148.245 180.522 166.131 180.522C184.017 180.522 192.271 193.146 210.157 193.146C228.043 193.146 236.99 175.592 254.183 180.522C271.376 185.452 281.016 188.216 298.209 193.146C315.402 198.076 324.349 180.522 342.235 180.522C360.121 180.522 368.375 193.146 386.261 193.146C404.147 193.146 412.401 180.522 430.287 180.522" stroke="white" style="stroke:white;stroke-opacity:1;" stroke-width="2" stroke-linecap="round"/>
<path d="M822.48 28.045C822.068 30.5435 824.014 38.0429 819.418 34.7055C809.856 33.8727 816.201 45.8617 822.87 45.5463C820.066 64.5152 842.073 78.1273 851.756 57.129C857.875 46.8501 852.027 25.4778 862.49 14.8857C866.154 8.5991 855.989 9.36117 854.782 5.39719C855.704 2.58744 853.973 -0.0848564 850.668 0.00206398C842.421 3.98827 823.266 -3.44645 819.917 7.11336C809.666 9.61586 813.275 25.9185 820.358 30.7699C820.467 28.514 826.587 28.3563 828.649 27.4426C850.721 17.6772 846.911 24.9381 850.078 26.4845C852.878 27.8509 856.187 24.926 856.51 28.0207C856.83 31.1155 856.106 34.2123 855.386 37.2424C863.99 28.6959 864.311 40.8162 855.386 45.5463" stroke="white" style="stroke:white;stroke-opacity:1;" stroke-width="1.2" stroke-linecap="round" stroke-linejoin="round"/>
<path d="M880.051 193.978L855.804 192.829C855.717 192.173 856.658 192.475 857.113 192.456C861.23 192.286 865.4 192.674 869.51 192.452C883.277 191.71 915.413 187.133 917.312 169.592C917.876 164.366 915.71 160.309 911.784 157.095C915.586 158.666 918.474 158.561 922.185 156.787C924.314 155.769 929.443 151.866 929.443 149.38V142.045C925.487 141.412 926.664 146.276 924.817 148.325C923.832 149.418 919.609 151.139 918.722 149.18C917.665 146.852 924.122 145.763 925.288 144.467C928.691 140.681 920.839 142.557 919.218 142.904C913.672 144.087 909.998 147.459 905.151 143.036C900.071 138.402 895.382 130.705 890.73 125.307C887.951 122.082 885.067 120.443 883.16 116.333C878.238 105.72 879.671 84.1481 870.627 76.9638C865.382 72.7933 850.942 75.1554 848.471 67.9221L847.185 64.0078C845.384 76.9073 863.75 73.0532 869.875 77.7172C878.802 84.5173 877.2 107.084 882.653 117.595C884.616 121.381 887.714 123.355 890.35 126.44C894.167 130.901 897.359 135.976 901.266 140.342C903.117 142.407 906.79 146.573 909.667 146.524L924.55 142.795C924.592 143.394 924.682 143.68 924.167 144.102C922.813 145.206 916.755 146.242 917.564 149.203C918.478 152.548 923.524 150.661 925.321 149.022C927.017 147.477 927.036 145.251 927.563 143.175C929.281 141.921 928.277 149.041 928.149 149.595C927.051 154.36 918.974 157.909 914.405 156.907C911.167 156.199 900.285 151.011 896.871 149.256C891.226 146.359 886.387 142.327 881.716 138.097C873.173 130.359 868.202 125.329 864.998 113.831C864.562 112.271 863.185 103.938 862.343 103.678C860.549 103.128 858.165 109.273 857.665 110.618C852.044 125.781 854.698 144.166 871.955 149.376C882.104 152.439 905.215 152.394 912.341 158.972C918.865 164.992 916.511 174.003 910.656 179.481C897.615 191.676 861.809 192.381 844.922 190.738C844.414 190.689 844.027 190.196 844.151 191.134C844.602 192.045 847.87 192.509 848.953 192.723C860.644 195.021 871.932 195.379 883.108 194.671L882.942 193.884C881.976 193.925 881.01 193.959 880.043 193.978H880.051ZM873.079 148.634C856.473 144.072 853.352 127.371 858.049 112.509C858.575 110.847 859.779 107.528 860.745 106.18C861.114 105.664 861.422 105.049 862.185 105.178C863.607 114.502 866.333 124.116 872.891 131.138C879.178 137.874 886.992 144.622 894.87 149.387L905.771 154.455C895.209 151.203 883.676 151.542 873.083 148.63L873.079 148.634Z" fill="white" style="fill:white;fill-opacity:1;"/>
<path d="M869.515 161.614C863.514 161.09 862.923 164.002 858.779 166.281C853.966 168.926 849.055 162.416 844.046 163.573C840.444 164.405 841.959 172.479 836.913 174.483C832.066 176.408 823.113 172.298 818.472 170.211C810.049 166.417 802.152 161.361 793.436 158.219C799.554 152.685 817.07 148.955 819.912 140.531C821.262 136.527 819.882 131.143 819.179 126.992C818.239 121.42 816.953 114.718 815.415 109.315C815.08 108.136 814.155 104.022 812.779 104.03C811.862 104.109 811.719 105.069 811.455 105.729C809.101 111.617 809.474 117.362 805.619 123.209C799.862 131.942 794.587 134.289 786.554 139.861C781.256 143.534 777.887 148.88 773.111 152.357C771.186 153.759 767.933 153.487 765.376 154.772C763.646 155.639 762.285 157.745 760.965 158.253C759.717 158.735 755.092 159.255 753.873 158.897C753.133 158.679 749.414 153.212 749.18 152.312C749.105 152.033 748.722 149.939 749.658 150.327C752.719 154.113 758.262 156.622 761.65 151.792C762.533 150.534 763.583 149.076 761.326 148.801C758.329 148.435 755.453 149.543 752.482 149.569C752.433 149.227 752.441 149.091 752.659 148.812C753.317 147.98 761.183 144.826 762.612 144.483C765.97 143.673 770.05 143.907 773.247 143.093C773.807 142.95 774.273 142.683 774.645 142.234C778.338 137.194 781.26 131.603 784.862 126.506C787.179 123.228 791.165 119.333 792.752 115.968C797.824 105.212 795.685 80.5401 808.368 75.5483C812.196 74.0414 815.065 74.5386 819.066 73.3331C822.297 72.3611 823.962 71.8111 825.339 70.3456C827.873 67.6444 828.102 63.6397 828.001 63.6095C827.922 63.5869 827.501 65.8813 826.677 67.5427C823.293 74.3767 813.234 71.1028 805.935 75.748C794.162 83.2412 797.339 105.066 791.511 116.232C790.164 118.813 787.656 120.824 785.983 123.111C781.655 129.03 778.218 135.566 773.927 141.511C769.956 143.067 765.594 142.555 761.496 143.734C759.773 144.231 753.554 146.729 752.287 147.678C751.158 148.526 751.016 149.645 751.978 150.711L761.496 149.569C760.446 153.258 757.276 154.211 753.843 152.531C752.538 151.89 750.354 149.181 749.662 149.178C748.413 149.17 747.834 151.231 748.041 152.293C748.229 153.25 752.275 159.251 753.091 159.677C755.084 160.717 757.874 159.591 759.991 159.349C758.931 161.99 756.491 165.159 756.637 168.135C756.942 174.457 768.245 181.98 773.45 184.436C776.27 185.766 784.757 189.609 786.483 185.683C788.499 176.815 788.799 167.453 792.165 158.939C794.007 158.551 814.885 169.725 818.472 171.33C824.489 174.023 837.68 180.145 841.339 171.382C842.144 169.453 842.012 165.264 844.422 164.692C849.521 163.486 853.252 170.384 859.445 166.937C863.442 164.714 864.367 162.201 869.891 162.733C871.173 162.857 878.04 164.725 876.844 166.485C872.866 167.886 869.82 166.899 866.319 169.683C861.63 173.409 860.144 175.941 854.18 178.974C829.133 191.711 792.902 190.686 761.954 187.669V188.501C791.217 191.097 838.282 194.088 861.938 175.459C865.1 172.968 866.857 169.269 871.109 168.463C873.227 168.063 875.558 168.485 877.604 167.065C880.484 164.292 871.192 161.753 869.515 161.606V161.614ZM767.512 155.032C768.249 154.746 770.231 153.638 770.513 154.832L763 157.842C763.891 156.588 766.064 155.597 767.512 155.028V155.032ZM789.04 165.302C787.637 171.394 787.344 178.921 785.746 184.579C785.095 186.881 783.84 186.636 781.689 186.343C775.258 185.469 760.537 176.525 758.307 170.256C757.235 167.246 758.875 162.137 761.116 159.918C762.022 159.022 764.978 158.464 766.512 157.797C768.136 157.089 771.788 154.365 772.656 154.166C777.451 153.077 786.69 156.347 791.165 158.438C790.251 160.653 789.578 162.97 789.04 165.306V165.302ZM774.269 152.952C778.53 148.635 782.508 143.937 787.521 140.456C790.717 138.237 794.365 136.677 797.365 134.134C803.311 129.098 807.932 122.388 810.151 114.959C810.959 112.246 811.437 108.015 812.505 105.653C812.738 105.141 812.542 105.062 813.343 105.175C814.159 109.319 815.351 113.38 816.242 117.513C817.386 122.806 820.085 134.236 819.269 139.134C818.578 143.274 812.046 147.226 808.575 149.117C803.262 152.014 797.204 153.597 792.402 157.405C786.498 155.409 780.591 153.178 774.273 152.952H774.269Z" fill="white" style="fill:white;fill-opacity:1;"/>
</g>
<defs>
<clipPath id="clip0_348_1073">
<rect width="929.443" height="195.479" fill="white" style="fill:white;fill-opacity:1;"/>
</clipPath>
</defs>
</svg>
