<svg width="930" height="196" viewBox="0 0 930 196" fill="none" xmlns="http://www.w3.org/2000/svg">
<!-- <path d="M105 191.599C105 191.599 131.337 178.88 149.357 178.88C167.378 178.88 175.694 191.599 193.714 191.599C211.735 191.599 220.749 173.913 238.071 178.88C255.394 183.847 265.106 186.632 282.429 191.599C299.751 196.566 308.765 178.88 326.786 178.88C344.806 178.88 353.122 191.599 371.143 191.599C389.163 191.599 397.479 178.88 415.5 178.88C433.521 178.88 441.837 191.599 459.857 191.599" stroke="white" style="stroke:white;stroke-opacity:1;" stroke-width="1.5" stroke-linecap="round"/> -->
<path d="M69.8988 86.7537C57.0708 86.7537 46.6348 76.3177 46.6348 63.4896C46.6348 50.6616 57.0708 40.2256 69.8988 40.2256C82.7268 40.2256 93.1628 50.6616 93.1628 63.4896C93.1628 76.3177 82.7268 86.7537 69.8988 86.7537ZM69.8988 41.3562C57.695 41.3562 47.7653 51.2848 47.7653 63.4896C47.7653 75.6945 57.6939 85.6231 69.8988 85.6231C82.1037 85.6231 92.0323 75.6945 92.0323 63.4896C92.0323 51.2848 82.1037 41.3562 69.8988 41.3562Z" stroke="blue" style="fill:white;fill-opacity:1;"/>
<path d="M75.9691 92.824C63.1411 92.824 52.7051 82.388 52.7051 69.5599C52.7051 56.7319 63.1411 46.2959 75.9691 46.2959C88.7972 46.2959 99.2332 56.7319 99.2332 69.5599C99.2332 82.388 88.7972 92.824 75.9691 92.824ZM75.9691 47.4265C63.7653 47.4265 53.8357 57.3551 53.8357 69.5599C53.8357 81.7648 63.7643 91.6934 75.9691 91.6934C88.174 91.6934 98.1026 81.7648 98.1026 69.5599C98.1026 57.3551 88.174 47.4265 75.9691 47.4265Z" stroke="blue" style="fill:white;fill-opacity:1;"/>
<path d="M75.9691 81.1794C63.1411 81.1794 52.7051 70.7434 52.7051 57.9154C52.7051 45.0874 63.1411 34.6514 75.9691 34.6514C88.7972 34.6514 99.2332 45.0874 99.2332 57.9154C99.2332 70.7434 88.7972 81.1794 75.9691 81.1794ZM75.9691 35.7819C63.7653 35.7819 53.8357 45.7105 53.8357 57.9154C53.8357 70.1203 63.7643 80.0489 75.9691 80.0489C88.174 80.0489 98.1026 70.1203 98.1026 57.9154C98.1026 45.7105 88.174 35.7819 75.9691 35.7819Z" stroke="blue" style="fill:white;fill-opacity:1;"/>
<path d="M92.598 88.7224C79.77 88.7224 69.334 78.2864 69.334 65.4584C69.334 52.6303 79.77 42.1943 92.598 42.1943C105.426 42.1943 115.862 52.6303 115.862 65.4584C115.862 78.2864 105.426 88.7224 92.598 88.7224ZM92.598 43.3249C80.3942 43.3249 70.4646 53.2535 70.4646 65.4584C70.4646 77.6632 80.3932 87.5918 92.598 87.5918C104.803 87.5918 114.731 77.6632 114.731 65.4584C114.731 53.2535 104.803 43.3249 92.598 43.3249Z" stroke="blue" style="fill:white;fill-opacity:1;"/>
<path d="M53.2691 83.9972C44.298 83.9972 37 76.6993 37 67.7281C37 58.7569 44.298 51.459 53.2691 51.459C62.2403 51.459 69.5382 58.7569 69.5382 67.7281C69.5382 76.6993 62.2403 83.9972 53.2691 83.9972ZM53.2691 52.5896C44.9221 52.5896 38.1306 59.3801 38.1306 67.7281C38.1306 76.0761 44.9211 82.8666 53.2691 82.8666C61.6171 82.8666 68.4077 76.0761 68.4077 67.7281C68.4077 59.3801 61.6171 52.5896 53.2691 52.5896Z" stroke="blue" style="fill:white;fill-opacity:1;"/>
<path d="M96.1461 63.1291C87.1749 63.1291 79.877 55.8311 79.877 46.8599C79.877 37.8888 87.1749 30.5908 96.1461 30.5908C105.117 30.5908 112.415 37.8888 112.415 46.8599C112.415 55.8311 105.117 63.1291 96.1461 63.1291ZM96.1461 31.7224C87.7991 31.7224 81.0075 38.513 81.0075 46.8609C81.0075 55.2089 87.7981 61.9995 96.1461 61.9995C104.494 61.9995 111.285 55.2089 111.285 46.8609C111.285 38.513 104.494 31.7224 96.1461 31.7224Z" stroke="blue" style="fill:white;fill-opacity:1;"/>
<path d="M52.6821 65.9491C46.1382 65.9491 40.8145 60.6254 40.8145 54.0815C40.8145 47.5376 46.1382 42.2139 52.6821 42.2139C59.2259 42.2139 64.5497 47.5376 64.5497 54.0815C64.5497 60.6254 59.2259 65.9491 52.6821 65.9491ZM52.6821 43.0404C46.5932 43.0404 41.64 47.9936 41.64 54.0825C41.64 60.1713 46.5932 65.1245 52.6821 65.1245C58.7709 65.1245 63.7241 60.1713 63.7241 54.0825C63.7241 47.9936 58.7709 43.0404 52.6821 43.0404Z" stroke="blue" style="fill:white;fill-opacity:1;"/>
<path d="M80.9711 48.8329C74.4272 48.8329 69.1035 43.5091 69.1035 36.9653C69.1035 30.4214 74.4272 25.0977 80.9711 25.0977C87.515 25.0977 92.8387 30.4214 92.8387 36.9653C92.8387 43.5091 87.515 48.8329 80.9711 48.8329ZM80.9711 25.9242C74.8823 25.9242 69.9291 30.8774 69.9291 36.9663C69.9291 43.0551 74.8823 48.0083 80.9711 48.0083C87.06 48.0083 92.0132 43.0551 92.0132 36.9663C92.0132 30.8774 87.06 25.9242 80.9711 25.9242Z" stroke="blue" style="fill:white;fill-opacity:1;"/>
<path d="M70.4859 56.5382C61.5147 56.5382 54.2168 49.2403 54.2168 40.2691C54.2168 31.298 61.5147 24 70.4859 24C79.4571 24 86.755 31.298 86.755 40.2691C86.755 49.2403 79.4571 56.5382 70.4859 56.5382ZM70.4859 25.1316C62.1389 25.1316 55.3474 31.9221 55.3474 40.2701C55.3474 48.6181 62.1379 55.4087 70.4859 55.4087C78.8339 55.4087 85.6245 48.6181 85.6245 40.2701C85.6245 31.9221 78.8339 25.1316 70.4859 25.1316Z" stroke="blue" style="fill:white;fill-opacity:1;"/>
<path d="M69.8961 77.1203C60.9249 77.1203 53.627 69.8223 53.627 60.8512C53.627 51.88 60.9249 44.582 69.8961 44.582C78.8672 44.582 86.1652 51.88 86.1652 60.8512C86.1652 69.8223 78.8672 77.1203 69.8961 77.1203ZM69.8961 45.7126C61.5491 45.7126 54.7575 52.5032 54.7575 60.8512C54.7575 69.1991 61.5481 75.9897 69.8961 75.9897C78.2441 75.9897 85.0346 69.1991 85.0346 60.8512C85.0346 52.5032 78.2441 45.7126 69.8961 45.7126Z" stroke="blue" style="fill:white;fill-opacity:1;"/>
<path d="M69.8988 103.878C57.0708 103.878 46.6348 93.4417 46.6348 80.6137C46.6348 67.7856 57.0708 57.3496 69.8988 57.3496C82.7268 57.3496 93.1628 67.7856 93.1628 80.6137C93.1628 93.4417 82.7268 103.878 69.8988 103.878ZM69.8988 58.4802C57.695 58.4802 47.7653 68.4088 47.7653 80.6137C47.7653 92.8185 57.6939 102.747 69.8988 102.747C82.1037 102.747 92.0323 92.8185 92.0323 80.6137C92.0323 68.4088 82.1037 58.4802 69.8988 58.4802Z" stroke="blue" style="fill:white;fill-opacity:1;"/>
<path d="M75.9691 103.878C63.1411 103.878 52.7051 93.4417 52.7051 80.6137C52.7051 67.7856 63.1411 57.3496 75.9691 57.3496C88.7972 57.3496 99.2332 67.7856 99.2332 80.6137C99.2332 93.4417 88.7972 103.878 75.9691 103.878ZM75.9691 58.4802C63.7653 58.4802 53.8357 68.4088 53.8357 80.6137C53.8357 92.8185 63.7643 102.747 75.9691 102.747C88.174 102.747 98.1026 92.8185 98.1026 80.6137C98.1026 68.4088 88.174 58.4802 75.9691 58.4802Z" stroke="blue" style="fill:white;fill-opacity:1;"/>
<path d="M42.4381 190.695L42.1691 191.911H43.4145H107.755H110.458L108.406 190.151C108.3 190.061 108.112 189.813 107.89 189.293C107.678 188.795 107.471 188.135 107.275 187.323C106.882 185.7 106.556 183.568 106.297 181.114C105.779 176.213 105.538 170.138 105.538 164.531C105.538 159.223 107.719 156.115 109.849 154.316C110.926 153.406 112.006 152.819 112.815 152.461C113.218 152.283 113.551 152.163 113.778 152.088C113.872 152.058 113.947 152.035 114.001 152.019H126.822H126.839L126.855 152.019C130.137 151.908 133.46 150.49 136.024 148.411C138.562 146.353 140.483 143.539 140.781 140.518L145.966 115.29L157.504 108.117L157.591 108.063L157.665 107.993C158.912 106.808 160.422 105.164 160.823 103.149C161.249 101.006 160.38 98.7809 157.681 96.5785L141.248 76.9851V58.6898C141.248 33.6367 128.186 19.6582 113.569 12.0012C99.0165 4.37861 82.9131 3 76.5507 3C70.1563 3 55.3282 4.79179 42.0615 12.6293C28.73 20.5052 17 34.4835 17 58.6898C17 77.3304 25.3433 92.5774 33.5638 105.472C34.8861 107.546 36.2006 109.553 37.477 111.501C40.1916 115.645 42.7342 119.526 44.8146 123.238C47.8706 128.691 49.8141 133.591 49.8141 138.151C49.8141 147.71 47.9779 160.827 46.1287 171.6C45.2058 176.977 44.2827 181.752 43.5904 185.184C43.2443 186.899 42.9559 188.278 42.7542 189.228C42.6534 189.702 42.5742 190.07 42.5203 190.318C42.4934 190.442 42.4727 190.537 42.4589 190.6L42.4432 190.671L42.4393 190.689L42.4383 190.693L42.4381 190.694C42.4381 190.695 42.4381 190.695 43.4145 190.911L42.4381 190.695Z" stroke="blue" style="stroke-opacity:1;" stroke-width="4"/>
<path d="M794.438 190.695L794.169 191.911H795.414H859.755H862.458L860.406 190.151C860.3 190.061 860.112 189.813 859.89 189.293C859.678 188.795 859.471 188.135 859.275 187.323C858.882 185.7 858.556 183.568 858.297 181.114C857.779 176.213 857.538 170.138 857.538 164.531C857.538 159.223 859.719 156.115 861.849 154.316C862.926 153.406 864.006 152.819 864.815 152.461C865.218 152.283 865.551 152.163 865.778 152.088C865.872 152.058 865.947 152.035 866.001 152.019H878.822H878.839L878.855 152.019C882.137 151.908 885.46 150.49 888.024 148.411C890.562 146.353 892.483 143.539 892.781 140.518L897.966 115.29L909.504 108.117L909.591 108.063L909.665 107.993C910.912 106.808 912.422 105.164 912.823 103.149C913.249 101.006 912.38 98.7809 909.681 96.5785L893.248 76.9851V58.6898C893.248 33.6367 880.186 19.6582 865.569 12.0012C851.017 4.37861 834.913 3 828.551 3C822.156 3 807.328 4.79179 794.062 12.6293C780.73 20.5052 769 34.4835 769 58.6898C769 77.3304 777.343 92.5774 785.564 105.472C786.886 107.546 788.201 109.553 789.477 111.501C792.192 115.645 794.734 119.526 796.815 123.238C799.871 128.691 801.814 133.591 801.814 138.151C801.814 147.71 799.978 160.827 798.129 171.6C797.206 176.977 796.283 181.752 795.59 185.184C795.244 186.899 794.956 188.278 794.754 189.228C794.653 189.702 794.574 190.07 794.52 190.318C794.493 190.442 794.473 190.537 794.459 190.6L794.443 190.671L794.439 190.689L794.438 190.693L794.438 190.694C794.438 190.695 794.438 190.695 795.414 190.911L794.438 190.695Z" stroke="blue" style="stroke-opacity:1;" stroke-width="4"/>
<path d="M840.659 109.356H825.794C824.972 109.356 824.307 108.69 824.307 107.869C824.307 107.047 824.972 106.382 825.794 106.382H840.659C841.481 106.382 842.146 107.047 842.146 107.869C842.146 108.69 841.481 109.356 840.659 109.356Z" fill="#4E4E4E" style="fill:#4E4E4E;fill:color(display-p3 0.3059 0.3059 0.3059);fill-opacity:1;"/>
<path d="M844.005 104.153H822.45C821.628 104.153 820.963 103.487 820.963 102.666C820.963 101.844 821.628 101.179 822.45 101.179H844.005C844.827 101.179 845.492 101.844 845.492 102.666C845.492 103.487 844.827 104.153 844.005 104.153Z" fill="#4E4E4E" style="fill:#4E4E4E;fill:color(display-p3 0.3059 0.3059 0.3059);fill-opacity:1;"/>
<path d="M844.005 98.9495H822.45C821.628 98.9495 820.963 98.2841 820.963 97.4626C820.963 96.6411 821.628 95.9756 822.45 95.9756H844.005C844.827 95.9756 845.492 96.6411 845.492 97.4626C845.492 98.2841 844.827 98.9495 844.005 98.9495Z" fill="#4E4E4E" style="fill:#4E4E4E;fill:color(display-p3 0.3059 0.3059 0.3059);fill-opacity:1;"/>
<path d="M844.005 93.7464H822.45C821.628 93.7464 820.963 93.0809 820.963 92.2594C820.963 91.4379 821.628 90.7725 822.45 90.7725H844.005C844.827 90.7725 845.492 91.4379 845.492 92.2594C845.492 93.0809 844.827 93.7464 844.005 93.7464Z" fill="#4E4E4E" style="fill:#4E4E4E;fill:color(display-p3 0.3059 0.3059 0.3059);fill-opacity:1;"/>
<path d="M833.228 84.4556C846.056 84.4556 856.456 74.0562 856.456 61.2278C856.456 48.3994 846.056 38 833.228 38C820.399 38 810 48.3994 810 61.2278C810 74.0562 820.399 84.4556 833.228 84.4556Z" fill="#AFAFAF" style="fill:#AFAFAF;fill:color(display-p3 0.6875 0.6875 0.6875);fill-opacity:1;"/>
<path d="M823.036 88.7295H843.42C844.667 88.7295 845.678 87.7185 845.678 86.4713V79.4664C845.678 78.2192 844.667 77.2082 843.42 77.2082H823.036C821.789 77.2082 820.778 78.2192 820.778 79.4664V86.4713C820.778 87.7185 821.789 88.7295 823.036 88.7295Z" fill="#AFAFAF" style="fill:#AFAFAF;fill:color(display-p3 0.6875 0.6875 0.6875);fill-opacity:1;"/>
<path d="M816.991 53.9009C816.849 53.9009 816.705 53.8687 816.57 53.7993C816.113 53.5667 815.931 53.007 816.164 52.5499C819.055 46.8778 824.539 43.022 830.837 42.2367C831.345 42.1733 831.81 42.5347 831.874 43.0441C831.937 43.5535 831.576 44.0177 831.066 44.0811C825.382 44.7898 820.43 48.2712 817.819 53.3935C817.655 53.7157 817.329 53.9009 816.991 53.9009Z" fill="white" style="fill:white;fill-opacity:1;"/>
<path d="M815.017 62.1575C814.504 62.1575 814.088 61.7417 814.088 61.2283C814.088 59.6577 814.278 58.0963 814.655 56.5861C814.779 56.0878 815.284 55.7858 815.781 55.9096C816.28 56.0334 816.583 56.5378 816.458 57.0361C816.119 58.3993 815.946 59.8098 815.946 61.2283C815.946 61.7417 815.531 62.1575 815.017 62.1575Z" fill="white" style="fill:white;fill-opacity:1;"/>
</svg>
