<svg width="930" height="196" viewBox="0 0 930 196" fill="none" xmlns="http://www.w3.org/2000/svg">
<g opacity="0.9" clip-path="url(#clip0_348_1094)">
<path d="M3.08594 193.545C4.83367 160.329 8.13263 154.145 9.77193 131.393C10.2858 124.262 14.0355 117.386 19.1171 113.809C26.8907 108.337 37.449 108.027 45.3289 102.786C48.8896 100.417 51.4877 96.0011 52.1877 91.1261C52.9023 86.1482 51.6223 80.7987 48.8128 77.0826C42.1642 63.6641 39.0409 47.6789 40.0409 32.043" stroke="white" style="stroke:white;stroke-opacity:1;" stroke-miterlimit="10"/>
<path d="M26.0359 193.545C26.0359 178.679 27.4201 165.513 28.7886 152.605C29.1483 166.208 29.5085 179.811 29.8683 193.414" stroke="white" style="stroke:white;stroke-opacity:1;" stroke-miterlimit="10"/>
<path d="M112.563 193.547C112.563 177.998 111.067 162.607 109.66 149.744C109.275 164.302 108.89 178.859 108.505 193.416" stroke="white" style="stroke:white;stroke-opacity:1;" stroke-miterlimit="10"/>
<path d="M39.3097 40.4922C38.102 39.7469 36.6123 39.7231 35.3892 40.4298C34.1662 41.1365 33.2373 42.5586 32.9448 44.1707C32.519 46.5185 33.3902 48.8962 34.2389 51.0665C35.0382 53.1101 35.8375 55.1542 36.6368 57.1978C37.1536 58.5195 37.746 59.9369 38.8278 60.5722C39.9092 61.2074 41.5576 60.4556 41.5447 58.9909" stroke="white" style="stroke:white;stroke-opacity:1;" stroke-miterlimit="10"/>
<path d="M132.368 193.545C130.621 160.329 127.096 154.145 125.456 131.393C124.942 124.262 121.193 117.386 116.111 113.809C108.337 108.337 97.7792 108.027 89.8993 102.786C86.3386 100.417 83.7405 96.0011 83.0405 91.1261C82.3259 86.1482 83.6059 80.7987 86.4154 77.0826C93.064 63.6641 96.1873 47.6789 95.1873 32.043" stroke="white" style="stroke:white;stroke-opacity:1;" stroke-miterlimit="10"/>
<path d="M95.9192 40.4922C97.1269 39.7469 98.6166 39.7231 99.8396 40.4298C101.063 41.1365 101.992 42.5586 102.284 44.1707C102.71 46.5185 101.839 48.8962 100.99 51.0665C100.191 53.1101 99.3914 55.1542 98.5921 57.1978C98.0753 58.5195 97.4829 59.9369 96.4011 60.5722C95.3197 61.2074 93.6713 60.4556 93.6842 58.9909" stroke="white" style="stroke:white;stroke-opacity:1;" stroke-miterlimit="10"/>
<path d="M132.715 193.07C132.715 193.07 161.186 179.32 180.666 179.32C200.147 179.32 209.137 193.07 228.617 193.07C248.098 193.07 257.842 173.951 276.568 179.32C295.294 184.69 305.793 187.7 324.519 193.07C343.245 198.439 352.989 179.32 372.47 179.32C391.951 179.32 400.94 193.07 420.421 193.07C439.902 193.07 448.891 179.32 468.372 179.32C487.852 179.32 496.842 193.07 516.323 193.07" stroke="white" style="stroke:white;stroke-opacity:1;" stroke-width="2" stroke-linecap="round"/>
<path d="M47.0162 42.3746C41.678 42.9946 35.5541 42.0351 32.3171 36.424C28.7442 30.2304 30.4846 20.8294 34.5791 15.221M34.3985 43.7562C29.5155 43.7981 23.8161 41.899 21.9637 35.9627C20.7873 32.1928 21.5897 27.7571 23.2746 24.3365C24.9599 20.916 27.4238 18.3077 29.8447 15.7611C32.1446 13.3419 34.5091 10.8752 37.3053 9.65455C40.1015 8.4339 43.4645 8.69732 45.6361 11.3133C49.2565 15.674 47.7843 23.6626 45.0708 29.0411C41.2779 36.5574 35.5694 42.373 29.0842 45.3262C25.0195 47.1773 19.7879 47.4975 17.1389 43.0436C15.2644 39.8914 15.4112 35.2816 16.7013 31.6582C17.9915 28.0349 20.2332 25.1736 22.4265 22.3995C25.3239 18.7348 28.2944 15.0039 31.9432 12.7814C35.592 10.5589 40.1101 10.0844 43.5114 12.9037C48.3384 16.9046 49.1856 26.2047 46.8577 33.0514C44.5293 39.898 39.8667 44.8093 35.2831 49.2775C32.5605 51.9315 29.7232 54.58 26.4456 55.7164C23.168 56.8527 19.3151 56.1782 16.9989 52.9257C14.7686 49.7939 14.4367 44.9322 15.3791 40.8255C16.3216 36.7194 18.3438 33.2079 20.4075 29.8843C24.0427 24.0296 28.023 18.3474 33.0284 14.627M38.6849 80.8364C40.2817 78.3979 42.9379 76.8906 45.2392 77.9884M27.4793 80.4451C29.0002 78.4871 31.2595 77.2687 33.293 78.0981M26.8195 74.3006C29.0224 72.0373 32.4056 71.3049 34.5629 73.6426M41.5651 75.2881C41.1465 70.0721 42.4778 64.8671 44.2769 60.1851M32.4092 53.2657C34.594 43.3605 39.6391 34.5939 46.2973 29.1332M45.8809 70.4358C37.1269 72.4037 27.6906 67.8187 22.0178 58.8399C20.2991 38.8383 29.0449 18.0106 42.839 9.25336" stroke="white" style="stroke:white;stroke-opacity:1;" stroke-miterlimit="10"/>
<path d="M102.923 50.0547C96.7223 52.4563 89.6256 52.0921 84.2658 47.3428C78.9059 42.5942 75.9467 32.8846 78.5451 25.1072C80.3153 19.8085 84.1881 16.2391 88.1751 13.7824C91.4753 11.7489 95.0627 10.2687 98.7052 10.4533M99.747 45.6521C92.1807 52.7203 83.3752 57.4833 74.2149 59.4623C70.7693 60.2068 67.2144 60.5578 63.8031 59.5775C60.3919 58.5965 57.1147 56.1464 55.2528 52.2651C52.0963 45.6841 53.8299 36.5714 57.798 30.7976C61.7656 25.0239 67.4573 21.8993 73.0434 19.3202C78.2227 16.9291 84.501 15.0719 88.7744 19.5996C92.8883 23.9581 92.9597 32.6013 90.3206 38.617C87.6815 44.6326 83.0478 48.5971 78.5144 52.1654M47.0932 47.4999C46.3187 40.9111 49.4148 34.6415 52.817 29.6955C58.9057 20.8445 66.4851 13.7736 74.8516 9.13729C79.5205 6.55051 84.7752 4.71044 89.6188 6.66513C97.2064 9.72695 101.196 21.5477 100.143 31.8838C99.0899 42.2205 94.1722 51.1519 88.783 58.8087M62.0907 50.257C63.3619 43.9217 66.5262 38.5641 69.797 33.6192C75.4283 25.1066 81.6728 17.1622 88.9731 11.2281M89.4332 53.5425C83.5888 51.514 77.7386 48.369 73.6066 42.5716C69.4746 36.7742 67.4628 27.8251 70.0237 20.6307C71.7402 15.8087 75.1663 12.4532 78.6304 9.69224M43.3166 47.7832C42.4089 41.1498 44.2008 34.2717 47.0981 28.7096C49.9959 23.1481 53.9283 18.6815 57.8147 14.2822C62.3969 9.09541 67.1385 3.78682 72.8795 1.286C78.6205 -1.21537 85.6761 -0.241054 89.6554 5.74372C94.0954 12.4201 93.3024 22.6537 91.0874 31.0286M38.103 53.8958C43.5383 44.7263 50.8296 37.4735 59.0218 33.0879C64.4073 30.2047 71.0443 28.7652 75.6739 33.3894C79.1687 36.88 80.5772 43.1794 79.9852 48.8941M69.4109 35.3601C72.7319 34.8095 76.21 34.6756 79.3164 36.3134C82.4233 37.9513 85.0705 41.7323 85.1576 46.1288C85.2615 51.3674 81.9464 55.5435 78.7126 58.6114" stroke="white" style="stroke:white;stroke-opacity:1;" stroke-miterlimit="10"/>
<path d="M822.48 28.045C822.068 30.5435 824.014 38.0429 819.418 34.7055C809.856 33.8727 816.201 45.8617 822.87 45.5463C820.066 64.5152 842.073 78.1273 851.756 57.129C857.875 46.8501 852.027 25.4778 862.49 14.8857C866.154 8.5991 855.989 9.36117 854.782 5.39719C855.704 2.58744 853.973 -0.0848564 850.668 0.00206398C842.421 3.98827 823.266 -3.44645 819.917 7.11336C809.666 9.61586 813.275 25.9185 820.358 30.7699C820.467 28.514 826.587 28.3563 828.649 27.4426C850.721 17.6772 846.911 24.9381 850.078 26.4845C852.878 27.8509 856.187 24.926 856.51 28.0207C856.83 31.1155 856.106 34.2123 855.386 37.2424C863.99 28.6959 864.311 40.8162 855.386 45.5463" stroke="white" style="stroke:white;stroke-opacity:1;" stroke-width="1.2" stroke-linecap="round" stroke-linejoin="round"/>
<path d="M880.051 193.978L855.804 192.829C855.717 192.173 856.658 192.475 857.113 192.456C861.23 192.286 865.4 192.674 869.51 192.452C883.277 191.71 915.413 187.133 917.312 169.592C917.876 164.366 915.71 160.309 911.784 157.095C915.586 158.666 918.474 158.561 922.185 156.787C924.314 155.769 929.443 151.866 929.443 149.38V142.045C925.487 141.412 926.664 146.276 924.817 148.325C923.832 149.418 919.609 151.139 918.722 149.18C917.665 146.852 924.122 145.763 925.288 144.467C928.691 140.681 920.839 142.557 919.218 142.904C913.672 144.087 909.998 147.459 905.151 143.036C900.071 138.402 895.382 130.705 890.73 125.307C887.951 122.082 885.067 120.443 883.16 116.333C878.238 105.72 879.671 84.1481 870.627 76.9638C865.382 72.7933 850.942 75.1554 848.471 67.9221L847.185 64.0078C845.384 76.9073 863.75 73.0532 869.875 77.7172C878.802 84.5173 877.2 107.084 882.653 117.595C884.616 121.381 887.714 123.355 890.35 126.44C894.167 130.901 897.359 135.976 901.266 140.342C903.117 142.407 906.79 146.573 909.667 146.524L924.55 142.795C924.592 143.394 924.682 143.68 924.167 144.102C922.813 145.206 916.755 146.242 917.564 149.203C918.478 152.548 923.524 150.661 925.321 149.022C927.017 147.477 927.036 145.251 927.563 143.175C929.281 141.921 928.277 149.041 928.149 149.595C927.051 154.36 918.974 157.909 914.405 156.907C911.167 156.199 900.285 151.011 896.871 149.256C891.226 146.359 886.387 142.327 881.716 138.097C873.173 130.359 868.202 125.329 864.998 113.831C864.562 112.271 863.185 103.938 862.343 103.678C860.549 103.128 858.165 109.273 857.665 110.618C852.044 125.781 854.698 144.166 871.955 149.376C882.104 152.439 905.215 152.394 912.341 158.972C918.865 164.992 916.511 174.003 910.656 179.481C897.615 191.676 861.809 192.381 844.922 190.738C844.414 190.689 844.027 190.196 844.151 191.134C844.602 192.045 847.87 192.509 848.953 192.723C860.644 195.021 871.932 195.379 883.108 194.671L882.942 193.884C881.976 193.925 881.01 193.959 880.043 193.978H880.051ZM873.079 148.634C856.473 144.072 853.352 127.371 858.049 112.509C858.575 110.847 859.779 107.528 860.745 106.18C861.114 105.664 861.422 105.049 862.185 105.178C863.607 114.502 866.333 124.116 872.891 131.138C879.178 137.874 886.992 144.622 894.87 149.387L905.771 154.455C895.209 151.203 883.676 151.542 873.083 148.63L873.079 148.634Z" fill="white" style="fill:white;fill-opacity:1;"/>
<path d="M869.515 161.614C863.514 161.09 862.923 164.002 858.779 166.281C853.966 168.926 849.055 162.416 844.046 163.573C840.444 164.405 841.959 172.479 836.913 174.483C832.066 176.408 823.113 172.298 818.472 170.211C810.049 166.417 802.152 161.361 793.436 158.219C799.554 152.685 817.07 148.955 819.912 140.531C821.262 136.527 819.882 131.143 819.179 126.992C818.239 121.42 816.953 114.718 815.415 109.315C815.08 108.136 814.155 104.022 812.779 104.03C811.862 104.109 811.719 105.069 811.455 105.729C809.101 111.617 809.474 117.362 805.619 123.209C799.862 131.942 794.587 134.289 786.554 139.861C781.256 143.534 777.887 148.88 773.111 152.357C771.186 153.759 767.933 153.487 765.376 154.772C763.646 155.639 762.285 157.745 760.965 158.253C759.717 158.735 755.092 159.255 753.873 158.897C753.133 158.679 749.414 153.212 749.18 152.312C749.105 152.033 748.722 149.939 749.658 150.327C752.719 154.113 758.262 156.622 761.65 151.792C762.533 150.534 763.583 149.076 761.326 148.801C758.329 148.435 755.453 149.543 752.482 149.569C752.433 149.227 752.441 149.091 752.659 148.812C753.317 147.98 761.183 144.826 762.612 144.483C765.97 143.673 770.05 143.907 773.247 143.093C773.807 142.95 774.273 142.683 774.645 142.234C778.338 137.194 781.26 131.603 784.862 126.506C787.179 123.228 791.165 119.333 792.752 115.968C797.824 105.212 795.685 80.5401 808.368 75.5483C812.196 74.0414 815.065 74.5386 819.066 73.3331C822.297 72.3611 823.962 71.8111 825.339 70.3456C827.873 67.6444 828.102 63.6397 828.001 63.6095C827.922 63.5869 827.501 65.8813 826.677 67.5427C823.293 74.3767 813.234 71.1028 805.935 75.748C794.162 83.2412 797.339 105.066 791.511 116.232C790.164 118.813 787.656 120.824 785.983 123.111C781.655 129.03 778.218 135.566 773.927 141.511C769.956 143.067 765.594 142.555 761.496 143.734C759.773 144.231 753.554 146.729 752.287 147.678C751.158 148.526 751.016 149.645 751.978 150.711L761.496 149.569C760.446 153.258 757.276 154.211 753.843 152.531C752.538 151.89 750.354 149.181 749.662 149.178C748.413 149.17 747.834 151.231 748.041 152.293C748.229 153.25 752.275 159.251 753.091 159.677C755.084 160.717 757.874 159.591 759.991 159.349C758.931 161.99 756.491 165.159 756.637 168.135C756.942 174.457 768.245 181.98 773.45 184.436C776.27 185.766 784.757 189.609 786.483 185.683C788.499 176.815 788.799 167.453 792.165 158.939C794.007 158.551 814.885 169.725 818.472 171.33C824.489 174.023 837.68 180.145 841.339 171.382C842.144 169.453 842.012 165.264 844.422 164.692C849.521 163.486 853.252 170.384 859.445 166.937C863.442 164.714 864.367 162.201 869.891 162.733C871.173 162.857 878.04 164.725 876.844 166.485C872.866 167.886 869.82 166.899 866.319 169.683C861.63 173.409 860.144 175.941 854.18 178.974C829.133 191.711 792.902 190.686 761.954 187.669V188.501C791.217 191.097 838.282 194.088 861.938 175.459C865.1 172.968 866.857 169.269 871.109 168.463C873.227 168.063 875.558 168.485 877.604 167.065C880.484 164.292 871.192 161.753 869.515 161.606V161.614ZM767.512 155.032C768.249 154.746 770.231 153.638 770.513 154.832L763 157.842C763.891 156.588 766.064 155.597 767.512 155.028V155.032ZM789.04 165.302C787.637 171.394 787.344 178.921 785.746 184.579C785.095 186.881 783.84 186.636 781.689 186.343C775.258 185.469 760.537 176.525 758.307 170.256C757.235 167.246 758.875 162.137 761.116 159.918C762.022 159.022 764.978 158.464 766.512 157.797C768.136 157.089 771.788 154.365 772.656 154.166C777.451 153.077 786.69 156.347 791.165 158.438C790.251 160.653 789.578 162.97 789.04 165.306V165.302ZM774.269 152.952C778.53 148.635 782.508 143.937 787.521 140.456C790.717 138.237 794.365 136.677 797.365 134.134C803.311 129.098 807.932 122.388 810.151 114.959C810.959 112.246 811.437 108.015 812.505 105.653C812.738 105.141 812.542 105.062 813.343 105.175C814.159 109.319 815.351 113.38 816.242 117.513C817.386 122.806 820.085 134.236 819.269 139.134C818.578 143.274 812.046 147.226 808.575 149.117C803.262 152.014 797.204 153.597 792.402 157.405C786.498 155.409 780.591 153.178 774.273 152.952H774.269Z" fill="white" style="fill:white;fill-opacity:1;"/>
</g>
<defs>
<clipPath id="clip0_348_1094">
<rect width="929.443" height="195.479" fill="white" style="fill:white;fill-opacity:1;"/>
</clipPath>
</defs>
</svg>
