<svg width="20" height="16" viewBox="0 0 20 16" fill="none" xmlns="http://www.w3.org/2000/svg">
<g clip-path="url(#clip0_1602_868)">
<path d="M12.9412 9.47808L10.6027 10.4681C8.88488 11.3634 7.97546 12.4553 7.1743 14.2097C6.92169 14.7629 6.75568 15.3671 6.5175 15.9057C6.49585 15.9494 6.48863 16.0077 6.43089 16.0077C5.93288 14.5227 5.3266 12.9867 4.22952 11.8439C3.13244 10.701 1.47961 10.0386 0 9.52176C0 9.46352 0.0577409 9.45625 0.101047 9.43441C0.981595 9.03404 1.82606 8.81566 2.69939 8.30611C4.77806 7.10502 5.71635 5.22695 6.43089 2.99219C6.48863 2.99219 6.49585 3.0577 6.5175 3.0941C7.12378 4.29519 7.30422 5.3507 8.17034 6.52267C9.32515 8.08773 11.1729 8.86662 12.9484 9.47808H12.9412Z" fill="#195fe6"/>
<path d="M19.9999 4.29437C19.9999 4.3526 19.9349 4.35988 19.8988 4.38172C19.5524 4.55643 19.1049 4.6729 18.7368 4.8476C17.0551 5.64833 16.2684 6.90765 15.7415 8.67654C15.6837 8.67654 15.6765 8.6183 15.6549 8.57462C15.3878 7.985 15.229 7.38809 14.897 6.81302C14.0814 5.41539 12.8472 4.86944 11.3965 4.32349C13.006 3.77754 14.2619 3.10784 15.063 1.5355C15.3012 1.0769 15.4311 0.545507 15.6549 0.108747C15.6765 0.07235 15.6837 0.00683594 15.7415 0.00683594C16.023 0.85124 16.355 1.69564 16.8963 2.40174C17.6542 3.39901 18.8523 3.90129 19.9999 4.30165V4.29437Z" fill="#195fe6"/>
</g>
<defs>
<clipPath id="clip0_1602_868">
<rect width="20" height="16" fill="white"/>
</clipPath>
</defs>
</svg>
